<svg width="10" height="16" viewBox="0 0 10 16" fill="none" xmlns="http://www.w3.org/2000/svg">
<path d="M7.68431 0H1.68058C1.23486 0 0.807401 0.177061 0.492231 0.492231C0.177061 0.807401 0 1.23486 0 1.68058V13.4794C0 13.9251 0.177061 14.3526 0.492231 14.6678C0.807401 14.9829 1.23486 15.16 1.68058 15.16H7.68431C8.13003 15.16 8.55749 14.9829 8.87266 14.6678C9.18783 14.3526 9.36489 13.9251 9.36489 13.4794V1.68058C9.36489 1.23486 9.18783 0.807401 8.87266 0.492231C8.55749 0.177061 8.13003 0 7.68431 0ZM8.11315 13.4794C8.11315 13.5932 8.06797 13.7022 7.98755 13.7827C7.90712 13.8631 7.79805 13.9083 7.68431 13.9083H1.68058C1.56685 13.9083 1.45777 13.8631 1.37735 13.7827C1.29692 13.7022 1.25174 13.5932 1.25174 13.4794V1.68058C1.25174 1.56685 1.29692 1.45777 1.37735 1.37735C1.45777 1.29692 1.56685 1.25174 1.68058 1.25174H7.68431C7.79805 1.25174 7.90712 1.29692 7.98755 1.37735C8.06797 1.45777 8.11315 1.56685 8.11315 1.68058V13.4794Z" fill="white"/>
<path d="M5.26194 12.1697H4.10292C3.93693 12.1697 3.77774 12.2356 3.66036 12.353C3.54299 12.4704 3.47705 12.6296 3.47705 12.7955C3.47705 12.9615 3.54299 13.1207 3.66036 13.2381C3.77774 13.3555 3.93693 13.4214 4.10292 13.4214H5.26194C5.42794 13.4214 5.58713 13.3555 5.7045 13.2381C5.82188 13.1207 5.88782 12.9615 5.88782 12.7955C5.88782 12.6296 5.82188 12.4704 5.7045 12.353C5.58713 12.2356 5.42794 12.1697 5.26194 12.1697Z" fill="white"/>
</svg>
