<svg width="237" height="237" viewBox="0 0 237 237" fill="none" xmlns="http://www.w3.org/2000/svg">
<path d="M80.2133 8.80977C95.6838 0.624619 113.995 4.3428 125.708 6.7183C171.848 16.0912 212.1 49.6839 229.326 102.578C233.355 114.959 251.718 177.896 207.012 215.117C167.496 248.013 104.426 239.388 63.8519 216.021C30.2379 196.655 -3.40196 158.234 0.588332 124.28C3.09356 102.926 18.2283 101.403 37.2241 62.2069C53.6631 28.2786 61.3079 18.8282 80.2133 8.80977Z" fill="#D6EFFF"/>
<path d="M198.295 230.816H60.0812C55.7939 230.816 52.2943 226.543 52.9787 222.282L82.7187 38.1162C83.261 34.7337 85.9987 31.8934 89.4079 31.8934H227.609C231.896 31.8934 235.357 36.1022 234.673 40.3497L204.946 224.516C204.403 227.911 201.704 230.816 198.295 230.816Z" fill="#019AFF"/>
<path d="M192.768 230.803H54.5671C50.2798 230.803 46.9997 226.956 47.6971 222.721L77.4499 38.1807C77.9923 34.8111 80.9107 32.3323 84.3199 32.3323H222.521C226.808 32.3323 230.088 36.1796 229.391 40.4141L199.638 224.967C199.096 228.324 196.19 230.803 192.768 230.803Z" fill="#66BFFA" fill-opacity="0.85"/>
<path d="M192.768 231.242H54.5671C52.3976 231.242 50.3444 230.3 48.9368 228.634C47.5292 226.982 46.9223 224.8 47.2709 222.657L77.0238 38.1033C77.6049 34.5142 80.6783 31.8934 84.3199 31.8934H222.521C224.69 31.8934 226.744 32.8359 228.151 34.4884C229.559 36.1409 230.166 38.3228 229.817 40.4659L200.077 225.032C199.483 228.621 196.423 231.242 192.768 231.242ZM84.3199 32.7584C81.0915 32.7584 78.3797 35.0694 77.8632 38.2453L48.1103 222.799C47.8004 224.696 48.3428 226.62 49.5825 228.079C50.8222 229.538 52.643 230.377 54.5542 230.377H192.755C195.983 230.377 198.695 228.066 199.212 224.89L228.965 40.3368C229.275 38.439 228.732 36.5153 227.493 35.0565C226.253 33.5976 224.432 32.7584 222.521 32.7584H84.3199Z" fill="black"/>
<path d="M189.591 224.993H59.4871C55.4451 224.993 52.3717 221.378 53.0174 217.389L81.0269 43.6419C81.5434 40.4659 84.2811 38.1292 87.4966 38.1292H217.601C221.643 38.1292 224.716 41.744 224.07 45.7333L196.061 219.481C195.557 222.657 192.82 224.993 189.591 224.993Z" fill="white"/>
<path d="M146.538 221.391H99.9454C99.713 221.391 99.5193 221.198 99.5193 220.965C99.5193 220.733 99.713 220.539 99.9454 220.539H146.538C146.77 220.539 146.964 220.733 146.964 220.965C146.964 221.198 146.77 221.391 146.538 221.391Z" fill="black"/>
<path d="M162.085 42.8671H138.957C136.103 42.8671 133.779 40.5562 133.779 37.6901H167.264C167.264 40.5432 164.939 42.8671 162.085 42.8671Z" fill="#66BFFA"/>
<path d="M160.433 99.1177H41.6149C39.4583 99.1177 38.3219 96.7938 38.6706 94.6636L42.4155 73.5035C42.6867 71.7994 44.4171 70.1469 46.1346 70.1469H164.965C167.122 70.1469 168.516 72.4965 168.168 74.6267L164.423 95.7868C164.152 97.478 162.163 99.1177 160.433 99.1177Z" fill="#019AFF"/>
<path d="M156.946 98.7303H33.4147C31.2581 98.7303 29.6052 96.7937 29.9538 94.6635L33.6988 73.5035C33.9699 71.7993 35.4421 70.5599 37.1596 70.5599H160.678C162.834 70.5599 164.487 72.4965 164.139 74.6267L160.394 95.7867C160.122 97.478 158.663 98.7303 156.946 98.7303Z" fill="white"/>
<path d="M156.946 99.1562H33.4146C32.2524 99.1562 31.1677 98.6527 30.4187 97.7748C29.6697 96.8969 29.3469 95.735 29.5276 94.5989L33.2726 73.4388C33.5825 71.5281 35.2225 70.1338 37.1596 70.1338H160.678C161.84 70.1338 162.925 70.6373 163.674 71.5152C164.423 72.3931 164.746 73.555 164.565 74.6911L160.82 95.8512C160.523 97.7619 158.883 99.1562 156.946 99.1562ZM37.1596 70.9859C35.6358 70.9859 34.3573 72.0703 34.112 73.5679L30.367 94.728C30.225 95.6188 30.4703 96.5225 31.0644 97.2068C31.6455 97.891 32.5107 98.2912 33.4146 98.2912H156.933C158.457 98.2912 159.735 97.2068 159.967 95.7092L163.712 74.5491C163.854 73.6583 163.609 72.7546 163.015 72.0703C162.434 71.3861 161.569 70.9859 160.665 70.9859H37.1596Z" fill="black"/>
<path d="M115.468 87.5887H69.0691C66.7318 87.5887 64.8335 85.6909 64.8335 83.3541C64.8335 81.0173 66.7318 79.1195 69.0691 79.1195H115.468C117.805 79.1195 119.703 81.0173 119.703 83.3541C119.703 85.678 117.805 87.5887 115.468 87.5887Z" fill="#BFE4FD"/>
<path d="M138.092 87.5241H131.067C128.73 87.5241 126.832 85.6263 126.832 83.2895C126.832 80.9527 128.73 79.0549 131.067 79.0549H138.092C140.43 79.0549 142.328 80.9527 142.328 83.2895C142.341 85.6263 140.43 87.5241 138.092 87.5241Z" fill="#BFE4FD"/>
<path d="M135.367 116.805H88.969C86.6317 116.805 84.7334 114.907 84.7334 112.57C84.7334 110.233 86.6317 108.335 88.969 108.335H135.367C137.705 108.335 139.603 110.233 139.603 112.57C139.603 114.907 137.705 116.805 135.367 116.805Z" fill="#66BFFA"/>
<path d="M145.491 131.806H125.927C123.59 131.806 121.692 129.909 121.692 127.572C121.692 125.235 123.59 123.337 125.927 123.337H145.491C147.829 123.337 149.727 125.235 149.727 127.572C149.74 129.909 147.842 131.806 145.491 131.806Z" fill="#66BFFA" fill-opacity="0.42"/>
<path d="M178.964 131.806H159.399C157.062 131.806 155.164 129.909 155.164 127.572C155.164 125.235 157.062 123.337 159.399 123.337H178.964C181.301 123.337 183.199 125.235 183.199 127.572C183.199 129.909 181.301 131.806 178.964 131.806Z" fill="#66BFFA" fill-opacity="0.42"/>
<path d="M185.924 163.992H135.212C132.875 163.992 130.977 162.094 130.977 159.757C130.977 157.421 132.875 155.523 135.212 155.523H185.924C188.261 155.523 190.159 157.421 190.159 159.757C190.159 162.094 188.261 163.992 185.924 163.992Z" fill="#66BFFA" fill-opacity="0.42"/>
<path d="M127.051 181.046H80.4976C78.1603 181.046 76.262 179.149 76.262 176.812C76.262 174.475 78.1603 172.577 80.4976 172.577H127.051C129.388 172.577 131.287 174.475 131.287 176.812C131.287 179.149 129.388 181.046 127.051 181.046Z" fill="#66BFFA" fill-opacity="0.42"/>
<path d="M170.105 181.046H141.346C139.009 181.046 137.111 179.149 137.111 176.812C137.111 174.475 139.009 172.577 141.346 172.577H170.105C172.442 172.577 174.34 174.475 174.34 176.812C174.353 179.149 172.455 181.046 170.105 181.046Z" fill="#66BFFA"/>
<path d="M151.212 197.533H122.454C120.116 197.533 118.218 195.635 118.218 193.299C118.218 190.962 120.116 189.064 122.454 189.064H151.212C153.55 189.064 155.448 190.962 155.448 193.299C155.461 195.635 153.562 197.533 151.212 197.533Z" fill="#66BFFA" fill-opacity="0.42"/>
<path d="M121.343 163.992H106.26C103.923 163.992 102.024 162.094 102.024 159.757C102.024 157.421 103.923 155.523 106.26 155.523H121.343C123.68 155.523 125.579 157.421 125.579 159.757C125.592 162.094 123.693 163.992 121.343 163.992Z" fill="#66BFFA" fill-opacity="0.42"/>
<path d="M165.236 147.557H143.425C141.088 147.557 139.19 145.659 139.19 143.322C139.19 140.986 141.088 139.088 143.425 139.088H165.236C167.574 139.088 169.472 140.986 169.472 143.322C169.472 145.659 167.574 147.557 165.236 147.557Z" fill="#66BFFA"/>
<path d="M210.924 61.6517L210.175 58.9276L207.089 59.0696C206.805 58.4757 206.469 57.8948 206.095 57.3655L207.722 54.7576L205.72 52.7694L203.125 54.4348C202.582 54.0604 202.014 53.7377 201.42 53.4665L201.523 50.381L198.799 49.6709L197.378 52.4079C196.732 52.3562 196.074 52.3562 195.415 52.4208L193.969 49.6967L191.244 50.4455L191.386 53.5311C190.792 53.8151 190.224 54.1508 189.682 54.5252L187.073 52.8985L185.084 54.9125L186.75 57.5075C186.376 58.0497 186.053 58.6178 185.782 59.2116L182.695 59.1084L181.985 61.8453L184.723 63.2655C184.671 63.911 184.671 64.5694 184.736 65.2279L182.011 66.6738L182.76 69.3979L185.846 69.2559C186.13 69.8498 186.466 70.4307 186.841 70.96L185.213 73.5679L187.215 75.5561L189.811 73.8907C190.353 74.2651 190.921 74.5879 191.515 74.859L191.412 77.9445L194.137 78.6546L195.557 75.9176C196.203 75.9693 196.862 75.9693 197.52 75.9047L198.966 78.6288L201.691 77.88L201.549 74.7944C202.143 74.5104 202.711 74.1747 203.254 73.8003L205.862 75.427L207.851 73.413L206.185 70.818C206.56 70.2758 206.882 69.7077 207.154 69.1139L210.24 69.2171L210.95 66.4802L208.213 65.06C208.264 64.4145 208.264 63.7561 208.2 63.0977L210.924 61.6517ZM198.385 71.1666C194.511 72.2253 190.521 69.953 189.462 66.0799C188.403 62.2068 190.676 58.2046 194.55 57.146C198.424 56.0873 202.414 58.3596 203.473 62.2327C204.545 66.1058 202.259 70.0951 198.385 71.1666Z" fill="white"/>
<path d="M194.356 79.1453L190.96 78.2544L191.063 75.1043C190.624 74.8848 190.198 74.6395 189.785 74.3813L187.138 76.0726L184.645 73.6067L186.311 70.9343C186.04 70.5341 185.795 70.108 185.575 69.6691L182.437 69.8111L181.507 66.4286L184.284 64.9439C184.245 64.4533 184.245 63.9627 184.271 63.4721L181.481 62.0261L182.372 58.6307L185.523 58.734C185.743 58.2951 185.988 57.869 186.247 57.4559L184.555 54.8093L187.021 52.3176L189.682 53.983C190.082 53.7119 190.508 53.4666 190.947 53.2471L190.805 50.1099L194.188 49.1804L195.661 51.9561C196.151 51.9174 196.642 51.9174 197.133 51.9432L198.579 49.1545L201.975 50.0454L201.872 53.1955C202.311 53.415 202.737 53.6602 203.15 53.9185L205.798 52.2272L208.29 54.6931L206.624 57.3655C206.895 57.7657 207.141 58.1918 207.36 58.6307L210.498 58.4887L211.428 61.8712L208.652 63.3559C208.69 63.8465 208.69 64.3371 208.664 64.8277L211.454 66.2736L210.563 69.6691L207.412 69.5658C207.192 70.0047 206.947 70.4308 206.689 70.8439L208.38 73.4905L205.914 75.9822L203.254 74.3168C202.853 74.5879 202.427 74.8332 201.988 75.0527L202.13 78.1899L198.747 79.1194L197.275 76.3437C196.784 76.3824 196.293 76.3824 195.803 76.3566L194.356 79.1453ZM191.838 77.596L193.904 78.1383L195.299 75.4529L195.583 75.4787C196.203 75.5304 196.836 75.5175 197.481 75.4658L197.765 75.44L199.186 78.1124L201.252 77.5444L201.11 74.5234L201.368 74.4072C201.949 74.136 202.492 73.8133 203.008 73.4518L203.241 73.284L205.798 74.8848L207.296 73.3614L205.669 70.8052L205.824 70.5728C206.185 70.0564 206.495 69.5012 206.766 68.9332L206.882 68.675L209.904 68.7783L210.447 66.7126L207.761 65.3183L207.786 65.0343C207.838 64.4146 207.825 63.782 207.773 63.1364L207.748 62.8524L210.421 61.4323L209.853 59.3666L206.831 59.5086L206.715 59.2504C206.443 58.6695 206.121 58.1143 205.759 57.6108L205.591 57.3784L207.192 54.8093L205.669 53.2988L203.125 54.9255L202.892 54.7705C202.376 54.409 201.82 54.0992 201.252 53.8281L200.994 53.7119L201.097 50.6909L199.031 50.1486L197.636 52.834L197.352 52.8082C196.732 52.7565 196.1 52.7694 195.454 52.8211L195.17 52.8469L193.749 50.1745L191.683 50.7425L191.825 53.7635L191.567 53.8797C190.986 54.1508 190.443 54.4736 189.927 54.8351L189.694 55.0029L187.138 53.402L185.64 54.9255L187.267 57.4688L187.112 57.7012C186.75 58.2176 186.44 58.7727 186.169 59.3408L186.053 59.599L183.031 59.4957L182.489 61.5614L185.175 62.9557L185.149 63.2397C185.097 63.8594 185.11 64.492 185.162 65.1375L185.188 65.4216L182.515 66.8417L183.083 68.9074L186.104 68.7653L186.221 69.0235C186.492 69.6045 186.815 70.1597 187.176 70.6632L187.344 70.8955L185.743 73.4647L187.267 74.9752L189.811 73.3485L190.043 73.5034C190.56 73.8649 191.115 74.1748 191.683 74.4459L191.941 74.5621L191.838 77.596ZM196.461 71.8509C195.144 71.8509 193.84 71.5023 192.665 70.831C190.883 69.8111 189.591 68.1586 189.049 66.1704C187.925 62.0778 190.34 57.8303 194.434 56.7071C196.422 56.1649 198.489 56.4231 200.284 57.443C202.066 58.4629 203.357 60.1154 203.899 62.1036C205.023 66.1962 202.608 70.4437 198.514 71.5669C197.83 71.7605 197.146 71.8509 196.461 71.8509ZM196.487 57.301C195.88 57.301 195.273 57.3784 194.666 57.5463C191.025 58.5404 188.881 62.3102 189.875 65.9509C190.353 67.7196 191.502 69.1785 193.091 70.0822C194.679 70.9859 196.526 71.2183 198.282 70.7406C201.924 69.7465 204.067 65.9767 203.073 62.336C202.595 60.5673 201.446 59.1084 199.857 58.2047C198.811 57.6108 197.649 57.301 196.487 57.301Z" fill="black"/>
<path d="M207.477 23.2822C207.335 23.2822 207.18 23.2693 207.038 23.2435C206.327 23.1273 205.708 22.74 205.281 22.159C204.868 21.5781 204.7 20.8551 204.817 20.1579C205.062 18.699 206.444 17.692 207.916 17.9373C208.626 18.0535 209.246 18.4408 209.672 19.0218C210.085 19.6028 210.253 20.3128 210.137 21.0229C210.021 21.733 209.633 22.3527 209.052 22.7787C208.574 23.1144 208.032 23.2822 207.477 23.2822ZM207.464 18.7507C206.586 18.7507 205.798 19.3962 205.656 20.287C205.578 20.7647 205.695 21.2553 205.979 21.6555C206.263 22.0557 206.689 22.3139 207.167 22.3914C207.658 22.4689 208.135 22.3527 208.536 22.0686C208.936 21.7846 209.194 21.3586 209.272 20.8809C209.349 20.4032 209.233 19.9126 208.949 19.5124C208.665 19.1122 208.239 18.854 207.761 18.7765C207.67 18.7636 207.567 18.7507 207.464 18.7507Z" fill="black"/>
<path d="M12.146 54.3961C12.004 54.3961 11.849 54.3832 11.7069 54.3574C10.2477 54.1121 9.24045 52.7307 9.48581 51.2589C9.60203 50.5488 9.98944 49.9291 10.5705 49.5031C11.1517 49.09 11.8619 48.9221 12.5721 49.0383C13.2824 49.1545 13.9022 49.5418 14.3284 50.1228C14.7416 50.7037 14.9095 51.4138 14.7933 52.1239C14.6771 52.834 14.2897 53.4536 13.7085 53.8797C13.2437 54.2154 12.7013 54.3961 12.146 54.3961ZM12.1331 49.8646C11.7586 49.8646 11.3841 49.9808 11.0613 50.2131C10.6609 50.4972 10.4027 50.9232 10.3252 51.4009C10.1573 52.395 10.8417 53.3504 11.8361 53.5053C12.3139 53.5827 12.8046 53.4666 13.2049 53.1825C13.6052 52.8985 13.8635 52.4725 13.941 51.9948C14.0185 51.5171 13.9022 51.0265 13.6181 50.6263C13.334 50.2261 12.9079 49.9679 12.4301 49.8904C12.3397 49.8775 12.2364 49.8646 12.1331 49.8646Z" fill="black"/>
<path d="M27.6436 60.0813C28.8832 58.6175 28.7011 56.4262 27.2369 55.187C25.7727 53.9477 23.5809 54.1298 22.3413 55.5936C21.1018 57.0575 21.2839 59.2487 22.7481 60.488C24.2123 61.7272 26.4041 61.5451 27.6436 60.0813Z" fill="#D6EFFF"/>
<path d="M192.755 18.3505C192.561 18.3505 192.355 18.3375 192.148 18.2988C190.147 17.9631 188.778 16.0653 189.113 14.0642C189.268 13.096 189.798 12.2439 190.598 11.6758C191.399 11.1078 192.368 10.8754 193.349 11.0303C194.318 11.1852 195.17 11.7145 195.738 12.515C196.306 13.3154 196.539 14.2837 196.384 15.2649C196.087 17.0723 194.524 18.3505 192.755 18.3505ZM189.966 14.2192C189.707 15.7555 190.753 17.2143 192.29 17.4596C193.039 17.5887 193.788 17.408 194.395 16.9691C195.015 16.5301 195.415 15.8717 195.531 15.1358C195.79 13.5995 194.744 12.1406 193.207 11.8953C192.458 11.7662 191.709 11.9469 191.102 12.3859C190.495 12.8119 190.095 13.4704 189.966 14.2192Z" fill="black"/>
<path d="M172.532 10.2557C172.403 10.2557 172.261 10.1912 172.184 10.075L170.789 8.1126C170.647 7.91895 170.699 7.64783 170.892 7.51873C171.086 7.37671 171.357 7.42835 171.486 7.62201L172.881 9.58438C173.023 9.77804 172.972 10.0492 172.778 10.1783C172.713 10.2299 172.623 10.2557 172.532 10.2557Z" fill="black"/>
<path d="M177.427 17.1111C177.298 17.1111 177.156 17.0465 177.078 16.9303L175.683 14.9679C175.541 14.7743 175.593 14.5032 175.787 14.3741C175.98 14.2321 176.252 14.2837 176.381 14.4774L177.775 16.4397C177.917 16.6334 177.866 16.9045 177.672 17.0336C177.595 17.0852 177.504 17.1111 177.427 17.1111Z" fill="black"/>
<path d="M169.898 15.8717C169.769 15.8717 169.64 15.8072 169.549 15.691C169.407 15.4973 169.459 15.2262 169.653 15.0971L171.603 13.6899C171.796 13.5479 172.068 13.5995 172.197 13.7932C172.339 13.9868 172.287 14.2579 172.093 14.387L170.143 15.7943C170.066 15.8459 169.976 15.8717 169.898 15.8717Z" fill="black"/>
<path d="M176.716 10.94C176.587 10.94 176.458 10.8754 176.368 10.7592C176.226 10.5656 176.277 10.2944 176.471 10.1653L178.421 8.75811C178.615 8.61609 178.886 8.66773 179.015 8.86139C179.157 9.05504 179.105 9.32616 178.912 9.45526L176.962 10.8625C176.897 10.9141 176.807 10.94 176.716 10.94Z" fill="black"/>
<path d="M12.0945 127.946C11.9653 127.946 11.8233 127.882 11.7458 127.766L10.3511 125.803C10.2091 125.61 10.2607 125.338 10.4545 125.209C10.6482 125.067 10.9193 125.119 11.0485 125.313L12.4431 127.275C12.5852 127.469 12.5335 127.74 12.3398 127.869C12.2753 127.92 12.1849 127.946 12.0945 127.946Z" fill="black"/>
<path d="M16.9888 134.802C16.8596 134.802 16.7176 134.737 16.6401 134.621L15.2454 132.659C15.1034 132.465 15.155 132.194 15.3487 132.065C15.5424 131.923 15.8136 131.974 15.9428 132.168L17.3374 134.13C17.4795 134.324 17.4278 134.595 17.2341 134.724C17.1566 134.776 17.0662 134.802 16.9888 134.802Z" fill="black"/>
<path d="M9.46006 133.549C9.33093 133.549 9.20179 133.485 9.1114 133.369C8.96935 133.175 9.021 132.904 9.21471 132.775L11.1647 131.368C11.3584 131.226 11.6295 131.277 11.7587 131.471C11.9007 131.665 11.8491 131.936 11.6554 132.065L9.70542 133.472C9.62794 133.524 9.53755 133.549 9.46006 133.549Z" fill="black"/>
<path d="M16.2784 128.631C16.1493 128.631 16.0202 128.566 15.9298 128.45C15.7877 128.256 15.8394 127.985 16.0331 127.856L17.983 126.449C18.1767 126.307 18.4479 126.358 18.577 126.552C18.7191 126.746 18.6674 127.017 18.4737 127.146L16.5238 128.553C16.4592 128.605 16.3688 128.631 16.2784 128.631Z" fill="black"/>
<path d="M95.3998 16.5689C104.788 16.5689 113.66 20.8164 122.983 31.8677L84.3587 31.9193C80.6913 31.9193 77.592 34.5401 77.0238 38.1679C76.3394 42.4671 76.3265 47.8507 77.0755 50.7039C78.1215 54.6674 79.1158 57.4818 79.9423 59.4313C80.9883 61.8842 80.1877 64.7374 78.0311 66.3254L76.3394 67.5648C73.9117 69.3335 70.5283 68.9591 68.5784 66.6869C66.0344 63.7304 62.7156 59.2893 60.5461 54.0993C55.1095 41.0986 59.2548 20.5841 77.3338 16.995C81.1949 16.2204 93.3982 16.5689 95.3998 16.5689Z" fill="#019AFF"/>
<path d="M98.8089 31.5836C97.8274 29.4017 95.2189 28.4851 93.0365 29.4534C91.3448 30.2022 89.1624 31.2866 88.5167 32.0742C87.7548 33.0166 86.5281 35.9602 87.5482 38.2066C88.4651 40.2206 91.0478 40.7499 92.804 39.3943C93.7209 38.6843 94.6765 37.4965 95.2705 35.5212C95.5934 34.4239 96.3424 33.4685 97.4013 33.0166C97.6854 32.8875 97.9953 32.7971 98.331 32.7584C98.7701 32.7068 99.0542 32.2678 98.9122 31.8418C98.8863 31.7514 98.8476 31.6739 98.8089 31.5836Z" fill="white"/>
<path d="M90.6345 40.5692C90.3117 40.5692 90.0018 40.5304 89.6789 40.453C88.5554 40.1819 87.6386 39.4202 87.1608 38.3744C86.0631 35.9731 87.2899 32.9133 88.181 31.8031C88.7362 31.1188 90.2988 30.2022 92.8557 29.0661C95.2834 27.9816 98.1244 29.0402 99.1962 31.4157C99.2479 31.519 99.2866 31.6223 99.3124 31.6998C99.4157 32.0225 99.377 32.3711 99.1962 32.6551C99.0154 32.9392 98.7184 33.1328 98.3697 33.1715C98.0986 33.1974 97.8274 33.2748 97.5562 33.391C96.6652 33.7783 95.9807 34.5917 95.6708 35.6245C95.1414 37.419 94.2632 38.8005 93.0623 39.7171C92.3649 40.2851 91.5126 40.5692 90.6345 40.5692ZM94.8573 29.4921C94.3149 29.4921 93.7467 29.6083 93.2172 29.8407C90.0405 31.2608 89.1236 32.0096 88.8654 32.3324C88.2068 33.1457 87.0058 35.9473 87.9614 38.0129C88.323 38.8134 89.0332 39.4072 89.8985 39.6138C90.8282 39.8462 91.7967 39.6396 92.5586 39.0458C93.6176 38.2324 94.3924 37.0059 94.8702 35.3792C95.2447 34.1011 96.1099 33.0812 97.2334 32.6035C97.582 32.4486 97.9307 32.3582 98.2793 32.3195C98.3956 32.3066 98.4472 32.242 98.4731 32.1904C98.4989 32.1516 98.5376 32.0742 98.4989 31.958C98.4731 31.8934 98.4472 31.8289 98.4085 31.7514C97.7757 30.3313 96.3552 29.4921 94.8573 29.4921Z" fill="black"/>
<path d="M82.4862 72.0188C82.7703 72.4965 83.0932 73.0646 83.3127 74.0845L84.1779 78.8484H81.3111C80.8333 78.8484 80.3813 79.0292 80.0197 79.339C79.6323 79.6747 79.4645 80.1782 79.5548 80.6817C79.7486 81.6887 80.4975 84.6193 80.5105 85.0841C80.5234 85.7683 80.6267 86.7366 80.1747 87.2918L80.0585 87.4338C79.5807 88.0018 78.6638 87.8598 78.3926 87.1756L75.8357 80.4622C75.5 79.6101 75.4742 78.6548 75.7583 77.7769L77.2433 73.2324C77.5791 72.2125 77.295 71.0893 76.5072 70.3534L70.9157 65.7057C68.8883 63.8208 72.6977 60.3479 72.6977 60.3479C73.9504 59.47 75.7066 59.8057 76.5331 61.0192L82.4862 72.0188Z" fill="white"/>
<path d="M79.3095 88.2212C79.2321 88.2212 79.1546 88.2212 79.0771 88.2083C78.5864 88.1309 78.1861 87.7952 78.0053 87.3304L75.4484 80.6041C75.0868 79.6617 75.0481 78.603 75.3709 77.6348L76.856 73.0903C77.1401 72.2253 76.8947 71.27 76.2361 70.6503L70.6704 66.0154C70.1667 65.5507 69.9214 64.9826 69.9214 64.3242C69.9343 62.3231 72.3362 60.1025 72.4266 59.9992C72.4395 59.9863 72.4524 59.9734 72.4654 59.9605C73.1627 59.4699 74.015 59.2892 74.8673 59.4441C75.6937 59.599 76.4427 60.0638 76.9076 60.7351C76.9205 60.748 76.9205 60.7609 76.9334 60.7739L82.8737 71.7735C83.1965 72.3028 83.5323 72.9096 83.7389 73.9682L84.6041 78.745C84.6299 78.8742 84.5912 79.0033 84.5137 79.0936C84.4362 79.1969 84.3071 79.2485 84.1909 79.2485H81.3241C80.9625 79.2485 80.6009 79.3906 80.3168 79.6359C80.0456 79.8682 79.9294 80.2297 79.994 80.5783C80.0714 80.9656 80.2264 81.6499 80.3943 82.3599C80.7429 83.8317 80.9496 84.7354 80.9496 85.0453C80.9496 85.1357 80.9496 85.2389 80.9625 85.3422C80.9883 86.0523 81.0141 86.9302 80.5234 87.537L80.3943 87.679C80.1102 88.0405 79.7228 88.2212 79.3095 88.2212ZM72.9819 60.6835C72.3491 61.2774 70.7737 63.0203 70.7737 64.35C70.7737 64.7631 70.9157 65.0988 71.2257 65.3958L76.7914 70.0306C77.7083 70.8956 78.044 72.1995 77.6566 73.3743L76.1716 77.9188C75.9133 78.7063 75.9391 79.5455 76.2361 80.3201L78.793 87.0464C78.8576 87.2271 79.0125 87.3433 79.2062 87.3821C79.3999 87.4079 79.5936 87.3433 79.7228 87.1884L79.839 87.0464C80.1231 86.6978 80.0973 85.9877 80.0844 85.4197C80.0844 85.3164 80.0714 85.2131 80.0714 85.1098C80.0714 84.8775 79.7486 83.509 79.542 82.6052C79.3741 81.8823 79.2062 81.1851 79.1288 80.7849C78.9996 80.1394 79.2321 79.468 79.7228 79.042C80.1618 78.6547 80.7171 78.4481 81.2982 78.4481H83.6485L82.8737 74.1877C82.68 73.2711 82.4088 72.7547 82.1118 72.2641L82.0989 72.2511L76.1716 61.2644C75.8358 60.7868 75.3063 60.4511 74.6994 60.3478C74.0925 60.2058 73.4855 60.3349 72.9819 60.6835Z" fill="black"/>
<path d="M90.7765 24.3924C91.0477 24.3279 91.2931 24.1988 91.4997 24.0181L94.7797 21.3069C95.1284 21.0874 95.5804 21.1132 95.8903 21.3843L98.2276 23.3725C98.5247 23.6178 98.9637 23.6436 99.2866 23.4242L102.244 21.3973L103.69 21.862C103.806 21.9008 103.923 21.8362 103.961 21.72L104.917 19.0605C105.317 18.1309 106.712 16.6204 106.35 16.2718C106.35 16.2718 102.102 6.86021 97.4399 9.06787C96.7684 9.39063 96.239 9.95869 95.9419 10.6429L95.3092 12.076C94.6764 13.509 91.4738 16.8012 88.1034 17.6533C87.6514 17.7694 86.4892 17.8598 85.5853 17.9115C84.9138 17.9502 84.4618 18.6086 84.6426 19.2541C84.8621 20.0288 85.2624 21.0874 86.0114 22.3268C86.9928 23.9535 88.8782 24.8185 90.7249 24.3924C90.7507 24.4054 90.7636 24.3924 90.7765 24.3924Z" fill="white"/>
<path d="M89.7951 24.9348C88.1421 24.9348 86.5667 24.0569 85.6627 22.5464C85.03 21.4877 84.5521 20.4162 84.2551 19.3704C84.126 18.9315 84.2164 18.4667 84.4747 18.0923C84.7329 17.7308 85.1333 17.4984 85.5852 17.4726C86.8249 17.3951 87.6901 17.3048 88.0259 17.2273C91.1639 16.4269 94.3277 13.2767 94.9347 11.8953L95.5545 10.4623C95.9032 9.66184 96.5101 9.02923 97.2591 8.66774C98.2405 8.20297 99.2607 8.16424 100.307 8.55155C103.755 9.82967 106.402 15.3424 106.712 16.0266C107.086 16.4914 106.609 17.2015 106.002 18.0794C105.73 18.4796 105.446 18.8927 105.304 19.2155L104.362 21.8621C104.245 22.1978 103.884 22.3656 103.548 22.2623L102.308 21.8621L99.519 23.7728C99.0412 24.1085 98.3826 24.0698 97.9435 23.6954L95.5932 21.7072C95.4254 21.5652 95.1929 21.5523 94.9992 21.6555L91.745 24.3538C91.4738 24.5733 91.1639 24.7282 90.8411 24.8057L90.8023 24.8186C90.4924 24.896 90.1437 24.9348 89.7951 24.9348ZM98.8991 9.14543C98.473 9.14543 98.0468 9.24871 97.6336 9.44236C97.0654 9.71348 96.6134 10.1912 96.3422 10.7979L95.7095 12.231C95.0509 13.7286 91.8096 17.1498 88.2196 18.0536C87.8322 18.1568 86.967 18.2472 85.624 18.3247C85.4303 18.3376 85.2624 18.428 85.1591 18.5829C85.0429 18.7378 85.017 18.9444 85.0687 19.1251C85.2624 19.7965 85.6369 20.8551 86.3859 22.0945C87.2898 23.5921 88.9944 24.3409 90.6344 23.9665L90.6732 23.9536C90.8669 23.9019 91.0606 23.8116 91.2285 23.6696L94.5085 20.9584C94.5214 20.9455 94.5343 20.9326 94.5602 20.9197C95.0638 20.6098 95.7224 20.6485 96.1743 21.0358L98.5246 23.024C98.6796 23.1531 98.8991 23.1531 99.067 23.0499L102.024 21.0229C102.127 20.9455 102.27 20.9326 102.399 20.9713L103.651 21.3715L104.529 18.9056C104.529 18.8927 104.542 18.8927 104.542 18.8798C104.71 18.4925 105.02 18.0407 105.317 17.6017C105.563 17.2402 105.937 16.698 105.989 16.4656C105.989 16.4527 105.976 16.4527 105.976 16.4398C105.95 16.3752 103.29 10.5656 100.023 9.3649C99.6352 9.22289 99.2607 9.14543 98.8991 9.14543Z" fill="black"/>
<path d="M113.259 12.5537C112.161 10.4881 110.354 11.4176 109.308 5.54343C108.675 2.01891 105.847 5.65962 105.601 4.7559C104.71 1.43794 104.749 1.55413 103.548 0.392204C102.76 -0.369506 100.707 0.0565353 99.5578 0.99899C98.034 2.23838 96.5102 5.69835 94.7152 9.05504C93.7854 10.7979 94.5732 13.5349 97.8532 13.0056C98.8863 12.8378 98.9508 11.2369 99.8548 11.4305C102.192 11.9082 100.268 13.8835 101.65 14.5807C102.967 15.252 103.677 15.4198 105.369 15.9492C107.422 16.5818 107.358 18.996 110.625 18.131C112.303 17.6662 114.757 15.3811 113.259 12.5537Z" fill="black"/>
<path d="M203.951 207.216C204.119 207.474 210.46 216.537 210.46 216.537C210.46 216.537 209.568 219.674 207.928 220.126L200.387 211.98L203.951 207.216Z" fill="white"/>
<path d="M207.915 220.552C207.799 220.552 207.683 220.501 207.605 220.41L200.064 212.264C199.922 212.109 199.909 211.876 200.038 211.722L203.602 206.958C203.693 206.841 203.822 206.79 203.964 206.79C204.106 206.79 204.235 206.867 204.312 206.983C204.454 207.216 209.052 213.774 210.808 216.292C210.885 216.395 210.898 216.524 210.873 216.653C210.769 217.002 209.865 220.049 208.044 220.539C207.993 220.552 207.954 220.552 207.915 220.552ZM200.942 211.941L208.044 219.623C209 219.145 209.71 217.454 209.981 216.602C209.09 215.324 205.139 209.682 203.938 207.939L200.942 211.941Z" fill="black"/>
<path d="M214.708 218.938C214.708 218.938 212.823 226.259 209.659 230.028C206.495 233.798 201.252 232.443 201.252 232.443C201.252 232.443 200.865 229.254 201.523 228.428C202.182 227.601 205.811 223.173 205.811 219.197L207.425 216.744L208.561 218.215L210.085 215.078L214.708 218.938Z" fill="white"/>
<path d="M203.486 233.114C202.169 233.114 201.226 232.882 201.136 232.856C200.968 232.817 200.839 232.662 200.813 232.494C200.748 231.939 200.438 229.086 201.174 228.169L201.239 228.079C204.648 223.806 205.358 220.901 205.358 219.21C205.358 219.119 205.384 219.042 205.423 218.977L207.037 216.524C207.115 216.408 207.244 216.331 207.373 216.331C207.515 216.331 207.644 216.382 207.735 216.498L208.458 217.428L209.685 214.91C209.736 214.794 209.852 214.704 209.982 214.678C210.111 214.652 210.24 214.678 210.343 214.768L214.966 218.629C215.095 218.732 215.147 218.9 215.108 219.068C215.031 219.365 213.158 226.53 209.969 230.325C208.044 232.623 205.384 233.114 203.486 233.114ZM201.639 232.081C202.75 232.288 206.792 232.778 209.323 229.757C212.048 226.504 213.843 220.423 214.217 219.093L210.227 215.763L208.936 218.409C208.871 218.538 208.742 218.629 208.6 218.642C208.458 218.654 208.303 218.59 208.212 218.474L207.438 217.48L206.224 219.326C206.198 221.172 205.397 224.245 201.923 228.608L201.859 228.699C201.51 229.125 201.523 230.842 201.639 232.081Z" fill="black"/>
<path d="M212.151 219.481C212.151 219.481 210.162 230.3 202.505 231.113L212.151 219.481Z" fill="white"/>
<path d="M202.505 231.539C202.285 231.539 202.104 231.371 202.079 231.152C202.053 230.919 202.221 230.7 202.466 230.674C209.71 229.912 211.712 219.506 211.725 219.39C211.764 219.158 211.996 219.003 212.229 219.042C212.461 219.08 212.616 219.313 212.577 219.545C212.5 219.997 210.434 230.687 202.556 231.526C202.531 231.539 202.518 231.539 202.505 231.539Z" fill="black"/>
<path d="M200.025 215.827C200.064 216.214 199.664 221.65 197.972 225.058C197.972 225.058 199.237 227.575 201.626 227.124C201.626 227.124 204.584 220.63 205.165 215.698L200.025 215.827Z" fill="white"/>
<path d="M201.084 227.601C199.289 227.601 198.037 226.117 197.597 225.239C197.533 225.122 197.533 224.98 197.597 224.851C199.186 221.65 199.638 216.382 199.599 215.853C199.586 215.737 199.638 215.62 199.715 215.53C199.793 215.44 199.909 215.388 200.025 215.388L205.165 215.259C205.294 215.246 205.41 215.311 205.488 215.401C205.565 215.491 205.617 215.62 205.591 215.737C205.01 220.681 202.143 227.02 202.014 227.291C201.962 227.421 201.846 227.511 201.704 227.537C201.484 227.575 201.278 227.601 201.084 227.601ZM198.463 225.032C198.773 225.536 199.754 226.904 201.33 226.723C201.82 225.613 204.054 220.371 204.674 216.124L200.438 216.227C200.361 217.699 199.857 222.05 198.463 225.032Z" fill="black"/>
<path d="M203.486 223.909C203.486 223.909 203.938 229.138 203.499 231.9C203.395 232.598 202.892 233.153 202.22 233.372C200.09 234.031 193.697 236.057 187.628 235.864C186.233 235.825 185.497 234.883 185.316 234.353C184.813 232.894 185.51 230.919 187.667 228.97C190.792 226.142 198.036 221.869 198.036 221.869L200.232 224.516L199.663 227.111L203.486 223.909Z" fill="white"/>
<path d="M188.468 236.303C188.183 236.303 187.899 236.303 187.602 236.29C185.936 236.238 185.11 235.089 184.903 234.495C184.296 232.739 185.2 230.609 187.37 228.66C190.495 225.832 197.52 221.688 197.817 221.507C197.998 221.404 198.23 221.443 198.359 221.598L200.555 224.244C200.645 224.348 200.671 224.477 200.645 224.606L200.348 225.974L203.202 223.586C203.331 223.483 203.499 223.457 203.641 223.521C203.783 223.586 203.886 223.728 203.899 223.883C203.912 224.102 204.338 229.202 203.899 231.978C203.77 232.83 203.163 233.527 202.324 233.785L202.22 233.824C199.999 234.508 194.24 236.303 188.468 236.303ZM197.933 222.424C196.513 223.276 190.637 226.852 187.938 229.292C186.066 230.984 185.239 232.83 185.717 234.224C185.833 234.547 186.388 235.399 187.641 235.438C193.543 235.631 199.677 233.721 201.988 232.998L202.091 232.959C202.608 232.791 202.995 232.365 203.073 231.836C203.396 229.809 203.228 226.349 203.124 224.774L199.948 227.433C199.806 227.55 199.612 227.562 199.444 227.472C199.289 227.382 199.212 227.188 199.25 227.02L199.78 224.632L197.933 222.424Z" fill="black"/>
<path d="M200.671 231.733C200.671 231.733 195.712 233.966 188.016 234.16L200.671 231.733Z" fill="white"/>
<path d="M188.016 234.586C187.783 234.586 187.59 234.405 187.59 234.173C187.59 233.94 187.77 233.734 188.003 233.734C195.531 233.553 200.452 231.371 200.49 231.345C200.71 231.242 200.955 231.345 201.058 231.565C201.162 231.784 201.058 232.029 200.839 232.133C200.645 232.21 195.725 234.392 188.016 234.586Z" fill="black"/>
<path d="M189.036 144.807C189.036 144.807 179.48 165.967 179.454 180.414C179.415 194.861 201.949 214.794 201.949 214.794L206.172 211.128C206.172 211.128 197.042 199.147 195.609 188.367C194.175 177.587 200.141 161.229 200.141 161.229L201.769 146.847L189.036 144.807Z" fill="black"/>
<path d="M211.919 144.807C211.919 144.807 217.071 176.554 205.991 218.409L198.127 217.131C198.127 217.131 202.479 180.775 193.853 161.436L191.928 143.955L211.919 144.807Z" fill="black"/>
<path d="M198.037 180.879C197.791 180.879 197.611 180.685 197.611 180.453C197.636 175.715 196.293 166.664 194.395 163.876C194.266 163.682 194.318 163.411 194.511 163.282C194.705 163.153 194.976 163.205 195.105 163.398C197.171 166.419 198.502 175.676 198.476 180.466C198.463 180.685 198.282 180.879 198.037 180.879Z" fill="white"/>
<path d="M198.695 208.223C198.682 208.223 198.682 208.223 198.669 208.223C198.437 208.21 198.256 208.003 198.269 207.771C198.514 203.343 198.385 197.765 198.385 197.701C198.385 197.469 198.566 197.262 198.798 197.262C199.031 197.262 199.237 197.443 199.237 197.675C199.237 197.727 199.367 203.356 199.121 207.81C199.108 208.055 198.915 208.223 198.695 208.223Z" fill="#99B9FF"/>
<path d="M209.775 96.2385C210.666 98.033 209.401 98.6656 210.02 102.151C210.472 104.708 211.402 105.689 210.782 106.967C210.227 108.116 208.91 108.529 208.032 108.8C204.054 110.04 200.219 108.026 197.869 106.786C195.971 105.779 193.349 104.411 193.53 103.016C193.698 101.648 196.397 101.829 197.662 99.5306C198.682 97.6716 197.507 96.5096 198.579 94.9475C199.961 92.9205 203.202 92.998 203.719 93.0109C205.798 93.0755 208.665 94.0179 209.775 96.2385Z" fill="black"/>
<path d="M187.538 106.851L197.998 109.472C198.192 109.51 198.385 109.407 198.45 109.226C199.16 107.225 198.049 104.979 197.727 104.398C197.675 104.308 197.585 104.243 197.494 104.217C196.978 104.075 196.513 103.894 196.087 103.675C195.57 103.404 195.351 102.758 195.596 102.229C195.983 101.364 196.397 100.202 196.629 99.7115C196.681 99.5953 196.681 99.4533 196.616 99.35C196.435 99.0918 196.164 98.8853 196.19 98.485C196.203 98.3301 196.306 98.201 196.448 98.1623C197.765 97.775 198.773 95.7997 199.651 95.2058C200.064 94.9218 200.348 94.8443 200.826 94.5861C200.903 94.5474 200.994 94.5216 201.084 94.5474C203.318 95.038 199.896 97.8008 202.815 99.4275C202.957 99.5049 203.047 99.6728 203.008 99.8406C202.957 100.086 202.97 100.409 202.995 100.706C202.995 100.706 202.995 100.706 202.995 100.719C203.021 101.015 203.383 101.17 203.615 100.977C204.054 100.615 204.506 100.512 204.777 100.667C205.152 100.886 205.126 101.622 204.997 102.061C204.726 102.939 203.822 103.339 203.305 103.494C203.112 103.559 202.995 103.765 203.047 103.959C203.396 105.16 204.442 108.917 204.519 110.621C204.532 110.801 204.648 110.944 204.816 110.982L206.818 111.421C209.827 112.08 213.391 113.9 215.689 115.94C215.689 115.94 219.925 119.245 219.718 119.464C213.507 125.777 201.291 121.827 196.784 119.826C192.406 117.876 187.254 106.786 187.538 106.851Z" fill="white"/>
<path d="M210.162 123.311C203.899 123.311 197.649 120.665 196.616 120.2C194.253 119.154 191.786 115.681 190.133 112.957C189.229 111.46 186.931 107.277 187.112 106.722C187.176 106.515 187.409 106.386 187.615 106.425H187.628L198.037 109.033C198.643 107.238 197.675 105.224 197.339 104.604C196.81 104.462 196.306 104.269 195.854 104.023C195.144 103.649 194.834 102.771 195.17 102.022C195.351 101.609 195.544 101.132 195.712 100.693C195.906 100.215 196.074 99.7889 196.203 99.5177C196.177 99.479 196.138 99.4403 196.112 99.4016C195.932 99.1821 195.699 98.8851 195.738 98.4204C195.764 98.0976 195.996 97.8136 196.306 97.7232C196.991 97.5166 197.649 96.7291 198.23 96.032C198.631 95.5414 199.005 95.0895 199.392 94.8313C199.677 94.6376 199.909 94.5344 200.141 94.4182C200.283 94.3536 200.426 94.2891 200.593 94.1858C200.774 94.0954 200.968 94.0567 201.149 94.0954C201.614 94.1987 201.923 94.3923 202.104 94.6893C202.414 95.1799 202.272 95.7608 202.13 96.3805C201.898 97.3617 201.691 98.2913 202.995 99.0142C203.305 99.1821 203.473 99.5436 203.409 99.8792C203.383 99.9825 203.37 100.189 203.396 100.538C203.951 100.112 204.558 99.9954 204.971 100.241C205.591 100.602 205.552 101.57 205.384 102.126C205.074 103.158 204.054 103.636 203.447 103.83C203.873 105.314 204.829 108.813 204.919 110.517L206.882 110.943C209.956 111.615 213.597 113.474 215.948 115.565C220.08 118.793 220.106 119.154 220.119 119.361C220.132 119.477 220.08 119.632 219.99 119.71C217.407 122.434 213.778 123.311 210.162 123.311ZM188.196 107.458C189.242 109.846 193.401 117.85 196.965 119.425C198.527 120.123 212.293 125.945 219.189 119.387C218.647 118.832 216.981 117.45 215.457 116.262C213.184 114.248 209.697 112.467 206.753 111.821L204.752 111.382C204.39 111.305 204.132 110.995 204.119 110.621C204.041 108.955 202.982 105.172 202.66 104.062C202.53 103.636 202.776 103.197 203.202 103.068C203.641 102.926 204.403 102.603 204.622 101.919C204.752 101.493 204.687 101.067 204.597 101.028C204.545 101.002 204.287 101.002 203.925 101.299C203.693 101.493 203.383 101.532 203.099 101.416C202.827 101.299 202.634 101.041 202.608 100.744C202.569 100.344 202.569 100.021 202.621 99.7759C200.774 98.7431 201.123 97.2197 201.355 96.2127C201.459 95.7867 201.549 95.3477 201.433 95.167C201.368 95.0637 201.187 94.9991 201.045 94.9604C200.865 95.0637 200.697 95.1411 200.555 95.2057C200.335 95.309 200.154 95.3993 199.922 95.5543C199.638 95.7479 199.289 96.1611 198.928 96.6C198.282 97.3875 197.546 98.2654 196.629 98.5624C196.629 98.6657 196.681 98.7302 196.81 98.898C196.861 98.9626 196.926 99.0401 196.978 99.1175C197.133 99.3499 197.145 99.6468 197.029 99.9051C196.913 100.137 196.745 100.576 196.564 101.041C196.396 101.48 196.19 101.984 196.009 102.397C195.867 102.732 195.996 103.12 196.306 103.288C196.706 103.494 197.145 103.675 197.623 103.804C197.843 103.869 198.024 103.998 198.127 104.191C198.501 104.863 199.638 107.212 198.876 109.368C198.734 109.756 198.334 109.975 197.933 109.898L188.196 107.458Z" fill="black"/>
<path d="M199.315 104.992C198.811 104.992 198.23 104.914 197.623 104.682C197.404 104.605 197.288 104.346 197.378 104.127C197.455 103.907 197.714 103.791 197.933 103.882C199.367 104.424 200.606 103.933 200.619 103.92C200.839 103.83 201.084 103.933 201.175 104.153C201.265 104.372 201.162 104.617 200.942 104.708C200.89 104.734 200.245 104.992 199.315 104.992Z" fill="black"/>
<path d="M208.225 95.309C208.225 95.309 208.897 91.2293 212.138 92.3396C215.367 93.437 212.241 96.7937 209.788 97.0519C207.347 97.3101 208.225 95.309 208.225 95.309Z" fill="black"/>
<path d="M153.11 91.4617C153.11 91.4617 152 89.1249 151.819 88.0017C151.354 85.2131 150.385 81.7144 148.345 79.3776C147.622 78.5513 146.718 77.9058 145 77.738C142.676 77.5056 139.473 75.4528 139.034 77.6089C138.647 79.468 141.708 79.1839 142.844 80.5266C143.438 81.2238 145.995 84.0899 144.264 85.5358C143.025 86.5686 141.54 86.1168 141.165 86.8139C140.959 87.2013 141.049 87.666 141.346 88.0017C142.314 89.1378 145.233 88.0404 145.233 88.0404C145.827 87.7951 146.537 88.5181 146.873 89.0733L149.275 92.9205L153.11 91.4617Z" fill="white"/>
<path d="M149.107 93.437L146.511 89.2928C146.163 88.7377 145.633 88.3375 145.401 88.4278C145.052 88.5569 142.147 89.6027 141.023 88.2729C140.597 87.7823 140.52 87.1239 140.791 86.6075C141.062 86.104 141.617 86.0007 142.211 85.8974C142.779 85.7941 143.425 85.6779 143.993 85.2002C144.252 84.9808 144.394 84.7096 144.432 84.3869C144.536 83.1604 143.089 81.4562 142.612 80.8882L142.534 80.7978C142.147 80.346 141.436 80.0877 140.739 79.8425C139.667 79.4551 138.324 78.9904 138.634 77.5186C138.737 77.0151 138.983 76.6536 139.344 76.4341C140.171 75.9435 141.449 76.3308 142.792 76.7569C143.567 77.0022 144.368 77.2475 145.065 77.312C147.054 77.5057 148.009 78.319 148.681 79.0936C150.85 81.5724 151.819 85.2648 152.258 87.9243C152.426 88.9701 153.498 91.2423 153.511 91.2681L153.704 91.6812L149.107 93.437ZM145.491 87.5499C146.227 87.5499 146.912 88.3116 147.248 88.828L149.469 92.3784L152.542 91.2165C152.206 90.4806 151.561 88.9442 151.406 88.0663C150.992 85.5101 150.063 81.9856 148.035 79.6617C147.441 78.9775 146.653 78.3319 144.975 78.1641C144.2 78.0866 143.348 77.8284 142.534 77.5702C141.424 77.2216 140.287 76.8731 139.783 77.17C139.68 77.2346 139.538 77.3508 139.474 77.6864C139.332 78.3578 139.809 78.6031 141.023 79.0291C141.785 79.3002 142.65 79.6101 143.193 80.2427L143.27 80.333C143.864 81.0302 145.427 82.8764 145.298 84.4514C145.246 85.0066 145.001 85.4843 144.562 85.8458C143.813 86.4655 142.986 86.6204 142.379 86.7237C142.005 86.7882 141.643 86.8528 141.566 86.9948C141.424 87.2401 141.54 87.5241 141.695 87.7048C142.327 88.4407 144.419 87.8727 145.104 87.6145C145.22 87.5757 145.349 87.5499 145.491 87.5499Z" fill="black"/>
<path d="M213.507 153.044C213.507 153.044 209.697 150.514 207.657 150.075C206.417 149.804 204.855 150.501 204.054 151.043C203.641 151.314 203.68 151.934 204.132 152.153C204.868 152.515 205.952 152.721 206.495 153.044C207.786 153.819 210.085 159.422 216.58 155.29L215.728 152.192L213.507 153.044Z" fill="white"/>
<path d="M212.241 157.227C209.646 157.227 208.083 155.407 207.089 154.245C206.766 153.87 206.469 153.522 206.275 153.406C206.043 153.264 205.63 153.134 205.204 152.992C204.777 152.85 204.325 152.708 203.951 152.528C203.602 152.36 203.383 152.024 203.357 151.637C203.331 151.25 203.512 150.888 203.835 150.669C204.816 150.01 206.43 149.352 207.76 149.649C209.62 150.062 212.771 152.037 213.572 152.566L215.586 151.805C215.702 151.766 215.831 151.766 215.935 151.818C216.038 151.869 216.128 151.972 216.154 152.089L217.007 155.187C217.058 155.368 216.981 155.562 216.826 155.665C215.005 156.788 213.494 157.227 212.241 157.227ZM207.063 150.436C206.133 150.436 205.023 150.888 204.287 151.392C204.196 151.456 204.183 151.546 204.183 151.585C204.183 151.624 204.196 151.714 204.3 151.766C204.622 151.921 205.036 152.063 205.436 152.179C205.914 152.334 206.366 152.476 206.689 152.67C207.011 152.863 207.321 153.225 207.722 153.69C209.181 155.381 211.363 157.937 216.051 155.097L215.405 152.773L213.636 153.444C213.507 153.496 213.365 153.483 213.249 153.406C213.21 153.38 209.491 150.914 207.541 150.488C207.399 150.449 207.244 150.436 207.063 150.436Z" fill="black"/>
<path d="M147.519 91.5263L152.839 89.3186C152.839 89.3186 165.43 97.9944 170.712 100.37C176.264 102.862 189.565 106.528 193.362 107.548C193.956 107.703 194.356 108.232 194.382 108.839C194.46 111.008 195.196 116.03 200.232 117.554C206.96 119.58 211.118 116.004 212.706 114.184C213.171 113.655 213.959 113.564 214.54 113.964C218.75 116.869 233.794 127.946 235.124 138.339C236.558 151.017 215.87 157.098 215.87 157.098L214.359 151.701C214.359 151.701 220.997 147.648 220.222 140.96C218.918 136.015 216.813 134.711 215.289 134.208C214.476 133.937 213.74 134.402 213.623 135.241C212.978 139.914 213.197 143.297 213.455 145.207C213.597 146.253 212.887 147.234 211.854 147.454C198.011 150.281 185.33 145.659 180.022 143.051C178.137 142.122 177.078 140.069 177.401 137.978C178.253 132.491 180.022 125.984 181.004 122.576C181.352 121.388 180.552 120.174 179.312 120.032C176.639 119.722 173.837 119.077 170.996 117.98C152.981 110.982 147.519 91.5263 147.519 91.5263Z" fill="white"/>
<path d="M215.586 157.627L213.868 151.508L214.14 151.34C214.204 151.301 220.519 147.351 219.809 141.037C218.543 136.235 216.554 135.073 215.173 134.621C214.901 134.531 214.643 134.556 214.437 134.685C214.23 134.815 214.101 135.034 214.062 135.318C213.429 139.875 213.623 143.18 213.894 145.169C214.062 146.434 213.21 147.635 211.957 147.893C196.822 150.991 183.56 145.272 179.854 143.452C177.788 142.432 176.639 140.211 177 137.939C177.865 132.426 179.635 125.894 180.616 122.485C180.745 122.033 180.668 121.556 180.409 121.168C180.151 120.781 179.751 120.536 179.286 120.484C176.367 120.136 173.539 119.438 170.866 118.406C161.439 114.752 155.486 107.677 152.154 102.384C148.539 96.6645 147.131 91.7199 147.118 91.6682L147.015 91.3067L152.903 88.8538L153.097 88.9829C153.226 89.0732 165.714 97.6715 170.905 99.9954C176.406 102.461 189.591 106.102 193.491 107.148C194.266 107.354 194.795 108.039 194.834 108.839C194.911 110.853 195.596 115.707 200.374 117.153C206.921 119.129 210.963 115.552 212.396 113.913C213.003 113.216 214.036 113.099 214.798 113.616C219.331 116.753 234.22 127.791 235.576 138.287C236.183 143.658 232.968 148.68 226.291 152.837C221.307 155.936 216.077 157.498 216.025 157.511L215.586 157.627ZM214.863 151.895L216.167 156.556C219.06 155.613 235.963 149.584 234.698 138.391C233.394 128.243 218.75 117.399 214.295 114.313C213.894 114.029 213.352 114.106 213.029 114.468C211.492 116.224 207.14 120.084 200.115 117.967C194.795 116.366 194.046 111.06 193.956 108.865C193.943 108.439 193.659 108.077 193.245 107.974C189.32 106.915 176.083 103.262 170.53 100.77C165.559 98.5494 154.44 90.9581 152.774 89.8091L148.035 91.7844C148.9 94.4698 154.892 111.279 171.163 117.592C173.772 118.599 176.535 119.283 179.376 119.619C180.087 119.697 180.719 120.097 181.107 120.691C181.507 121.285 181.623 122.02 181.417 122.718C180.448 126.1 178.679 132.594 177.827 138.068C177.53 139.979 178.485 141.838 180.216 142.69C183.857 144.484 196.9 150.1 211.776 147.054C212.603 146.886 213.158 146.111 213.042 145.285C212.771 143.258 212.577 139.85 213.21 135.202C213.287 134.673 213.558 134.234 213.985 133.962C214.411 133.704 214.927 133.64 215.444 133.82C217.923 134.634 219.628 136.945 220.661 140.87L220.674 140.934C221.371 147.079 216.154 151.017 214.863 151.895Z" fill="black"/>
<path d="M196.229 142.871C196.177 142.871 196.125 142.858 196.061 142.845C184.916 138.275 183.289 125.713 183.276 125.584C183.25 125.351 183.418 125.132 183.651 125.106C183.883 125.08 184.103 125.248 184.129 125.48C184.142 125.597 185.717 137.681 196.384 142.044C196.603 142.135 196.706 142.38 196.616 142.6C196.551 142.767 196.396 142.871 196.229 142.871Z" fill="black"/>
<path d="M24.6849 230.726H15.6196L18.8868 224.348L26.0925 224.981L24.6849 230.726Z" fill="white"/>
<path d="M24.685 231.152H15.6197C15.4647 231.152 15.3356 231.074 15.2581 230.945C15.1806 230.816 15.1677 230.661 15.2452 230.532L18.5123 224.154C18.5898 223.999 18.7577 223.909 18.9255 223.922L26.1313 224.554C26.2604 224.567 26.3637 224.632 26.4412 224.735C26.5187 224.838 26.5445 224.967 26.5058 225.084L25.0982 230.842C25.0595 231.022 24.8787 231.152 24.685 231.152ZM16.317 230.299H24.3492L25.5631 225.355L19.1451 224.787L16.317 230.299Z" fill="black"/>
<path d="M18.0475 230.209L22.1024 227.02C22.5931 226.633 22.7351 225.962 22.4381 225.458C21.6117 224.051 19.3647 218.758 16.6012 216.899C15.8393 216.395 14.8191 216.576 14.2638 217.325L1.841 233.927C1.27281 234.689 1.51817 235.786 2.37046 236.187C3.39063 236.664 5.01774 236.897 7.43258 235.864C11.3325 234.186 15.7876 231.733 17.1823 230.958C17.4277 230.816 17.6472 230.648 17.828 230.429C17.8926 230.338 17.97 230.261 18.0475 230.209Z" fill="white"/>
<path d="M4.30743 237C3.40348 237 2.70615 236.793 2.18961 236.561C1.67307 236.316 1.29857 235.864 1.15652 235.309C1.01447 234.741 1.1307 234.134 1.49228 233.656L13.9151 217.054C14.6125 216.124 15.8909 215.905 16.8336 216.537C19.1451 218.086 21.0305 221.792 22.154 224.012C22.4122 224.529 22.6447 224.968 22.7996 225.239C23.2 225.936 23.0192 226.84 22.3606 227.356L18.3057 230.545C18.2541 230.584 18.2153 230.622 18.1508 230.7C17.9312 230.958 17.673 231.165 17.3889 231.319C16.0846 232.042 11.539 234.534 7.60039 236.238C6.29612 236.806 5.19847 237 4.30743 237ZM15.6584 217.028C15.2581 217.028 14.8578 217.208 14.5995 217.557L2.17669 234.16C1.97008 234.431 1.90551 234.767 1.98299 235.089C2.06047 235.399 2.26709 235.644 2.53827 235.774C3.77798 236.354 5.40508 236.238 7.25172 235.438C11.1516 233.747 15.6714 231.268 16.9627 230.558C17.1693 230.442 17.3372 230.3 17.4922 230.119C17.5567 230.041 17.6471 229.938 17.7634 229.848L21.8182 226.659C22.1281 226.414 22.2315 225.962 22.0507 225.639C21.8828 225.355 21.6633 224.916 21.3792 224.374C20.2944 222.231 18.4607 218.642 16.3429 217.221C16.1492 217.105 15.9038 217.028 15.6584 217.028Z" fill="black"/>
<path d="M1.62126 235.18C1.62126 235.18 1.60834 235.192 1.59543 235.18C1.47921 235.141 1.36299 235.089 1.24677 235.038C0.39447 234.637 0.136199 233.54 0.717309 232.778L13.1402 216.176C13.6954 215.44 14.7285 215.246 15.4775 215.749C15.6196 215.84 15.7616 215.943 15.8907 216.046C15.9037 216.046 15.9037 216.059 15.8907 216.072L1.62126 235.18Z" fill="white"/>
<path d="M1.60849 235.606C1.55684 235.606 1.50519 235.593 1.46644 235.58C1.33731 235.528 1.20817 235.477 1.09195 235.425C0.575409 235.18 0.200916 234.728 0.0588666 234.173C-0.0831825 233.605 0.0330395 232.998 0.394619 232.52L12.8175 215.917C13.5148 214.988 14.7932 214.768 15.7359 215.401C15.878 215.504 16.02 215.608 16.1621 215.711C16.3558 215.853 16.3945 216.137 16.2525 216.331L1.97007 235.425C1.89259 235.541 1.75054 235.606 1.60849 235.606ZM14.5479 215.905C14.1476 215.905 13.7472 216.085 13.489 216.434L1.07904 233.037C0.872421 233.308 0.807853 233.643 0.885334 233.966C0.962816 234.276 1.16943 234.521 1.44062 234.65C1.45353 234.65 1.45353 234.663 1.46644 234.663L15.3098 216.163C15.284 216.15 15.271 216.137 15.2452 216.124C15.0386 215.969 14.7932 215.905 14.5479 215.905Z" fill="black"/>
<path d="M13.9537 230.351C13.7341 230.351 13.5404 230.183 13.5275 229.964L13.2434 226.71C13.2176 226.478 13.3984 226.272 13.6308 226.246C13.8633 226.233 14.0699 226.401 14.0957 226.633L14.3798 229.886C14.4056 230.119 14.2249 230.325 13.9924 230.351C13.9795 230.351 13.9666 230.351 13.9537 230.351Z" fill="black"/>
<path d="M11.6292 231.604C11.4097 231.604 11.216 231.436 11.2031 231.216L10.919 227.963C10.8931 227.73 11.0739 227.524 11.3064 227.498C11.5388 227.485 11.7454 227.653 11.7713 227.885L12.0554 231.139C12.0812 231.371 11.9004 231.578 11.668 231.604C11.655 231.604 11.6421 231.604 11.6292 231.604Z" fill="black"/>
<path d="M81.6467 225.122L74.7896 225.019C74.2988 225.006 73.8598 225.316 73.6661 225.781C73.0333 227.33 71.742 230.958 71.8582 234.418C71.884 235.36 72.6201 236.109 73.524 236.122L93.6563 236.406C94.586 236.419 95.2963 235.541 95.1284 234.586C94.9218 233.437 94.1728 231.926 91.9904 230.532C88.4521 228.285 83.984 226.039 82.5764 225.342C82.2794 225.2 81.9695 225.122 81.6467 225.122Z" fill="white"/>
<path d="M93.6692 236.845C93.6563 236.845 93.6563 236.845 93.6434 236.845L73.5111 236.561C72.3747 236.548 71.4708 235.619 71.4191 234.444C71.3029 230.868 72.6588 227.098 73.2529 225.639C73.5111 225.006 74.1181 224.606 74.7767 224.606L81.6338 224.709C82.0212 224.709 82.3957 224.813 82.7443 224.98C84.0615 225.626 88.6071 227.924 92.1971 230.196C94.5731 231.707 95.3221 233.385 95.5288 234.534C95.6321 235.128 95.4771 235.735 95.0897 236.187C94.741 236.6 94.2245 236.845 93.6692 236.845ZM74.7638 225.445C74.4538 225.445 74.1826 225.639 74.0535 225.949C73.4853 227.356 72.1681 230.984 72.2843 234.405C72.3102 235.115 72.8525 235.683 73.5241 235.696L93.6563 235.98C93.9662 235.98 94.2374 235.851 94.444 235.606C94.6635 235.347 94.7539 234.999 94.7023 234.65C94.4569 233.256 93.4368 231.952 91.758 230.893C88.2068 228.647 83.687 226.362 82.3828 225.716C82.1503 225.6 81.892 225.536 81.6338 225.536L74.7638 225.445C74.7767 225.445 74.7767 225.445 74.7638 225.445Z" fill="black"/>
<path d="M95.0251 234.198C95.038 234.198 95.038 234.198 95.038 234.211C95.0767 234.341 95.1026 234.47 95.1284 234.586C95.2963 235.541 94.586 236.419 93.6562 236.406L73.524 236.122C72.633 236.109 71.8969 235.36 71.8582 234.418C71.8582 234.237 71.8582 234.069 71.8582 233.889C71.8582 233.876 71.8711 233.876 71.8711 233.876L95.0251 234.198Z" fill="white"/>
<path d="M93.6691 236.845C93.6562 236.845 93.6562 236.845 93.6433 236.845L73.5111 236.561C72.3747 236.548 71.4707 235.619 71.4191 234.444C71.4191 234.263 71.4062 234.082 71.4191 233.901C71.4191 233.785 71.4707 233.656 71.5611 233.579C71.6386 233.501 71.7677 233.45 71.884 233.45L95.0251 233.785C95.2188 233.785 95.3996 233.927 95.4512 234.121C95.49 234.263 95.5158 234.392 95.5416 234.534C95.6449 235.128 95.4899 235.735 95.1025 236.199C94.741 236.6 94.2244 236.845 93.6691 236.845ZM72.2843 234.302C72.2843 234.34 72.2843 234.366 72.2843 234.405C72.3101 235.115 72.8525 235.683 73.524 235.696L93.6562 235.98C93.9661 235.98 94.2373 235.851 94.444 235.606C94.6635 235.347 94.7539 234.999 94.7022 234.65C94.7022 234.637 94.7022 234.624 94.6893 234.612L72.2843 234.302Z" fill="black"/>
<path d="M81.4786 229.706C81.3624 229.706 81.2462 229.654 81.1687 229.577C81.0008 229.409 81.0137 229.138 81.1816 228.97L83.1961 227.085C83.364 226.917 83.6352 226.93 83.8031 227.098C83.971 227.266 83.958 227.537 83.7902 227.705L81.7756 229.59C81.6982 229.667 81.5819 229.706 81.4786 229.706Z" fill="black"/>
<path d="M83.7902 230.906C83.6739 230.906 83.5706 230.868 83.4802 230.777C83.3124 230.609 83.3253 230.338 83.4931 230.17L85.5077 228.208C85.6755 228.04 85.9467 228.053 86.1146 228.221C86.2825 228.389 86.2696 228.66 86.1017 228.828L84.0872 230.79C84.0097 230.868 83.8935 230.906 83.7902 230.906Z" fill="black"/>
<path d="M48.4717 190.923C48.4717 190.91 48.4717 190.91 48.4717 190.923C48.6654 190.768 63.1674 180.272 67.855 181.589C75.8743 183.848 74.3118 207.668 74.1439 213.955C73.976 220.087 47.7615 201.135 46.8575 199.521C45.9665 197.933 48.4201 191.065 48.4717 190.923Z" fill="#019AFF"/>
<path d="M73.8727 212.367C73.8986 212.393 73.9244 212.419 73.9502 212.432C78.9736 216.912 81.1301 220.501 80.7686 226.246C80.4199 231.862 72.3489 237.813 46.496 234.896C45.2434 234.818 44.0037 234.728 42.7511 234.65L21.7278 234.328V219.261C21.7278 219.261 31.8908 218.396 45.2046 219.029C45.7341 219.055 45.8374 218.28 45.3079 218.177C38.722 216.924 30.2249 214.988 27.5776 212.767C22.0119 208.107 22.6059 201.019 23.8069 195.958C27.3194 181.214 49.2724 196.604 49.4145 196.642C49.4532 196.668 52.3846 198.372 56.2457 200.696L73.8727 212.367Z" fill="#019AFF"/>
<path d="M61.8501 222.205C61.7726 222.205 61.6951 222.179 61.6305 222.14C61.5789 222.114 56.7621 219.287 45.2561 219.029C45.0237 219.029 44.83 218.822 44.8429 218.59C44.8429 218.357 45.0366 218.177 45.269 218.177H45.282C57.0462 218.448 61.8759 221.301 62.0825 221.417C62.2891 221.533 62.3537 221.805 62.2245 222.011C62.1342 222.127 61.9921 222.205 61.8501 222.205Z" fill="#CADDFF"/>
<path d="M72.4393 211.631C72.3489 211.631 72.2585 211.605 72.181 211.541C68.5007 208.726 62.9608 204.66 57.24 201.781C57.0334 201.677 56.943 201.419 57.0463 201.2C57.1497 200.993 57.4079 200.903 57.6275 201.006C63.4127 203.911 68.9914 208.016 72.6976 210.844C72.8913 210.986 72.9171 211.257 72.7751 211.451C72.6976 211.58 72.5684 211.631 72.4393 211.631Z" fill="#CADDFF"/>
<path d="M46.0441 140.766C48.601 138.288 59.9133 129.857 80.4458 133.123C80.7557 133.175 81.0786 133.123 81.3627 132.981C82.7702 132.246 87.4062 129.999 90.1181 131.058C93.2561 132.284 99.984 136.17 89.9502 136.312C89.7177 136.312 89.6273 136.635 89.834 136.751C90.6346 137.216 91.7193 137.952 91.5256 138.365C91.0737 139.333 85.8566 138.546 82.7961 138.029C79.7227 137.5 78.5346 136.984 70.7994 139.462C66.0343 140.986 59.6292 146.499 57.0594 148.68C57.0464 148.693 45.76 141.037 46.0441 140.766Z" fill="white"/>
<path d="M57.0722 149.223L56.801 149.042C45.6566 141.489 45.6308 141.076 45.605 140.818L45.592 140.612L45.747 140.457C46.948 139.282 58.1569 129.147 80.5103 132.697C80.7427 132.736 80.9623 132.697 81.156 132.594C82.9639 131.652 87.4707 129.56 90.273 130.658C90.5054 130.748 96.0324 132.943 95.6579 134.996C95.4642 136.054 93.85 136.609 90.6087 136.713C91.758 137.461 92.1583 138.029 91.9259 138.533C91.6031 139.243 90.26 139.721 82.7314 138.443C82.499 138.404 82.2924 138.365 82.0728 138.326C79.4514 137.862 77.9922 137.603 70.9284 139.863C66.357 141.322 60.1585 146.589 57.5113 148.848L57.0722 149.223ZM46.638 140.805C47.8648 141.864 53.366 145.672 57.0205 148.151C59.7453 145.84 65.9696 140.56 70.6573 139.062C77.9276 136.738 79.5418 137.022 82.2149 137.5C82.4215 137.539 82.641 137.578 82.8606 137.616C89.3819 138.727 90.7766 138.404 91.0736 138.236C90.9703 138.094 90.6475 137.745 89.6015 137.126C89.3432 136.971 89.214 136.674 89.2915 136.377C89.369 136.08 89.6273 135.886 89.9243 135.886C94.3924 135.822 94.7669 135.008 94.7927 134.854C94.9218 134.131 92.6103 132.504 89.9372 131.458C87.3932 130.464 82.8606 132.659 81.5305 133.356C81.1689 133.55 80.7557 133.614 80.3553 133.55C59.6807 130.257 48.7946 138.856 46.638 140.805Z" fill="black"/>
<path d="M75.8872 144.317C75.8872 144.317 85.0817 149.236 89.2915 148.822C95.2059 148.229 101.753 130.206 102.205 128.966C102.657 127.727 103.935 120.859 105.769 118.858C107.151 117.334 108.455 114.287 108.998 112.893C109.217 112.338 109.824 112.002 110.392 112.196C110.896 112.364 111.27 112.828 110.767 114.068C110.186 115.501 109.488 117.257 109.01 118.483C108.856 118.87 109.282 119.219 109.617 118.987C110.379 118.432 111.348 117.928 111.981 118.277C113.169 118.948 113.801 123.428 111.89 126.565C109.979 129.715 107.874 128.966 107.228 130.503C106.596 132.026 101.288 151.843 99.1058 155.265C95.9678 160.196 75.7322 160.752 72.4522 160.661C69.1463 160.558 75.8872 144.317 75.8872 144.317Z" fill="white"/>
<path d="M73.3045 161.1C72.943 161.1 72.6589 161.1 72.4264 161.087C72.0132 161.074 71.6774 160.881 71.445 160.532C69.8179 158.015 74.9058 145.556 75.4869 144.149L75.6677 143.71L76.081 143.929C76.1713 143.981 85.2108 148.784 89.2399 148.383C93.3464 147.97 98.5635 137.603 101.766 128.863L101.792 128.798C101.895 128.514 102.063 127.856 102.27 127.03C102.915 124.448 104 120.136 105.433 118.548C106.789 117.063 108.081 113.977 108.584 112.725C108.894 111.938 109.747 111.524 110.508 111.77C110.87 111.886 111.141 112.118 111.283 112.428C111.49 112.88 111.451 113.461 111.141 114.21C110.573 115.617 109.889 117.347 109.398 118.573C110.56 117.747 111.49 117.515 112.149 117.889C112.743 118.225 113.065 119.064 113.233 119.697C113.724 121.582 113.595 124.499 112.213 126.772C111.038 128.695 109.772 129.263 108.843 129.689C108.145 129.999 107.784 130.18 107.59 130.658C107.409 131.071 106.828 133.098 106.079 135.667C104.065 142.561 101.03 152.992 99.4416 155.484C96.4198 160.274 78.5216 161.1 73.3045 161.1ZM76.0939 144.911C73.9631 150.126 71.148 158.505 72.1552 160.067C72.2327 160.183 72.3102 160.222 72.4393 160.235C77.411 160.377 95.9033 159.486 98.7184 155.045C100.229 152.657 103.38 141.89 105.253 135.447C106.066 132.659 106.609 130.812 106.802 130.348C107.138 129.547 107.797 129.25 108.494 128.94C109.372 128.553 110.457 128.063 111.49 126.358C112.743 124.306 112.846 121.594 112.42 119.942C112.213 119.167 111.942 118.767 111.748 118.664C111.4 118.47 110.715 118.715 109.837 119.348C109.54 119.568 109.14 119.555 108.856 119.335C108.559 119.103 108.442 118.703 108.584 118.341C109.075 117.115 109.772 115.346 110.341 113.913C110.612 113.241 110.56 112.932 110.496 112.815C110.47 112.751 110.405 112.673 110.224 112.609C109.889 112.506 109.501 112.699 109.359 113.061C108.726 114.675 107.435 117.618 106.04 119.154C104.749 120.575 103.69 124.758 103.07 127.262C102.851 128.153 102.683 128.786 102.567 129.121L102.541 129.186C100.862 133.756 94.9477 148.693 89.2915 149.261C85.5078 149.623 77.9792 145.879 76.0939 144.911Z" fill="black"/>
<path d="M45.9407 138.83L47.6453 125.622L55.1739 129.328L55.6388 138.507C55.6259 140.327 54.1279 141.399 54.1279 141.399C52.2683 142.871 49.5952 142.703 47.6066 141.412L47.1417 141.115C46.3798 140.611 45.9278 139.746 45.9407 138.83Z" fill="white"/>
<path d="M51.0029 142.884C49.7761 142.884 48.5106 142.509 47.3742 141.773L46.9093 141.476C46.0053 140.895 45.4888 139.901 45.5017 138.83C45.5017 138.817 45.5017 138.791 45.5017 138.778L47.2192 125.571C47.2321 125.429 47.3225 125.313 47.4387 125.248C47.555 125.183 47.7099 125.183 47.8261 125.235L55.3547 128.94C55.4968 129.005 55.5872 129.147 55.6001 129.302L56.065 138.481C56.0521 140.521 54.4379 141.696 54.3733 141.747C53.4306 142.496 52.2426 142.884 51.0029 142.884ZM46.3669 138.856C46.3669 139.63 46.7414 140.34 47.3871 140.753L47.852 141.05C49.8019 142.316 52.2813 142.328 53.8697 141.05C53.8955 141.024 55.2127 140.069 55.2256 138.494L54.7736 129.586L47.994 126.268L46.3669 138.856Z" fill="black"/>
<path d="M56.6072 112.467C54.3861 112.596 57.4208 114.545 48.9883 113.099C45.6307 112.518 47.6969 116.133 46.8317 115.978C43.6162 115.436 43.7324 115.449 42.2474 116.017C41.2659 116.392 40.8269 118.328 41.1626 119.697C41.6146 121.504 43.1772 121.801 44.9592 125.519C46.1989 128.127 46.1602 129.805 47.2966 130.077C48.4459 130.348 49.0916 128.786 50.3571 128.992C52.01 129.263 51.9971 132.065 53.6888 133.033C54.7477 133.64 57.0721 133.717 60.533 131.523C61.0883 131.161 61.3207 130.451 61.0753 129.844C60.7525 129.057 60.3522 128.05 59.8873 127.133C57.6662 122.731 55.9099 121.891 56.3748 120.626C57.0721 118.703 60.6363 119.348 61.0366 117.786C61.4498 116.159 59.6419 112.299 56.6072 112.467Z" fill="black"/>
<path d="M49.7888 121.259L50.5507 122.369C50.9123 122.886 51.2351 123.441 51.5192 123.996C52.0487 125.055 52.9785 126.875 53.5854 127.856C54.4635 129.289 59.0995 126.888 59.0995 126.888L59.2803 125.92L59.8227 125.623C59.926 125.571 60.0164 125.481 60.0809 125.39C60.2359 125.132 60.1971 124.822 60.0164 124.616C59.0349 123.467 56.9688 120.872 56.0519 118.444C56.0648 118.444 52.3715 117.915 49.7888 121.259Z" fill="white"/>
<path d="M54.7089 128.734C54.0633 128.734 53.5209 128.553 53.2239 128.075C52.604 127.068 51.6613 125.209 51.1448 124.177C50.8736 123.634 50.5508 123.092 50.2021 122.589L49.4402 121.478C49.3369 121.323 49.3369 121.117 49.4531 120.975C52.152 117.476 55.9615 117.967 56.1294 117.992C56.2844 118.018 56.4135 118.122 56.4652 118.264C57.3691 120.678 59.4869 123.299 60.3522 124.306C60.6621 124.667 60.7008 125.171 60.4555 125.584C60.3651 125.739 60.2101 125.881 60.0422 125.971L59.6806 126.165L59.5386 126.939C59.5128 127.068 59.4353 127.185 59.3191 127.236C58.6992 127.585 56.3619 128.734 54.7089 128.734ZM50.3312 121.285L50.9123 122.124C51.2868 122.666 51.6226 123.221 51.9067 123.802C52.4103 124.809 53.353 126.655 53.9599 127.636C54.3861 128.334 56.9301 127.494 58.725 126.604L58.8671 125.842C58.8929 125.713 58.9704 125.61 59.0866 125.545L59.629 125.248C59.6806 125.222 59.7065 125.196 59.7323 125.158C59.784 125.067 59.784 124.964 59.7194 124.887C58.6476 123.621 56.7364 121.207 55.7808 118.832C54.9543 118.806 52.3457 118.87 50.3312 121.285Z" fill="black"/>
<path d="M51.1449 125.274C51.1449 125.274 49.3112 122.614 48.2781 123.712C47.2579 124.809 49.3499 127.688 51.1449 125.274Z" fill="white"/>
<path d="M30.0312 161.462C30.3024 164.87 30.07 175.534 28.3395 178.839C26.622 182.118 24.7496 185.139 24.1556 193.531C24.1168 194.086 52.475 206.829 56.0004 199.883C56.0779 199.728 56.1037 199.534 56.052 199.366C55.7421 198.334 54.6961 193.854 56.7494 185.165C58.1311 179.317 60.7526 174.23 65.1948 167.891C65.2078 167.878 65.2207 167.852 65.2336 167.839C65.4402 167.465 67.9583 163.256 74.5572 161.862C74.7121 161.836 74.8413 161.746 74.9446 161.629C75.8614 160.532 80.6136 154.555 82.0341 145.995C82.0858 145.698 81.9308 145.401 81.6596 145.272C79.8776 144.407 73.2271 141.283 68.3587 140.573C62.6896 139.746 64.9366 141.025 60.8946 139.669C60.3393 139.475 58.6477 138.197 58.2603 137.913C55.8842 136.183 50.6413 138.778 45.6566 136.79C45.0755 136.558 44.4298 136.545 43.8229 136.713C42.3378 137.151 39.3806 137.771 36.488 137.784C26.7899 137.797 29.7471 157.976 30.0312 161.462Z" fill="black"/>
<path d="M32.9626 176.373C32.8851 176.373 32.8077 176.347 32.7431 176.309C32.5365 176.179 32.4719 175.921 32.601 175.715C34.4219 172.719 36.6042 168.524 37.2758 162.662C38.3863 152.85 43.7325 145.53 43.7842 145.466C43.9262 145.272 44.1974 145.233 44.3782 145.375C44.5719 145.517 44.6107 145.788 44.4686 145.969C44.4169 146.034 39.1999 153.173 38.1151 162.753C37.4307 168.769 35.1967 173.068 33.3242 176.154C33.2467 176.296 33.1176 176.373 32.9626 176.373Z" fill="white"/>
</svg>
