<svg width="236" height="235" viewBox="0 0 236 235" fill="none" xmlns="http://www.w3.org/2000/svg">
<path d="M11.9229 44.2915C30.043 13.4708 64.525 5.94194 77.5248 3.09459C121.786 -6.57616 187.272 5.04413 218.867 57.5791C246.599 103.688 231.161 152.927 228.915 159.674C225.168 170.999 215.761 198.151 189.12 216.544C147.644 245.184 84.4289 238.758 62.8054 209.194C52.6418 195.317 60.8677 188.904 49.0357 164.355C33.187 131.482 13.5141 132.265 4.35143 105.946C-5.97908 76.2409 10.2546 47.1516 11.9229 44.2915Z" fill="#D6EFFF"/>
<path d="M225.565 201.961C225.565 201.666 225.36 201.409 225.078 201.345L220.907 200.409C220.663 200.357 220.484 200.165 220.432 199.921C220.265 199.1 220.047 198.292 219.791 197.51C219.714 197.279 219.778 197.023 219.957 196.843L223.089 193.944C223.307 193.739 223.358 193.418 223.204 193.162L221.331 189.93C221.177 189.673 220.881 189.558 220.599 189.648L216.518 190.93C216.274 191.007 216.031 190.93 215.864 190.738C215.312 190.122 214.722 189.532 214.106 188.981C213.913 188.814 213.849 188.557 213.913 188.327L215.184 184.248C215.273 183.966 215.145 183.658 214.901 183.517L211.667 181.657C211.411 181.516 211.09 181.554 210.885 181.773L207.997 184.915C207.83 185.094 207.574 185.159 207.33 185.082C206.547 184.825 205.739 184.607 204.917 184.44C204.673 184.389 204.481 184.209 204.417 183.966L203.467 179.797C203.403 179.515 203.146 179.31 202.851 179.31H199.117C198.822 179.31 198.565 179.515 198.501 179.797L197.564 183.966C197.513 184.209 197.32 184.389 197.076 184.44C196.255 184.607 195.446 184.825 194.664 185.082C194.433 185.159 194.163 185.094 193.996 184.915L191.096 181.785C190.891 181.567 190.57 181.516 190.313 181.67L187.079 183.542C186.823 183.696 186.707 183.991 186.797 184.274L188.068 188.352C188.145 188.583 188.068 188.84 187.875 189.006C187.259 189.558 186.669 190.148 186.117 190.763C185.95 190.956 185.693 191.02 185.462 190.956L181.382 189.686C181.099 189.596 180.791 189.725 180.65 189.968L178.789 193.213C178.648 193.47 178.687 193.79 178.905 193.996L182.049 196.881C182.229 197.048 182.293 197.305 182.216 197.548C181.959 198.331 181.741 199.139 181.574 199.96C181.523 200.203 181.343 200.396 181.099 200.447L176.929 201.396C176.646 201.46 176.441 201.717 176.441 202.012V205.757C176.441 206.052 176.646 206.309 176.929 206.373L181.099 207.309C181.343 207.36 181.523 207.553 181.574 207.796C181.741 208.617 181.959 209.425 182.216 210.208C182.293 210.438 182.229 210.695 182.049 210.875L178.918 213.773C178.7 213.978 178.648 214.299 178.802 214.556L180.676 217.788C180.83 218.044 181.125 218.16 181.407 218.07L185.488 216.787C185.732 216.71 185.976 216.787 186.143 216.98C186.694 217.595 187.285 218.185 187.901 218.737C188.093 218.904 188.157 219.16 188.093 219.391L186.823 223.47C186.733 223.752 186.861 224.06 187.105 224.201L190.339 226.06C190.596 226.202 190.916 226.163 191.122 225.945L194.009 222.803C194.176 222.623 194.433 222.559 194.677 222.636C195.459 222.892 196.268 223.11 197.089 223.277C197.333 223.329 197.525 223.508 197.577 223.752L198.526 227.92C198.591 228.202 198.847 228.408 199.142 228.408H202.877C203.172 228.408 203.429 228.202 203.493 227.92L204.43 223.752C204.481 223.508 204.673 223.329 204.917 223.277C205.739 223.11 206.547 222.892 207.33 222.636C207.561 222.559 207.83 222.623 207.997 222.803L210.897 225.932C211.103 226.15 211.423 226.202 211.68 226.048L214.914 224.175C215.171 224.021 215.286 223.726 215.196 223.444L213.926 219.365C213.849 219.134 213.926 218.878 214.118 218.711C214.734 218.16 215.325 217.57 215.877 216.954C216.043 216.762 216.3 216.698 216.531 216.762L220.612 218.031C220.894 218.121 221.202 217.993 221.343 217.749L223.204 214.504C223.345 214.248 223.307 213.927 223.089 213.722L219.945 210.836C219.765 210.669 219.701 210.413 219.778 210.169C220.034 209.387 220.253 208.579 220.419 207.758C220.471 207.514 220.65 207.322 220.894 207.27L225.065 206.321C225.347 206.257 225.553 206.001 225.553 205.706L225.565 201.961ZM199.271 216.249C192.431 215.287 187.657 208.976 188.619 202.14C189.582 195.304 195.896 190.533 202.736 191.495C209.576 192.457 214.349 198.767 213.387 205.603C212.437 212.439 206.111 217.211 199.271 216.249Z" fill="#6DC2FA"/>
<path d="M158.68 226.15H51.6663C47.0593 226.15 43.6072 222.431 43.9794 217.826L60.4184 9.77685C60.7777 5.18517 64.8201 1.45282 69.4271 1.45282L171.013 0.26001C182.678 0.26001 184.5 5.17234 184.128 9.76402L167.689 217.813C167.33 222.431 163.3 226.15 158.68 226.15Z" fill="#57B9FB"/>
<path d="M152.251 226.15H45.2369C40.6299 226.15 37.1778 222.418 37.5372 217.801L53.9377 9.08418C54.297 4.47967 58.3265 0.734497 62.9464 0.734497H169.96C174.567 0.734497 178.019 4.46684 177.66 9.08418L161.259 217.801C160.887 222.418 156.858 226.15 152.251 226.15Z" fill="white"/>
<path d="M115.613 11.3544C113.88 11.3544 112.597 9.95636 112.725 8.22486C112.867 6.49336 114.368 5.09534 116.1 5.09534C117.833 5.09534 119.116 6.49336 118.988 8.22486C118.86 9.95636 117.345 11.3544 115.613 11.3544Z" fill="#BFE4FD"/>
<path d="M43.6458 218.095L59.302 18.8062C59.3918 17.7417 60.3158 16.8823 61.3809 16.8823H168.972C170.037 16.8823 170.833 17.7417 170.743 18.8062L155.087 218.095C154.997 219.16 154.073 220.019 153.008 220.019H45.4296C44.3644 220.019 43.5688 219.16 43.6458 218.095Z" fill="#CADDFF"/>
<path d="M169.793 29.1824L170.705 17.6903C170.794 16.6258 169.999 15.8177 168.934 15.8177H61.3424C60.2772 15.8177 59.3404 16.6258 59.2634 17.6903L58.3523 29.1824H169.793Z" fill="#BFE4FD"/>
<path d="M167.252 18.6266C167.291 19.3834 166.713 19.9862 165.956 19.9862C165.199 19.9862 164.57 19.3834 164.532 18.6266C164.493 17.8699 165.071 17.2671 165.828 17.2671C166.585 17.2671 167.214 17.8699 167.252 18.6266Z" fill="#CADDFF"/>
<path d="M166.703 23.6156C167.213 23.0936 167.178 22.2331 166.625 21.6938C166.073 21.1544 165.211 21.1403 164.701 21.6623C164.191 22.1843 164.226 23.0448 164.779 23.5842C165.331 24.1236 166.193 24.1377 166.703 23.6156Z" fill="#CADDFF"/>
<path d="M166.791 26.5788C166.829 27.3355 166.252 27.9383 165.494 27.9383C164.737 27.9383 164.108 27.3355 164.07 26.5788C164.031 25.8221 164.609 25.2192 165.366 25.2192C166.123 25.2192 166.752 25.8349 166.791 26.5788Z" fill="#CADDFF"/>
<path d="M160.721 91.9141H58.8401L63.3829 34.9028H165.264L160.721 91.9141Z" fill="#BFE4FD"/>
<path d="M155.267 153.196H53.386L57.916 96.1724H159.797L155.267 153.196Z" fill="#BFE4FD"/>
<path d="M150.891 215.402H49.01L53.5529 158.391H155.434L150.891 215.402Z" fill="#BFE4FD"/>
<path d="M152.251 226.574H65.7055C65.4745 226.574 65.282 226.381 65.282 226.15C65.282 225.919 65.4745 225.727 65.7055 225.727H152.238C156.627 225.727 160.477 222.161 160.823 217.775L169.806 107.28C169.819 107.049 170.037 106.869 170.268 106.895C170.499 106.908 170.679 107.113 170.653 107.357L161.67 217.852C161.298 222.649 157.063 226.574 152.251 226.574Z" fill="black"/>
<path d="M49.2409 69.2891C49.228 69.2891 49.2152 69.2891 49.2024 69.2891C48.9714 69.2763 48.7917 69.0711 48.8174 68.8274L53.5142 9.05855C53.8992 4.236 58.1213 0.324097 62.9464 0.324097H169.96C173.977 0.324097 177.275 3.04319 177.968 6.92945C178.007 7.16032 177.853 7.37836 177.622 7.41684C177.391 7.45531 177.172 7.3014 177.134 7.07053C176.505 3.59471 173.553 1.17061 169.96 1.17061H62.9464C58.5576 1.17061 54.7077 4.73622 54.3612 9.12268L49.6644 68.8915C49.6515 69.1096 49.459 69.2891 49.2409 69.2891Z" fill="black"/>
<path d="M51.243 32.7352L50.1651 28.7848L45.6992 28.9901C45.2886 28.1179 44.8009 27.297 44.2619 26.5275L46.636 22.731L43.7229 19.8452L39.9501 22.2564C39.1673 21.7178 38.3331 21.2432 37.4733 20.8456L37.6273 16.3693L33.6619 15.3304L31.6087 19.3065C30.6719 19.2295 29.7094 19.2424 28.7469 19.3321L26.6423 15.3817L22.6898 16.4591L22.8951 20.9354C22.0225 21.3458 21.2012 21.8332 20.4312 22.3719L16.6326 19.9991L13.7452 22.9106L16.1578 26.6814C15.6188 27.4638 15.144 28.2975 14.7462 29.1568L10.2675 28.9901L9.22803 32.9533L13.1934 35.0054C13.1164 35.9417 13.1292 36.9037 13.2191 37.8656L9.26653 39.9691L10.3445 43.9194L14.8104 43.7142C15.221 44.5864 15.7087 45.4072 16.2476 46.1768L13.8735 49.9733L16.7866 52.8591L20.5595 50.4478C21.3423 50.9865 22.1765 51.4611 23.0363 51.8587L22.8823 56.3349L26.8476 57.3738L28.9009 53.3978C29.8377 53.4748 30.8002 53.4619 31.7627 53.3721L33.8673 57.3225L37.8198 56.2452L37.6145 51.7689C38.4871 51.3585 39.3084 50.8711 40.0784 50.3324L43.8769 52.7052L46.7644 49.7937L44.3518 46.0229C44.8907 45.2405 45.3656 44.4068 45.7634 43.5475L50.2421 43.7014L51.2815 39.7382L47.3162 37.686C47.3932 36.7497 47.3803 35.7878 47.2905 34.8259L51.243 32.7352ZM33.0459 46.5359C27.4251 48.075 21.6246 44.7659 20.0847 39.1482C18.5447 33.5304 21.8556 27.7203 27.4765 26.1812C33.0973 24.6421 38.8978 27.9512 40.4377 33.5689C41.9777 39.1867 38.6668 44.9968 33.0459 46.5359Z" fill="#6DC2FA"/>
<path d="M5.80143 75.3302C4.17165 75.3302 2.84985 74.0092 2.84985 72.3803C2.84985 70.7514 4.17165 69.4303 5.80143 69.4303C7.43121 69.4303 8.753 70.7514 8.753 72.3803C8.753 73.9963 7.43121 75.3302 5.80143 75.3302ZM5.80143 70.264C4.63363 70.264 3.69683 71.2131 3.69683 72.3674C3.69683 73.5346 4.64646 74.4709 5.80143 74.4709C6.96922 74.4709 7.90603 73.5218 7.90603 72.3674C7.90603 71.2131 6.95639 70.264 5.80143 70.264Z" fill="black"/>
<path d="M218.533 175.86C216.903 175.86 215.582 174.539 215.582 172.91C215.582 171.281 216.903 169.96 218.533 169.96C220.163 169.96 221.485 171.281 221.485 172.91C221.485 174.526 220.163 175.86 218.533 175.86ZM218.533 170.794C217.365 170.794 216.429 171.743 216.429 172.897C216.429 174.064 217.378 175 218.533 175C219.701 175 220.638 174.051 220.638 172.897C220.638 171.743 219.688 170.794 218.533 170.794Z" fill="black"/>
<path d="M13.6424 59.8621C13.5269 59.8621 13.3986 59.8108 13.3216 59.7082C13.1676 59.5286 13.1932 59.2593 13.3729 59.1054L14.746 57.9382C14.9257 57.7843 15.1952 57.81 15.3492 57.9895C15.5032 58.1691 15.4775 58.4384 15.2978 58.5923L13.9247 59.7595C13.8477 59.8236 13.7451 59.8621 13.6424 59.8621Z" fill="black"/>
<path d="M9.305 63.556C9.1895 63.556 9.06117 63.5047 8.98417 63.402C8.83018 63.2225 8.85584 62.9531 9.0355 62.7992L10.4086 61.6321C10.5883 61.4782 10.8578 61.5038 11.0118 61.6834C11.1658 61.8629 11.1401 62.1323 10.9604 62.2862L9.58732 63.4534C9.51032 63.5175 9.40766 63.556 9.305 63.556Z" fill="black"/>
<path d="M10.8961 59.6312C10.7806 59.6312 10.6523 59.5799 10.5753 59.4773L9.40751 58.1049C9.25352 57.9253 9.27918 57.656 9.45884 57.5021C9.63851 57.3481 9.908 57.3738 10.062 57.5534L11.2298 58.9257C11.3838 59.1053 11.3581 59.3746 11.1785 59.5286C11.1015 59.6055 10.9988 59.6312 10.8961 59.6312Z" fill="black"/>
<path d="M14.5922 63.9664C14.4767 63.9664 14.3484 63.9151 14.2714 63.8125L13.1036 62.4401C12.9496 62.2605 12.9752 61.9912 13.1549 61.8373C13.3346 61.6834 13.604 61.709 13.758 61.8886L14.9258 63.2609C15.0798 63.4405 15.0542 63.7099 14.8745 63.8638C14.7975 63.9407 14.6948 63.9664 14.5922 63.9664Z" fill="black"/>
<path d="M228.953 107.985C228.838 107.985 228.71 107.934 228.633 107.831C228.479 107.651 228.504 107.382 228.684 107.228L230.057 106.061C230.237 105.907 230.506 105.933 230.66 106.112C230.814 106.292 230.789 106.561 230.609 106.715L229.236 107.882C229.146 107.959 229.043 107.985 228.953 107.985Z" fill="black"/>
<path d="M224.616 111.679C224.5 111.679 224.372 111.627 224.295 111.525C224.141 111.345 224.167 111.076 224.346 110.922L225.719 109.755C225.899 109.601 226.169 109.627 226.323 109.806C226.477 109.986 226.451 110.255 226.271 110.409L224.898 111.576C224.808 111.653 224.706 111.679 224.616 111.679Z" fill="black"/>
<path d="M226.207 107.767C226.092 107.767 225.963 107.716 225.886 107.613L224.719 106.241C224.565 106.061 224.59 105.792 224.77 105.638C224.95 105.484 225.219 105.51 225.373 105.689L226.541 107.061C226.695 107.241 226.669 107.51 226.489 107.664C226.4 107.741 226.297 107.767 226.207 107.767Z" fill="black"/>
<path d="M229.903 112.102C229.787 112.102 229.659 112.051 229.582 111.948L228.414 110.576C228.26 110.396 228.286 110.127 228.466 109.973C228.645 109.819 228.915 109.845 229.069 110.024L230.237 111.397C230.391 111.576 230.365 111.845 230.185 111.999C230.095 112.076 229.993 112.102 229.903 112.102Z" fill="black"/>
<path d="M226.027 126.275L192.726 133.521C191.006 133.893 190.275 135.958 191.391 137.331L194.651 141.332C195.472 142.346 195.318 143.833 194.304 144.654L169.588 165.253C168.574 166.074 167.086 165.92 166.252 164.906L147.31 141.64C146.489 140.627 144.987 140.473 143.974 141.307L72.4172 201.217C71.4034 202.038 71.2494 203.538 72.0836 204.551L79.0134 213.055C79.8347 214.068 81.3361 214.222 82.3499 213.401L141.728 163.419C142.742 162.598 144.23 162.752 145.064 163.765L164.019 187.018C164.84 188.032 166.341 188.186 167.355 187.365L204.224 156.877C205.238 156.057 206.727 156.21 207.561 157.224L211.077 161.546C212.194 162.918 214.375 162.623 215.094 160.995L228.735 129.558C229.479 127.75 227.914 125.864 226.027 126.275Z" fill="#019AFF"/>
<path d="M229.813 96.3263H91.3201C88.4199 96.3263 86.0586 93.9663 86.0586 91.0676V59.1182C86.0586 56.2196 88.4199 53.8596 91.3201 53.8596H229.813C232.713 53.8596 235.075 56.2196 235.075 59.1182V91.0676C235.075 93.9791 232.713 96.3263 229.813 96.3263Z" fill="white"/>
<path d="M223.461 96.7494H97.6725C91.0379 96.7494 85.6353 91.3497 85.6353 84.7187V65.467C85.6353 58.836 91.0379 53.4363 97.6725 53.4363H223.448C230.083 53.4363 235.485 58.836 235.485 65.467V84.7187C235.498 91.3497 230.096 96.7494 223.461 96.7494ZM97.6725 54.2828C91.4999 54.2828 86.4822 59.2977 86.4822 65.467V84.7187C86.4822 90.888 91.4999 95.9029 97.6725 95.9029H223.448C229.621 95.9029 234.638 90.888 234.638 84.7187V65.467C234.638 59.2977 229.621 54.2828 223.448 54.2828H97.6725Z" fill="black"/>
<path d="M115.728 70.6744L109.671 69.7894L106.964 64.2999C106.386 63.1199 104.692 63.1199 104.115 64.2999L101.407 69.7894L95.3369 70.6744C94.028 70.8668 93.5146 72.47 94.4514 73.3807L98.8403 77.6517L97.8008 83.6799C97.5827 84.9753 98.943 85.9629 100.111 85.3601L105.526 82.5127L110.942 85.3601C112.11 85.9757 113.47 84.9881 113.252 83.6799L112.212 77.6517L116.601 73.3807C117.564 72.47 117.037 70.8668 115.728 70.6744Z" fill="#019AFF"/>
<path d="M143.717 70.6744L137.66 69.7894L134.952 64.2999C134.375 63.1199 132.681 63.1199 132.103 64.2999L129.396 69.7894L123.338 70.6744C122.029 70.8668 121.516 72.47 122.453 73.3807L126.842 77.6517L125.802 83.6799C125.584 84.9753 126.944 85.9629 128.112 85.3601L133.528 82.5127L138.943 85.3601C140.111 85.9757 141.471 84.9881 141.253 83.6799L140.214 77.6517L144.603 73.3807C145.539 72.47 145.026 70.8668 143.717 70.6744Z" fill="#019AFF"/>
<path d="M171.706 70.6744L165.649 69.7894L162.941 64.2999C162.363 63.1199 160.67 63.1199 160.092 64.2999L157.384 69.7894L151.327 70.6744C150.018 70.8668 149.505 72.47 150.442 73.3807L154.831 77.6517L153.791 83.6799C153.573 84.9753 154.933 85.9629 156.101 85.3601L161.516 82.5127L166.932 85.3601C168.1 85.9757 169.46 84.9881 169.242 83.6799L168.202 77.6517L172.591 73.3807C173.528 72.47 173.002 70.8668 171.706 70.6744Z" fill="#019AFF"/>
<path d="M199.694 70.6744L193.637 69.7894L190.929 64.2999C190.352 63.1199 188.658 63.1199 188.081 64.2999L185.373 69.7894L179.316 70.6744C178.007 70.8668 177.493 72.47 178.43 73.3807L182.819 77.6517L181.78 83.6799C181.561 84.9753 182.922 85.9629 184.09 85.3601L189.505 82.5127L194.921 85.3601C196.088 85.9757 197.449 84.9881 197.23 83.6799L196.191 77.6517L200.58 73.3807C201.517 72.47 200.99 70.8668 199.694 70.6744Z" fill="#019AFF"/>
<path d="M227.67 70.6744L221.613 69.7894L218.905 64.2999C218.328 63.1199 216.634 63.1199 216.056 64.2999L213.349 69.7894L207.292 70.6744C205.983 70.8668 205.469 72.47 206.406 73.3807L210.795 77.6517L209.755 83.6799C209.537 84.9753 210.898 85.9629 212.065 85.3601L217.481 82.5127L222.896 85.3601C224.064 85.9757 225.424 84.9881 225.206 83.6799L224.167 77.6517L228.556 73.3807C229.492 72.47 228.979 70.8668 227.67 70.6744Z" fill="#6DC2FA"/>
<path d="M211.295 9.36655L198.077 13.6376L187.067 5.17247C184.705 3.35119 181.279 5.03139 181.266 8.01983L181.241 21.8975L169.781 29.747C167.317 31.44 167.856 35.2108 170.705 36.1343L183.91 40.4438L187.837 53.7571C188.684 56.6173 192.444 57.2714 194.202 54.8601L202.389 43.6374L216.274 44.0094C219.265 44.0863 221.035 40.7131 219.29 38.3018L211.141 27.0535L215.787 13.9711C216.801 11.1878 214.131 8.44308 211.295 9.36655Z" fill="#019AFF"/>
<path d="M193.701 54.6163C193.47 54.6163 193.239 54.5907 193.008 54.5522C191.481 54.2828 190.275 53.2055 189.838 51.7305L185.976 38.6352L172.976 34.3898C171.513 33.9153 170.461 32.6583 170.243 31.132C170.024 29.6058 170.679 28.118 171.949 27.2458L183.217 19.5246L183.242 5.86497C183.242 4.32586 184.102 2.94066 185.488 2.26088C186.874 1.58111 188.491 1.73502 189.723 2.68414L200.554 11.0082L213.554 6.80126C215.017 6.3267 216.608 6.7243 217.686 7.82733C218.764 8.93036 219.11 10.5208 218.597 11.9829L214.029 24.8473L222.049 35.9161C222.96 37.1602 223.076 38.7891 222.344 40.1615C221.626 41.521 220.227 42.3547 218.674 42.3034L205.007 41.9315L196.961 52.9746C196.178 54.0135 194.984 54.6163 193.701 54.6163ZM187.272 2.67131C186.797 2.67131 186.309 2.78675 185.86 3.00479C184.744 3.5563 184.089 4.60803 184.089 5.85214L184.064 19.7298C184.064 19.8709 184 19.9991 183.884 20.0761L172.424 27.9256C171.398 28.631 170.897 29.7725 171.077 30.991C171.256 32.2094 172.065 33.1714 173.233 33.5561L186.438 37.8657C186.566 37.9041 186.669 38.0196 186.707 38.1478L190.634 51.4611C190.981 52.6411 191.917 53.4748 193.137 53.6929C194.356 53.8981 195.523 53.4363 196.242 52.4359L204.43 41.2132C204.507 41.0978 204.648 41.0337 204.789 41.0337L218.674 41.4056C219.906 41.4441 220.997 40.8028 221.574 39.7126C222.152 38.6224 222.062 37.3654 221.343 36.365L213.194 25.1167C213.117 25.0013 213.092 24.8602 213.143 24.7191L217.789 11.6366C218.199 10.4695 217.93 9.25101 217.07 8.36602C216.21 7.48103 214.991 7.17321 213.81 7.55799L200.592 11.829C200.464 11.8675 200.31 11.8418 200.207 11.7649L189.197 3.29978C188.619 2.90218 187.952 2.67131 187.272 2.67131Z" fill="black"/>
<path d="M225.129 66.3393C225.026 66.3393 224.937 66.3009 224.847 66.2367C224.667 66.0828 224.654 65.8135 224.808 65.6339C230.249 59.3492 232.701 52.6926 232.072 45.8307C230.942 33.2741 219.829 24.2062 219.714 24.1164C219.534 23.9753 219.495 23.706 219.649 23.5136C219.791 23.334 220.06 23.2955 220.253 23.4494C220.368 23.5392 231.764 32.838 232.932 45.7409C233.573 52.8336 231.058 59.7212 225.463 66.1726C225.373 66.3009 225.257 66.3393 225.129 66.3393Z" fill="black"/>
<path d="M209.743 68.3529C209.691 68.3529 209.627 68.3401 209.576 68.3144C209.358 68.2246 209.255 67.9681 209.358 67.7629C214.208 56.4376 206.162 47.2414 206.085 47.1516C205.931 46.9721 205.944 46.7027 206.124 46.5488C206.303 46.3949 206.573 46.4077 206.727 46.5873C206.817 46.6771 215.209 56.2837 210.14 68.0964C210.063 68.2503 209.909 68.3529 209.743 68.3529Z" fill="black"/>
<path d="M18.416 213.401L18.8138 220.738L23.716 221.559L24.1523 212.914L18.416 213.401Z" fill="white"/>
<path d="M23.7161 221.982C23.6905 221.982 23.6648 221.982 23.652 221.982L18.7498 221.161C18.5573 221.123 18.4033 220.969 18.3905 220.763L17.9926 213.427C17.9798 213.196 18.1466 213.004 18.3776 212.978L24.1139 212.491C24.2423 212.478 24.3578 212.529 24.4476 212.606C24.5374 212.696 24.5888 212.811 24.5759 212.927L24.1396 221.571C24.1396 221.687 24.0754 221.802 23.9856 221.879C23.9086 221.956 23.8188 221.982 23.7161 221.982ZM19.2246 220.366L23.3183 221.058L23.7033 213.376L18.8524 213.786L19.2246 220.366Z" fill="black"/>
<path d="M23.8572 234.295C21.7911 234.474 18.4032 234.564 14.4635 233.82C13.1802 233.577 12.3846 232.268 12.7567 231.024C13.809 227.523 15.6441 220.879 18.3775 217.903L18.9293 219.622L19.8918 218.083C20.0201 217.865 20.2511 217.736 20.495 217.711L22.4456 217.557C22.8562 217.531 23.2155 217.813 23.2797 218.211L23.5107 219.686L24.2807 217.801L25.8335 231.922C25.949 233.128 25.0635 234.192 23.8572 234.295Z" fill="#019AFF"/>
<path d="M20.9313 234.846C19.0705 234.846 16.8376 234.692 14.3994 234.231C13.6679 234.089 13.0262 233.641 12.6284 233.012C12.2434 232.384 12.1408 231.601 12.3589 230.896L12.5899 230.139C13.6679 226.522 15.4645 220.456 18.0824 217.608C18.1851 217.493 18.3391 217.454 18.4802 217.48C18.6342 217.518 18.7497 217.621 18.7882 217.762L19.0577 218.609L19.5325 217.839C19.7379 217.518 20.0843 217.3 20.4693 217.275L22.4199 217.121C23.0231 217.069 23.6006 217.506 23.7032 218.121L23.8957 217.634C23.9727 217.454 24.1524 217.352 24.3449 217.377C24.5374 217.403 24.6914 217.557 24.7042 217.749L26.257 231.871C26.3725 233.32 25.3073 234.59 23.8829 234.718C23.0744 234.795 22.0734 234.846 20.9313 234.846ZM18.2236 218.763C15.9906 221.661 14.3865 227.074 13.3984 230.383L13.1674 231.14C13.0262 231.627 13.0904 232.14 13.3471 232.576C13.6037 233.012 14.04 233.307 14.5405 233.41C18.3904 234.141 21.7013 234.064 23.8059 233.884C24.7684 233.794 25.487 232.935 25.41 231.96L24.0497 219.519L23.9086 219.866C23.8316 220.045 23.6519 220.148 23.4722 220.122C23.2797 220.096 23.1257 219.955 23.1001 219.763L22.8691 218.288C22.8434 218.108 22.6766 217.967 22.4841 217.98L20.5335 218.134C20.418 218.147 20.3153 218.211 20.2512 218.301L19.2887 219.853C19.1989 219.994 19.0449 220.071 18.878 220.045C18.7112 220.019 18.5829 219.917 18.5316 219.75L18.2236 218.763Z" fill="black"/>
<path d="M19.3916 232.435C17.7618 232.435 15.8882 232.268 14.0531 231.755C13.8221 231.691 13.6938 231.46 13.7579 231.229C13.8221 230.998 14.0531 230.87 14.2841 230.934C19.0323 232.268 24.1269 231.114 24.1783 231.101C24.4093 231.05 24.6403 231.191 24.6916 231.422C24.7429 231.652 24.6018 231.883 24.3708 231.935C24.2296 231.96 22.1507 232.435 19.3916 232.435Z" fill="black"/>
<path d="M21.9709 227.01L17.3253 226.933C17.0943 226.933 16.9019 226.74 16.9019 226.497C16.9019 226.266 17.0943 226.073 17.3253 226.073C17.3253 226.073 17.3253 226.073 17.3382 226.073L21.9709 226.15C22.2019 226.15 22.3944 226.343 22.3944 226.586C22.3944 226.817 22.2019 227.01 21.9709 227.01Z" fill="black"/>
<path d="M41.7334 210.682L41.9387 221.366L47.8675 221.661L48.6888 211.028L41.7334 210.682Z" fill="white"/>
<path d="M47.8676 222.085C47.8547 222.085 47.8547 222.085 47.8419 222.085L41.9003 221.79C41.6821 221.777 41.5024 221.597 41.5024 221.379L41.2971 210.695C41.2971 210.58 41.3356 210.464 41.4254 210.387C41.5153 210.31 41.6179 210.259 41.7463 210.272L48.7017 210.618C48.8172 210.618 48.9199 210.669 48.9969 210.759C49.0739 210.849 49.1124 210.964 49.0995 211.067L48.2911 221.7C48.2782 221.918 48.0986 222.085 47.8676 222.085ZM42.3494 220.956L47.4826 221.212L48.2269 211.426L42.1569 211.118L42.3494 220.956Z" fill="black"/>
<path d="M40.0784 227.291C40.0142 228.292 40.6559 229.215 41.6312 229.497C45.0062 230.459 52.6033 232.614 54.7849 233.05C57.6082 233.615 61.1501 232.922 62.7413 231.332C64.3326 229.741 59.6614 225.521 57.4157 223.957C54.0919 221.635 50.9992 217.223 49.6261 216.967C48.253 216.71 45.4682 220.583 45.4682 220.583L41.336 218.595C41.336 218.608 40.412 222.187 40.0784 227.291Z" fill="#019AFF"/>
<path d="M56.8252 233.679C56.1066 233.679 55.3879 233.615 54.695 233.474C52.4877 233.025 44.7366 230.832 41.5027 229.908C40.3477 229.575 39.5649 228.472 39.6419 227.266C39.9756 222.187 40.8996 218.544 40.9124 218.506C40.9381 218.378 41.0279 218.275 41.1434 218.224C41.2589 218.172 41.3872 218.172 41.5027 218.224L45.3141 220.058C46.0969 219.006 48.2913 216.287 49.6901 216.556C50.5114 216.71 51.5894 217.852 53.0908 219.417C54.464 220.853 56.0168 222.482 57.6465 223.623C59.4688 224.893 63.2802 228.202 63.4727 230.357C63.524 230.87 63.37 231.319 63.0364 231.64C61.7659 232.909 59.2892 233.679 56.8252 233.679ZM41.6182 219.224C41.3615 220.378 40.7584 223.418 40.5017 227.33C40.4504 228.138 40.9766 228.882 41.7465 229.1C44.9676 230.024 52.693 232.217 54.8618 232.653C57.608 233.204 61.0088 232.486 62.4332 231.05C62.5872 230.896 62.6514 230.703 62.6257 230.434C62.4846 228.831 59.3662 225.855 57.1589 224.329C55.4649 223.149 53.8737 221.482 52.4749 220.019C51.2942 218.788 50.0879 217.518 49.5361 217.403C48.856 217.275 47.0594 219.096 45.8017 220.853C45.6862 221.02 45.4553 221.084 45.2756 220.994L41.6182 219.224Z" fill="black"/>
<path d="M57.0817 231.717C50.7807 231.717 41.9517 227.625 41.464 227.395C41.2458 227.292 41.156 227.048 41.2587 226.83C41.3613 226.612 41.6052 226.522 41.8233 226.625C41.9645 226.689 56.6197 233.487 61.1754 229.767C61.355 229.613 61.6245 229.652 61.7785 229.831C61.9325 230.011 61.894 230.28 61.7144 230.434C60.5851 231.358 58.9425 231.717 57.0817 231.717Z" fill="black"/>
<path d="M50.0493 224.932C49.9209 224.932 49.8054 224.88 49.7156 224.778C49.5616 224.598 49.6001 224.329 49.7798 224.175L52.9367 221.61C53.1163 221.456 53.3858 221.494 53.5398 221.674C53.6938 221.854 53.6553 222.123 53.4757 222.277L50.3188 224.842C50.2418 224.893 50.1391 224.932 50.0493 224.932Z" fill="black"/>
<path d="M22.3817 139.575C22.3817 139.575 16.9149 173.218 15.375 184.658C13.835 196.099 16.1193 214.722 16.1193 214.722L25.3076 214.697C25.3076 214.697 27.0658 192.277 28.0667 186.069C28.0667 186.069 32.3658 177.809 33.8929 170.332C35.42 162.854 39.9372 151.144 39.9372 151.144C39.9372 151.144 40.1168 210.746 40.181 215.428C40.181 215.428 47.3546 216.108 50.011 214.62C50.011 214.62 55.6704 193.175 55.6062 181.349C55.542 169.524 55.4137 139.934 55.4137 139.934L22.3817 139.575Z" fill="black"/>
<path d="M26.3726 186.415C26.3598 186.415 26.3598 186.415 26.3469 186.415L23.5493 186.274C23.3184 186.262 23.1387 186.069 23.1515 185.826C23.1644 185.595 23.3569 185.415 23.6007 185.428L26.3983 185.569C26.6293 185.582 26.8089 185.774 26.7961 186.018C26.7832 186.236 26.5908 186.415 26.3726 186.415Z" fill="white"/>
<path d="M45.4551 204.705C45.4423 204.705 45.4295 204.705 45.4295 204.705C45.1985 204.692 45.0188 204.487 45.0317 204.256C45.4166 198.728 51.9614 189.147 52.2438 188.75C52.3721 188.557 52.6416 188.506 52.8341 188.634C53.0266 188.763 53.0779 189.032 52.9496 189.224C52.8854 189.327 46.2508 199.011 45.8915 204.308C45.8658 204.539 45.6861 204.705 45.4551 204.705Z" fill="white"/>
<path d="M47.3416 90.3365C57.8517 110.024 56.8508 118.695 71.66 98.3912L73.2512 106.407C73.2512 106.407 44.9931 149.554 49.998 107.677L47.3416 90.3365Z" fill="white"/>
<path d="M53.5656 126.39C53.1549 126.39 52.7699 126.326 52.3978 126.198C49.151 125.018 48.2271 118.964 49.5745 107.703L46.9181 90.4134C46.8924 90.2082 47.0079 90.0158 47.2004 89.9517C47.3929 89.8876 47.6111 89.9773 47.7137 90.1569C49.5488 93.5814 51.0118 96.6468 52.2951 99.3403C55.1825 105.368 57.0946 109.357 59.5072 109.588C61.8556 109.806 65.1665 106.6 71.3135 98.1731C71.4162 98.032 71.583 97.9679 71.7498 98.0064C71.9167 98.0449 72.045 98.1731 72.0706 98.3399L73.6619 106.356C73.6876 106.471 73.6619 106.574 73.5978 106.677C73.0588 107.498 60.598 126.39 53.5656 126.39ZM48.1501 92.799L50.4343 107.626C50.4343 107.664 50.4472 107.703 50.4343 107.741C48.843 121.067 50.7808 124.697 52.6929 125.403C57.6978 127.224 68.8111 112.397 72.8021 106.33L71.429 99.4301C65.282 107.767 62.1123 110.666 59.4302 110.409C56.5428 110.14 54.6564 106.202 51.538 99.6866C50.537 97.6088 49.4462 95.3129 48.1501 92.799Z" fill="black"/>
<path d="M22.5356 140.999L55.7729 142.487L52.6802 107.01H58.0187L54.3099 96.865C52.308 91.4139 47.3545 87.6046 41.5668 87.0916C36.716 86.6683 30.2354 86.3349 22.5869 86.5401C18.4291 86.6555 14.4765 88.3742 11.5635 91.3498C7.52108 95.4798 2.00292 101.777 0.501465 106.882L18.6472 113.731L20.3797 111.192C20.3797 111.192 23.2928 126.993 22.5356 140.999Z" fill="#019AFF"/>
<path d="M20.3798 111.615C20.3156 111.615 20.2643 111.602 20.2001 111.576C19.9819 111.474 19.8921 111.23 19.9948 111.012L23.1902 104.163C23.2928 103.945 23.5367 103.855 23.7548 103.958C23.973 104.06 24.0628 104.304 23.9601 104.522L20.7647 111.371C20.6877 111.525 20.5337 111.615 20.3798 111.615Z" fill="black"/>
<path d="M44.7108 74.4195C44.467 74.4195 44.159 74.3297 43.7997 74.0475C43.4147 73.7525 43.0554 73.2908 42.7859 72.7393C42.5164 72.2006 42.3496 71.6363 42.3368 71.1489C42.3111 70.3409 42.6704 70.033 42.9014 69.9176C43.6072 69.5585 44.5953 70.2254 45.237 71.4952C45.8786 72.765 45.8401 73.9578 45.1343 74.3169C45.0317 74.381 44.8905 74.4195 44.7108 74.4195ZM43.3121 70.6871C43.2992 70.6871 43.2864 70.6872 43.2736 70.7C43.2351 70.7128 43.1709 70.8539 43.1837 71.1361C43.1966 71.4952 43.3249 71.9441 43.543 72.3674C43.7612 72.7906 44.0435 73.1626 44.3259 73.3806C44.5568 73.5602 44.7108 73.5858 44.7365 73.5602C44.852 73.496 44.9547 72.8291 44.467 71.88C44.0307 71.0206 43.4917 70.6871 43.3121 70.6871Z" fill="black"/>
<path d="M37.3448 89.3874C36.0359 89.3874 34.7782 89.1694 33.5976 88.7846C32.5325 88.4383 31.5315 87.9509 30.6204 87.3353C34.5986 85.9372 33.1998 79.8834 33.1998 79.8834C30.1969 73.2652 32.5325 69.0583 36.0872 68.1733C41.1305 66.9292 41.7593 69.8535 41.7593 69.8535C42.1443 70.6359 43.0298 72.47 43.3763 72.6752C43.7998 72.9317 44.8136 73.1882 44.9804 73.4063C45.1472 73.6115 45.0446 74.3041 44.4158 74.8813C44.4158 74.8813 46.2509 78.7034 45.6349 79.8577C45.0189 81.0121 40.6814 81.974 40.6814 81.974C40.6814 81.974 39.6547 86.617 42.4908 88.2202C41.4129 88.7204 40.2579 89.0796 39.0388 89.2463C38.4741 89.3361 37.9095 89.3874 37.3448 89.3874Z" fill="white"/>
<path d="M37.345 89.8107C36.036 89.8107 34.7271 89.6055 33.4695 89.195C32.3658 88.8359 31.3264 88.3357 30.3767 87.6944C30.2484 87.6046 30.1714 87.4507 30.1971 87.284C30.2227 87.1301 30.3254 86.989 30.4794 86.9377C33.9058 85.732 32.892 80.5247 32.7893 80.0245C31.2109 76.523 30.967 73.2909 32.1092 70.9181C32.892 69.3148 34.2651 68.199 35.9719 67.7757C38.0508 67.2627 39.6934 67.3653 40.8484 68.0835C41.798 68.6735 42.0932 69.4944 42.1574 69.7253C43.1198 71.6876 43.4791 72.2391 43.6075 72.3546C43.7486 72.4444 44.0566 72.5598 44.3133 72.6496C44.8394 72.842 45.1474 72.9702 45.3014 73.1754C45.5966 73.5474 45.5067 74.317 44.9164 74.9967C45.3912 76.0485 46.6104 78.9343 46.0072 80.0886C45.4041 81.2301 42.183 82.0895 41.0409 82.3588C40.8869 83.3207 40.5276 86.6683 42.6835 87.8868C42.8247 87.9637 42.9017 88.1176 42.9017 88.2716C42.9017 88.4255 42.799 88.5666 42.6578 88.6435C41.5157 89.1694 40.3222 89.5285 39.0903 89.6952C38.5 89.7722 37.9096 89.8107 37.345 89.8107ZM31.5188 87.3994C32.2118 87.797 32.9561 88.1305 33.7389 88.387C34.9196 88.7718 36.1259 88.9642 37.3578 88.9642C37.884 88.9642 38.423 88.9257 38.9748 88.8487C39.8859 88.7205 40.7714 88.4896 41.6184 88.1561C39.3598 86.1681 40.2196 82.1023 40.2581 81.9099C40.2966 81.7432 40.4249 81.6277 40.5789 81.5892C42.2985 81.2045 44.8908 80.3708 45.2501 79.691C45.5966 79.0241 44.7368 76.6 44.0181 75.0993C43.9411 74.9326 43.9796 74.7274 44.108 74.5991C44.5186 74.2143 44.6084 73.8424 44.6084 73.6885C44.4801 73.6243 44.1978 73.5089 44.0053 73.4448C43.6845 73.3293 43.3636 73.2011 43.1327 73.06C42.799 72.8548 42.337 72.0724 41.3489 70.0587C41.336 70.0331 41.3232 69.9946 41.3104 69.969C41.3104 69.9433 41.1435 69.2764 40.3479 68.8018C39.4111 68.2375 37.961 68.1605 36.1515 68.6094C34.6886 68.9685 33.5208 69.9305 32.8535 71.3029C31.814 73.4448 32.0707 76.4332 33.5593 79.7295C33.5721 79.7551 33.5849 79.7808 33.5849 79.8064C33.6619 80.0501 34.8682 85.4755 31.5188 87.3994Z" fill="black"/>
<path d="M33.2513 66.3905C34.5217 66.0313 35.9975 66.0955 36.6135 65.8261C37.6016 65.3901 37.4733 64.2357 38.8849 63.992C40.1297 63.7868 41.3232 63.9151 42.029 64.8257C42.1445 64.9796 42.26 65.1464 42.3498 65.3387C43.569 67.9681 42.3242 69.3917 41.7467 69.8663C41.7467 69.8663 38.0765 72.0339 37.4605 72.611C36.883 73.1626 36.2542 74.3939 36.806 76.0612C36.8702 76.2793 36.7932 76.5101 36.6135 76.6256H36.6007C36.3825 76.7795 36.0874 76.741 35.9077 76.5358C35.3687 75.8945 34.2137 74.6632 33.4694 75.0351C32.5583 75.4841 32.4813 77.9723 34.4319 78.216C34.7912 78.2673 34.9966 78.6392 34.8554 78.9599C34.6244 79.4729 34.1624 80.0373 33.1743 79.8833C33.1743 79.8833 28.8111 77.3053 27.9898 73.4832C27.1813 69.6739 31.5573 66.865 33.2513 66.3905Z" fill="black"/>
<path d="M41.7851 75.5097C41.0537 75.5097 40.2324 74.9069 39.7319 73.9449C39.4495 73.3934 39.3212 72.7906 39.3597 72.2647C39.411 71.6747 39.6805 71.2002 40.1169 70.9821C40.9638 70.5589 42.106 71.1873 42.7348 72.4186C43.3636 73.6499 43.1968 74.9582 42.3498 75.3814C42.183 75.4712 41.9905 75.5097 41.7851 75.5097ZM40.6943 71.7004C40.6302 71.7004 40.566 71.7132 40.5147 71.7389C40.3478 71.8158 40.2452 72.0339 40.2195 72.3289C40.1939 72.7008 40.2965 73.1497 40.5018 73.5601C40.9253 74.381 41.6311 74.8043 41.9776 74.6247C42.3241 74.4451 42.4139 73.6243 41.9905 72.8034C41.6311 72.098 41.0665 71.7004 40.6943 71.7004Z" fill="black"/>
<path d="M42.3242 72.8803C42.26 72.8803 42.2087 72.8675 42.1445 72.8418C41.9392 72.7392 41.8365 72.4955 41.9392 72.2903C42.0547 72.0209 42.414 71.5849 42.953 71.5977C43.184 71.6105 43.3637 71.8029 43.3637 72.0338C43.3508 72.2646 43.1583 72.4442 42.9273 72.4442C42.8503 72.4442 42.7477 72.5853 42.722 72.6366C42.6322 72.7905 42.4782 72.8803 42.3242 72.8803Z" fill="black"/>
<path d="M35.561 75.266C35.3942 75.266 35.2402 75.1762 35.176 75.0223C35.0734 74.8042 35.176 74.5605 35.3813 74.4579L39.6162 72.5084C39.8344 72.4058 40.0782 72.5084 40.1809 72.7136C40.2835 72.9317 40.1809 73.1753 39.9755 73.2779L35.7407 75.2275C35.6765 75.2531 35.6252 75.266 35.561 75.266Z" fill="black"/>
<path d="M71.8527 62.8633C67.2328 81.6917 78.6156 100.648 97.2747 105.214C115.934 109.781 134.798 98.2243 139.405 79.4087C144.025 60.5803 132.642 41.6235 113.983 37.0575C95.3369 32.4787 76.4725 44.0348 71.8527 62.8633ZM76.3057 63.9535C80.3096 47.6132 96.6972 37.5834 112.892 41.5466C129.088 45.5098 138.969 61.9783 134.965 78.3185C130.961 94.6587 114.574 104.689 98.3784 100.725C82.1832 96.7622 72.3018 80.2937 76.3057 63.9535Z" fill="black"/>
<path d="M8.4065 149.605L9.90795 151.503C11.4479 153.376 14.6305 151.401 18.9937 147.732L81.1307 95.4155L77.0627 87.6045L13.4242 140.935C9.06098 144.603 6.86655 147.732 8.4065 149.605Z" fill="black"/>
<path d="M3.83808 107.754L17.3255 112.731C17.3255 112.731 15.0412 133.791 29.6066 141.025C29.6066 141.025 37.4989 140.05 40.2323 144.731C40.2323 144.731 34.7013 144.488 30.0814 145.757C25.4616 147.027 -2.09073 139.088 3.83808 107.754Z" fill="white"/>
<path d="M28.9137 146.309C25.359 146.309 17.8645 144.064 11.8844 138.562C6.32773 133.444 0.33475 123.928 3.41465 107.677C3.45315 107.446 3.68415 107.292 3.91514 107.344C4.14613 107.382 4.30013 107.613 4.24879 107.844C1.24589 123.71 7.05921 132.97 12.4619 137.946C19.5456 144.462 27.9641 145.911 29.966 145.36C33.5849 144.359 37.6786 144.282 39.411 144.308C36.5108 140.665 29.7222 141.461 29.658 141.461C29.581 141.473 29.4912 141.461 29.4142 141.422C23.3442 138.395 19.2505 132.598 17.5822 124.646C16.3374 118.669 16.8892 113.513 16.9021 113.462C16.9277 113.231 17.1331 113.064 17.3769 113.09C17.6079 113.115 17.7747 113.321 17.749 113.564C17.749 113.616 17.1972 118.656 18.4292 124.505C19.5456 129.827 22.4074 136.933 29.6837 140.614C30.7745 140.499 37.9224 139.96 40.6045 144.552C40.6815 144.68 40.6815 144.847 40.6045 144.988C40.5275 145.116 40.3735 145.193 40.2195 145.193C40.1682 145.193 34.7013 144.962 30.197 146.206C29.8633 146.257 29.427 146.309 28.9137 146.309Z" fill="black"/>
<path d="M71.3137 106.702C74.1241 106.318 79.2572 104.817 76.3442 98.8016C76.0618 98.2245 75.3689 97.9936 74.7914 98.2758C73.0204 99.1351 70.2485 102.111 69.6967 105.009C69.517 105.958 70.3384 106.831 71.3137 106.702Z" fill="white"/>
<path d="M71.1211 107.138C70.6078 107.138 70.1073 106.933 69.748 106.548C69.3245 106.112 69.1577 105.51 69.2732 104.92C69.8764 101.764 72.8023 98.7503 74.5989 97.8782C74.9839 97.6858 75.4202 97.6601 75.818 97.8012C76.2158 97.9423 76.5366 98.2245 76.7163 98.5964C77.7686 100.764 77.9098 102.598 77.127 104.035C76.0233 106.074 73.3797 106.831 71.3521 107.113C71.288 107.126 71.211 107.138 71.1211 107.138ZM71.2623 106.279C72.7638 106.074 75.4202 105.471 76.3955 103.65C77.0371 102.47 76.8831 100.892 75.9592 98.9812C75.8693 98.8016 75.7282 98.6734 75.5485 98.6092C75.356 98.5451 75.1507 98.5579 74.971 98.6477C73.2899 99.4557 70.6335 102.303 70.1073 105.086C70.0432 105.407 70.1458 105.728 70.364 105.971C70.6078 106.202 70.9287 106.318 71.2623 106.279Z" fill="black"/>
</svg>
