<svg width="229" height="229" viewBox="0 0 229 229" fill="none" xmlns="http://www.w3.org/2000/svg">
<g clip-path="url(#clip0_100_52)">
<path d="M91.0399 6.78717C86.0752 8.33997 64.0656 15.5655 42.0935 34.7125C36.7662 39.3583 15.2568 58.1171 6.05275 83.3376C-9.59158 126.265 9.12909 191.57 63.0777 217.805C125.905 248.372 205.265 210.742 223.373 160.389C231.401 138.061 231.764 101.019 211.542 76.6004C195.26 56.9525 167.436 47.6107 168.511 29.0147C169.036 20.0611 175.752 17.5816 173.889 11.9465C169.449 -1.41511 126.105 -4.19511 91.0399 6.78717Z" fill="#D6EFFF"/>
<path d="M115.601 159.588L117.101 162.38L120.428 161.453C120.89 162.042 121.391 162.58 121.941 163.056L120.815 166.325L123.504 167.99L125.918 165.511C126.605 165.774 127.306 165.987 128.031 166.137L128.694 169.531L131.858 169.618L132.721 166.275C133.446 166.162 134.159 165.999 134.859 165.761L137.122 168.366L139.911 166.863L138.986 163.532C139.574 163.069 140.111 162.568 140.586 162.017L143.85 163.144L145.514 160.452L143.038 158.035C143.3 157.346 143.513 156.645 143.675 155.918L147.064 155.255L147.152 152.087L143.813 151.223C143.7 150.496 143.538 149.782 143.3 149.081L145.901 146.815L144.401 144.022L141.074 144.949C140.612 144.36 140.111 143.822 139.561 143.346L140.687 140.077L137.998 138.412L135.584 140.891C134.897 140.628 134.196 140.416 133.471 140.253L132.808 136.859L129.644 136.771L128.781 140.115C128.056 140.228 127.343 140.391 126.643 140.628L124.379 138.024L121.591 139.526L122.516 142.857C121.928 143.321 121.391 143.822 120.915 144.373L117.651 143.246L115.988 145.938L118.464 148.355C118.202 149.044 117.989 149.745 117.839 150.471L114.45 151.135L114.363 154.303L117.702 155.167C117.814 155.893 117.977 156.607 118.214 157.308L115.601 159.588ZM126.893 146.013C130.857 143.872 135.797 145.362 137.923 149.319C140.061 153.289 138.573 158.235 134.621 160.364C130.657 162.505 125.718 161.015 123.592 157.058C121.453 153.101 122.941 148.154 126.893 146.013Z" fill="#6DC2FA"/>
<path d="M82.0483 194.926L84.4369 199.034L89.3765 197.468C90.1019 198.32 90.8772 199.096 91.7151 199.81L90.1894 204.769L94.3037 207.136L97.8052 203.304C98.8432 203.667 99.9186 203.955 100.994 204.143L102.157 209.202L106.909 209.189L108.035 204.13C109.11 203.93 110.173 203.642 111.224 203.254L114.75 207.061L118.852 204.669L117.289 199.722C118.139 198.996 118.914 198.22 119.627 197.381L124.579 198.908L126.943 194.788L123.116 191.282C123.479 190.243 123.767 189.166 123.954 188.089L129.006 186.924L128.994 182.166L123.942 181.039C123.742 179.962 123.454 178.897 123.066 177.845L126.868 174.314L124.479 170.207L119.54 171.772C118.814 170.92 118.039 170.144 117.201 169.43L118.727 164.471L114.613 162.105L111.111 165.936C110.073 165.573 108.998 165.285 107.922 165.097L106.759 160.038L102.007 160.051L100.882 165.11C99.8061 165.31 98.7431 165.598 97.6927 165.987L94.1661 162.18L90.0643 164.571L91.6275 169.518C90.7772 170.244 90.0018 171.021 89.289 171.86L84.3368 170.332L81.9733 174.452L85.8 177.958C85.4373 178.997 85.1497 180.074 84.9621 181.151L79.9099 182.316L79.9224 187.075L84.9746 188.202C85.1747 189.279 85.4623 190.343 85.85 191.395L82.0483 194.926ZM98.3054 174.039C104.133 170.632 111.624 172.611 115.013 178.459C118.414 184.295 116.438 191.796 110.598 195.189C104.771 198.595 97.28 196.617 93.891 190.769C90.502 184.921 92.4779 177.432 98.3054 174.039Z" fill="#6DC2FA"/>
<path d="M85.7002 205.871L86.1629 215.05L81.7484 215.012L80.4229 206.134L85.7002 205.871Z" fill="white"/>
<path d="M86.1628 215.463L81.7358 215.413C81.5358 215.413 81.3607 215.263 81.3357 215.062L80.0226 206.196C80.0101 206.084 80.0351 205.958 80.1101 205.871C80.1852 205.783 80.2977 205.721 80.4103 205.721L85.6876 205.458C85.8001 205.458 85.9002 205.495 85.9877 205.558C86.0627 205.633 86.1128 205.733 86.1253 205.846L86.588 215.025C86.588 215.137 86.5505 215.25 86.4754 215.338C86.3879 215.425 86.2753 215.463 86.1628 215.463ZM82.0985 214.599L85.7251 214.637L85.2999 206.309L80.898 206.534L82.0985 214.599Z" fill="black"/>
<path d="M81.6732 226.759C83.474 226.859 88.4387 226.759 89.8143 226.07C91.0273 225.469 91.9902 222.864 91.3149 221.937C89.6267 219.633 88.3511 215.563 87.2632 212.37C87.2006 212.195 86.963 212.17 86.863 212.333L85.9876 213.798L85.2123 212.157C85.0872 211.982 84.8871 211.869 84.6745 211.857L83.1239 211.907C82.7737 211.894 82.4111 212.257 82.211 212.583L81.173 214.036L80.4977 212.934C80.3852 212.746 80.0975 212.821 80.085 213.034L79.3347 223.803C79.3847 225.544 80.6228 226.696 81.6732 226.759Z" fill="white"/>
<path d="M83.2239 227.209C82.5862 227.209 82.0484 227.197 81.6608 227.172C80.3852 227.097 78.9846 225.744 78.9346 223.841C78.9346 223.828 78.9346 223.816 78.9346 223.803L79.6849 213.034C79.7099 212.758 79.8975 212.52 80.1726 212.458C80.4477 212.395 80.7228 212.508 80.8604 212.746L81.2106 213.322L81.8734 212.395C82.1235 211.982 82.5987 211.506 83.1364 211.531L84.6746 211.481C84.6871 211.481 84.6996 211.481 84.6996 211.481C85.0497 211.493 85.3749 211.681 85.5625 211.969C85.575 211.982 85.5875 212.007 85.5875 212.019L86.0252 212.946L86.5004 212.145C86.6254 211.932 86.863 211.807 87.1131 211.832C87.3632 211.857 87.5633 212.019 87.6509 212.257C87.7634 212.583 87.876 212.921 87.9885 213.259C89.0015 216.277 90.1645 219.696 91.6401 221.712C91.9653 222.15 92.0278 222.864 91.8277 223.715C91.5901 224.717 90.9023 226.007 89.9894 226.458C88.8139 227.034 85.4624 227.209 83.2239 227.209ZM81.6983 226.345C83.7492 226.458 88.4262 226.308 89.6267 225.707C90.1895 225.431 90.7897 224.479 91.0274 223.503C91.1649 222.927 91.1524 222.426 90.9773 222.188C89.4267 220.071 88.2511 216.59 87.2132 213.51C87.1382 213.309 87.0756 213.109 87.0131 212.909L86.3503 214.023C86.2753 214.161 86.1252 214.236 85.9751 214.223C85.8251 214.211 85.6875 214.123 85.625 213.985L84.8747 212.383C84.8246 212.32 84.7621 212.295 84.6871 212.282L83.1614 212.332C83.1489 212.332 83.1364 212.332 83.1364 212.332C83.0239 212.332 82.7612 212.52 82.5987 212.808C82.5862 212.821 82.5862 212.833 82.5737 212.846L81.5357 214.299C81.4607 214.411 81.3231 214.474 81.1856 214.474C81.048 214.474 80.9229 214.399 80.8479 214.273L80.4852 213.672L79.7724 223.828C79.81 225.381 80.9354 226.308 81.6983 226.345Z" fill="black"/>
<path d="M84.462 225.13C82.5236 225.13 81.2106 224.78 81.123 224.755C80.8979 224.692 80.7729 224.467 80.8354 224.241C80.8979 224.016 81.123 223.891 81.3481 223.953C81.3856 223.966 84.8997 224.905 88.9514 223.615C89.164 223.54 89.4016 223.665 89.4642 223.878C89.5392 224.091 89.4141 224.329 89.2015 224.392C87.4383 224.955 85.8001 225.13 84.462 225.13Z" fill="black"/>
<path d="M83.0864 220.397C82.8738 220.397 82.6862 220.222 82.6737 220.009C82.6612 219.784 82.8363 219.583 83.0614 219.571L87.0882 219.37C87.3133 219.358 87.5133 219.533 87.5259 219.758C87.5384 219.984 87.3633 220.184 87.1382 220.197L83.1114 220.397C83.0989 220.397 83.0989 220.397 83.0864 220.397Z" fill="black"/>
<path d="M53.0358 202.653L52.2979 213.785L48.1586 213.848L47.6084 202.928L53.0358 202.653Z" fill="white"/>
<path d="M48.1587 214.261C47.9336 214.261 47.7585 214.086 47.746 213.873L47.1958 202.941C47.1958 202.828 47.2333 202.728 47.2958 202.64C47.3709 202.565 47.4709 202.515 47.5835 202.502L53.0108 202.227C53.1359 202.227 53.2484 202.264 53.3235 202.352C53.411 202.44 53.4485 202.552 53.436 202.665L52.6857 213.798C52.6732 214.011 52.4981 214.186 52.2855 214.186L48.1587 214.261ZM48.0462 203.316L48.5589 213.434L51.9229 213.384L52.6107 203.091L48.0462 203.316Z" fill="black"/>
<path d="M53.5109 211.08C53.5109 211.08 53.9236 215.976 53.8611 217.968C53.8111 219.395 52.0978 223.765 51.1224 226.132C50.7222 227.109 49.8218 227.885 48.9089 228.148C47.1832 228.637 46.3328 228.662 44.7196 228.474C42.5311 228.236 41.7683 226.283 42.306 224.342C42.8063 222.563 43.6941 220.585 45.1948 218.13C46.2828 216.352 47.0956 211.205 47.0956 211.205L50.4596 211.03L51.5476 213.81L53.5109 211.08Z" fill="white"/>
<path d="M46.2453 229C45.7701 229 45.2699 228.962 44.6696 228.887C43.6317 228.775 42.8188 228.299 42.2936 227.535C41.7058 226.658 41.5683 225.456 41.9059 224.241C42.4437 222.313 43.3816 220.309 44.8322 217.918C45.8702 216.227 46.6705 211.193 46.683 211.143C46.708 210.955 46.8706 210.805 47.0707 210.792L50.4346 210.617C50.6097 210.604 50.7723 210.717 50.8348 210.88L51.6477 212.946L53.1733 210.817C53.2734 210.68 53.4485 210.617 53.6235 210.654C53.7861 210.705 53.9112 210.842 53.9237 211.018C53.9362 211.218 54.3363 215.964 54.2738 217.955C54.2238 219.358 52.7356 223.252 51.4976 226.27C51.0599 227.335 50.0845 228.224 49.009 228.524C47.871 228.875 47.0957 229 46.2453 229ZM47.4333 211.619C47.2332 212.808 46.4954 216.778 45.5325 218.368C44.1194 220.685 43.219 222.626 42.6938 224.479C42.4186 225.456 42.5187 226.408 42.9689 227.084C43.344 227.648 43.9693 227.998 44.7447 228.086C46.3203 228.261 47.1207 228.236 48.7839 227.773C49.6093 227.535 50.3846 226.821 50.7223 225.995C52.4105 221.875 53.3984 218.957 53.436 217.968C53.486 216.603 53.2984 213.81 53.1733 212.257L51.8603 214.086C51.7727 214.211 51.6227 214.274 51.4726 214.248C51.3225 214.236 51.1975 214.136 51.1349 213.985L50.147 211.481L47.4333 211.619Z" fill="black"/>
<path d="M45.6075 226.984C45.0948 226.984 44.5196 226.934 44.0318 226.771C43.8192 226.696 43.6942 226.458 43.7692 226.245C43.8443 226.032 44.0819 225.907 44.2945 225.982C45.0573 226.245 46.2578 226.145 46.7205 226.07C47.5209 225.919 48.2462 225.506 48.7589 224.88C49.1966 224.354 49.5092 223.866 49.6968 223.452C50.072 222.601 50.4471 221.624 50.7098 220.91C51.1474 219.758 51.1975 219.658 51.31 219.558C51.4851 219.408 51.7352 219.42 51.8978 219.583C52.0353 219.733 52.0353 219.959 51.9228 220.109C51.8603 220.234 51.6727 220.723 51.4851 221.211C51.21 221.925 50.8348 222.914 50.4471 223.791C50.2345 224.279 49.8844 224.83 49.3967 225.418C48.7589 226.195 47.8585 226.721 46.8706 226.896C46.633 226.934 46.1578 226.984 45.6075 226.984Z" fill="black"/>
<path d="M45.0698 222.451C44.8572 222.451 44.6696 222.275 44.6571 222.063C44.6446 221.837 44.8197 221.637 45.0448 221.624L48.7339 221.436C48.959 221.424 49.1591 221.599 49.1716 221.825C49.1841 222.05 49.009 222.25 48.7839 222.263L45.0948 222.451C45.0823 222.451 45.0823 222.451 45.0698 222.451Z" fill="black"/>
<path d="M88.1636 113.705C88.1636 113.705 89.4267 147.516 89.114 169.593C88.8514 188.577 87.3758 203.78 86.9631 207.662C86.9006 208.25 86.4629 208.726 85.8751 208.839C84.7371 209.052 82.7488 209.315 80.8104 209.052C80.2727 208.976 79.835 208.601 79.6849 208.075C78.6595 204.331 74.4576 188.69 74.145 182.641C73.8199 176.092 74.9078 174.389 74.7703 169.042C74.6702 165.035 72.6193 150.897 71.5939 144.034C71.4563 143.133 70.1933 143.045 69.9432 143.922C68.0924 150.283 64.1406 164.02 60.5015 178.108C60.314 178.835 59.5261 184.946 59.3385 185.659C57.0875 194.45 54.9116 201.526 54.1988 205.645C54.0862 206.309 53.5735 206.848 52.9107 206.985C51.6352 207.261 49.4842 207.561 47.5459 207.048C46.8456 206.86 46.3579 206.234 46.3203 205.508C46.1328 201.025 45.4575 184.357 45.6951 181.552C46.2078 175.516 50.5847 169.368 51.0974 162.956C51.6102 156.544 51.2975 140.528 53.1233 130.823C54.9491 121.118 58.9384 110.111 58.9384 110.111L88.1636 113.705Z" fill="black"/>
<path d="M70.3934 49.2011C72.7069 47.6733 76.5836 48.4998 78.0717 52.3442C79.2848 55.4874 76.5711 57.9168 75.8708 60.246C73.6448 67.7595 80.8605 83.7759 75.9583 91.9531C72.0441 98.4773 61.1643 103.299 51.7853 99.2287C42.8689 95.3592 36.8037 86.0424 40.4178 78.4162C43.6692 71.5664 49.8219 74.7972 53.5485 68.0475C57.2251 61.3855 53.8486 58.2549 56.5373 54.9114C60.2264 50.3406 63.8155 53.5464 70.3934 49.2011Z" fill="black"/>
<path d="M57.9003 127.88C57.7503 127.88 57.6002 127.793 57.5252 127.642C57.4251 127.429 57.5127 127.191 57.7253 127.091C63.4278 124.399 64.8784 118.588 64.8909 118.526C64.9409 118.3 65.166 118.163 65.3911 118.225C65.6162 118.275 65.7538 118.501 65.6912 118.726C65.6287 118.977 64.1406 124.988 58.0629 127.843C58.0254 127.868 57.9629 127.88 57.9003 127.88Z" fill="white"/>
<path d="M110.836 42.6768L109.36 47.4103C108.873 48.8754 109.123 50.4908 110.011 51.7431L111.661 54.1224C111.936 54.5106 112.011 54.999 112.024 55.4748C112.049 56.5518 111.886 58.1922 111.886 58.1922L115.826 58.2548C115.826 58.2548 115.388 56.1761 115.188 55.4623C114.938 54.5481 114.925 53.5463 115.325 52.6823C116.588 49.9398 116.226 47.1849 116.226 47.1849L113.525 47.9112C113.525 47.9112 112.687 46.4836 112.849 44.0042C112.887 43.3905 112.824 42.9272 112.699 42.5766C112.387 41.6624 111.074 41.7501 110.836 42.6768Z" fill="white"/>
<path d="M115.826 58.6681L111.874 58.6055C111.761 58.6055 111.649 58.5554 111.574 58.4677C111.499 58.3801 111.461 58.2674 111.474 58.1547C111.474 58.1422 111.636 56.5268 111.611 55.4874C111.599 54.9865 111.511 54.6358 111.324 54.3603L109.673 51.9811C108.71 50.6286 108.435 48.8629 108.96 47.2726L110.436 42.5516C110.598 41.9505 111.111 41.5372 111.736 41.5122C112.362 41.4872 112.887 41.8503 113.087 42.4263C113.237 42.8646 113.3 43.4031 113.262 44.0167C113.149 45.7323 113.537 46.9094 113.75 47.4103L116.126 46.7717C116.238 46.7466 116.363 46.7592 116.463 46.8218C116.563 46.8844 116.626 46.9971 116.638 47.1098C116.651 47.2225 117.014 50.015 115.713 52.8326C115.388 53.5339 115.35 54.423 115.601 55.3246C115.801 56.0384 116.226 58.067 116.238 58.1422C116.263 58.2674 116.238 58.3926 116.151 58.4928C116.063 58.618 115.951 58.6681 115.826 58.6681ZM112.337 57.7915L115.313 57.8416C115.175 57.1779 114.925 56.0509 114.8 55.575C114.5 54.4856 114.55 53.3961 114.963 52.5195C115.863 50.5785 115.901 48.6 115.863 47.7234L113.637 48.312C113.462 48.362 113.275 48.2869 113.174 48.1241C113.137 48.0615 112.274 46.5588 112.437 43.9791C112.474 43.4782 112.424 43.0525 112.312 42.7144C112.187 42.3637 111.861 42.3512 111.774 42.3512C111.561 42.3637 111.311 42.4764 111.236 42.777C111.236 42.7895 111.236 42.7895 111.236 42.802L109.76 47.5356C109.31 48.8755 109.535 50.3657 110.361 51.5052L112.024 53.8845C112.399 54.423 112.449 55.0366 112.462 55.4623C112.449 56.2137 112.387 57.2155 112.337 57.7915Z" fill="black"/>
<path d="M84.562 72.5931C88.001 72.9813 98.3805 77.5645 104.433 71.3533C110.486 65.1296 110.786 56.8647 110.786 56.8647L116.701 56.3513C116.701 56.3513 120.778 66.0438 116.551 77.3516C112.237 88.8849 91.44 92.9422 91.44 92.9422L84.562 72.5931Z" fill="#019AFF"/>
<path d="M91.8778 75.0977C84.8622 70.8651 72.2942 71.2282 66.054 74.0834C54.9742 79.155 48.6214 119.478 52.1604 128.181C55.3994 136.12 82.9364 137.811 90.5772 131.011C93.8286 128.118 92.7532 110.85 92.1779 103.95C92.0028 101.858 91.9153 99.7546 91.9153 97.6508L91.8778 75.0977Z" fill="#019AFF"/>
<path d="M67.9047 62.4749C68.1423 62.4874 68.3423 62.287 68.3173 62.0366C68.1923 60.8845 67.8296 58.7306 68.9301 57.7664C70.3432 56.5266 72.6817 54.6357 73.5946 55.7878C74.395 56.8021 75.1953 58.8558 77.1212 59.6197C77.3088 59.6949 77.3213 59.9578 77.2462 60.1457L76.8461 61.1725C76.7585 61.3729 76.8335 61.8487 76.9211 62.0491C77.1837 62.6877 77.809 64.0151 77.6839 64.3032C77.4463 64.8416 75.3454 65.8184 75.3454 65.8184L76.7335 72.3301C76.7835 72.5806 76.9461 72.9813 77.1962 72.9312L79.7598 73.119C79.7598 73.119 79.5973 76.6504 74.1449 77.6146C67.0168 78.8919 66.0789 74.0958 66.0789 74.0958C66.0789 74.0958 73.0569 73.9831 70.0181 66.3694C69.9556 66.2066 69.8055 66.0814 69.6179 66.0563C68.9426 65.9561 67.0668 65.5805 66.7041 64.3783C66.304 63.0759 67.0668 62.4373 67.9047 62.4749Z" fill="white"/>
<path d="M71.8814 78.2282C66.5166 78.2282 65.6662 74.2085 65.6537 74.1584C65.6287 74.0332 65.6662 73.908 65.7413 73.8203C65.8163 73.7201 65.9288 73.67 66.0539 73.67C66.0789 73.67 68.63 73.6074 69.7805 71.8668C70.5934 70.6396 70.5433 68.8363 69.6179 66.5071C69.6054 66.4821 69.5804 66.457 69.5429 66.4445C68.505 66.2817 66.6917 65.8184 66.304 64.4659C66.0414 63.5518 66.279 62.9758 66.5291 62.6627C66.8417 62.2494 67.3545 62.0366 67.9172 62.0491C67.9047 61.9614 67.8922 61.8613 67.8797 61.7611C67.7296 60.4587 67.492 58.4802 68.6675 57.4533C70.6809 55.6876 72.0065 54.9363 72.9819 55.0239C73.3696 55.0615 73.6947 55.2368 73.9323 55.5374C74.1449 55.8129 74.3575 56.1384 74.5701 56.4891C75.1954 57.4784 75.9582 58.7056 77.2838 59.2315C77.4464 59.2941 77.5839 59.4319 77.659 59.6072C77.7465 59.8201 77.734 60.083 77.6339 60.3085L77.2338 61.3103C77.2088 61.4104 77.2463 61.7235 77.3088 61.8738C77.3463 61.974 77.3963 62.0867 77.4464 62.2119C78.0341 63.5643 78.2092 64.1153 78.0716 64.4534C77.834 64.9919 76.596 65.6681 75.8332 66.0438L77.1587 72.2299C77.1837 72.3426 77.2213 72.4428 77.2588 72.5054L79.8099 72.6933C80.035 72.7058 80.1976 72.9062 80.1976 73.119C80.1851 73.2818 79.96 76.9885 74.245 78.0028C73.3446 78.1531 72.5692 78.2282 71.8814 78.2282ZM66.6041 74.4464C67.0418 75.5359 68.655 78.1531 74.0574 77.1889C78.0716 76.4751 79.0346 74.3713 79.2597 73.4697L77.1963 73.3194C77.0587 73.3319 76.9211 73.3069 76.7961 73.2317C76.4709 73.0314 76.3459 72.543 76.3084 72.4052L74.9203 65.8935C74.8827 65.7057 74.9703 65.5178 75.1454 65.4302C76.1208 64.9794 77.0712 64.4033 77.2588 64.1529C77.2338 63.8649 76.8336 62.9382 76.6585 62.5375C76.6085 62.4122 76.5585 62.2995 76.5085 62.1994C76.4209 61.974 76.2709 61.3603 76.4334 60.9847L76.8336 59.9829C76.8336 59.9703 76.8461 59.9703 76.8461 59.9578C75.3454 59.3192 74.5076 57.9918 73.8448 56.9274C73.6322 56.5893 73.4321 56.2762 73.257 56.0383C73.157 55.913 73.0444 55.8504 72.8819 55.8379C72.1816 55.7753 70.9435 56.5266 69.1928 58.0669C68.3549 58.8057 68.555 60.5965 68.68 61.6609C68.6925 61.7736 68.705 61.8863 68.7176 61.9865C68.7426 62.2244 68.6675 62.4498 68.505 62.6251C68.3424 62.8004 68.1173 62.8881 67.8797 62.8756C67.5796 62.8631 67.3169 62.9632 67.1669 63.1636C66.9793 63.4015 66.9543 63.7772 67.0793 64.228C67.367 65.1923 69.1177 65.5429 69.6555 65.618C69.9806 65.6681 70.2557 65.881 70.3683 66.1815C71.4062 68.7737 71.4312 70.8399 70.4433 72.3051C69.4053 73.8954 67.5295 74.3337 66.6041 74.4464Z" fill="black"/>
<path d="M95.8295 115.696C95.8295 115.696 100.006 114.206 102.908 115.032C102.908 115.032 103.345 116.848 104.596 117.65C105.846 118.451 108.91 118.827 109.498 120.567C110.086 122.308 103.958 123.986 101.77 123.097C99.5811 122.208 97.6052 120.016 95.5418 120.117C93.4409 120.229 95.8295 115.696 95.8295 115.696Z" fill="white"/>
<path d="M103.345 123.748C102.657 123.748 102.045 123.66 101.594 123.485C100.719 123.134 99.9062 122.596 99.1059 122.07C97.8678 121.256 96.6923 120.48 95.5418 120.542C94.929 120.567 94.6289 120.292 94.4663 120.054C93.741 118.914 95.1666 116.072 95.4543 115.508C95.5043 115.421 95.5793 115.345 95.6794 115.308C95.8544 115.245 100.019 113.793 103.008 114.632C103.158 114.669 103.258 114.782 103.295 114.932C103.295 114.945 103.708 116.598 104.796 117.299C105.159 117.537 105.746 117.75 106.359 117.963C107.785 118.476 109.398 119.065 109.861 120.43C109.973 120.78 109.986 121.306 109.36 121.895C108.235 122.972 105.446 123.748 103.345 123.748ZM95.6669 119.703C97.03 119.703 98.318 120.555 99.5686 121.369C100.331 121.87 101.119 122.396 101.92 122.709C103.47 123.335 107.535 122.508 108.823 121.294C109.06 121.068 109.16 120.855 109.098 120.692C108.773 119.703 107.347 119.19 106.096 118.739C105.434 118.501 104.821 118.276 104.371 117.988C103.27 117.274 102.757 115.921 102.582 115.358C100.156 114.794 96.8674 115.784 96.1296 116.022C95.5293 117.211 94.854 119.065 95.1791 119.591C95.2042 119.628 95.2542 119.716 95.5168 119.703C95.5543 119.703 95.6043 119.703 95.6669 119.703Z" fill="black"/>
<path d="M67.192 92.6545L72.0567 103.912C73.0571 106.242 75.0205 108.02 77.434 108.796L96.1172 114.794L95.6795 121.294C95.6795 121.294 71.1438 118.989 66.9044 115.859C62.9277 112.929 57.938 99.3917 57.938 99.3917L67.192 92.6545Z" fill="#019AFF"/>
<path d="M96.1171 115.208C96.0796 115.208 96.0296 115.195 95.9921 115.183L77.3089 109.197C74.7828 108.383 72.7319 106.517 71.6815 104.088L66.8169 92.8297C66.7293 92.6169 66.8169 92.3789 67.0295 92.2913C67.242 92.2036 67.4796 92.2913 67.5672 92.5042L72.4318 103.762C73.3947 105.978 75.258 107.681 77.5591 108.42L96.2422 114.419C96.4548 114.494 96.5799 114.719 96.5048 114.945C96.4548 115.095 96.2922 115.208 96.1171 115.208Z" fill="black"/>
<path d="M89.9394 121.093C89.9269 121.093 89.9019 121.093 89.8894 121.093C80.873 120.029 69.518 118.313 66.6543 116.197C65.3787 115.258 63.8906 113.204 62.2398 110.111C62.1273 109.91 62.2023 109.66 62.4149 109.547C62.615 109.435 62.8651 109.51 62.9777 109.723C64.5784 112.715 65.979 114.669 67.1545 115.533C69.2804 117.098 77.3964 118.789 90.002 120.279C90.2271 120.304 90.3896 120.517 90.3646 120.742C90.3271 120.93 90.152 121.093 89.9394 121.093Z" fill="black"/>
<path d="M143.3 90.8136C142.575 87.7957 134.109 86.8064 133.171 88.2214C130.995 91.5149 127.243 99.7547 125.242 104.3C124.342 106.329 122.816 108.007 120.865 109.071L109.561 115.295C108.96 115.145 103.433 113.73 102.87 113.843C102.282 113.968 101.595 115.057 100.144 115.871C98.6933 116.685 97.6053 117.186 97.943 117.812C98.2431 118.376 100.969 118.163 102.883 117.311C103.27 117.136 103.72 117.249 104.008 117.562C104.696 118.313 107.685 119.653 110.386 119.641L128.506 116.66C130.395 116.347 132.058 115.245 133.058 113.605C136.522 108.007 144.263 94.8584 143.3 90.8136Z" fill="white"/>
<path d="M110.361 120.054C107.672 120.054 104.533 118.739 103.721 117.85C103.558 117.674 103.283 117.612 103.07 117.712C101.282 118.501 98.1306 118.989 97.6054 118.025C97.1051 117.111 98.1431 116.535 99.4562 115.809C99.6187 115.721 99.7938 115.621 99.9689 115.521C100.694 115.107 101.219 114.631 101.645 114.231C102.082 113.83 102.42 113.517 102.808 113.442C103.345 113.329 106.722 114.143 109.523 114.857L120.678 108.708C122.529 107.694 124.017 106.066 124.867 104.125C126.906 99.5167 130.632 91.2894 132.833 87.9835C133.559 86.894 136.535 87.1069 138.173 87.3949C139.336 87.6078 143.163 88.4468 143.7 90.7009C144.663 94.7456 137.673 106.918 133.408 113.818C132.346 115.546 130.582 116.723 128.569 117.061L110.448 120.041C110.423 120.054 110.398 120.054 110.361 120.054ZM103.295 116.823C103.683 116.823 104.058 116.986 104.333 117.286C104.871 117.887 107.71 119.227 110.361 119.227L128.444 116.259C130.22 115.971 131.77 114.932 132.708 113.404C139.736 102.021 143.538 93.6186 142.9 90.9137C142.625 89.7617 140.712 88.7098 138.036 88.2214C135.522 87.7706 133.771 88.0711 133.521 88.4468C131.358 91.7027 127.643 99.8799 125.63 104.463C124.705 106.567 123.091 108.333 121.078 109.435L109.773 115.658C109.686 115.708 109.573 115.721 109.473 115.696C106.559 114.945 103.395 114.206 102.958 114.256C102.808 114.293 102.508 114.556 102.195 114.844C101.745 115.258 101.169 115.784 100.369 116.234C100.194 116.335 100.019 116.435 99.8563 116.522C99.2311 116.873 98.2932 117.386 98.3307 117.599C98.7183 117.85 100.982 117.712 102.745 116.936C102.908 116.86 103.108 116.823 103.295 116.823Z" fill="black"/>
<path d="M179.266 206.823L178.878 213.96L174.114 214.762L173.688 206.347L179.266 206.823Z" fill="white"/>
<path d="M174.114 215.175C174.026 215.175 173.926 215.138 173.851 215.087C173.764 215.012 173.701 214.9 173.701 214.787L173.276 206.372C173.276 206.246 173.313 206.134 173.401 206.059C173.488 205.971 173.601 205.933 173.726 205.946L179.291 206.422C179.516 206.447 179.679 206.635 179.666 206.86L179.279 213.985C179.266 214.173 179.128 214.336 178.941 214.374L174.176 215.175C174.164 215.175 174.139 215.175 174.114 215.175ZM174.126 206.797L174.501 214.273L178.478 213.597L178.828 207.198L174.126 206.797Z" fill="black"/>
<path d="M173.976 227.147C175.989 227.322 179.266 227.41 183.092 226.683C184.343 226.446 185.118 225.181 184.756 223.954C183.73 220.547 181.954 214.098 179.291 211.193L178.753 212.871L177.815 211.368C177.69 211.168 177.465 211.03 177.227 211.018L175.339 210.88C174.939 210.855 174.589 211.13 174.526 211.519L174.301 212.959L173.551 211.118L172.05 224.843C171.95 226.007 172.813 227.034 173.976 227.147Z" fill="#019AFF"/>
<path d="M176.827 227.685C175.714 227.685 174.739 227.635 173.951 227.56C172.563 227.435 171.525 226.195 171.638 224.805L173.138 211.068C173.163 210.88 173.301 210.73 173.488 210.705C173.676 210.68 173.851 210.78 173.926 210.955L174.114 211.418C174.214 210.83 174.764 210.404 175.364 210.454L177.252 210.592C177.628 210.617 177.965 210.83 178.165 211.143L178.628 211.894L178.891 211.068C178.941 210.93 179.053 210.817 179.191 210.792C179.328 210.755 179.478 210.805 179.578 210.918C182.117 213.685 183.868 219.583 184.906 223.102L185.118 223.841C185.331 224.53 185.231 225.281 184.856 225.895C184.481 226.521 183.855 226.946 183.143 227.084C180.804 227.535 178.628 227.685 176.827 227.685ZM174.014 226.734C176.052 226.921 179.278 226.984 183.005 226.27C183.493 226.183 183.918 225.882 184.168 225.469C184.431 225.043 184.493 224.555 184.343 224.079L184.118 223.34C183.155 220.122 181.604 214.862 179.441 212.032L179.128 212.996C179.078 213.147 178.941 213.259 178.791 213.284C178.628 213.309 178.478 213.234 178.39 213.096L177.453 211.594C177.39 211.506 177.29 211.443 177.177 211.431L175.289 211.293C175.114 211.281 174.951 211.406 174.914 211.581L174.689 213.021C174.664 213.209 174.514 213.347 174.326 213.372C174.139 213.397 173.964 213.284 173.901 213.122L173.763 212.796L172.438 224.905C172.375 225.807 173.076 226.646 174.014 226.734Z" fill="black"/>
<path d="M178.316 225.331C175.639 225.331 173.613 224.868 173.488 224.843C173.263 224.793 173.126 224.567 173.176 224.342C173.226 224.116 173.451 223.979 173.676 224.029C173.726 224.041 178.678 225.156 183.28 223.866C183.505 223.803 183.73 223.929 183.793 224.154C183.855 224.379 183.73 224.605 183.505 224.667C181.705 225.168 179.891 225.331 178.316 225.331Z" fill="black"/>
<path d="M175.815 220.059C175.589 220.059 175.402 219.884 175.402 219.658C175.402 219.433 175.577 219.245 175.802 219.232L180.304 219.157C180.529 219.157 180.717 219.333 180.729 219.558C180.729 219.783 180.554 219.971 180.329 219.984L175.815 220.059Z" fill="black"/>
<path d="M156.644 204.18L156.443 214.561L150.678 214.862L149.891 204.518L156.644 204.18Z" fill="white"/>
<path d="M150.678 215.275C150.466 215.275 150.278 215.112 150.266 214.887L149.478 204.556C149.465 204.443 149.503 204.331 149.578 204.255C149.653 204.168 149.753 204.118 149.866 204.118L156.619 203.78C156.731 203.78 156.844 203.817 156.931 203.892C157.019 203.967 157.056 204.08 157.056 204.193L156.856 214.574C156.856 214.787 156.681 214.962 156.468 214.975L150.703 215.263C150.691 215.275 150.691 215.275 150.678 215.275ZM150.328 204.919L151.054 214.436L156.031 214.186L156.206 204.631L150.328 204.919Z" fill="black"/>
<path d="M158.244 220.334C158.307 221.311 157.682 222.2 156.744 222.476C153.467 223.415 146.089 225.506 143.976 225.932C141.237 226.483 137.798 225.807 136.26 224.266C134.722 222.726 139.249 218.619 141.425 217.103C144.651 214.849 147.652 210.554 148.978 210.304C150.316 210.053 153.017 213.823 153.017 213.823L157.031 211.894C157.031 211.894 157.919 215.375 158.244 220.334Z" fill="#019AFF"/>
<path d="M141.987 226.546C139.599 226.546 137.185 225.794 135.96 224.567C135.634 224.241 135.484 223.816 135.534 223.315C135.722 221.223 139.424 218.005 141.187 216.765C142.762 215.663 144.276 214.073 145.601 212.683C147.052 211.155 148.102 210.053 148.903 209.903C150.266 209.64 152.379 212.282 153.142 213.309L156.844 211.531C156.956 211.481 157.081 211.481 157.194 211.531C157.306 211.581 157.394 211.681 157.419 211.806C157.431 211.844 158.319 215.375 158.644 220.322C158.719 221.486 157.969 222.563 156.844 222.889C153.705 223.791 146.189 225.932 144.051 226.358C143.388 226.47 142.687 226.546 141.987 226.546ZM149.128 210.705C149.103 210.705 149.078 210.705 149.053 210.717C148.515 210.817 147.339 212.057 146.201 213.259C144.838 214.687 143.3 216.302 141.662 217.454C139.524 218.944 136.497 221.837 136.36 223.39C136.335 223.64 136.397 223.828 136.547 223.991C137.935 225.381 141.237 226.082 143.9 225.544C146.014 225.118 153.505 222.989 156.631 222.088C157.381 221.875 157.882 221.148 157.832 220.372C157.581 216.565 156.994 213.622 156.744 212.495L153.192 214.198C153.017 214.286 152.792 214.223 152.679 214.061C151.491 212.408 149.828 210.705 149.128 210.705Z" fill="black"/>
<path d="M141.737 224.642C139.924 224.642 138.336 224.292 137.235 223.39C137.06 223.24 137.035 222.989 137.172 222.814C137.323 222.639 137.573 222.614 137.748 222.751C142.175 226.358 156.393 219.759 156.531 219.696C156.744 219.596 156.981 219.683 157.081 219.896C157.181 220.109 157.094 220.347 156.881 220.447C156.431 220.66 147.852 224.642 141.737 224.642Z" fill="black"/>
<path d="M148.565 218.03C148.478 218.03 148.378 218.005 148.303 217.943L145.239 215.438C145.064 215.288 145.039 215.037 145.176 214.862C145.326 214.687 145.576 214.662 145.751 214.8L148.815 217.304C148.99 217.454 149.015 217.705 148.878 217.88C148.803 217.98 148.69 218.03 148.565 218.03Z" fill="black"/>
<path d="M177.303 135.494C177.303 135.494 180.717 167.765 182.217 178.885C183.718 190.005 181.504 208.125 181.504 208.125L172.588 208.1C172.588 208.1 170.875 186.298 169.912 180.275C169.912 180.275 165.735 172.248 164.259 164.972C162.771 157.697 158.394 146.314 158.394 146.314C158.394 146.314 158.219 204.256 158.157 208.814C158.157 208.814 151.191 209.477 148.615 208.025C148.615 208.025 143.125 187.175 143.188 175.679C143.25 164.183 141.112 135.732 141.112 135.732L177.303 135.494Z" fill="black"/>
<path d="M171.538 180.6C171.325 180.6 171.137 180.425 171.125 180.212C171.112 179.987 171.287 179.786 171.513 179.774L174.226 179.636C174.451 179.624 174.651 179.799 174.664 180.024C174.676 180.25 174.501 180.45 174.276 180.463L171.563 180.6C171.563 180.6 171.55 180.6 171.538 180.6Z" fill="white"/>
<path d="M153.017 198.383C152.804 198.383 152.617 198.22 152.604 197.994C152.254 192.848 145.814 183.418 145.751 183.33C145.626 183.143 145.664 182.88 145.851 182.754C146.039 182.629 146.302 182.667 146.427 182.855C146.702 183.243 153.055 192.56 153.43 197.932C153.442 198.157 153.28 198.357 153.042 198.37C153.042 198.383 153.03 198.383 153.017 198.383Z" fill="white"/>
<path d="M185.819 98.1644C185.819 98.1644 181.867 79.0174 171.075 74.8098C160.295 70.5897 143.45 72.994 139.636 75.5612C135.822 78.1283 130.144 90.1499 130.144 90.1499L138.423 100.569C138.423 100.569 138.073 134.768 140.161 143.696C140.161 143.696 150.303 144.36 154.492 142.457C158.682 140.553 172.625 137.485 179.503 140.24L176.102 97.125L185.819 98.1644Z" fill="#019AFF"/>
<path d="M144.226 144.21C141.987 144.21 140.286 144.097 140.124 144.097C139.949 144.085 139.786 143.959 139.749 143.784C137.723 135.118 137.973 103.474 137.998 100.706L129.819 90.4129C129.719 90.2876 129.707 90.1249 129.769 89.9746C130.007 89.4737 135.547 77.8277 139.411 75.223C143.113 72.731 160.032 70.0512 171.237 74.4341C182.105 78.6792 186.069 97.3003 186.231 98.0892C186.256 98.2144 186.219 98.3522 186.131 98.4524C186.044 98.5525 185.919 98.6026 185.781 98.5901L176.552 97.5883L179.904 140.203C179.916 140.34 179.854 140.478 179.741 140.566C179.628 140.653 179.478 140.666 179.341 140.616C172.788 137.999 158.982 140.866 154.655 142.832C152.116 143.972 147.564 144.21 144.226 144.21ZM140.486 143.283C142.212 143.371 150.666 143.721 154.317 142.068C158.407 140.215 171.813 137.197 179.028 139.614L175.689 97.15C175.677 97.0248 175.727 96.9121 175.814 96.8244C175.902 96.7368 176.027 96.6992 176.152 96.7117L185.306 97.701C184.556 94.5328 180.379 78.8921 170.95 75.198C160.182 70.9904 143.388 73.545 139.886 75.9118C136.497 78.1909 131.457 88.4218 130.645 90.0998L138.761 100.306C138.823 100.381 138.848 100.468 138.848 100.569C138.823 100.894 138.498 134.067 140.486 143.283Z" fill="black"/>
<path d="M169.774 132.213C169.762 132.213 169.737 132.213 169.724 132.213C161.083 131.124 155.568 127.555 152.467 124.75C149.09 121.694 147.777 118.927 147.727 118.814C147.627 118.601 147.715 118.363 147.927 118.263C148.127 118.163 148.377 118.251 148.477 118.463C148.527 118.576 153.742 129.383 169.824 131.399C170.049 131.424 170.212 131.637 170.187 131.863C170.162 132.05 169.974 132.213 169.774 132.213Z" fill="black"/>
<path d="M139.849 114.005L160.37 112.966L152.792 90.3376L132.27 91.377L139.849 114.005Z" fill="black"/>
<path d="M184.018 98.3272L173.401 94.2073C173.401 94.2073 175.752 111.751 154.33 104.676C154.33 104.676 154.993 102.372 154.743 99.7297C154.505 97.0875 153.054 99.7297 152.929 101.896C152.817 104.063 147.84 103.436 144.826 102.735C141.825 102.034 137.96 102.785 145.001 106.229C152.054 109.673 153.467 107.907 153.467 107.907C153.467 107.907 162.846 119.728 173.601 116.573C186.844 112.691 184.018 98.3272 184.018 98.3272Z" fill="white"/>
<path d="M169.924 117.512C161.633 117.512 154.78 110.061 153.405 108.458C152.592 108.884 150.341 109.284 144.838 106.592C140.674 104.563 140.474 103.536 140.674 102.935C141.062 101.846 143.425 101.971 144.926 102.322C147.552 102.935 151.029 103.336 152.179 102.472C152.392 102.309 152.504 102.121 152.517 101.871C152.592 100.431 153.317 98.2269 154.255 98.2144H154.267C155.018 98.2144 155.118 99.3289 155.155 99.6921C155.343 101.771 155.005 103.624 154.818 104.401C161.708 106.617 166.76 106.454 169.812 103.912C173.789 100.606 172.988 94.3199 172.988 94.2573C172.963 94.107 173.026 93.9693 173.138 93.8816C173.251 93.7939 173.401 93.7689 173.538 93.819L184.156 97.9389C184.293 97.989 184.381 98.1017 184.406 98.2394C184.431 98.3897 185.118 101.959 184.168 106.079C183.28 109.91 180.742 114.894 173.713 116.961C172.438 117.349 171.162 117.512 169.924 117.512ZM153.48 107.481C153.605 107.481 153.717 107.544 153.792 107.644C153.88 107.757 163.121 119.215 173.488 116.172C178.828 114.606 182.155 111.15 183.368 105.891C184.156 102.51 183.768 99.4541 183.643 98.6151L173.864 94.8208C173.964 96.6366 173.901 101.583 170.337 104.538C166.998 107.318 161.558 107.494 154.192 105.064C153.98 104.989 153.867 104.776 153.93 104.563C153.942 104.538 154.568 102.297 154.33 99.7672C154.305 99.4291 154.255 99.2412 154.217 99.1285C153.93 99.4792 153.417 100.669 153.355 101.909C153.33 102.397 153.104 102.823 152.692 103.136C150.966 104.438 146.176 103.461 144.751 103.136C142.975 102.723 141.549 102.948 141.462 103.223C141.462 103.236 141.387 103.987 145.201 105.853C151.691 109.021 153.167 107.644 153.18 107.631C153.242 107.531 153.355 107.481 153.48 107.481Z" fill="black"/>
<path d="M154.63 66.8204C155.568 67.5968 157.369 68.5109 158.707 67.7471C159.707 67.1836 160.207 65.8186 160.095 64.2908C160.57 64.3034 161.183 64.2408 161.608 63.8275C162.258 63.1889 162.071 62.0869 162.008 61.3606C161.721 58.0045 163.646 57.3909 163.046 55.1243C162.583 53.3461 161.12 52.3443 160.845 52.1565C159.47 51.2173 158.582 51.5804 156.318 51.1171C152.504 50.3157 152.304 48.7003 149.828 48.8255C149.69 48.838 146.314 49.0384 145.288 51.4302C144.451 53.3712 145.651 55.6252 146.839 56.7773C148.377 58.2675 149.378 57.441 150.903 58.6933C153.605 60.8722 151.841 64.5162 154.63 66.8204Z" fill="black"/>
<path d="M146.826 61.1976L146.964 61.0598C147.677 60.3836 148.415 59.5947 148.565 58.6179C149.202 54.473 152.867 52.7949 153.229 56.5517C153.317 57.5034 156.781 57.278 156.418 58.2923C155.48 60.9471 155.418 60.2459 156.981 61.1224C157.156 61.1224 157.318 61.1475 157.494 61.2226C158.281 61.5482 158.619 62.5876 158.219 63.5518C157.981 64.1404 157.531 64.5536 157.043 64.7164L157.256 68.8238C157.331 70.3641 158.331 71.704 159.782 72.2174L161.195 72.7183C161.195 72.7183 154.955 77.264 148.164 72.9562L149.015 72.518C150.516 71.7541 151.453 70.1888 151.428 68.4982L151.391 67.6968C150.953 67.7594 150.528 67.7469 150.128 67.6592C148.265 67.2209 147.552 65.1297 147.727 62.4874L146.964 62.1242C146.614 61.9364 146.539 61.4605 146.826 61.1976Z" fill="white"/>
<path d="M154.317 75.1979C152.379 75.1979 150.178 74.722 147.939 73.2945C147.814 73.2193 147.739 73.0691 147.752 72.9313C147.764 72.7811 147.839 72.6558 147.977 72.5807L148.827 72.1424C150.178 71.4537 151.041 70.0136 151.016 68.4983L151.003 68.1352C150.666 68.1477 150.341 68.1227 150.04 68.0475C148.165 67.5967 147.177 65.6682 147.314 62.7254L146.801 62.475C146.514 62.3372 146.301 62.0617 146.251 61.7487C146.201 61.4356 146.314 61.11 146.539 60.8846L146.676 60.7469C147.327 60.1333 148.027 59.407 148.152 58.5429C148.59 55.7128 150.366 53.9972 151.741 54.0348C152.779 54.0598 153.492 54.9865 153.642 56.5017C153.729 56.677 154.58 56.8649 154.98 56.9525C155.805 57.1404 156.506 57.3032 156.768 57.779C156.881 57.9794 156.893 58.1923 156.806 58.4177C156.668 58.8059 156.556 59.1189 156.456 59.3819C156.318 59.7451 156.193 60.0957 156.168 60.2335C156.231 60.271 156.356 60.3336 156.468 60.3837C156.631 60.4589 156.843 60.559 157.093 60.6968C157.281 60.7093 157.469 60.7469 157.644 60.822C158.144 61.0224 158.519 61.4481 158.694 61.9991C158.857 62.5251 158.832 63.1262 158.607 63.6772C158.382 64.2407 157.969 64.6915 157.481 64.9545L157.669 68.7738C157.744 70.1513 158.619 71.341 159.92 71.7918L161.333 72.2927C161.483 72.3428 161.583 72.468 161.608 72.6183C161.633 72.7685 161.57 72.9188 161.445 73.0065C161.395 73.0691 158.407 75.1979 154.317 75.1979ZM149.027 72.9814C153.967 75.7113 158.532 73.7578 160.245 72.8186L159.645 72.6057C158.031 72.0422 156.931 70.5646 156.843 68.849L156.631 64.7416C156.618 64.5537 156.731 64.3909 156.906 64.3283C157.306 64.1906 157.656 63.8399 157.831 63.4017C157.981 63.026 158.006 62.6253 157.894 62.2746C157.794 61.9616 157.594 61.7236 157.319 61.6109C157.206 61.5734 157.093 61.5483 156.968 61.5483C156.906 61.5483 156.831 61.5358 156.768 61.4982C156.506 61.348 156.281 61.2478 156.118 61.1601C155.093 60.6717 155.23 60.3086 155.68 59.1064C155.78 58.856 155.893 58.5429 156.018 58.1672C155.868 58.017 155.193 57.8667 154.792 57.779C153.855 57.5661 152.892 57.3407 152.817 56.6019C152.717 55.525 152.316 54.8988 151.716 54.8863C150.828 54.8613 149.34 56.2012 148.965 58.6932C148.79 59.8077 147.989 60.6592 147.239 61.373L147.102 61.5108C147.052 61.5608 147.052 61.6109 147.052 61.6485C147.052 61.6735 147.077 61.7362 147.139 61.7612L147.902 62.1244C148.052 62.1995 148.152 62.3623 148.14 62.5251C148.052 63.7773 148.09 66.7577 150.215 67.2586C150.553 67.3337 150.928 67.3463 151.328 67.2962C151.441 67.2837 151.566 67.3087 151.654 67.3838C151.741 67.459 151.791 67.5717 151.804 67.6844L151.841 68.4858C151.879 70.3266 150.841 72.0547 149.203 72.8938L149.027 72.9814Z" fill="black"/>
<path d="M151.391 68.0977C151.203 68.0977 151.028 67.96 150.991 67.7722C150.941 67.5468 151.091 67.3339 151.316 67.2838C153.617 66.8079 154.592 64.9546 154.592 64.9421C154.692 64.7417 154.943 64.654 155.143 64.7667C155.343 64.8669 155.43 65.1174 155.318 65.3177C155.268 65.4054 154.155 67.5467 151.466 68.0977C151.454 68.0977 151.429 68.0977 151.391 68.0977Z" fill="black"/>
<path d="M31.614 39.9094L45.7452 49.2136C46.7831 49.8898 48.0587 49.7771 48.5964 48.9507L49.4843 47.5857C50.0221 46.7592 49.6219 45.532 48.5964 44.8558L34.4653 35.5515L31.614 39.9094Z" fill="#019AFF"/>
<path d="M62.5024 10.6943C64.7158 13.7498 65.0035 17.3313 63.1401 18.6837C61.2768 20.0361 57.9629 18.6587 55.7494 15.6032C53.5359 12.5476 53.2483 8.9662 55.1116 7.61376C56.9875 6.26132 60.2889 7.63881 62.5024 10.6943Z" fill="black"/>
<path d="M24.5859 34.487L28.4876 39.8717C29.0879 40.6982 30.626 40.6106 31.9391 39.6588L25.8614 31.2812C24.5609 32.2079 23.9856 33.648 24.5859 34.487Z" fill="black"/>
<path d="M48.0211 1.77808L45.9327 3.29331L24.9985 31.8948L31.0762 40.2724L64.7159 29.2275L66.8043 27.7123L48.0211 1.77808Z" fill="white"/>
<path d="M31.0763 40.6858C30.9512 40.6858 30.8262 40.6232 30.7386 40.5105L24.661 32.1329C24.5609 31.9826 24.5609 31.7948 24.661 31.6445L45.5951 3.05549C45.6201 3.01792 45.6451 2.99288 45.6826 2.96783L47.7711 1.44008C47.8586 1.37747 47.9712 1.35242 48.0837 1.36495C48.1962 1.37747 48.2838 1.44008 48.3588 1.52774L67.142 27.462C67.2796 27.6498 67.2296 27.9002 67.0545 28.038L64.9661 29.5532C64.9286 29.5783 64.891 29.6033 64.8535 29.6158L31.2138 40.6607C31.1638 40.6858 31.1138 40.6858 31.0763 40.6858ZM25.5113 31.8949L31.2263 39.7842L64.5284 28.852L66.2291 27.6122L47.9211 2.35423L46.2204 3.59396L25.5113 31.8949Z" fill="black"/>
<path d="M31.0763 40.8234C30.9013 40.8234 30.7387 40.7358 30.6261 40.598L24.5485 32.2204C24.4109 32.0326 24.4109 31.7696 24.5485 31.5693L45.4826 2.96773C45.5201 2.91764 45.5577 2.88008 45.6077 2.84251L47.6961 1.32728C47.8086 1.23962 47.9587 1.20205 48.1088 1.2271C48.2588 1.25214 48.3839 1.32728 48.4714 1.45251L67.2546 27.3867C67.4297 27.6372 67.3797 27.9753 67.1296 28.1506L65.0412 29.6783C64.9911 29.7159 64.9411 29.741 64.8911 29.7535L31.2514 40.7984C31.1889 40.8234 31.1389 40.8234 31.0763 40.8234ZM25.6865 31.8948L31.2889 39.6213L64.4659 28.7266L66.0416 27.5871L47.8962 2.55449L46.3205 3.69404L25.6865 31.8948Z" fill="black"/>
<path d="M68.0799 28.5765L66.3291 29.8413C65.5788 30.3922 64.5159 30.1418 64.0657 29.3278C59.051 20.1738 52.9108 11.6835 45.6076 3.85695C44.9698 3.18073 45.0699 2.09127 45.8202 1.5528L47.5584 0.288017C48.1837 -0.162795 49.0466 -0.0876595 49.5843 0.463333C57.1877 8.40263 63.5029 17.1183 68.5176 26.5854C68.9053 27.2866 68.7052 28.1257 68.0799 28.5765Z" fill="#019AFF"/>
<path d="M65.4413 29.8413C64.9911 29.8413 64.5659 29.5908 64.3408 29.1901C62.8777 26.5228 61.302 23.8806 59.6387 21.326C59.5137 21.1381 59.5637 20.8751 59.7638 20.7499C59.9514 20.6247 60.214 20.6748 60.339 20.8751C62.0148 23.4548 63.603 26.1221 65.0661 28.8019C65.1536 28.9647 65.3412 29.0524 65.5288 29.0148C65.5788 29.0023 65.6289 28.9772 65.6789 28.9397L66.3917 28.4262C66.5793 28.2885 66.8294 28.3386 66.9669 28.5139C67.1045 28.7017 67.0545 28.9522 66.8794 29.0899L66.1666 29.6034C66.029 29.7035 65.879 29.7787 65.7164 29.8162C65.6163 29.8288 65.5288 29.8413 65.4413 29.8413Z" fill="white"/>
<path d="M59.051 20.0986C58.9135 20.0986 58.7884 20.036 58.7134 19.9107C57.888 18.6835 57.0376 17.4438 56.1748 16.2416C56.0372 16.0538 56.0872 15.8033 56.2623 15.6656C56.4499 15.5278 56.7 15.5779 56.8376 15.7533C57.7129 16.9679 58.5758 18.2077 59.4012 19.4474C59.5262 19.6352 59.4762 19.8982 59.2886 20.0234C59.2136 20.0735 59.1386 20.0986 59.051 20.0986Z" fill="white"/>
<path d="M58.6382 6.87492L58.0504 3.38113C57.9379 2.67986 58.288 1.99112 58.9258 1.67806L61.827 0.250488L58.6382 6.87492Z" fill="#019AFF"/>
<path d="M66.379 1.33984L65.9913 4.44544L65.2785 4.28264C64.3906 4.08228 63.5027 4.54562 63.1401 5.37211L61.8645 8.30239L63.1401 7.35067C63.8904 6.79968 64.9033 6.78716 65.6662 7.3131L66.3164 7.76392C67.0167 8.2523 67.9797 8.02689 68.3924 7.28806L70.7059 3.08048L66.379 1.33984Z" fill="#019AFF"/>
<path d="M69.6055 10.9072L64.0906 10.2686L64.2657 10.5441C64.5158 10.9322 64.8784 11.2328 65.3036 11.4206L69.0177 12.9985C69.2803 13.1112 69.593 12.9734 69.668 12.6854L70.0182 11.5208C70.1057 11.2453 69.9056 10.9448 69.6055 10.9072Z" fill="#019AFF"/>
<path d="M193.171 37.1768C197.991 32.3501 197.991 24.5244 193.171 19.6977C188.351 14.8709 180.536 14.8709 175.716 19.6977C170.896 24.5244 170.896 32.3501 175.716 37.1768C180.536 42.0036 188.351 42.0036 193.171 37.1768Z" fill="white"/>
<path d="M184.431 41.2116C181.279 41.2116 178.278 40.0596 175.915 37.9307C173.376 35.6516 171.888 32.5085 171.7 29.1023C171.325 22.0646 176.74 16.0413 183.768 15.6656C190.796 15.2899 196.811 20.7122 197.186 27.7499C197.562 34.7876 192.147 40.8109 185.119 41.1866C184.881 41.2116 184.656 41.2116 184.431 41.2116ZM184.443 16.4796C184.231 16.4796 184.018 16.4796 183.806 16.4921C177.228 16.8427 172.175 22.4779 172.526 29.0648C172.701 32.258 174.089 35.1883 176.465 37.3171C178.841 39.446 181.892 40.5354 185.081 40.3601C191.659 40.0095 196.711 34.3743 196.361 27.7875C196.023 21.4385 190.746 16.4796 184.443 16.4796Z" fill="black"/>
<path d="M192.331 36.3356C196.687 31.9735 196.687 24.901 192.331 20.5389C187.975 16.1767 180.912 16.1767 176.556 20.5389C172.2 24.901 172.2 31.9735 176.556 36.3356C180.912 40.6978 187.975 40.6978 192.331 36.3356Z" fill="#CADDFF"/>
<path d="M191.42 35.4236C195.274 31.5652 195.274 25.3094 191.42 21.4509C187.567 17.5924 181.32 17.5924 177.467 21.4509C173.614 25.3094 173.614 31.5652 177.467 35.4236C181.32 39.2821 187.567 39.2821 191.42 35.4236Z" fill="white"/>
<path d="M184.431 39.0453C181.817 39.0453 179.316 38.0936 177.365 36.328C175.264 34.437 174.014 31.8324 173.864 29.0023C173.714 26.1722 174.676 23.4548 176.565 21.351C178.453 19.2472 181.054 17.9949 183.88 17.8447C187.395 17.6568 190.771 19.2347 192.897 22.0522C193.034 22.2401 192.997 22.4905 192.822 22.6283C192.634 22.766 192.384 22.7285 192.247 22.5531C190.283 19.9484 187.169 18.5084 183.931 18.6711C181.329 18.8089 178.928 19.961 177.178 21.902C175.427 23.843 174.551 26.3475 174.689 28.9647C174.827 31.5694 175.977 33.9737 177.915 35.7269C179.854 37.48 182.355 38.3566 184.968 38.2189C190.346 37.9308 194.498 33.3225 194.21 27.9253C194.197 27.6999 194.373 27.4995 194.598 27.487C194.823 27.4745 195.023 27.6498 195.035 27.8752C195.348 33.7233 190.846 38.7198 185.018 39.0328C184.806 39.0453 184.618 39.0453 184.431 39.0453Z" fill="black"/>
<path d="M183.993 34.3617L183.918 32.9968C182.955 33.0093 182.005 32.7964 181.442 32.5084L181.78 30.7928C182.405 31.0933 183.268 31.3438 184.206 31.2937C185.031 31.2561 185.569 30.9055 185.544 30.3295C185.519 29.7785 185.031 29.4654 183.956 29.1523C182.392 28.714 181.304 28.0504 181.229 26.6478C181.167 25.383 182.005 24.3312 183.53 23.9555L183.455 22.5905L184.868 22.5154L184.931 23.7802C185.894 23.7676 186.557 23.943 187.044 24.1433L186.719 25.7963C186.332 25.6585 185.656 25.358 184.618 25.4206C183.68 25.4707 183.405 25.8839 183.418 26.2972C183.443 26.773 183.968 27.0485 185.206 27.4493C186.957 27.9627 187.682 28.714 187.757 30.0164C187.82 31.2937 186.982 32.4458 185.331 32.8214L185.406 34.2866L183.993 34.3617Z" fill="#019AFF"/>
<path d="M228.988 79.8313L228.45 77.8903L226.249 77.9905C226.049 77.5647 225.811 77.1515 225.549 76.7758L226.712 74.9099L225.286 73.4949L223.435 74.6845C223.048 74.4216 222.648 74.1836 222.222 73.9833L222.297 71.7793L220.347 71.2659L219.334 73.2194C218.871 73.1818 218.408 73.1818 217.933 73.2319L216.895 71.2909L214.957 71.8294L215.057 74.0334C214.631 74.2337 214.219 74.4716 213.844 74.7346L211.98 73.57L210.567 75.0101L211.755 76.8635C211.493 77.2517 211.255 77.6524 211.067 78.0781L208.866 78.003L208.354 79.9565L210.305 80.9709C210.267 81.4342 210.267 81.91 210.317 82.3734L208.379 83.4128L208.917 85.3537L211.117 85.2536C211.318 85.6793 211.555 86.0926 211.818 86.4683L210.655 88.3341L212.08 89.7492L213.931 88.5595C214.319 88.8225 214.719 89.0604 215.144 89.2608L215.069 91.4648L217.02 91.9782L218.033 90.0247C218.496 90.0622 218.958 90.0622 219.434 90.0121L220.472 91.9531L222.41 91.4147L222.31 89.2107C222.735 89.0103 223.148 88.7724 223.523 88.4969L225.386 89.6615L226.799 88.2214L225.611 86.3681C225.874 85.9799 226.112 85.5792 226.299 85.1534L228.5 85.2285L229.013 83.275L227.062 82.2607C227.099 81.7973 227.099 81.3215 227.049 80.8582L228.988 79.8313ZM220.034 86.6185C217.27 87.3824 214.419 85.7419 213.669 82.9745C212.918 80.207 214.544 77.3518 217.295 76.588C220.059 75.8241 222.91 77.4645 223.66 80.232C224.423 83.012 222.798 85.8672 220.034 86.6185Z" fill="#6DC2FA"/>
<path d="M213.327 58.6481C217.848 53.8301 217.634 46.2732 212.848 41.7692C208.061 37.2652 200.516 37.5196 195.995 42.3376C191.473 47.1556 191.688 54.7125 196.474 59.2165C201.26 63.7206 208.805 63.4661 213.327 58.6481Z" fill="#019AFF"/>
<path d="M208.079 44.5804L209.692 44.5178C209.879 44.5053 210.029 44.6556 210.042 44.8434L210.455 55.713C210.467 55.9008 210.317 56.0511 210.129 56.0636L208.516 56.1262C208.329 56.1388 208.179 55.9885 208.166 55.8006L207.753 44.9311C207.753 44.7432 207.891 44.5804 208.079 44.5804Z" fill="white"/>
<path d="M203.764 48.0992L205.377 48.0366C205.565 48.0241 205.715 48.1744 205.727 48.3622L206.015 55.8757C206.028 56.0636 205.878 56.2138 205.69 56.2264L204.077 56.289C203.889 56.3015 203.739 56.1512 203.727 55.9634L203.439 48.4499C203.439 48.262 203.589 48.1118 203.764 48.0992Z" fill="white"/>
<path d="M199.5 52.5572L201.113 52.4946C201.3 52.4821 201.451 52.6324 201.463 52.8202L201.588 56.051C201.601 56.2389 201.451 56.3891 201.263 56.4017L199.65 56.4643C199.462 56.4768 199.312 56.3265 199.3 56.1387L199.175 52.9079C199.175 52.72 199.312 52.5698 199.5 52.5572Z" fill="white"/>
<path d="M32.6574 81.2808C40.1294 73.7987 40.1294 61.6676 32.6574 54.1855C25.1854 46.7033 13.071 46.7033 5.59902 54.1855C-1.87295 61.6676 -1.87295 73.7987 5.59902 81.2808C13.071 88.763 25.1854 88.763 32.6574 81.2808Z" fill="#BFE4FD"/>
<path d="M34.4867 68.0861C34.6794 59.5889 27.9567 52.544 19.4711 52.351C10.9855 52.158 3.95024 58.8899 3.75748 67.3871C3.56471 75.8843 10.2874 82.9292 18.7731 83.1222C27.2587 83.3152 34.2939 76.5834 34.4867 68.0861Z" fill="white"/>
<path d="M30.7681 69.7576C31.8822 63.3181 27.5722 57.1934 21.1414 56.0778C14.7106 54.9621 8.59428 59.278 7.48017 65.7176C6.36606 72.1571 10.6761 78.2818 17.1068 79.3975C23.5376 80.5131 29.6539 76.1972 30.7681 69.7576Z" fill="#BFE4FD"/>
<path d="M24.5223 73.1345C27.5013 70.1514 27.5013 65.3149 24.5223 62.3318C21.5433 59.3487 16.7133 59.3487 13.7343 62.3318C10.7553 65.3149 10.7553 70.1514 13.7343 73.1345C16.7133 76.1176 21.5433 76.1176 24.5223 73.1345Z" fill="white"/>
<path d="M22.0728 70.6818C23.699 69.0533 23.699 66.413 22.0728 64.7845C20.4465 63.1561 17.8099 63.1561 16.1836 64.7845C14.5574 66.413 14.5574 69.0533 16.1836 70.6818C17.8099 72.3102 20.4465 72.3102 22.0728 70.6818Z" fill="#019AFF"/>
<path d="M25.8114 86.105C25.6488 86.105 25.4862 86.0049 25.4237 85.8296C25.3487 85.6167 25.4487 85.3787 25.6613 85.3036C28.8877 84.1014 31.7264 82.0227 33.8649 79.2928C34.0024 79.1175 34.2651 79.0799 34.4401 79.2176C34.6152 79.3554 34.6527 79.6184 34.5152 79.7937C32.2892 82.6488 29.3254 84.8152 25.9489 86.0675C25.9114 86.105 25.8614 86.105 25.8114 86.105Z" fill="#019AFF"/>
<path d="M1.67572 60.3086C1.61319 60.3086 1.56317 60.2961 1.50064 60.271C1.28805 60.1834 1.20051 59.9329 1.28805 59.72C3.27642 55.2871 6.81546 51.7682 11.2549 49.8147C11.4675 49.727 11.7051 49.8147 11.8051 50.0276C11.8927 50.2405 11.8051 50.4784 11.5925 50.5786C7.34069 52.457 3.95171 55.8255 2.05088 60.0582C1.98835 60.2084 1.82578 60.3086 1.67572 60.3086Z" fill="#019AFF"/>
<path d="M7.84104 71.6666C7.66596 71.6666 7.50339 71.5539 7.44087 71.3786C7.07821 70.2015 6.89062 68.9743 6.89062 67.7345C6.89062 67.5091 7.07821 67.3213 7.30331 67.3213C7.5284 67.3213 7.71599 67.5091 7.71599 67.7345C7.71599 68.8991 7.89106 70.0387 8.22871 71.1281C8.29124 71.341 8.17869 71.579 7.95359 71.6416C7.92858 71.6666 7.87856 71.6666 7.84104 71.6666Z" fill="#5479F7"/>
<path d="M30.7134 65.7684C30.5258 65.7684 30.3508 65.6307 30.3133 65.4428C29.8005 62.9007 28.3999 60.5966 26.399 58.9311C26.224 58.7808 26.199 58.5304 26.349 58.3551C26.4991 58.1797 26.7492 58.1547 26.9243 58.305C29.0752 60.0832 30.5759 62.5626 31.1261 65.2926C31.1761 65.518 31.0261 65.7308 30.801 65.7809C30.7635 65.7684 30.7384 65.7684 30.7134 65.7684Z" fill="#019AFF"/>
<path d="M7.31576 68.1479C7.09066 68.1479 6.90308 67.96 6.90308 67.7346C6.90308 60.985 12.393 55.4875 19.1334 55.4875C20.409 55.4875 21.6595 55.6879 22.86 56.0636C23.0726 56.1387 23.1977 56.3641 23.1227 56.5895C23.0476 56.8024 22.8225 56.9276 22.5974 56.8525C21.4719 56.4894 20.3089 56.314 19.1209 56.314C12.8307 56.314 7.71593 61.4358 7.71593 67.7346C7.72844 67.9725 7.54085 68.1479 7.31576 68.1479Z" fill="#019AFF"/>
<path d="M192.559 187.538C192.459 187.538 192.347 187.5 192.272 187.413C192.109 187.25 192.109 186.987 192.272 186.824C204.715 174.439 210.642 162.455 213.418 154.579C216.432 146.051 216.507 140.378 216.507 140.315C216.507 140.09 216.695 139.915 216.92 139.902C217.145 139.902 217.333 140.09 217.333 140.315C217.333 140.553 217.27 146.151 214.219 154.804C211.417 162.768 205.427 174.89 192.859 187.4C192.772 187.5 192.672 187.538 192.559 187.538Z" fill="black"/>
<path d="M190.046 196.917C189.933 196.917 189.821 196.867 189.733 196.78C189.583 196.604 189.595 196.341 189.771 196.191C208.016 180.024 215.919 164.296 219.346 153.952C223.035 142.77 222.435 135.331 222.422 135.256C222.397 135.031 222.572 134.83 222.797 134.805C223.023 134.78 223.223 134.956 223.248 135.181C223.26 135.256 223.885 142.87 220.134 154.215C216.682 164.659 208.716 180.525 190.321 196.817C190.246 196.88 190.146 196.917 190.046 196.917Z" fill="black"/>
<path d="M31.0136 179.574C30.8885 179.574 30.7635 179.523 30.6884 179.411C21.4219 167.489 15.7069 151.41 12.5305 140.015C9.0915 127.68 7.82845 118.025 7.81594 117.925C7.79093 117.7 7.941 117.487 8.1786 117.462C8.4037 117.437 8.61629 117.587 8.64131 117.825C8.69133 118.213 13.7685 156.294 31.3512 178.897C31.4888 179.073 31.4638 179.336 31.2762 179.473C31.1887 179.549 31.1011 179.574 31.0136 179.574Z" fill="black"/>
<path d="M29.1504 184.908C29.0378 184.908 28.9253 184.858 28.8502 184.77C13.7311 168.178 6.00277 134.855 5.92774 134.517C5.87771 134.292 6.01527 134.079 6.24037 134.016C6.46547 133.966 6.67806 134.104 6.74059 134.329C6.81562 134.668 14.494 167.777 29.463 184.207C29.6131 184.37 29.6006 184.633 29.438 184.795C29.3505 184.87 29.2504 184.908 29.1504 184.908Z" fill="black"/>
<path d="M5.51503 115.683C5.41499 115.683 5.31494 115.646 5.23991 115.583C5.12736 115.483 5.07734 115.333 5.11486 115.182L6.32789 109.435C6.3654 109.284 6.47795 109.159 6.62802 109.122C6.77808 109.084 6.94065 109.134 7.0407 109.259L10.5047 113.417C10.5922 113.517 10.6173 113.667 10.5797 113.792C10.5422 113.918 10.4422 114.03 10.3171 114.068L5.64008 115.658C5.60257 115.683 5.56505 115.683 5.51503 115.683ZM6.95316 110.449L6.06527 114.644L9.49177 113.479L6.95316 110.449Z" fill="black"/>
<path d="M158.182 8.23982C157.957 8.23982 157.769 8.05198 157.769 7.82657V5.68522C157.769 5.45981 157.957 5.27197 158.182 5.27197C158.407 5.27197 158.594 5.45981 158.594 5.68522V7.82657C158.607 8.05198 158.419 8.23982 158.182 8.23982Z" fill="black"/>
<path d="M158.182 13.2237C157.957 13.2237 157.769 13.0359 157.769 12.8105V10.6691C157.769 10.4437 157.957 10.2559 158.182 10.2559C158.407 10.2559 158.594 10.4437 158.594 10.6691V12.8105C158.607 13.0359 158.419 13.2237 158.182 13.2237Z" fill="black"/>
<path d="M156.769 9.66731H154.63C154.405 9.66731 154.218 9.47947 154.218 9.25407C154.218 9.02866 154.405 8.84082 154.63 8.84082H156.769C156.994 8.84082 157.181 9.02866 157.181 9.25407C157.181 9.47947 156.994 9.66731 156.769 9.66731Z" fill="black"/>
<path d="M161.746 9.66731H159.608C159.382 9.66731 159.195 9.47947 159.195 9.25407C159.195 9.02866 159.382 8.84082 159.608 8.84082H161.746C161.971 8.84082 162.159 9.02866 162.159 9.25407C162.159 9.47947 161.971 9.66731 161.746 9.66731Z" fill="black"/>
<path d="M220.959 117.424C220.734 117.424 220.546 117.236 220.546 117.011V114.869C220.546 114.644 220.734 114.456 220.959 114.456C221.184 114.456 221.372 114.644 221.372 114.869V117.011C221.372 117.236 221.197 117.424 220.959 117.424Z" fill="black"/>
<path d="M220.959 122.408C220.734 122.408 220.546 122.22 220.546 121.995V119.853C220.546 119.628 220.734 119.44 220.959 119.44C221.184 119.44 221.372 119.628 221.372 119.853V121.995C221.372 122.22 221.197 122.408 220.959 122.408Z" fill="black"/>
<path d="M219.546 118.839H217.408C217.182 118.839 216.995 118.651 216.995 118.426C216.995 118.2 217.182 118.012 217.408 118.012H219.546C219.771 118.012 219.959 118.2 219.959 118.426C219.959 118.651 219.771 118.839 219.546 118.839Z" fill="black"/>
<path d="M224.523 118.839H222.385C222.16 118.839 221.972 118.651 221.972 118.426C221.972 118.2 222.16 118.012 222.385 118.012H224.523C224.748 118.012 224.936 118.2 224.936 118.426C224.936 118.651 224.748 118.839 224.523 118.839Z" fill="black"/>
<path d="M109.298 36.4783C108.072 36.4658 107.097 35.464 107.109 34.2493L107.247 19.0219C107.26 17.7947 108.26 16.8179 109.473 16.8304L151.391 17.1936C152.617 17.2061 153.592 18.2079 153.58 19.4226L153.442 34.65C153.43 35.8773 152.429 36.854 151.216 36.8415L143.125 36.7664L140.274 41.9131L137.373 36.7037L109.298 36.4783Z" fill="white"/>
<path d="M142.95 36.7788L151.216 36.8539C152.442 36.8665 153.43 35.8772 153.442 34.6625L153.58 19.4351C153.592 18.2078 152.604 17.2186 151.391 17.206L109.473 16.8429C108.247 16.8304 107.26 17.8197 107.247 19.0343L107.109 34.2618C107.097 35.489 108.085 36.4783 109.298 36.4908L137.373 36.7412L140.249 42.1134L142.95 36.7788Z" fill="#66BFFA"/>
<path d="M146.589 29.9666L113.262 29.6785C113.037 29.6785 112.85 29.4907 112.85 29.2653C112.85 29.0399 113.037 28.8521 113.262 28.8521L146.577 29.1401C146.802 29.1401 146.99 29.3279 146.99 29.5533C146.99 29.7912 146.814 29.9666 146.589 29.9666Z" fill="black"/>
<path d="M120.278 25.2831L113.312 25.2205C113.087 25.2205 112.899 25.0327 112.899 24.8073C112.899 24.5819 113.087 24.394 113.312 24.394L120.278 24.4567C120.503 24.4567 120.69 24.6445 120.69 24.8699C120.678 25.0953 120.503 25.2831 120.278 25.2831Z" fill="black"/>
<path d="M146.627 25.5085L124.73 25.3206C124.504 25.3206 124.317 25.1328 124.317 24.9074C124.317 24.682 124.504 24.4941 124.73 24.4941L146.627 24.682C146.852 24.682 147.039 24.8698 147.039 25.0952C147.039 25.3332 146.852 25.5085 146.627 25.5085Z" fill="black"/>
<path d="M131.408 20.7624C132.633 20.7624 133.621 19.7857 133.621 18.5584L133.684 3.33102C133.684 2.10381 132.708 1.11452 131.483 1.11452L89.5643 0.939209C88.3388 0.939209 87.3509 1.91597 87.3509 3.14318L87.2883 18.3706C87.2883 19.5978 88.2638 20.5871 89.4893 20.5871L97.893 20.6247L100.169 24.8072L103.083 20.6372L131.408 20.7624Z" fill="white"/>
<path d="M103.32 20.6497L131.395 20.7624C132.621 20.7624 133.609 19.7857 133.609 18.5584L133.671 3.33102C133.671 2.10381 132.696 1.11452 131.47 1.11452L89.5643 0.939209C88.3388 0.939209 87.3509 1.91597 87.3509 3.14318L87.2883 18.3706C87.2883 19.5978 88.2638 20.5871 89.4893 20.5871L97.7554 20.6247L100.156 24.8072L103.32 20.6497Z" fill="#019AFF"/>
<path d="M127.518 13.9125L94.2039 13.7747C93.9788 13.7747 93.7913 13.5869 93.7913 13.3615C93.7913 13.1361 93.9663 12.9482 94.2039 12.9482L127.518 13.086C127.744 13.086 127.931 13.2738 127.931 13.4992C127.931 13.7246 127.744 13.9125 127.518 13.9125Z" fill="white"/>
<path d="M127.544 9.45456L120.578 9.42952C120.353 9.42952 120.165 9.24168 120.165 9.01627C120.165 8.79087 120.34 8.60303 120.578 8.60303L127.544 8.62807C127.769 8.62807 127.956 8.81591 127.956 9.04132C127.956 9.26672 127.769 9.45456 127.544 9.45456Z" fill="white"/>
<path d="M116.126 9.40438L94.2288 9.31672C94.0037 9.31672 93.8162 9.12888 93.8162 8.90348C93.8162 8.67807 94.0037 8.49023 94.2288 8.49023L116.126 8.57789C116.351 8.57789 116.539 8.76573 116.539 8.99114C116.539 9.22907 116.351 9.40438 116.126 9.40438Z" fill="white"/>
</g>
<defs>
<clipPath id="clip0_100_52">
<rect width="229" height="229" fill="white"/>
</clipPath>
</defs>
</svg>
