<svg width="223" height="220" viewBox="0 0 223 220" fill="none" xmlns="http://www.w3.org/2000/svg">
<g clip-path="url(#clip0_100_389)">
<path d="M62.1798 18.2603C31.8327 35.6899 -3.33676 73.1851 0.255692 115.916C1.80227 134.321 10.4485 147.333 16.4765 156.999C20.4465 163.354 60.5237 222.612 120.353 219.398C185.297 215.908 232.438 141.11 221.271 123.548C216.619 116.229 200.97 121.574 194.467 112.871C181.157 95.0442 230.599 60.0768 221.989 33.8963C211.748 2.7687 121.559 -15.8646 62.1798 18.2603Z" fill="#D6EFFF"/>
<path d="M105.143 8.97961C104.875 8.97961 104.607 8.93146 104.34 8.83516C103.779 8.6185 103.329 8.1972 103.085 7.63146C102.586 6.49999 103.11 5.16388 104.23 4.67037C104.778 4.42963 105.375 4.41759 105.935 4.62222C106.495 4.83888 106.946 5.26018 107.189 5.82592C107.688 6.95739 107.165 8.2935 106.044 8.78701C105.764 8.91942 105.46 8.97961 105.143 8.97961ZM105.143 5.27221C104.948 5.27221 104.754 5.30833 104.571 5.39258C103.84 5.71758 103.511 6.58425 103.828 7.3185C103.986 7.67961 104.266 7.95646 104.632 8.08887C104.985 8.22128 105.375 8.20924 105.716 8.0648C106.446 7.7398 106.775 6.87313 106.459 6.13888C106.3 5.77777 106.02 5.50092 105.655 5.36851C105.484 5.30833 105.314 5.27221 105.143 5.27221Z" fill="black"/>
<path d="M182.375 207.421C182.277 207.421 182.168 207.385 182.095 207.301C181.936 207.144 181.936 206.892 182.095 206.735L214.902 174.308C215.06 174.151 215.316 174.151 215.474 174.308C215.632 174.464 215.632 174.717 215.474 174.873L182.667 207.301C182.582 207.385 182.484 207.421 182.375 207.421Z" fill="black"/>
<path d="M97.7026 8.81109C97.4834 8.81109 97.3008 8.63054 97.3008 8.41387V6.34351C97.3008 6.12684 97.4834 5.94629 97.7026 5.94629C97.9218 5.94629 98.1045 6.12684 98.1045 6.34351V8.40183C98.1045 8.63054 97.9218 8.81109 97.7026 8.81109Z" fill="black"/>
<path d="M97.7026 13.6138C97.4834 13.6138 97.3008 13.4333 97.3008 13.2166V11.1462C97.3008 10.9296 97.4834 10.749 97.7026 10.749C97.9218 10.749 98.1045 10.9296 98.1045 11.1462V13.2046C98.1045 13.4333 97.9218 13.6138 97.7026 13.6138Z" fill="black"/>
<path d="M96.3144 10.1834H94.2319C94.0127 10.1834 93.8301 10.0028 93.8301 9.78614C93.8301 9.56947 94.0127 9.38892 94.2319 9.38892H96.3144C96.5336 9.38892 96.7162 9.56947 96.7162 9.78614C96.7162 10.0028 96.5336 10.1834 96.3144 10.1834Z" fill="black"/>
<path d="M101.173 10.1834H99.0908C98.8716 10.1834 98.689 10.0028 98.689 9.78614C98.689 9.56947 98.8716 9.38892 99.0908 9.38892H101.173C101.392 9.38892 101.575 9.56947 101.575 9.78614C101.575 10.0028 101.392 10.1834 101.173 10.1834Z" fill="black"/>
<path d="M88.5814 112.991C108.449 112.991 124.555 97.0719 124.555 77.4342C124.555 57.7965 108.449 41.877 88.5814 41.877C68.7139 41.877 52.6082 57.7965 52.6082 77.4342C52.6082 97.0719 68.7139 112.991 88.5814 112.991Z" fill="white"/>
<path d="M114.792 100.771C128.422 87.2988 128.422 65.4561 114.792 51.9839C101.162 38.5117 79.0641 38.5117 65.4343 51.9839C51.8045 65.4561 51.8045 87.2988 65.4343 100.771C79.0641 114.243 101.162 114.243 114.792 100.771Z" fill="white"/>
<path d="M90.1157 111.282C70.6434 111.282 54.8123 95.6221 54.8123 76.387C54.8123 57.1519 70.6556 41.4797 90.1157 41.4797C109.576 41.4797 125.419 57.1399 125.419 76.375C125.419 95.6101 109.588 111.282 90.1157 111.282ZM90.1157 42.2742C71.094 42.2742 55.616 57.5732 55.616 76.375C55.616 95.1767 71.094 110.476 90.1157 110.476C109.137 110.476 124.615 95.1767 124.615 76.375C124.615 57.5732 109.137 42.2742 90.1157 42.2742Z" fill="black"/>
<path d="M90.2012 108.032C81.0434 108.032 72.312 104.132 66.2474 97.3313C66.1013 97.1627 66.1135 96.91 66.2839 96.7655C66.4544 96.6211 66.7102 96.6331 66.8563 96.8016C72.7625 103.434 81.2748 107.226 90.2012 107.226C95.8638 107.226 101.405 105.709 106.239 102.832C106.434 102.724 106.678 102.784 106.787 102.965C106.897 103.157 106.836 103.398 106.653 103.506C101.697 106.467 96.01 108.032 90.2012 108.032Z" fill="black"/>
<path d="M111.439 99.8832C111.329 99.8832 111.22 99.8351 111.147 99.7508C111.001 99.5823 111.013 99.3415 111.171 99.1851C114.861 95.8508 117.711 91.6499 119.416 87.0397C119.489 86.8351 119.72 86.7268 119.927 86.799C120.134 86.8712 120.244 87.0999 120.171 87.3046C118.417 92.0351 115.494 96.3443 111.707 99.7628C111.634 99.8471 111.537 99.8832 111.439 99.8832Z" fill="black"/>
<path d="M115.896 58.8852C115.775 58.8852 115.641 58.825 115.568 58.7167C109.734 50.6038 100.26 45.7649 90.2012 45.7649C83.2111 45.7649 76.5986 48.0038 71.1064 52.2408C70.9359 52.3732 70.6801 52.3491 70.5462 52.1686C70.4122 52.0001 70.4366 51.7473 70.6193 51.6149C76.2698 47.2695 83.0406 44.9705 90.2134 44.9705C100.528 44.9705 110.258 49.9417 116.237 58.2593C116.371 58.4398 116.323 58.6926 116.14 58.813C116.055 58.8611 115.969 58.8852 115.896 58.8852Z" fill="black"/>
<path d="M60.0122 85.836C59.8417 85.836 59.6834 85.7277 59.6225 85.5471C58.7335 82.6221 58.283 79.5768 58.283 76.4953C58.283 71.825 59.2937 67.3231 61.2909 63.1222C61.3883 62.9176 61.6197 62.8333 61.8267 62.9296C62.0337 63.0259 62.119 63.2546 62.0215 63.4593C60.0731 67.5518 59.0867 71.9453 59.0867 76.4953C59.0867 79.5046 59.5251 82.4657 60.3897 85.3184C60.4506 85.5351 60.3288 85.7518 60.1218 85.8119C60.0975 85.836 60.0609 85.836 60.0122 85.836Z" fill="black"/>
<path d="M66.1255 83.9222V82.9954C66.1255 79.0954 67.7086 78.3611 72.1413 75.6528C74.1385 74.4371 74.8813 73.8232 74.8813 72.7038C74.8813 71.3917 73.8949 70.7297 71.4228 70.7297C70.0955 70.7297 68.488 70.9704 66.8805 71.3436L66.2838 68.5149C68.1105 67.9491 70.3025 67.6843 71.8369 67.6843C76.1478 67.6843 78.4251 69.6102 78.4251 72.5593C78.4251 74.8223 77.0246 76.1463 74.4064 77.8315C72.3605 79.1435 70.5095 80.1185 70.2903 80.8769H78.5103V83.9222H66.1255Z" fill="#019AFF"/>
<path d="M91.4067 80.4556V83.9222H87.9969V80.4556H79.6794V77.3861L87.5707 67.925H91.3945V77.5787H93.7326V80.4556H91.4067ZM87.9969 71.7287L83.0649 77.5787H87.9969V71.7287Z" fill="#019AFF"/>
<path d="M96.2656 84.5601H93.6108L99.1274 67.2268H101.794L96.2656 84.5601Z" fill="#019AFF"/>
<path d="M114.118 69.8991L108.09 83.8861H104.145L110.185 70.7778H102.489V67.925H114.118V69.8991Z" fill="#019AFF"/>
<path d="M20.1055 103.265L17.475 104.818L18.5102 107.96C17.9622 108.429 17.475 108.935 17.0245 109.464L13.8217 108.526L12.336 111.162L14.8203 113.364C14.5889 114.026 14.4184 114.713 14.2966 115.399L11.0452 116.169L11.0939 119.19L14.3575 119.864C14.4915 120.55 14.6863 121.225 14.9421 121.887L12.5187 124.162L14.0896 126.762L17.268 125.738C17.743 126.28 18.2544 126.762 18.7903 127.207L17.8404 130.373L20.5073 131.841L22.7359 129.386C23.4056 129.614 24.0998 129.783 24.7939 129.903L25.5733 133.117L28.6299 133.069L29.3119 129.843C30.006 129.711 30.688 129.518 31.3578 129.265L33.6594 131.661L36.2898 130.108L35.2547 126.966C35.8027 126.497 36.2898 125.991 36.7403 125.462L39.9431 126.4L41.4288 123.764L38.9445 121.562C39.1759 120.9 39.3464 120.213 39.4682 119.527L42.7196 118.757L42.6709 115.736L39.4073 115.062C39.2733 114.376 39.0785 113.701 38.8227 113.039L41.2461 110.764L39.6996 108.152L36.5211 109.176C36.0462 108.634 35.5347 108.152 34.9989 107.707L35.9488 104.541L33.2818 103.073L31.0533 105.528C30.3835 105.3 29.6894 105.131 28.9953 105.011L28.2159 101.797L25.1592 101.845L24.4773 105.071C23.7832 105.203 23.1012 105.396 22.4314 105.649L20.1055 103.265ZM33.6594 113.473C35.8879 117.168 34.6701 121.935 30.9315 124.138C27.1929 126.34 22.3705 125.137 20.142 121.441C17.9134 117.746 19.1312 112.979 22.8698 110.776C26.5962 108.574 31.4308 109.789 33.6594 113.473Z" fill="#6DC2FA"/>
<path d="M36.6987 87.2529C42.415 81.6026 42.415 72.4418 36.6987 66.7916C30.9824 61.1413 21.7144 61.1413 15.998 66.7916C10.2817 72.4418 10.2817 81.6026 15.998 87.2529C21.7144 92.9031 30.9824 92.9031 36.6987 87.2529Z" fill="white"/>
<path d="M26.3162 91.9024C23.5275 91.9024 20.7874 91.132 18.3519 89.6274C11.3253 85.282 9.19417 76.0858 13.6025 69.1284C18.0109 62.183 27.3148 60.0645 34.3413 64.4219C37.7511 66.5284 40.1136 69.8265 41.0148 73.6904C41.9159 77.5663 41.234 81.5506 39.1029 84.9089C36.9718 88.2792 33.635 90.6144 29.726 91.5051C28.5934 91.782 27.4487 91.9024 26.3162 91.9024ZM14.2845 69.5617C10.1197 76.1339 12.1412 84.8366 18.7903 88.9653C22.0174 90.9635 25.8291 91.6014 29.5311 90.7588C33.2332 89.9163 36.3872 87.7014 38.4087 84.5116C40.4302 81.3218 41.0757 77.5543 40.2232 73.895C39.3708 70.2358 37.1301 67.1182 33.9029 65.1201C27.2539 60.9793 18.4493 62.9775 14.2845 69.5617Z" fill="black"/>
<path d="M29.5677 86.6301L16.2696 78.3968C15.9773 78.2162 15.8921 77.8431 16.0747 77.5542L22.0662 68.0931C22.2489 67.8042 22.6264 67.72 22.9187 67.9005L36.2168 76.1338C36.5091 76.3144 36.5943 76.6875 36.4117 76.9764L30.4202 86.4375C30.2375 86.7264 29.8478 86.8106 29.5677 86.6301Z" fill="#6DC2FA"/>
<path d="M29.6529 86.8468C29.3363 86.8468 29.0075 86.7625 28.7152 86.5819L16.6835 79.131C15.8554 78.6255 15.6119 77.5422 16.1233 76.7236L21.3233 68.5144C21.579 68.1172 21.9687 67.8403 22.4193 67.744C22.882 67.6357 23.357 67.72 23.7466 67.9607L35.7783 75.4116C36.6064 75.9172 36.85 77.0005 36.3385 77.819L31.1386 86.0282C30.822 86.5579 30.2374 86.8468 29.6529 86.8468ZM29.1536 85.8958C29.6042 86.1727 30.1887 86.0403 30.4688 85.5949L35.6687 77.3857C35.9488 76.9403 35.8149 76.3625 35.3643 76.0857L23.3326 68.6348C23.1134 68.5024 22.8577 68.4542 22.6141 68.5144C22.3706 68.5746 22.1514 68.719 22.0174 68.9357L16.8175 77.1449C16.5374 77.5903 16.6713 78.1681 17.1219 78.4449L29.1536 85.8958Z" fill="black"/>
<path d="M25.9996 78.1682C25.8413 78.1682 25.6951 78.084 25.6342 77.9395L22.9186 72.1016C22.8212 71.897 22.9186 71.6683 23.1134 71.572C23.3205 71.4757 23.5518 71.572 23.6493 71.7646L26.3649 77.6025C26.4623 77.8071 26.3649 78.0358 26.1701 78.1321C26.1214 78.1562 26.0605 78.1682 25.9996 78.1682Z" fill="black"/>
<path d="M26.0361 78.1923C25.8169 78.1923 25.6343 78.0238 25.6343 77.8071C25.6343 77.5905 25.8048 77.4099 26.024 77.3979L32.5147 77.2655C32.7339 77.2534 32.9166 77.434 32.9288 77.6506C32.9288 77.8673 32.7583 78.0479 32.5391 78.0599L26.0361 78.1923Z" fill="black"/>
<path d="M75.9931 26.6857C81.7095 21.0355 81.7095 11.8747 75.9931 6.22443C70.2768 0.574201 61.0088 0.574203 55.2925 6.22443C49.5761 11.8747 49.5761 21.0355 55.2925 26.6857C61.0088 32.336 70.2768 32.3359 75.9931 26.6857Z" fill="white"/>
<path d="M65.626 31.3204C57.954 31.3204 51.3901 25.5307 50.6595 17.839C49.8923 9.67794 55.9812 2.4076 64.2377 1.63723C72.4943 0.878903 79.8497 6.8974 80.6169 15.0585C81.3963 23.2196 75.3074 30.4899 67.0386 31.2482C66.5759 31.2964 66.1009 31.3204 65.626 31.3204ZM51.4632 17.7668C52.1939 25.4945 59.1474 31.188 66.9656 30.4658C74.7837 29.7436 80.5438 22.8705 79.8131 15.1427C79.0825 7.41499 72.1289 1.72149 64.3108 2.44371C56.4926 3.16593 50.7325 10.0391 51.4632 17.7668Z" fill="black"/>
<path d="M71.7148 22.1722L69.7785 19.8009C69.6202 19.6083 69.2792 19.4519 69.0235 19.4519L68.6947 19.4639C68.4024 19.4639 68.1101 19.5361 67.8422 19.6565C67.075 19.9694 65.8451 19.9815 64.2254 17.213C62.6179 14.4565 63.2268 13.4093 63.8844 12.9037C64.1645 12.6871 64.3959 12.4102 64.5786 12.0973L64.6516 11.9769C64.7856 11.7602 64.8221 11.3871 64.7247 11.1463L63.6165 8.29357C63.5191 8.05283 63.239 7.89635 62.9833 7.94449L62.2648 8.0769C61.6559 8.18523 61.1079 8.48616 60.706 8.94357C59.0133 10.9056 59.2934 14.8176 61.5707 18.7176C63.8479 22.6176 67.1603 24.8324 69.7176 24.3389C70.3143 24.2305 70.838 23.9055 71.2277 23.4481L71.7148 22.8824C71.8731 22.6898 71.8731 22.3768 71.7148 22.1722Z" fill="#6DC2FA"/>
<path d="M68.9749 24.7964C66.3566 24.7964 63.3244 22.5334 61.2054 18.9103C58.8673 14.914 58.5385 10.8094 60.3895 8.67883C60.8401 8.16123 61.4733 7.81216 62.1797 7.67976L62.8981 7.54735C63.3487 7.46309 63.8115 7.7279 63.9698 8.1492L65.078 11.002C65.2119 11.351 65.1754 11.8566 64.9805 12.1816L64.9075 12.302C64.6761 12.6751 64.4082 12.976 64.1159 13.2168C63.8115 13.4455 62.8981 14.1557 64.5665 17.0084C66.2349 19.8732 67.3187 19.4279 67.684 19.2834C68.025 19.139 68.366 19.0667 68.6826 19.0667L69.0114 19.0547C69.4011 19.0547 69.8517 19.2593 70.0952 19.5482L72.0315 21.9315C72.3116 22.2806 72.3116 22.8102 72.0193 23.1473L71.5322 23.713C71.0816 24.2426 70.4606 24.6038 69.7908 24.7362C69.5229 24.7723 69.255 24.7964 68.9749 24.7964ZM63.0686 8.32975C63.0565 8.32975 63.0565 8.32975 63.0443 8.32975L62.3258 8.46216C61.8021 8.55846 61.3272 8.82327 60.9984 9.19642C59.4031 11.0381 59.7806 14.8658 61.8996 18.513C63.848 21.8473 66.6611 24.0019 68.9749 24.0019C69.1941 24.0019 69.4133 23.9778 69.6203 23.9417C70.1074 23.8454 70.558 23.5806 70.899 23.1834L71.3861 22.6177C71.4226 22.5695 71.4226 22.4612 71.3861 22.413L69.4498 20.0417C69.3646 19.9454 69.1454 19.8371 69.0114 19.8371L68.6826 19.8491C68.4634 19.8491 68.2198 19.9093 67.9763 20.0056C66.5637 20.5834 65.2241 19.7167 63.8602 17.3936C62.5085 15.0705 62.4232 13.4936 63.6166 12.5668C63.8358 12.3983 64.0429 12.1575 64.2133 11.8686L64.2864 11.7483C64.3595 11.6399 64.3717 11.3992 64.323 11.2668L63.2148 8.41401C63.2026 8.3779 63.1295 8.32975 63.0686 8.32975Z" fill="black"/>
<path d="M34.4631 55.1896C42.776 55.1896 49.5149 48.4532 49.5149 40.1434C49.5149 31.8336 42.776 25.0972 34.4631 25.0972C26.1503 25.0972 19.4114 31.8336 19.4114 40.1434C19.4114 48.4532 26.1503 55.1896 34.4631 55.1896Z" fill="#019AFF"/>
<path d="M27.7044 46.1859C27.5096 46.1859 27.3391 46.0534 27.3025 45.8609L24.9279 32.7887L23.0281 32.7044C22.8089 32.6924 22.6384 32.5118 22.6384 32.2831C22.6506 32.0665 22.8333 31.8979 23.0647 31.8979L25.2932 32.0063C25.4759 32.0183 25.6342 32.1507 25.6707 32.3313L28.0454 45.3794L41.441 45.0784L45.0456 36.2313C45.1308 36.0266 45.3622 35.9303 45.5692 36.0146C45.7763 36.0989 45.8737 36.3276 45.7884 36.5322L42.0864 45.6201C42.0255 45.7646 41.8794 45.8609 41.7211 45.8729L27.7044 46.1859C27.7166 46.1859 27.7166 46.1859 27.7044 46.1859Z" fill="white"/>
<path d="M26.2188 36.9776C25.9996 36.9776 25.8169 36.797 25.8169 36.5804C25.8169 36.3637 25.9874 36.1831 26.2188 36.1831L45.4232 35.9785C45.6424 35.9785 45.825 36.1591 45.825 36.3757C45.825 36.5924 45.6545 36.773 45.4232 36.773L26.2188 36.9776Z" fill="white"/>
<path d="M26.7666 40.3239C26.5474 40.3239 26.3647 40.1434 26.3647 39.9267C26.3647 39.71 26.5352 39.5295 26.7666 39.5175L43.5476 39.3128C43.779 39.3008 43.9495 39.4813 43.9617 39.71C43.9617 39.9267 43.7912 40.1073 43.5598 40.1193L26.7666 40.3239Z" fill="white"/>
<path d="M27.3147 43.2489C27.0955 43.2489 26.9128 43.0683 26.9128 42.8517C26.9128 42.635 27.0833 42.4545 27.3147 42.4424L42.4883 42.2378C42.7075 42.2378 42.8901 42.4063 42.9023 42.635C42.9023 42.8517 42.7318 43.0322 42.5004 43.0443L27.3147 43.2489Z" fill="white"/>
<path d="M30.6393 49.833C31.3993 49.833 32.0154 49.2726 32.0154 48.5812C32.0154 47.8898 31.3993 47.3293 30.6393 47.3293C29.8793 47.3293 29.2632 47.8898 29.2632 48.5812C29.2632 49.2726 29.8793 49.833 30.6393 49.833Z" fill="white"/>
<path d="M40.7956 48.5812C40.7956 49.2793 40.1746 49.833 39.4196 49.833C38.6645 49.833 38.0435 49.2673 38.0435 48.5812C38.0435 47.883 38.6645 47.3293 39.4196 47.3293C40.1746 47.3293 40.7956 47.8951 40.7956 48.5812Z" fill="white"/>
<path d="M31.9423 45.3432C31.7474 45.3432 31.5769 45.1987 31.5404 44.9941L30.3835 36.6284C30.3591 36.4117 30.5053 36.2071 30.7245 36.183C30.9437 36.159 31.1507 36.3034 31.1751 36.5201L32.332 44.8858C32.3563 45.1024 32.2102 45.3071 31.991 45.3311C31.9788 45.3432 31.9666 45.3432 31.9423 45.3432Z" fill="white"/>
<path d="M36.8744 45.7645C36.8622 45.7645 36.8622 45.7645 36.8501 45.7645C36.6309 45.7525 36.4604 45.5599 36.4725 45.3432L36.9597 36.6645C36.9718 36.4479 37.1545 36.2793 37.3859 36.2914C37.6051 36.3034 37.7756 36.496 37.7634 36.7127L37.2763 45.3913C37.2763 45.596 37.0936 45.7645 36.8744 45.7645Z" fill="white"/>
<path d="M59.0991 141.651C59.0991 141.651 52.3891 135.512 49.917 134.092C47.4571 132.66 44.3883 126.81 52.6692 123.223C55.3483 122.055 55.8841 118.841 61.0475 118.287C66.2109 117.734 70.5097 120.334 71.0577 123.548C71.6178 126.773 68.5247 129.554 66.2109 129.927C63.9093 130.312 59.0991 141.651 59.0991 141.651Z" fill="black"/>
<path d="M70.7776 134.08L71.496 133.057L68.6464 129.458L66.698 124.727C61.1814 124.354 58.9773 125.846 58.9042 130.023C58.8555 132.708 57.4307 132.768 57.4307 132.768C57.4307 132.768 55.3361 130.541 54.2523 133.189C53.1684 135.837 57.6742 137.667 57.6742 137.667C58.2588 138.883 58.1248 140.327 57.3089 141.422L49.2959 152.195C49.2959 152.195 64.3233 156.132 64.4816 153.784C64.5303 153.122 64.299 152.557 63.9458 152.075C62.2165 149.74 65.3462 143.433 65.3462 143.433L70.3635 141.434C71.289 141.061 71.7761 140.074 71.496 139.135L70.5096 135.765C70.327 135.187 70.4366 134.573 70.7776 134.08Z" fill="white"/>
<path d="M62.3383 154.904C58.2344 154.904 50.2701 152.858 49.1863 152.569C49.0523 152.533 48.9549 152.436 48.9062 152.316C48.8575 152.196 48.8818 152.051 48.9671 151.943L56.9801 141.17C57.6742 140.243 57.8203 139.015 57.3697 137.956C56.5417 137.583 52.7665 135.729 53.8747 133.021C54.2401 132.13 54.7637 131.624 55.4213 131.504C56.3346 131.335 57.1871 131.997 57.5524 132.322C57.8447 132.202 58.4658 131.757 58.5023 130.011C58.5388 128.037 59.0503 126.629 60.061 125.702C61.3397 124.547 63.4587 124.101 66.7223 124.318C66.8806 124.33 67.0146 124.426 67.0633 124.571L68.9874 129.241L71.8004 132.792C71.91 132.924 71.9101 133.117 71.8126 133.261L71.0941 134.284C70.8262 134.67 70.741 135.163 70.8749 135.621L71.8613 138.991C72.2023 140.134 71.6056 141.326 70.4974 141.771L65.6263 143.721C64.7617 145.527 62.9959 150.101 64.2624 151.81C64.713 152.424 64.92 153.086 64.8713 153.772C64.8591 153.965 64.7739 154.254 64.4572 154.483C64.0675 154.796 63.3125 154.904 62.3383 154.904ZM49.9656 151.955C54.9585 153.231 62.728 154.771 63.9945 153.869C64.0675 153.808 64.0797 153.772 64.0797 153.76C64.1163 153.255 63.9579 152.773 63.6291 152.316C61.7781 149.812 64.8591 143.529 64.9931 143.264C65.0418 143.18 65.1148 143.108 65.2001 143.071L70.2173 141.073C70.948 140.784 71.3377 140.002 71.1185 139.244L70.1321 135.873C69.9251 135.187 70.0468 134.453 70.4609 133.863L71.0089 133.081L68.342 129.71C68.3176 129.686 68.3054 129.65 68.2811 129.614L66.43 125.124C63.5439 124.956 61.6929 125.341 60.6212 126.316C59.7688 127.098 59.3547 128.278 59.3182 130.047C59.2695 133.069 57.5281 133.177 57.455 133.177C57.3332 133.177 57.2236 133.141 57.1384 133.045C56.907 132.804 56.1763 132.19 55.5674 132.31C55.1899 132.383 54.8733 132.732 54.6176 133.346C53.6921 135.597 57.7838 137.294 57.8203 137.306C57.9177 137.342 57.9908 137.414 58.0274 137.498C58.6728 138.859 58.5266 140.447 57.6255 141.651L49.9656 151.955Z" fill="black"/>
<path d="M57.8325 129.241L61.6442 134.345C63.2639 136.511 66.2231 137.198 68.6464 135.982L70.7167 134.935L74.5405 141.892C74.9545 142.879 74.4187 144.011 73.3836 144.336L67.8184 146.611C66.2352 147.116 64.4938 146.695 63.3126 145.515L57.3333 139.521C57.3333 139.521 59.5983 137.438 57.4063 132.756C55.2387 128.086 57.8325 129.241 57.8325 129.241Z" fill="black"/>
<path d="M122.034 144.648L111.147 146.225C111.147 146.225 106.726 162.993 95.6444 163.547C90.3106 163.811 86.2797 162.174 83.5275 160.393C79.3627 157.709 74.6134 156.047 69.6448 155.638L49.7219 154.013C38.7132 153.122 28.2281 158.78 23.0525 168.421C17.5238 178.749 10.6677 192.508 6.29588 204.749C5.49214 207 7.17268 209.371 9.59606 209.371H62.4477L74.0775 180.591C79.8742 183.034 88.8005 185.177 101.344 184.033C127.855 181.626 122.034 144.648 122.034 144.648Z" fill="#019AFF"/>
<path d="M62.4478 209.769H9.59616C8.31749 209.769 7.14842 209.179 6.41776 208.144C5.67491 207.108 5.49224 205.82 5.93064 204.617C10.4243 192.062 17.5361 177.919 22.7238 168.253C27.9725 158.455 38.6037 152.713 49.7829 153.628L69.6936 155.253C74.6378 155.65 79.4968 157.323 83.759 160.068C87.2662 162.331 91.2727 163.366 95.6324 163.149C106.3 162.62 110.721 146.285 110.769 146.129C110.806 145.973 110.94 145.864 111.098 145.84L121.985 144.263C122.204 144.227 122.411 144.384 122.448 144.6C122.484 144.805 125.553 165.135 116.469 176.655C112.852 181.241 107.774 183.865 101.38 184.455C88.6423 185.61 79.6794 183.335 74.2968 181.133L62.8254 209.54C62.7523 209.672 62.6062 209.769 62.4478 209.769ZM47.4448 154.338C37.4225 154.338 28.1673 159.779 23.418 168.638C18.2546 178.28 11.1427 192.387 6.67349 204.894C6.33251 205.844 6.47865 206.868 7.06318 207.698C7.64772 208.517 8.57323 208.986 9.58399 208.986H62.1678L73.7001 180.458C73.7367 180.362 73.8219 180.278 73.9193 180.242C74.0168 180.206 74.1385 180.206 74.236 180.242C79.4724 182.445 88.4353 184.828 101.307 183.66C107.469 183.095 112.352 180.579 115.823 176.173C124.007 165.809 122.07 147.995 121.693 145.13L111.464 146.61C111.183 147.597 110.039 151.245 107.895 154.904C104.571 160.597 100.333 163.739 95.6567 163.968C91.1144 164.196 86.9618 163.113 83.2962 160.754C79.1436 158.082 74.4186 156.457 69.6084 156.072L49.6977 154.447C48.9427 154.362 48.1876 154.338 47.4448 154.338Z" fill="black"/>
<path d="M76.2454 186.32C68.0132 183.624 63.5683 170.973 63.5683 170.973L39.3223 175.8C39.3223 175.8 56.1276 202.305 67.7087 204.737C74.9302 206.254 89.4218 199.525 99.3345 194.229C98.068 191.46 96.2413 187.476 94.8896 184.539C87.6316 186.284 79.984 187.548 76.2454 186.32Z" fill="#019AFF"/>
<path d="M69.9982 205.351C69.1457 205.351 68.342 205.279 67.6113 205.122C55.9937 202.691 39.6633 177.1 38.9691 176.005C38.8473 175.812 38.9082 175.571 39.0909 175.451C39.2857 175.331 39.5293 175.391 39.6511 175.571C39.8216 175.836 56.493 201.956 67.7818 204.328C73.1766 205.459 84.1853 201.8 98.7987 194.036C97.0573 190.232 95.6568 187.187 94.6461 184.996C85.5371 187.163 79.3142 187.729 76.1114 186.682C67.7818 183.961 63.3613 171.611 63.1786 171.094C63.1055 170.889 63.2151 170.66 63.4222 170.588C63.6292 170.516 63.8606 170.624 63.9336 170.829C63.9823 170.949 68.4151 183.323 76.3672 185.923C79.4116 186.922 85.7684 186.296 94.78 184.142C94.9627 184.094 95.1575 184.19 95.2428 184.358C96.3022 186.645 97.8001 189.895 99.6877 194.048C99.7729 194.241 99.6998 194.469 99.5172 194.566C90.0063 199.657 77.6337 205.351 69.9982 205.351Z" fill="black"/>
<path d="M125.663 187.344L114.435 181.181C112.706 180.23 110.648 180.025 108.76 180.627C105.63 181.626 100.37 183.227 94.8652 184.539C96.217 187.464 98.0436 191.448 99.3101 194.229C105.302 191.027 109.6 188.367 109.6 188.367L116.846 192.134C116.846 192.134 116.444 198.418 117.881 198.598C119.318 198.767 119.866 192.977 119.866 192.977C119.866 192.977 121.108 200.175 123.24 198.598L124.055 189.907C124.055 189.907 125.468 193.759 126.284 193.916C127.1 194.072 127.1 194.072 127.1 194.072L125.663 187.344Z" fill="white"/>
<path d="M122.643 199.224C122.46 199.224 122.314 199.188 122.18 199.14C121.133 198.731 120.402 196.805 119.964 195.216C119.708 196.6 119.27 198.225 118.588 198.779C118.308 199.007 118.027 199.032 117.845 199.007C116.274 198.815 116.323 194.506 116.444 192.387L109.637 188.836C108.724 189.39 104.729 191.809 99.5172 194.59C99.4198 194.638 99.298 194.65 99.2006 194.614C99.091 194.578 99.0057 194.506 98.957 194.397C97.0573 190.257 95.5594 186.995 94.5121 184.72C94.4634 184.611 94.4634 184.491 94.5121 184.383C94.5608 184.274 94.6583 184.202 94.78 184.166C100.163 182.878 105.289 181.325 108.638 180.254C110.623 179.616 112.803 179.833 114.63 180.832L125.858 186.995C125.955 187.055 126.028 187.151 126.053 187.259L127.514 193.988C127.538 194.12 127.502 194.253 127.404 194.349C127.307 194.445 127.173 194.482 127.039 194.457L126.223 194.301C125.59 194.181 124.871 192.881 124.311 191.593L123.654 198.634C123.641 198.743 123.581 198.851 123.495 198.911C123.179 199.14 122.886 199.224 122.643 199.224ZM119.878 192.568C120.073 192.568 120.244 192.712 120.28 192.905C120.609 194.819 121.498 197.996 122.497 198.394C122.582 198.43 122.704 198.454 122.874 198.369L123.678 189.871C123.69 189.691 123.836 189.534 124.031 189.51C124.214 189.486 124.396 189.595 124.457 189.775C125.151 191.665 126.04 193.386 126.406 193.531L126.613 193.567L125.322 187.608L114.265 181.53C112.633 180.639 110.684 180.446 108.906 181.012C105.643 182.059 100.686 183.552 95.462 184.816C96.4728 186.995 97.8367 189.968 99.5294 193.675C105.241 190.618 109.381 188.054 109.418 188.03C109.54 187.958 109.698 187.945 109.82 188.018L117.065 191.785C117.212 191.857 117.285 192.002 117.285 192.158C117.09 195.252 117.406 198.129 117.967 198.201C117.979 198.201 118.027 198.213 118.101 198.141C118.807 197.575 119.33 194.638 119.489 192.929C119.513 192.724 119.671 192.58 119.878 192.568C119.866 192.568 119.866 192.568 119.878 192.568Z" fill="black"/>
<path d="M68.4638 156.553L68.9631 153.592C69.1335 152.605 68.476 151.654 67.4895 151.449C62.5332 150.414 48.7966 147.477 47.0187 146.225C44.8266 144.696 28.9955 159.454 31.3702 159.069C49.028 156.192 68.4638 156.553 68.4638 156.553Z" fill="#019AFF"/>
<path d="M31.2605 159.478C30.9196 159.478 30.7856 159.249 30.7491 159.177C30.6273 158.912 30.4324 158.479 33.2942 155.578C34.9626 153.893 37.1668 151.895 39.2005 150.222C45.7278 144.865 46.8481 145.647 47.2256 145.912C48.4069 146.731 56.0058 148.657 67.5504 151.064C68.756 151.317 69.5476 152.46 69.3405 153.664L68.8413 156.625C68.8047 156.818 68.6464 156.962 68.4394 156.962C68.2445 156.962 48.8453 156.625 31.3945 159.466C31.358 159.466 31.3093 159.478 31.2605 159.478ZM46.5802 146.514C46.4341 146.514 46.1662 146.562 45.74 146.731C41.7943 148.332 33.0385 156.553 31.6868 158.611C47.8102 156.035 65.4436 156.12 68.1228 156.156L68.5612 153.532C68.6951 152.749 68.1837 152.015 67.3921 151.847C61.8025 150.679 48.5896 147.838 46.7629 146.562C46.7507 146.55 46.702 146.514 46.5802 146.514Z" fill="black"/>
<path d="M116.578 126.942C116.883 126.34 118.393 124.571 119.087 124.053L126.369 117.361C126.369 117.361 127.319 120.587 126.162 122.488C128.391 122.561 130.169 122.934 130.169 122.934C130.169 122.934 133.493 120.033 134.321 119.539C135.149 119.046 136.233 118.251 137.341 118.263C138.462 118.275 139.57 119.118 139.57 119.118L133.177 127.123L121.547 130.288L122.192 147.718L111.147 146.225L116.578 126.942Z" fill="white"/>
<path d="M122.192 148.115C122.18 148.115 122.156 148.115 122.143 148.115L111.098 146.623C110.989 146.61 110.879 146.538 110.818 146.442C110.757 146.346 110.733 146.225 110.769 146.117L116.201 126.834C116.213 126.81 116.213 126.786 116.225 126.761C116.554 126.124 118.076 124.318 118.831 123.752L126.089 117.072C126.186 116.975 126.333 116.939 126.467 116.975C126.601 117.012 126.71 117.12 126.747 117.252C126.783 117.373 127.563 120.105 126.783 122.115C128.33 122.199 129.572 122.416 130.047 122.5C130.717 121.923 133.347 119.648 134.102 119.19C134.212 119.118 134.333 119.046 134.455 118.974C135.247 118.48 136.233 117.854 137.305 117.854C137.317 117.854 137.329 117.854 137.341 117.854C138.583 117.866 139.753 118.757 139.801 118.793C139.886 118.853 139.947 118.949 139.96 119.058C139.972 119.166 139.947 119.274 139.874 119.359L133.481 127.363C133.432 127.436 133.359 127.484 133.274 127.496L121.961 130.577L122.594 147.682C122.594 147.802 122.545 147.91 122.46 147.995C122.387 148.079 122.29 148.115 122.192 148.115ZM111.658 145.888L121.778 147.26L121.145 130.312C121.133 130.132 121.267 129.963 121.437 129.915L132.933 126.786L138.973 119.214C138.596 118.986 137.95 118.673 137.329 118.661C136.501 118.649 135.6 119.202 134.894 119.648C134.772 119.732 134.65 119.804 134.528 119.876C133.871 120.274 131.35 122.428 130.437 123.235C130.339 123.319 130.205 123.355 130.083 123.331C130.071 123.331 128.318 122.958 126.15 122.886C126.004 122.886 125.882 122.801 125.809 122.681C125.736 122.561 125.748 122.404 125.821 122.284C126.564 121.044 126.333 119.118 126.138 118.131L119.367 124.354C119.355 124.366 119.343 124.378 119.33 124.378C118.697 124.848 117.272 126.521 116.956 127.099L111.658 145.888Z" fill="black"/>
<path d="M62.7158 143.589C60.4994 143.589 58.4292 142.349 57.4184 140.291L56.298 137.992C56.2006 137.799 56.2859 137.559 56.4807 137.462C56.6877 137.366 56.9191 137.45 57.0165 137.643L58.1369 139.942C59.2207 142.157 61.7415 143.276 64.1284 142.59L69.6206 141.013C69.8398 140.953 70.059 141.073 70.1199 141.29C70.1807 141.507 70.059 141.723 69.8398 141.784L64.3476 143.36C63.8118 143.517 63.2638 143.589 62.7158 143.589Z" fill="#019AFF"/>
<path d="M56.2737 132.431C56.0667 132.431 55.8962 132.286 55.8718 132.082C55.8353 131.733 54.8976 123.475 58.6849 119.744C60.1097 118.348 62.0094 117.782 64.3354 118.059C64.5546 118.083 64.7129 118.287 64.6886 118.504C64.6642 118.721 64.4572 118.877 64.238 118.853C62.1677 118.6 60.4994 119.094 59.2573 120.31C55.75 123.752 56.6756 131.901 56.6756 131.986C56.6999 132.202 56.5416 132.407 56.3224 132.431C56.298 132.431 56.2859 132.431 56.2737 132.431Z" fill="#019AFF"/>
<path d="M71.837 141.374C71.9466 140.568 71.3499 139.822 70.5096 139.713C69.6694 139.605 68.9143 140.183 68.8047 140.989C68.6951 141.796 69.2918 142.542 70.1321 142.65C70.9724 142.759 71.7274 142.181 71.837 141.374Z" fill="#019AFF"/>
<path d="M60.8284 135.5C61.1206 133.225 59.6471 131.167 57.5404 130.902C57.309 130.878 56.4565 130.854 56.2252 130.866C54.3985 130.986 53.4486 132.515 53.1929 134.537C52.9128 136.716 53.7531 138.762 55.7259 139.147C55.8111 139.159 56.3956 139.208 56.4809 139.208C58.7825 139.232 60.5361 137.775 60.8284 135.5Z" fill="#6DC2FA"/>
<path d="M59.9123 135.428C60.1585 133.147 58.6448 131.118 56.5314 130.895C54.418 130.672 52.5052 132.34 52.259 134.621C52.0128 136.902 53.5265 138.931 55.6399 139.154C57.7533 139.377 59.6661 137.709 59.9123 135.428Z" fill="#019AFF"/>
<path d="M164.9 220H2.22847C1.03504 220 0.072998 219.049 0.072998 217.869V210.719C0.072998 209.54 1.03504 208.589 2.22847 208.589H164.9C166.093 208.589 167.055 209.54 167.055 210.719V217.869C167.043 219.049 166.081 220 164.9 220Z" fill="#6DC2FA"/>
<path d="M158.385 205.652H125.931L164.814 169.084C166.032 167.94 167.615 167.254 169.028 167.254H195.369C197.037 167.254 197.341 169.023 195.892 170.384L158.385 205.652Z" fill="black"/>
<path d="M175.677 180.073C173.972 181.674 171.183 182.974 169.43 182.974C167.688 182.974 167.652 181.674 169.357 180.073C171.062 178.472 173.85 177.172 175.604 177.172C177.358 177.16 177.382 178.46 175.677 180.073Z" fill="#CADDFF"/>
<path d="M157.897 209.263H88.5935C87.9115 209.263 87.3635 208.721 87.3635 208.047V205.351H159.127V208.047C159.127 208.709 158.579 209.263 157.897 209.263Z" fill="black"/>
<path d="M156.996 206.085H124.067C123.848 206.085 123.666 205.905 123.666 205.688C123.666 205.471 123.848 205.291 124.067 205.291H156.996C157.215 205.291 157.398 205.471 157.398 205.688C157.398 205.905 157.215 206.085 156.996 206.085Z" fill="white"/>
<path d="M213.063 55.7313L222.501 52.8906L221.697 44.4045L211.881 43.1647C211.333 41.2749 210.603 39.4092 209.702 37.5916L216.363 30.6944L211.151 23.713L201.981 27.2518C200.471 25.8435 198.851 24.5556 197.146 23.4361L199.241 14.3482L191.009 10.7491L184.956 18.1278C182.923 17.6222 180.84 17.2852 178.733 17.1047L175.726 8.2334L166.69 8.99173L165.374 18.2121C163.365 18.7297 161.38 19.4158 159.444 20.2583L152.101 13.9991L144.672 18.8982L148.435 27.5046C146.925 28.925 145.573 30.4416 144.368 32.0546L134.699 30.0805L130.875 37.8083L138.717 43.5018C138.181 45.4156 137.816 47.3777 137.633 49.3397L128.196 52.1804L128.999 60.6665L138.815 61.9063C139.363 63.7961 140.093 65.6619 140.994 67.4794L134.333 74.3766L139.545 81.3581L148.715 77.8192C150.225 79.2275 151.845 80.5155 153.55 81.6349L151.455 90.7229L159.687 94.3219L165.74 86.9433C167.773 87.4488 169.856 87.7858 171.963 87.9664L174.983 96.8377L184.019 96.0793L185.334 86.859C187.343 86.3414 189.328 85.6553 191.264 84.8127L198.608 91.0719L206.036 86.1729L202.273 77.5664C203.771 76.1461 205.135 74.6294 206.341 73.0165L216.01 74.9905L219.834 67.2628L211.991 61.5693C212.515 59.6554 212.88 57.7054 213.063 55.7313ZM177.357 79.059C162.159 80.1183 148.922 69.3933 147.802 55.1175C146.681 40.8416 158.08 28.3953 173.278 27.3481C188.476 26.2889 201.713 37.0138 202.833 51.2897C203.966 65.5656 192.567 77.9998 177.357 79.059Z" fill="#6DC2FA"/>
<mask id="mask0_100_389" style="mask-type:luminance" maskUnits="userSpaceOnUse" x="108" y="0" width="114" height="80">
<path d="M221.076 48.9184C221.258 51.3017 203.345 54.8285 202.992 57.0915C202.042 63.134 198.121 69.2007 193.079 73.0405C188.792 76.3145 183.8 78.8543 177.857 79.2756C162.427 80.3469 148.898 69.8748 147.753 55.3822C147.692 54.648 110.842 34.3777 110.647 33.6675C96.8378 -16.3341 160.528 4.57411 175.178 3.563C190.619 2.47967 219.931 34.4258 221.076 48.9184Z" fill="white"/>
</mask>
<g mask="url(#mask0_100_389)">
<path d="M163.024 28.7323C163.024 28.7323 166.288 28.1185 166.811 21.6546C167.335 15.1907 167.104 9.56946 173.765 7.35466C180.426 5.13985 187.1 8.3778 187.38 14.5768C187.66 20.7879 192.531 23.9416 197.049 26.3851C202.894 29.5509 202.553 30.4055 205.573 36.9536C208.825 43.9832 201.25 58.4757 179.416 46.7878L163.024 28.7323Z" fill="black"/>
<path d="M171.086 22.6658C171.086 22.6658 172.194 23.6528 174.313 23.1352L171.086 22.6658Z" fill="white"/>
<path d="M173.12 23.689C171.646 23.689 170.855 23.0029 170.818 22.9667C170.647 22.8223 170.635 22.5695 170.794 22.401C170.94 22.2325 171.195 22.2204 171.366 22.3649C171.415 22.401 172.377 23.1954 174.228 22.738C174.447 22.6899 174.666 22.8103 174.715 23.0269C174.764 23.2436 174.642 23.4603 174.423 23.5084C173.936 23.6408 173.509 23.689 173.12 23.689Z" fill="black"/>
<path d="M194.491 148.512C192.555 149.981 188.366 151.979 180.938 150.438L178.819 81.009L192.299 77.6025C192.299 77.6025 195.441 94.683 194.869 112.125C194.345 128.05 195.332 141.531 195.697 145.804C195.794 146.839 195.356 147.862 194.491 148.512Z" fill="black"/>
<path d="M191.532 75.6165L158.92 79.6368L162.683 113.196C163.122 117.12 164.717 120.839 167.286 123.957C171.402 128.952 177.93 136.271 182.837 138.967C190.595 143.204 191.532 75.6165 191.532 75.6165Z" fill="black"/>
<path d="M130.911 18.8741C131.118 18.8139 131.265 18.6333 131.24 18.4287C131.131 17.3574 130.643 14.1556 128.598 12.8195C126.138 11.1945 123.836 7.23432 122.46 7.72784C121.084 8.22136 124.469 11.5797 124.141 12.001C123.824 12.4223 121.181 10.3399 120.292 9.07598C119.416 7.8121 118.271 5.28433 117.15 5.45285C115.616 5.68155 115.446 7.88432 117.832 12.0491C120.097 16.0093 126.722 16.6472 127.441 19.3315C127.502 19.5602 127.757 19.6926 128.001 19.6324L130.911 18.8741Z" fill="white"/>
<path d="M127.891 20.0296C127.514 20.0296 127.161 19.7889 127.063 19.4157C126.771 18.3204 125.188 17.55 123.349 16.6593C121.193 15.612 118.733 14.4204 117.491 12.2297C115.823 9.3167 115.251 7.13801 115.847 5.93431C116.091 5.44079 116.529 5.12783 117.102 5.04357C118.222 4.87505 119.123 6.36764 119.988 7.81208C120.219 8.19726 120.438 8.55837 120.633 8.84726C121.242 9.72596 122.643 10.8935 123.458 11.3991C123.337 11.2065 123.191 11.0019 123.057 10.8213C122.155 9.5454 121.547 8.58245 121.766 7.89634C121.827 7.71578 121.961 7.47504 122.314 7.35467C123.361 6.98153 124.494 8.2093 125.918 9.76207C126.807 10.7371 127.818 11.8324 128.817 12.4945C130.96 13.9028 131.496 17.0926 131.63 18.4046C131.666 18.8018 131.411 19.175 130.997 19.2833L128.098 20.0296C128.037 20.0176 127.964 20.0296 127.891 20.0296ZM117.272 5.82598C117.26 5.82598 117.236 5.82598 117.223 5.82598C116.919 5.87412 116.7 6.01857 116.578 6.27134C116.127 7.18616 116.736 9.26855 118.198 11.8204C119.33 13.7945 121.656 14.9259 123.714 15.925C125.724 16.9 127.453 17.7426 127.842 19.1991C127.842 19.2111 127.867 19.2231 127.903 19.2111L130.802 18.4648C130.826 18.4648 130.838 18.4407 130.838 18.4407C130.741 17.5139 130.29 14.3722 128.378 13.1204C127.294 12.4102 126.247 11.2667 125.334 10.2556C124.311 9.13615 123.142 7.87226 122.606 8.06486C122.557 8.08893 122.545 8.10097 122.545 8.10097C122.423 8.47411 123.276 9.67781 123.726 10.3278C124.421 11.3148 124.761 11.8084 124.469 12.1935C124.408 12.2778 124.262 12.4102 123.994 12.4102C123.093 12.3861 120.731 10.3398 119.976 9.25652C119.756 8.94356 119.537 8.57041 119.306 8.18523C118.721 7.25838 117.869 5.82598 117.272 5.82598Z" fill="black"/>
<path d="M170.818 27.7335C167.846 27.3122 164.839 27.2881 161.867 27.6492C158.47 28.0585 154.183 28.8649 151.455 30.3816C146.353 33.2464 144.051 36.4482 140.848 35.4732C138.157 34.6547 133.773 22.5696 132.433 18.7057C132.202 18.0437 131.459 17.6705 130.753 17.8631L127.526 18.7057C126.856 18.8863 126.43 19.5002 126.539 20.1502C127.416 25.3501 131.301 46.5834 136.367 47.763C142.151 49.0991 155.79 41.1788 155.79 41.1788C155.79 41.1788 157.751 67.5037 155.157 81.623C155.157 81.623 160.978 81.1897 164.875 82.3934C185.675 88.8452 193.456 78.9508 193.456 78.9508C192.908 73.5823 191.35 69.9712 186.759 64.2537C184.238 61.1241 183.178 55.8759 187.27 50.7723C187.27 50.7723 200.641 81.5869 202.955 85.1619C203.113 85.4027 209.702 83.549 209.702 83.3925C209.896 71.9935 199.959 51.4584 198.352 46.4149C197.865 44.8862 197.256 43.3936 196.489 41.9732C194.09 37.5436 188.938 30.3575 180.292 29.0335L170.818 27.7335Z" fill="#019AFF"/>
<path d="M203.028 85.5952C202.724 85.5952 202.663 85.4989 202.602 85.3905C200.447 82.0683 189.121 56.1045 187.161 51.5786C183.629 56.4295 184.859 61.2804 187.063 64.0249C191.63 69.6943 193.274 73.3174 193.846 78.9267C193.858 79.023 193.822 79.1313 193.761 79.2156C193.676 79.3239 191.691 81.7915 187.088 83.4887C182.874 85.0294 175.592 86.1609 164.729 82.8026C160.942 81.635 155.218 82.0442 155.157 82.0442C155.023 82.0563 154.914 82.0081 154.828 81.9118C154.743 81.8155 154.707 81.6952 154.731 81.5748C157.069 68.8758 155.681 45.9574 155.401 41.8648C152.965 43.225 143.479 48.3286 137.816 48.3286C137.256 48.3286 136.72 48.2805 136.245 48.1722C133.907 47.6305 131.678 43.5139 129.462 35.5935C127.745 29.4667 126.539 22.8102 126.113 20.2343C125.967 19.3797 126.527 18.5612 127.404 18.3325L130.631 17.4899C131.545 17.2491 132.494 17.7306 132.799 18.5853C136.16 28.263 139.277 34.5824 140.958 35.1C142.931 35.7018 144.538 34.5583 146.974 32.825C148.179 31.9704 149.555 30.9954 151.248 30.0445C154.086 28.4556 158.555 27.6491 161.806 27.2639C164.802 26.9028 167.847 26.9269 170.867 27.3602L180.341 28.6843C189.243 30.0445 194.504 37.5074 196.842 41.8287C197.585 43.2009 198.206 44.6814 198.729 46.3425C199.107 47.5101 199.935 49.5444 200.995 52.1203C204.453 60.5462 210.238 74.6415 210.091 83.4405C210.091 83.7776 210.079 83.8378 207.169 84.6563C204.563 85.3785 203.503 85.5952 203.028 85.5952ZM187.246 50.399C187.258 50.399 187.282 50.399 187.295 50.399C187.441 50.4231 187.55 50.5073 187.611 50.6397C187.745 50.9407 200.605 80.5757 203.162 84.8007C204.1 84.6804 208.289 83.5368 209.275 83.1637C209.312 74.5091 203.637 60.6906 200.24 52.4092C199.18 49.8212 198.34 47.7629 197.95 46.5712C197.439 44.9583 196.842 43.5259 196.123 42.2018C193.858 38.0009 188.768 30.7667 180.219 29.4667L170.757 28.1426C167.81 27.7334 164.839 27.6973 161.904 28.0584C158.725 28.4435 154.366 29.2259 151.638 30.7426C149.994 31.6695 148.63 32.6324 147.437 33.475C144.891 35.2806 143.053 36.5805 140.702 35.8704C137.999 35.0519 134.102 24.8565 132.019 18.8501C131.861 18.3927 131.338 18.1278 130.826 18.2603L127.599 19.1028C127.124 19.2232 126.832 19.6565 126.905 20.1019C128.938 32.1389 132.653 46.5111 136.428 47.3898C141.993 48.6777 155.413 40.9379 155.547 40.8537C155.669 40.7815 155.815 40.7815 155.937 40.8416C156.058 40.9018 156.144 41.0222 156.156 41.1666C156.18 41.4315 158.043 67.0943 155.608 81.2137C157.13 81.1415 161.672 81.0211 164.96 82.0322C175.555 85.3183 182.655 84.235 186.734 82.7544C190.583 81.3581 192.555 79.348 193.006 78.8424C192.434 73.498 190.814 69.9952 186.406 64.5304C183.933 61.461 182.582 55.9481 186.917 50.5555C187.014 50.4472 187.124 50.399 187.246 50.399Z" fill="black"/>
<path d="M169.43 77.41C169.296 77.41 169.162 77.3377 169.089 77.2174L161.77 65.397C161.648 65.2045 161.709 64.9637 161.904 64.8433C162.099 64.723 162.342 64.7832 162.464 64.9758L169.783 76.7961C169.905 76.9887 169.844 77.2294 169.649 77.3498C169.576 77.3859 169.503 77.41 169.43 77.41Z" fill="black"/>
<path d="M163.925 75.7609C163.779 75.7609 163.645 75.6886 163.572 75.5442L160.99 70.7174C160.881 70.5248 160.966 70.284 161.161 70.1757C161.356 70.0674 161.599 70.1516 161.709 70.3442L164.291 75.1711C164.4 75.3636 164.315 75.6044 164.12 75.7127C164.047 75.7488 163.986 75.7609 163.925 75.7609Z" fill="black"/>
<path d="M171.244 22.7981C169.052 21.5944 170.794 13.3491 173.059 12.0009C175.324 10.6408 180.39 11.6037 180.39 11.6037C178.989 17.4176 182.424 18.5972 182.886 18.5611C183.349 18.525 184.823 18.5129 184.043 20.4148C183.264 22.3166 181.108 21.462 181.108 21.462C180.719 21.8352 179.964 22.2805 179.038 22.6777C178.149 25.9518 179.598 28.3833 180.792 29.7194C181.401 30.4055 181.096 31.4407 180.195 31.7175C178.758 32.1509 176.529 32.4999 173.655 31.9944C171.451 31.6092 169.953 30.9712 168.955 30.3573C168.127 29.8518 168.163 28.6842 169.028 28.2388C171.354 27.0351 172.693 23.5926 171.244 22.7981Z" fill="white"/>
<path d="M176.42 32.6444C175.555 32.6444 174.605 32.5722 173.582 32.3916C171.646 32.0546 170.014 31.4888 168.736 30.7064C168.224 30.3935 167.92 29.8518 167.944 29.262C167.968 28.6842 168.297 28.1666 168.833 27.8898C170.38 27.0953 171.427 25.2537 171.439 24.038C171.439 23.5926 171.317 23.2917 171.049 23.1472C170.282 22.7259 169.868 21.6546 169.832 20.0657C169.783 17.1046 171.11 12.6991 172.852 11.6639C175.226 10.2436 180.256 11.1704 180.463 11.2065L180.877 11.2787L180.779 11.688C180.061 14.6732 180.682 16.2982 181.327 17.1287C181.973 17.9593 182.74 18.1639 182.862 18.1639C183.787 18.1037 184.226 18.4167 184.433 18.7056C184.749 19.1389 184.749 19.7648 184.421 20.5713C183.751 22.2204 182.143 22.2083 181.206 21.9194C180.792 22.2565 180.146 22.6296 179.379 22.9787C178.648 25.9278 179.903 28.1305 181.096 29.4787C181.474 29.9 181.607 30.4657 181.449 30.9953C181.291 31.537 180.865 31.9463 180.317 32.1148C179.391 32.3796 178.076 32.6444 176.42 32.6444ZM171.439 22.4491C171.963 22.738 172.255 23.3037 172.243 24.05C172.231 25.4944 171.062 27.637 169.198 28.6C168.918 28.7444 168.76 28.9972 168.748 29.2981C168.736 29.599 168.894 29.8759 169.15 30.0324C170.343 30.7546 171.865 31.2842 173.704 31.6092C176.554 32.1027 178.734 31.7416 180.061 31.3444C180.353 31.2601 180.572 31.0435 180.658 30.7666C180.731 30.4898 180.67 30.2129 180.475 29.9963C179.123 28.4796 177.711 25.9639 178.636 22.5815L178.685 22.4009L178.867 22.3287C179.732 21.9556 180.463 21.5343 180.816 21.1852L180.999 21.0046L181.242 21.1009C181.425 21.1732 183.044 21.7509 183.653 20.2704C183.86 19.7528 183.909 19.3676 183.763 19.175C183.641 19.0065 183.337 18.9343 182.898 18.9704C182.484 18.9945 181.547 18.6454 180.816 17.7787C180.024 16.8519 179.233 15.0945 179.903 11.9287C178.673 11.7482 175.019 11.3028 173.266 12.35C171.938 13.1445 170.587 17.1047 170.635 20.0537C170.672 21.3056 170.964 22.1843 171.439 22.4491Z" fill="black"/>
</g>
<path d="M171.256 138.606C170.063 138.594 169.101 137.631 169.113 136.451L169.247 121.766C169.259 120.587 170.234 119.636 171.427 119.648L212.369 120.009C213.562 120.021 214.524 120.984 214.512 122.164L214.378 136.849C214.366 138.028 213.392 138.979 212.198 138.967L204.295 138.895L201.518 143.866L198.681 138.847L171.256 138.606Z" fill="white"/>
<path d="M201.482 144.42C201.336 144.42 201.202 144.336 201.129 144.215L198.437 139.244L171.256 139.003C169.844 138.991 168.699 137.848 168.711 136.452L168.845 121.766C168.857 120.382 170.002 119.263 171.403 119.263C171.415 119.263 171.415 119.263 171.427 119.263L212.369 119.612C213.051 119.612 213.696 119.889 214.171 120.37C214.646 120.852 214.914 121.49 214.902 122.164L214.768 136.849C214.768 137.523 214.488 138.161 214.001 138.63C213.513 139.1 212.868 139.364 212.186 139.352L204.356 139.28L201.835 144.191C201.774 144.336 201.64 144.42 201.482 144.42ZM171.403 120.057C170.441 120.057 169.661 120.828 169.649 121.778L169.515 136.464C169.503 137.414 170.282 138.209 171.256 138.209L198.681 138.45C198.827 138.45 198.961 138.534 199.034 138.654L201.482 143.156L203.771 138.702C203.844 138.57 203.978 138.486 204.137 138.486L212.21 138.558H212.223C212.685 138.558 213.124 138.377 213.453 138.064C213.781 137.739 213.976 137.306 213.976 136.837L214.11 122.152C214.11 121.694 213.94 121.249 213.611 120.924C213.282 120.599 212.844 120.406 212.369 120.406L171.427 120.057C171.415 120.057 171.403 120.057 171.403 120.057Z" fill="black"/>
<path d="M207.668 132.335L175.129 132.058C174.91 132.058 174.727 131.878 174.727 131.661C174.727 131.444 174.91 131.264 175.129 131.264L207.668 131.541C207.887 131.541 208.07 131.721 208.07 131.938C208.07 132.154 207.887 132.335 207.668 132.335Z" fill="black"/>
<path d="M181.973 127.809L175.166 127.749C174.946 127.749 174.764 127.568 174.764 127.352C174.764 127.135 174.946 126.966 175.166 126.954L181.973 127.015C182.192 127.015 182.375 127.195 182.375 127.412C182.375 127.64 182.192 127.809 181.973 127.809Z" fill="black"/>
<path d="M207.705 128.038L186.32 127.857C186.101 127.857 185.918 127.677 185.918 127.46C185.918 127.243 186.113 127.075 186.32 127.063L207.705 127.243C207.924 127.243 208.106 127.424 208.106 127.641C208.106 127.857 207.924 128.038 207.705 128.038Z" fill="black"/>
<path d="M192.836 123.451C194.029 123.451 195.003 122.5 195.003 121.321L195.064 106.636C195.064 105.456 194.102 104.493 192.909 104.493L151.967 104.337C150.773 104.337 149.799 105.288 149.799 106.467L149.738 121.152C149.738 122.332 150.7 123.295 151.894 123.295L160.102 123.331L162.33 127.363L165.168 123.343L192.836 123.451Z" fill="white"/>
<path d="M162.318 127.761C162.306 127.761 162.306 127.761 162.294 127.761C162.16 127.749 162.038 127.676 161.965 127.556L159.736 123.716L151.894 123.68C150.481 123.68 149.336 122.537 149.336 121.14L149.397 106.455C149.397 105.059 150.554 103.927 151.955 103.927H151.967L192.909 104.084C194.321 104.084 195.466 105.227 195.466 106.624L195.405 121.309C195.405 121.983 195.137 122.621 194.65 123.09C194.163 123.56 193.53 123.825 192.848 123.825H192.836L165.618 123.74L162.647 127.592C162.562 127.701 162.452 127.761 162.318 127.761ZM151.967 104.746C151.005 104.746 150.213 105.516 150.213 106.479L150.152 121.164C150.152 122.115 150.932 122.898 151.906 122.91L159.98 122.946C160.126 122.946 160.26 123.018 160.333 123.151L162.379 126.665L165.107 123.126C165.18 123.03 165.314 122.97 165.423 122.97L192.848 123.078C192.848 123.078 192.848 123.078 192.86 123.078C193.323 123.078 193.761 122.898 194.09 122.573C194.419 122.248 194.601 121.814 194.614 121.345L194.674 106.66C194.674 105.709 193.895 104.927 192.921 104.915L151.967 104.746Z" fill="black"/>
<path d="M189.048 116.855L156.509 116.723C156.29 116.723 156.107 116.542 156.107 116.326C156.107 116.109 156.29 115.928 156.509 115.928L189.048 116.061C189.267 116.061 189.45 116.241 189.45 116.458C189.45 116.675 189.28 116.855 189.048 116.855Z" fill="black"/>
<path d="M189.073 112.546L182.265 112.522C182.046 112.522 181.863 112.341 181.863 112.125C181.863 111.908 182.046 111.728 182.265 111.728L189.073 111.752C189.292 111.752 189.474 111.932 189.474 112.149C189.474 112.378 189.292 112.546 189.073 112.546Z" fill="black"/>
<path d="M177.918 112.51L156.533 112.426C156.314 112.426 156.132 112.245 156.132 112.028C156.132 111.812 156.302 111.631 156.533 111.631L177.918 111.715C178.137 111.715 178.32 111.896 178.32 112.113C178.32 112.329 178.137 112.51 177.918 112.51Z" fill="black"/>
</g>
<defs>
<clipPath id="clip0_100_389">
<rect width="223" height="220" fill="white"/>
</clipPath>
</defs>
</svg>
