<svg width="314" height="314" viewBox="0 0 314 314" fill="none" xmlns="http://www.w3.org/2000/svg">
<g clip-path="url(#clip0_312_114)">
<path d="M261.529 264.017C261.255 264.292 260.98 264.549 260.706 264.807C259.076 266.351 257.411 267.878 255.678 269.388C255.558 269.491 255.455 269.594 255.335 269.697C255.146 269.868 254.958 270.023 254.769 270.194C254.649 270.297 254.529 270.4 254.408 270.503C251.886 272.665 249.244 274.793 246.516 276.852C246.464 276.886 246.413 276.938 246.361 276.972C246.001 277.246 245.658 277.504 245.297 277.761C244.233 278.55 243.17 279.323 242.072 280.095C241.814 280.283 241.557 280.455 241.299 280.644C241.214 280.712 241.128 280.764 241.025 280.832C239.052 282.205 237.01 283.561 234.934 284.865C234.865 284.916 234.796 284.951 234.728 284.985C234.573 285.088 234.402 285.191 234.247 285.294C234.007 285.448 233.75 285.603 233.475 285.774C232.463 286.409 231.176 287.198 229.666 288.108C229.597 288.142 229.529 288.194 229.443 288.228C229.22 288.365 228.98 288.502 228.739 288.64C228.671 288.674 228.602 288.725 228.516 288.76C228.379 288.846 228.242 288.914 228.105 289C227.847 289.154 227.59 289.309 227.315 289.463C227.264 289.498 227.212 289.515 227.161 289.549C225.325 290.613 223.231 291.78 220.898 292.998C220.761 293.066 220.623 293.152 220.486 293.221C220.143 293.41 219.8 293.581 219.439 293.77C219.354 293.804 219.268 293.856 219.182 293.89C218.684 294.148 218.17 294.405 217.638 294.679C216.831 295.091 215.991 295.503 215.116 295.915C214.91 296.018 214.704 296.104 214.515 296.207C212.885 296.996 211.152 297.785 209.367 298.592C209.144 298.694 208.921 298.797 208.681 298.9C208.407 299.021 208.115 299.158 207.84 299.278C207.617 299.381 207.377 299.484 207.137 299.587C205.301 300.376 203.396 301.148 201.423 301.92C197.665 303.396 193.633 304.837 189.378 306.176C188.657 306.399 187.919 306.622 187.182 306.845H93.8566C93.2046 306.639 92.5354 306.416 91.8148 306.176C88.6061 305.095 84.7455 303.688 80.4559 301.92C78.7057 301.2 76.8697 300.427 74.9995 299.587C74.7764 299.484 74.5534 299.381 74.3303 299.278C74.0558 299.158 73.7812 299.038 73.5067 298.9C73.2836 298.797 73.0606 298.694 72.8547 298.592C71.3276 297.888 69.7833 297.15 68.2047 296.361C67.8959 296.206 67.6042 296.069 67.2953 295.915C66.4889 295.52 65.6824 295.108 64.876 294.679C64.3784 294.422 63.8808 294.165 63.3832 293.89C63.2974 293.856 63.2288 293.804 63.143 293.77C62.817 293.581 62.4738 293.41 62.1478 293.221C62.0105 293.152 61.8732 293.084 61.736 292.998C59.7456 291.917 57.7381 290.767 55.7134 289.549C55.4217 289.377 55.1128 289.189 54.8211 289C54.701 288.914 54.5637 288.846 54.4265 288.76C54.3578 288.725 54.2892 288.674 54.2206 288.64C53.9975 288.502 53.7744 288.365 53.5514 288.228C53.4828 288.194 53.4141 288.142 53.3455 288.108C52.1444 287.353 50.9261 286.581 49.725 285.774C49.3304 285.517 48.9529 285.259 48.5583 284.985C48.4896 284.951 48.4382 284.899 48.3695 284.865C46.3963 283.526 44.4231 282.119 42.467 280.644C42.2268 280.455 41.9866 280.283 41.7635 280.095C40.7683 279.34 39.7903 278.568 38.8123 277.761C38.4862 277.504 38.1602 277.229 37.8514 276.972C37.7999 276.938 37.7484 276.886 37.697 276.852C35.2605 274.844 32.8926 272.734 30.5762 270.503C30.4732 270.4 30.3703 270.297 30.2673 270.194C30.0958 270.04 29.9242 269.868 29.7697 269.697L29.4609 269.388C28.5515 268.478 27.6593 267.569 26.767 266.625C25.9606 265.767 25.1713 264.909 24.382 264.017C14.6874 253.087 6.8975 239.807 3.17412 223.798C1.21805 215.373 -5.5767 186.032 9.84876 161.787C33.2014 125.085 61.2212 130.765 96.0529 88.7434C126.303 52.2474 114.412 30.988 141.832 12.7142C171.19 -6.86358 212.37 -0.840953 238.417 10.7753C293.375 35.2948 313.725 99.2959 314 143.599C314.017 147.117 313.228 214.206 261.529 264.017Z" fill="#D6EFFF"/>
<path d="M187.199 306.811C163.846 313.828 133.853 317.672 101.012 308.938C99.8281 308.629 97.3229 307.926 93.8569 306.811H187.199Z" fill="#D6EFFF"/>
<path d="M29.1522 26.0636C29.1522 17.3128 36.1872 10.3293 44.8865 10.3293L222.751 10.2778C231.433 10.2778 238.486 17.3128 238.486 26.0122V228.225L278.225 228.208C278.225 237.061 272.356 244.628 264.275 247.168C262.404 247.751 260.431 248.06 258.372 248.06H80.4217C69.4575 248.06 60.5694 239.172 60.5694 228.208L60.638 26.0808L29.1522 26.0636Z" fill="white"/>
<path d="M258.355 248.609C247.099 248.609 237.937 239.446 237.937 228.191C237.937 227.882 238.194 227.624 238.503 227.624C238.812 227.624 239.069 227.882 239.069 228.191C239.069 238.829 247.717 247.477 258.355 247.477C258.664 247.477 258.921 247.734 258.921 248.043C258.921 248.352 258.664 248.609 258.355 248.609Z" fill="black"/>
<path d="M60.6038 26.6129C60.2949 26.6129 60.0375 26.3555 60.0375 26.0466C60.0375 17.6905 53.2428 10.8786 44.8695 10.8786C44.5606 10.8786 44.3032 10.6212 44.3032 10.3123C44.3032 10.0035 44.5606 9.74609 44.8695 9.74609C53.8605 9.74609 61.17 17.0556 61.17 26.0466C61.17 26.3727 60.9126 26.6129 60.6038 26.6129Z" fill="black"/>
<path d="M60.5866 84.8143C60.2777 84.8143 60.0203 84.5569 60.0203 84.2481L60.0375 26.6299H29.1351C28.9807 26.6299 28.8434 26.5784 28.7404 26.4583C28.6375 26.3554 28.5688 26.201 28.5688 26.0637C28.5688 17.0727 35.8784 9.76315 44.8694 9.76315L222.734 9.71167C231.725 9.71167 239.035 17.0212 239.035 26.0122V43.8227C239.035 44.1316 238.777 44.3889 238.468 44.3889C238.16 44.3889 237.902 44.1316 237.902 43.8227V26.0122C237.902 17.656 231.107 10.8441 222.734 10.8441L44.8694 10.8956C36.702 10.8956 30.0102 17.3987 29.7185 25.4975H60.6037C60.7581 25.4975 60.8954 25.5489 60.9984 25.669C61.1013 25.772 61.1699 25.9264 61.1699 26.0637V84.2481C61.1528 84.5569 60.9126 84.8143 60.5866 84.8143Z" fill="black"/>
<path d="M276.921 235.86C276.852 235.86 276.783 235.843 276.715 235.826C276.423 235.706 276.269 235.38 276.389 235.088C277.161 233.063 277.59 230.953 277.658 228.774H268.015C267.706 228.774 267.449 228.516 267.449 228.208C267.449 227.899 267.706 227.641 268.015 227.641H278.225C278.379 227.641 278.516 227.693 278.619 227.813C278.722 227.916 278.791 228.07 278.791 228.208C278.791 230.713 278.345 233.166 277.435 235.483C277.367 235.723 277.161 235.86 276.921 235.86Z" fill="black"/>
<path d="M228.259 248.678C227.95 248.678 227.693 248.42 227.693 248.112C227.693 247.803 227.95 247.545 228.259 247.545L258.355 247.511C260.002 247.511 261.632 247.305 263.194 246.893C263.503 246.808 263.811 246.996 263.88 247.305C263.966 247.614 263.777 247.923 263.468 247.991C261.804 248.42 260.071 248.643 258.338 248.643L228.259 248.678Z" fill="black"/>
<path d="M211.083 248.609H101.441C101.132 248.609 100.875 248.352 100.875 248.043C100.875 247.734 101.132 247.477 101.441 247.477H211.083C211.392 247.477 211.65 247.734 211.65 248.043C211.65 248.352 211.409 248.609 211.083 248.609Z" fill="black"/>
<path d="M82.4293 248.609H80.3874C69.1658 248.609 60.0375 239.446 60.0375 228.191C60.0375 227.882 60.2949 227.624 60.6037 227.624C60.9126 227.624 61.1699 227.882 61.1699 228.191C61.1699 238.829 69.7835 247.477 80.3703 247.477H82.4121C82.721 247.477 82.9784 247.734 82.9784 248.043C82.9784 248.352 82.7381 248.609 82.4293 248.609Z" fill="black"/>
<path d="M213.143 77.8307C213.143 79.4951 211.787 80.8506 210.105 80.8506H85.8438C84.1623 80.8506 82.8068 79.4951 82.8068 77.8307C82.8068 76.1663 84.1623 74.8108 85.8438 74.8108H210.105C211.787 74.8108 213.143 76.1663 213.143 77.8307Z" fill="#CADDFF"/>
<path d="M213.142 131.811C213.142 133.476 211.787 134.831 210.105 134.831H99.3132C97.6316 134.831 96.2761 133.476 96.2761 131.811C96.2761 130.147 97.6316 128.791 99.3132 128.791H210.088C211.787 128.791 213.142 130.147 213.142 131.811Z" fill="#CADDFF"/>
<path d="M184.985 213.623C184.985 215.287 183.63 216.643 181.948 216.643H159.797C158.115 216.643 156.76 215.287 156.76 213.623C156.76 211.959 158.115 210.603 159.797 210.603H181.948C183.63 210.603 184.985 211.959 184.985 213.623Z" fill="#CADDFF"/>
<path d="M210.105 155.781C211.856 155.781 213.263 157.24 213.142 159.007C213.04 160.603 211.615 161.821 210.002 161.821H139.258C137.577 161.821 136.221 160.466 136.221 158.801C136.221 157.137 137.577 155.781 139.258 155.781H210.105Z" fill="#CADDFF"/>
<path d="M85.9467 155.781H116.197C117.879 155.781 119.234 157.137 119.234 158.801C119.234 160.466 117.879 161.821 116.197 161.821H85.8438C84.0936 161.821 82.6866 160.363 82.8067 158.595C82.9268 157 84.3338 155.781 85.9467 155.781Z" fill="#CADDFF"/>
<path d="M85.9467 142.124H154.237C155.919 142.124 157.274 143.479 157.274 145.143C157.274 146.808 155.919 148.163 154.237 148.163H85.8438C84.0936 148.163 82.6866 146.705 82.8067 144.938C82.9268 143.342 84.3338 142.124 85.9467 142.124Z" fill="#CADDFF"/>
<path d="M81.3997 169.028H131.125C132.806 169.028 134.162 170.383 134.162 172.048C134.162 173.712 132.806 175.068 131.125 175.068H81.2968C79.5466 175.068 78.1396 173.609 78.2597 171.842C78.3627 170.246 79.7868 169.028 81.3997 169.028Z" fill="#CADDFF"/>
<path d="M210.105 142.124C211.856 142.124 213.263 143.582 213.142 145.349C213.039 146.945 211.615 148.163 210.002 148.163H174.896C173.215 148.163 171.859 146.808 171.859 145.143C171.859 143.479 173.215 142.124 174.896 142.124H210.105Z" fill="#CADDFF"/>
<path d="M210.105 115.133C211.856 115.133 213.263 116.592 213.142 118.359C213.039 119.955 211.615 121.173 210.002 121.173H133.167C131.485 121.173 130.13 119.818 130.13 118.153C130.13 116.489 131.485 115.133 133.167 115.133H210.105Z" fill="#CADDFF"/>
<path d="M85.9467 115.133H103.706C105.387 115.133 106.743 116.489 106.743 118.153C106.743 119.818 105.387 121.173 103.706 121.173H85.8438C84.0936 121.173 82.6866 119.715 82.8067 117.947C82.9268 116.352 84.3338 115.133 85.9467 115.133Z" fill="#CADDFF"/>
<path d="M210.105 88.1428C211.856 88.1428 213.263 89.6013 213.142 91.3686C213.039 92.9644 211.615 94.1826 210.002 94.1826H184.076C182.394 94.1826 181.039 92.8271 181.039 91.1627C181.039 89.4983 182.394 88.1428 184.076 88.1428H210.105Z" fill="#CADDFF"/>
<path d="M85.9467 88.1428H162.937C164.618 88.1428 165.974 89.4983 165.974 91.1627C165.974 92.8271 164.618 94.1826 162.937 94.1826H85.8438C84.0936 94.1826 82.6866 92.7241 82.8067 90.9568C82.9268 89.3611 84.3338 88.1428 85.9467 88.1428Z" fill="#CADDFF"/>
<path d="M210.105 101.801C211.856 101.801 213.263 103.259 213.142 105.027C213.039 106.623 211.615 107.841 210.002 107.841H177.676C175.994 107.841 174.639 106.485 174.639 104.821C174.639 103.157 175.994 101.801 177.676 101.801H210.105Z" fill="#CADDFF"/>
<path d="M85.9467 101.801H153.019C154.701 101.801 156.056 103.157 156.056 104.821C156.056 106.485 154.701 107.841 153.019 107.841H85.8438C84.0936 107.841 82.6866 106.382 82.8067 104.615C82.9268 103.019 84.3338 101.801 85.9467 101.801Z" fill="#CADDFF"/>
<path d="M124.468 29.9758C124.468 27.5564 126.424 25.6003 128.843 25.6003H168.084C170.504 25.6003 172.46 27.5564 172.46 29.9758C172.46 32.3951 170.504 34.3512 168.084 34.3512H128.843C126.424 34.3512 124.468 32.3951 124.468 29.9758Z" fill="#CADDFF"/>
<path d="M147.254 219.371C147.065 219.371 146.859 219.268 146.756 219.079L140.511 208.132C140.305 207.772 139.927 207.549 139.516 207.532C139.104 207.515 138.709 207.721 138.486 208.081L136.547 211.084C136.118 211.753 135.38 212.147 134.591 212.147C133.802 212.147 133.064 211.753 132.635 211.084L130.696 208.098C130.473 207.738 130.078 207.549 129.667 207.549C129.255 207.566 128.877 207.789 128.671 208.149L123.249 217.775C122.82 218.53 122.065 218.976 121.19 218.959C120.315 218.942 119.56 218.479 119.166 217.707L111.873 203.671C111.667 203.276 111.273 203.036 110.809 203.036C110.809 203.036 110.809 203.036 110.792 203.036C110.329 203.036 109.934 203.294 109.728 203.688L107.807 207.515C107.669 207.789 107.326 207.909 107.052 207.772C106.777 207.635 106.657 207.292 106.794 207.017L108.716 203.191C109.111 202.401 109.9 201.904 110.775 201.904C111.65 201.904 112.457 202.384 112.851 203.156L120.144 217.192C120.35 217.587 120.744 217.827 121.173 217.827C121.602 217.844 122.014 217.604 122.237 217.226L127.659 207.618C128.071 206.897 128.791 206.468 129.615 206.434C130.439 206.399 131.194 206.811 131.64 207.497L133.579 210.483C133.802 210.826 134.162 211.032 134.574 211.032C134.986 211.032 135.346 210.826 135.569 210.483L137.508 207.48C137.954 206.794 138.709 206.399 139.533 206.416C140.356 206.434 141.077 206.88 141.489 207.583L147.734 218.53C147.889 218.805 147.803 219.148 147.529 219.303C147.443 219.354 147.34 219.371 147.254 219.371Z" fill="#5479F7"/>
<path d="M208.338 60.1233C198.575 60.1233 190.631 52.179 190.631 42.4158C190.631 32.6526 198.575 24.7083 208.338 24.7083C218.101 24.7083 226.046 32.6526 226.046 42.4158C226.046 42.7246 225.788 42.982 225.479 42.982C225.171 42.982 224.913 42.7246 224.913 42.4158C224.913 33.2875 217.484 25.8407 208.338 25.8407C199.21 25.8407 191.763 33.2703 191.763 42.4158C191.763 51.5613 199.193 58.9909 208.338 58.9909C208.647 58.9909 208.904 59.2483 208.904 59.5571C208.904 59.8831 208.664 60.1233 208.338 60.1233Z" fill="#019AFF"/>
<path d="M211.684 51.8357C211.375 51.8357 211.135 51.5955 211.118 51.3038C210.946 47.8549 208.132 34.6429 206.742 31.1083C206.725 31.3828 206.708 31.7431 206.708 32.2064C206.708 42.3986 200.48 51.218 200.205 51.5955C200.016 51.8529 199.673 51.9043 199.416 51.7328C199.158 51.544 199.107 51.2008 199.278 50.9435C199.347 50.8577 205.558 42.0382 205.558 32.2236C205.558 30.2675 205.713 29.2552 206.502 29.238C207.068 29.2208 207.823 29.2037 210.037 39.0012C211.204 44.1316 212.13 49.3821 212.216 51.2352C212.233 51.544 211.993 51.8186 211.684 51.8357C211.701 51.8357 211.701 51.8357 211.684 51.8357Z" fill="#019AFF"/>
<path d="M200.72 43.9772C200.583 43.9772 200.445 43.9258 200.342 43.8228C199.913 43.4282 199.296 42.5359 199.69 41.6265C200.188 40.4941 202.092 39.0871 212.937 39.9622C213.245 39.9793 213.486 40.2538 213.451 40.5799C213.434 40.8887 213.143 41.1289 212.834 41.0946C202.35 40.2538 200.909 41.6265 200.72 42.0726C200.548 42.4501 201.08 42.9649 201.097 42.9649C201.32 43.1708 201.337 43.5311 201.132 43.7713C201.029 43.9086 200.874 43.9772 200.72 43.9772Z" fill="#019AFF"/>
<path d="M217.14 54.152C216.831 54.152 216.574 53.8946 216.574 53.5858C216.574 51.7155 215.939 48.5412 215.939 48.5069C215.871 48.198 216.077 47.9063 216.385 47.8377C216.694 47.7691 216.986 47.975 217.055 48.2838C217.089 48.4211 217.707 51.6126 217.707 53.5858C217.724 53.8946 217.466 54.152 217.14 54.152Z" fill="#019AFF"/>
<path d="M214.532 51.9386C214.223 51.9386 213.966 51.6813 213.966 51.3724C213.966 51.0635 214.223 50.8062 214.532 50.8062C214.567 50.8062 217.844 50.789 219.302 50.1885C219.594 50.0684 219.92 50.2056 220.04 50.4973C220.16 50.789 220.023 51.115 219.731 51.2351C218.067 51.9215 214.67 51.9386 214.532 51.9386Z" fill="#019AFF"/>
<path d="M277.075 269.491L278.962 281.073L272.957 281.708L270.623 270.829L277.075 269.491Z" fill="white"/>
<path d="M272.957 282.274C272.7 282.274 272.459 282.085 272.408 281.828L270.092 270.949C270.057 270.795 270.092 270.641 270.177 270.52C270.263 270.4 270.383 270.297 270.538 270.28L276.989 268.942C277.144 268.908 277.298 268.942 277.418 269.028C277.538 269.113 277.624 269.251 277.658 269.405L279.546 280.987C279.563 281.142 279.529 281.296 279.443 281.416C279.34 281.536 279.203 281.622 279.048 281.639L273.026 282.274C272.991 282.274 272.974 282.274 272.957 282.274ZM271.31 271.258L273.403 281.09L278.31 280.575L276.612 270.16L271.31 271.258Z" fill="black"/>
<path d="M272.322 279.203C274.278 280.009 276.526 279.529 277.984 278.001L278.756 277.195C279.014 276.921 279.477 276.955 279.683 277.281L283.835 283.578C284.59 284.608 284.453 286.152 283.527 287.044C282.308 288.194 280.472 289.738 278.259 290.956C274.072 293.273 270.417 298.266 266.179 296.996C261.941 295.726 262.164 295.52 261.701 294.165C261.238 292.809 263.314 290.081 266.728 287.027C268.822 285.157 270.881 281.107 271.55 279.529C271.67 279.22 272.03 279.065 272.322 279.203Z" fill="#019AFF"/>
<path d="M267.552 297.751C267.054 297.751 266.54 297.682 266.008 297.528C262.061 296.344 261.701 296.035 261.238 294.611C261.203 294.525 261.186 294.439 261.152 294.354C260.466 292.38 263.606 289.052 266.351 286.615C268.307 284.865 270.349 280.936 271.018 279.323C271.138 279.031 271.361 278.808 271.653 278.688C271.945 278.568 272.253 278.568 272.545 278.688C274.278 279.409 276.286 278.98 277.573 277.624L278.345 276.818C278.585 276.56 278.945 276.423 279.288 276.457C279.649 276.492 279.958 276.68 280.163 276.972L284.316 283.269C285.208 284.505 285.036 286.392 283.921 287.456C282.737 288.571 280.833 290.184 278.533 291.454C277.247 292.157 275.994 293.153 274.776 294.113C272.494 295.898 270.126 297.751 267.552 297.751ZM272.099 279.717C272.082 279.717 272.065 279.717 272.065 279.735C271.498 281.09 269.371 285.414 267.106 287.439C263.331 290.785 261.941 293.135 262.233 293.976C262.267 294.079 262.302 294.165 262.319 294.251C262.61 295.16 262.679 295.349 266.334 296.43C268.959 297.219 271.43 295.263 274.072 293.187C275.325 292.192 276.629 291.179 277.984 290.424C280.181 289.206 281.999 287.662 283.149 286.598C283.853 285.929 283.973 284.676 283.389 283.887L279.22 277.573H279.168L278.396 278.379C276.8 280.078 274.261 280.627 272.099 279.717C272.116 279.717 272.116 279.717 272.099 279.717Z" fill="black"/>
<path d="M273.283 286.358C273.214 286.358 273.146 286.341 273.077 286.324L269.131 284.728C268.839 284.608 268.702 284.282 268.822 283.99C268.942 283.698 269.268 283.561 269.56 283.681L273.506 285.277C273.798 285.397 273.935 285.723 273.815 286.015C273.712 286.221 273.506 286.358 273.283 286.358Z" fill="black"/>
<path d="M271.739 288.777C271.67 288.777 271.601 288.76 271.533 288.743L267.346 287.044C267.054 286.924 266.917 286.598 267.037 286.306C267.157 286.015 267.483 285.877 267.775 285.998L271.962 287.696C272.253 287.816 272.391 288.142 272.271 288.434C272.185 288.64 271.962 288.777 271.739 288.777Z" fill="black"/>
<path d="M261.821 294.474C261.821 294.474 263.983 297.511 268.719 294.954C271.876 293.238 283.818 283.475 283.818 283.475L284.813 284.848C285.311 285.551 285.191 286.512 284.539 287.078C281.57 289.618 273.609 296.155 269.045 297.373C263.348 298.901 261.821 294.474 261.821 294.474Z" fill="white"/>
<path d="M266.797 298.266C262.593 298.266 261.306 294.714 261.289 294.663C261.203 294.388 261.306 294.096 261.564 293.976C261.821 293.839 262.113 293.925 262.284 294.148C262.37 294.268 264.258 296.739 268.461 294.457C271.533 292.792 283.355 283.132 283.475 283.029C283.595 282.926 283.75 282.892 283.904 282.909C284.058 282.926 284.196 283.012 284.299 283.149L285.294 284.522C285.963 285.448 285.791 286.77 284.916 287.507C281.742 290.218 273.849 296.67 269.199 297.923C268.307 298.163 267.518 298.266 266.797 298.266ZM264.206 296.464C265.218 297.065 266.711 297.425 268.89 296.842C273.437 295.623 281.725 288.743 284.161 286.667C284.59 286.306 284.676 285.654 284.35 285.191L283.715 284.299C281.45 286.152 271.842 293.925 268.993 295.469C267.003 296.533 265.424 296.687 264.206 296.464Z" fill="black"/>
<path d="M244.491 271.464L247.253 287.456L240.596 290.682L237.044 273.266L244.491 271.464Z" fill="white"/>
<path d="M240.596 291.248C240.51 291.248 240.424 291.231 240.339 291.196C240.184 291.111 240.064 290.973 240.03 290.802L236.495 273.386C236.427 273.094 236.615 272.785 236.924 272.717L244.371 270.915C244.525 270.881 244.68 270.898 244.817 270.984C244.954 271.069 245.04 271.207 245.057 271.361L247.803 287.37C247.837 287.627 247.717 287.868 247.494 287.971L240.836 291.196C240.768 291.231 240.682 291.248 240.596 291.248ZM237.713 273.678L241.008 289.841L246.619 287.13L244.045 272.15L237.713 273.678Z" fill="black"/>
<path d="M248.266 286.375C248.489 287.902 248.832 290.75 248.849 293.29C248.866 294.885 247.665 296.241 246.104 296.447C241.643 297.03 231.536 297.648 222.923 296.859C222.339 296.807 221.293 296.378 221.001 294.885C220.023 289.909 228.619 288.691 238.057 285.088C238.434 284.951 238.846 285.036 239.12 285.311L240.133 286.306C241.145 287.301 242.655 287.576 243.959 287.027L247.048 285.706C247.58 285.465 248.18 285.791 248.266 286.375Z" fill="#019AFF"/>
<path d="M231.897 297.785C228.911 297.785 225.805 297.682 222.871 297.408C221.962 297.322 220.761 296.635 220.452 294.988C219.611 290.699 224.862 288.966 231.502 286.769C233.544 286.1 235.654 285.397 237.851 284.556C238.434 284.333 239.086 284.47 239.515 284.899L240.527 285.894C241.385 286.735 242.638 286.958 243.736 286.495L246.825 285.174C247.236 285.002 247.7 285.019 248.094 285.242C248.489 285.465 248.746 285.843 248.815 286.306C249.021 287.799 249.381 290.699 249.416 293.29C249.433 295.177 248.043 296.773 246.173 297.013C243.101 297.39 237.696 297.785 231.897 297.785ZM238.417 285.585C238.365 285.585 238.314 285.603 238.263 285.62C236.049 286.478 233.921 287.164 231.862 287.85C224.862 290.15 220.95 291.625 221.567 294.782C221.825 296.121 222.803 296.275 222.991 296.292C231.519 297.064 241.454 296.464 246.052 295.88C247.357 295.709 248.317 294.611 248.317 293.307C248.283 290.784 247.94 287.936 247.734 286.46C247.717 286.323 247.631 286.255 247.58 286.237C247.528 286.203 247.442 286.169 247.322 286.22L244.234 287.541C242.724 288.193 240.974 287.867 239.79 286.718L238.777 285.723C238.64 285.637 238.52 285.585 238.417 285.585Z" fill="black"/>
<path d="M248.849 292.895C248.849 292.895 248.849 293.152 248.849 293.272C248.867 294.868 247.665 296.224 246.104 296.43C241.643 297.013 231.536 297.631 222.923 296.841C222.34 296.79 221.293 296.361 221.001 294.868C220.915 294.422 220.967 293.599 220.967 293.599L221.585 293.633C230.284 294.062 239.018 293.856 247.683 292.998L248.849 292.895Z" fill="white"/>
<path d="M231.897 297.785C228.911 297.785 225.805 297.682 222.871 297.408C221.962 297.322 220.761 296.636 220.452 294.988C220.349 294.474 220.401 293.667 220.401 293.564C220.418 293.255 220.692 293.015 221.001 293.032L221.619 293.067C230.267 293.496 239.017 293.29 247.631 292.432L248.798 292.312C248.952 292.294 249.107 292.346 249.227 292.449C249.347 292.552 249.416 292.706 249.416 292.861V293.255C249.433 295.143 248.043 296.738 246.173 296.979C243.101 297.391 237.696 297.785 231.897 297.785ZM221.516 294.216C221.516 294.422 221.533 294.645 221.55 294.782C221.808 296.121 222.786 296.275 222.974 296.292C231.502 297.065 241.437 296.464 246.035 295.881C247.254 295.726 248.18 294.731 248.283 293.53L247.734 293.581C239.069 294.439 230.25 294.645 221.55 294.216H221.516Z" fill="black"/>
<path d="M235.895 291.025C235.74 291.025 235.603 290.973 235.5 290.853L232.188 287.524C231.965 287.301 231.965 286.941 232.188 286.718C232.411 286.495 232.772 286.495 232.995 286.718L236.306 290.047C236.53 290.27 236.53 290.63 236.306 290.853C236.169 290.973 236.032 291.025 235.895 291.025Z" fill="black"/>
<path d="M232.635 291.368C232.48 291.368 232.343 291.316 232.223 291.196L229.58 288.434C229.357 288.211 229.374 287.85 229.598 287.627C229.821 287.404 230.181 287.421 230.404 287.644L233.046 290.407C233.269 290.63 233.252 290.99 233.029 291.213C232.926 291.316 232.772 291.368 232.635 291.368Z" fill="black"/>
<path d="M254.46 179.581C254.254 180.456 255.867 187.233 255.369 192.621C254.58 201.217 255.953 205.73 260.019 215.442C263.966 224.845 273.369 233.853 279.168 271.275C279.46 273.146 278.001 274.844 276.114 274.844H271.31C270.126 274.844 269.045 274.175 268.53 273.111C265.441 266.866 255.919 248.403 252.195 241.471C247.82 233.338 235.294 212.954 234.676 203.259C234.093 194.114 234.882 181.056 234.985 179.598C234.985 179.512 235.054 179.46 235.14 179.46L254.46 179.581Z" fill="black"/>
<path d="M227.538 177.075C227.538 177.075 215.888 200.583 222.357 229.151C227.024 249.81 233.733 272.854 235.912 279.426C236.341 280.713 237.542 281.588 238.88 281.588L244.131 281.622C246.018 281.639 247.511 279.992 247.288 278.122C246.07 267.226 242.346 231.983 242.741 223.472C243.41 209.453 247.03 203.705 247.871 193.839C248.781 183.098 246.43 177.504 246.43 177.504L227.538 177.075Z" fill="black"/>
<path d="M243.17 226.252C242.861 226.252 242.621 226.011 242.604 225.72C242.157 216.797 244.199 210.311 246.018 204.581C247.202 200.823 248.317 197.288 248.643 193.462C248.678 193.153 248.952 192.913 249.261 192.947C249.57 192.981 249.81 193.256 249.776 193.565C249.433 197.528 248.3 201.132 247.099 204.941C245.229 210.843 243.307 216.952 243.736 225.685C243.753 225.994 243.513 226.269 243.204 226.286C243.187 226.252 243.17 226.252 243.17 226.252Z" fill="#CADDFF"/>
<path d="M216.506 126.527C216.883 125.789 216.9 124.948 216.814 124.107C215.922 115.631 220.195 105.919 225.462 111.53C226.972 113.126 223.969 122.666 223.969 122.666C223.969 122.666 224.948 122.889 226.526 121.911C230.404 119.543 230.37 121.431 230.37 121.431C230.816 122.529 226.852 124.862 224.364 125.806C223.643 126.081 223.094 126.647 222.871 127.367C221.121 132.738 218.582 141.455 218.908 142.347C219.886 144.972 225.771 140.442 225.771 140.442L229.58 152.453C229.58 152.453 212.662 159.951 209.917 156.588C205.095 150.754 212.576 134.145 216.506 126.527Z" fill="white"/>
<path d="M212.679 158.012C211.221 158.012 210.071 157.721 209.453 156.966C204.306 150.686 212.319 133.407 216.008 126.269C216.283 125.737 216.351 125.085 216.265 124.176C215.665 118.462 217.398 111.256 220.95 109.626C222.065 109.111 223.832 108.956 225.891 111.135C227.35 112.68 225.634 119.148 224.759 122.048C225.119 121.962 225.634 121.791 226.234 121.413C228.173 120.229 229.495 119.869 230.301 120.332C230.799 120.607 230.902 121.087 230.936 121.31C230.987 121.516 231.005 121.791 230.85 122.134C230.164 123.678 226.423 125.634 224.553 126.321C224.004 126.527 223.575 126.973 223.386 127.539C221.173 134.351 219.285 141.334 219.423 142.175C219.491 142.364 219.628 142.484 219.834 142.553C221.018 142.896 223.884 141.163 225.394 139.996C225.548 139.876 225.737 139.842 225.908 139.91C226.08 139.962 226.217 140.099 226.286 140.288L230.095 152.299C230.181 152.573 230.044 152.865 229.786 152.985C228.396 153.603 218.273 158.012 212.679 158.012ZM222.391 110.432C222.065 110.432 221.739 110.501 221.43 110.655C218.668 111.925 216.78 118.188 217.398 124.056C217.484 124.828 217.518 125.857 217.02 126.801C214.224 132.223 205.49 150.343 210.329 156.262C212.096 158.407 222.425 154.975 228.86 152.161L225.462 141.386C224.141 142.312 221.241 144.148 219.543 143.668C218.994 143.514 218.582 143.119 218.376 142.553C217.827 141.077 222.288 127.35 222.339 127.196C222.631 126.304 223.3 125.6 224.175 125.274C226.904 124.245 229.838 122.237 229.855 121.602C229.821 121.534 229.821 121.482 229.821 121.413C229.821 121.396 229.803 121.345 229.752 121.328C229.683 121.293 229.066 121.036 226.852 122.391C225.119 123.455 223.987 123.232 223.867 123.215C223.712 123.181 223.575 123.078 223.506 122.941C223.42 122.803 223.403 122.632 223.455 122.494C224.845 118.068 225.874 112.748 225.085 111.925C224.141 110.93 223.232 110.432 222.391 110.432Z" fill="black"/>
<path d="M236.392 122.048C236.495 121.225 236.118 120.47 235.86 119.663C230.936 103.997 238.64 102.745 239.223 102.625C240.047 102.453 240.785 103.105 240.768 103.912L242.089 115.854C242.089 115.854 243.084 115.734 244.234 114.275C247.065 110.741 247.683 112.525 247.683 112.525C248.472 113.417 245.555 116.952 243.53 118.702C242.947 119.2 242.621 119.921 242.655 120.693C242.844 126.338 243.479 136.633 244.234 137.182C245.675 138.211 242.089 153.208 240.167 151.852C233.973 147.511 235.294 130.542 236.392 122.048Z" fill="white"/>
<path d="M240.425 152.504C240.167 152.504 239.961 152.402 239.841 152.316C233.51 147.872 234.608 131.4 235.826 121.962C235.895 121.448 235.706 120.95 235.5 120.384C235.431 120.195 235.363 120.023 235.311 119.835C233.218 113.16 233.098 108.201 234.951 105.078C236.238 102.934 238.091 102.282 239.086 102.093C239.67 101.973 240.236 102.127 240.665 102.488C241.094 102.848 241.334 103.363 241.317 103.912L242.552 115.082C242.878 114.893 243.307 114.55 243.77 113.967C245.195 112.199 246.31 111.41 247.219 111.564C247.786 111.667 248.043 112.062 248.146 112.268C248.266 112.439 248.369 112.697 248.352 113.074C248.232 114.756 245.366 117.862 243.873 119.166C243.427 119.56 243.17 120.109 243.187 120.71C243.41 127.59 244.045 135.826 244.594 136.804C245.332 137.439 245.28 139.773 244.44 143.719C243.856 146.413 242.792 150.102 241.677 151.681C241.231 152.316 240.785 152.504 240.425 152.504ZM239.498 103.174C239.447 103.174 239.395 103.174 239.344 103.191C238.503 103.345 236.993 103.877 235.946 105.662C234.779 107.618 233.921 111.599 236.409 119.509C236.461 119.68 236.53 119.852 236.581 120.023C236.821 120.676 237.061 121.362 236.959 122.134C235.998 129.495 234.453 147.065 240.442 151.372C240.682 151.218 241.334 150.377 242.175 147.82C243.702 143.222 244.302 138.332 243.873 137.645C243.582 137.439 243.153 136.959 242.655 130.919C242.363 127.367 242.158 123.335 242.072 120.744C242.037 119.8 242.432 118.925 243.153 118.308C245.366 116.42 247.442 113.52 247.236 112.92C247.185 112.868 247.168 112.817 247.134 112.748C247.134 112.731 247.099 112.697 247.031 112.68C246.962 112.663 246.276 112.645 244.663 114.67C243.393 116.249 242.26 116.437 242.14 116.455C241.986 116.472 241.832 116.437 241.711 116.334C241.591 116.249 241.523 116.094 241.506 115.957L240.219 103.98C240.219 103.963 240.219 103.929 240.219 103.895C240.219 103.671 240.133 103.466 239.961 103.328C239.875 103.277 239.721 103.174 239.498 103.174Z" fill="black"/>
<path d="M232.343 154.512C229.563 161.307 224.501 174.382 223.249 182.635L256.622 183.235C256.622 183.235 258.166 170.487 262.439 159.111C264.755 152.916 267.844 149.485 268.667 144.268C269.594 138.297 266.214 132 259.265 130.507C255.078 129.615 240.819 128.517 233.201 133.63L220.195 141.935L227.676 156.056C227.641 156.074 232.909 153.105 232.343 154.512Z" fill="#007ACB"/>
<path d="M251.355 129.238L253.293 124.656C253.414 124.227 253.242 123.764 252.864 123.524L250.05 121.705C249.69 121.465 249.536 121.019 249.673 120.607L250.874 116.884L249.93 115.528C249.862 115.425 249.879 115.271 249.982 115.202L252.47 113.383C253.311 112.663 254.46 110.741 254.941 111.015C254.941 111.015 266.094 112.491 265.253 118.068C265.133 118.874 264.704 119.595 264.069 120.127L262.765 121.225C261.461 122.34 260.534 123.867 260.294 125.566C260.243 125.926 260.14 128.243 260.071 129.787C260.037 130.662 260.311 131.52 260.86 132.206C261.547 133.064 262.37 134.145 262.182 134.162C262.182 134.162 260.757 134.934 258.681 135.243C254.975 135.775 250.72 134.471 248.077 131.794C248.077 131.76 251.149 130.181 251.355 129.238Z" fill="white"/>
<path d="M257.034 135.878C253.568 135.878 249.982 134.488 247.683 132.155C247.562 132.035 247.494 131.846 247.528 131.674C247.562 131.503 247.665 131.348 247.837 131.262C249.33 130.49 250.72 129.495 250.823 129.135C250.823 129.118 250.84 129.066 250.857 129.032L252.779 124.502C252.813 124.313 252.744 124.125 252.573 124.022L249.759 122.203C249.192 121.825 248.935 121.105 249.141 120.453L250.256 116.987L249.484 115.854C249.227 115.494 249.313 115.013 249.673 114.739L252.144 112.92C252.418 112.68 252.761 112.268 253.087 111.856C253.842 110.93 254.443 110.175 255.112 110.449C255.987 110.569 262.542 111.616 264.961 114.842C265.716 115.837 266.008 116.952 265.819 118.136C265.682 119.063 265.201 119.904 264.446 120.538L263.142 121.637C261.89 122.7 261.083 124.107 260.86 125.617C260.843 125.703 260.792 126.269 260.637 129.787C260.603 130.525 260.843 131.245 261.306 131.829C262.868 133.785 262.885 133.991 262.731 134.351C262.679 134.471 262.576 134.574 262.456 134.625C262.387 134.66 260.929 135.466 258.75 135.775C258.201 135.844 257.617 135.878 257.034 135.878ZM249.038 131.88C251.509 134.025 255.249 135.123 258.595 134.643C259.865 134.454 260.86 134.094 261.426 133.853C261.255 133.596 260.946 133.184 260.414 132.515C259.779 131.726 259.47 130.731 259.505 129.718C259.608 127.179 259.693 125.737 259.728 125.446C259.985 123.661 260.929 121.997 262.387 120.761L263.691 119.663C264.223 119.2 264.584 118.599 264.669 117.947C264.807 117.055 264.601 116.266 264.035 115.511C261.804 112.543 255.061 111.582 254.855 111.547C254.632 111.702 254.22 112.217 253.928 112.56C253.568 113.006 253.173 113.469 252.813 113.778C252.796 113.795 252.796 113.795 252.779 113.795L250.548 115.425L251.303 116.523C251.406 116.661 251.423 116.849 251.372 117.021L250.171 120.744C250.119 120.916 250.188 121.105 250.325 121.19L253.122 123.009C253.705 123.387 253.963 124.107 253.791 124.777C253.791 124.794 253.774 124.828 253.774 124.845L251.852 129.392C251.646 130.284 250.136 131.262 249.038 131.88Z" fill="black"/>
<path d="M256.656 102.642C259.162 103.14 255.404 104.873 265.201 104.564C269.114 104.444 266.162 108.219 267.175 108.184C270.915 108.081 270.795 108.081 272.374 108.956C273.42 109.54 273.609 111.822 272.991 113.315C272.185 115.288 267.93 118.668 264.635 121.242C262.936 122.563 260.02 121.997 260.174 119.337C260.225 118.599 262.542 117.587 262.01 116.283C261.032 113.881 259.316 116.626 258.166 115.408C257.051 114.241 256.656 113.555 255.575 111.942C254.271 109.986 250.84 111.65 250.737 107.961C250.702 106.057 253.225 101.956 256.656 102.642Z" fill="black"/>
<path d="M133.991 242.346L132.584 255.73L127.093 255.627L126.853 242.449L133.991 242.346Z" fill="white"/>
<path d="M132.584 256.296L127.076 256.193C126.767 256.193 126.527 255.936 126.527 255.644L126.286 242.466C126.286 242.312 126.338 242.175 126.441 242.055C126.544 241.952 126.698 241.883 126.835 241.883L133.956 241.78C134.111 241.78 134.265 241.849 134.385 241.969C134.488 242.089 134.54 242.243 134.522 242.415L133.133 255.781C133.133 256.073 132.875 256.296 132.584 256.296ZM127.642 255.061L132.069 255.146L133.339 242.93L127.419 243.015L127.642 255.061Z" fill="black"/>
<path d="M132.223 268.564C130.233 268.77 126.973 268.907 123.164 268.273C121.911 268.067 121.122 266.831 121.465 265.63C122.426 262.267 123.987 255.713 126.578 252.813L127.642 254.632L128.414 253.002C128.534 252.796 128.757 252.658 128.997 252.641L131.005 252.607C131.4 252.573 131.76 252.847 131.829 253.225L132.086 254.632L133.956 252.796L134.145 266.265C134.231 267.398 133.39 268.427 132.223 268.564Z" fill="white"/>
<path d="M128.826 269.302C127.144 269.302 125.188 269.182 123.078 268.822C122.323 268.684 121.654 268.255 121.242 267.603C120.847 266.969 120.727 266.179 120.933 265.459C121.036 265.064 121.156 264.635 121.293 264.172C122.288 260.551 123.781 255.078 126.166 252.418C126.286 252.281 126.458 252.212 126.647 252.229C126.835 252.247 126.99 252.35 127.076 252.504L127.59 253.396L127.899 252.744C127.899 252.727 127.916 252.71 127.934 252.693C128.157 252.332 128.534 252.092 128.946 252.058C128.963 252.058 128.98 252.058 128.98 252.058L130.971 252.024C131.64 251.972 132.258 252.453 132.378 253.105L132.446 253.465L133.544 252.384C133.699 252.229 133.956 252.178 134.162 252.264C134.368 252.35 134.505 252.555 134.505 252.779L134.694 266.231C134.831 267.672 133.75 268.976 132.309 269.131C131.348 269.216 130.181 269.302 128.826 269.302ZM126.492 253.791C124.571 256.45 123.267 261.22 122.374 264.463C122.254 264.927 122.134 265.373 122.014 265.767C121.894 266.196 121.962 266.625 122.186 267.003C122.426 267.38 122.803 267.638 123.249 267.706C126.956 268.341 130.13 268.221 132.155 267.998C132.995 267.912 133.613 267.157 133.527 266.317C133.527 266.299 133.527 266.282 133.527 266.265L133.356 254.117L132.429 255.026C132.275 255.181 132.052 255.232 131.863 255.164C131.657 255.095 131.52 254.923 131.485 254.717L131.228 253.31C131.211 253.225 131.125 253.156 131.022 253.156C131.005 253.156 130.988 253.156 130.988 253.156L128.997 253.19C128.946 253.19 128.912 253.225 128.877 253.259L128.122 254.855C128.037 255.043 127.848 255.164 127.642 255.181C127.419 255.181 127.23 255.078 127.127 254.906L126.492 253.791Z" fill="black"/>
<path d="M128.019 267.089C126.715 267.089 125.154 266.951 123.455 266.505C123.146 266.419 122.975 266.111 123.043 265.819C123.129 265.51 123.438 265.338 123.73 265.407C128.277 266.591 131.708 265.493 131.743 265.476C132.035 265.373 132.361 265.544 132.463 265.836C132.566 266.128 132.395 266.454 132.103 266.557C132.017 266.591 130.439 267.089 128.019 267.089Z" fill="black"/>
<path d="M130.284 261.77H125.823C125.514 261.77 125.257 261.512 125.257 261.203C125.257 260.895 125.514 260.637 125.823 260.637H130.284C130.593 260.637 130.85 260.895 130.85 261.203C130.85 261.512 130.593 261.77 130.284 261.77Z" fill="black"/>
<path d="M169.354 243.547L171.087 259.161L177.71 260.534L177.299 242.226L169.354 243.547Z" fill="white"/>
<path d="M177.71 261.1C177.676 261.1 177.642 261.1 177.59 261.083L170.967 259.71C170.727 259.659 170.538 259.453 170.521 259.213L168.788 243.599C168.754 243.307 168.96 243.032 169.251 242.981L177.213 241.66C177.367 241.625 177.539 241.677 177.676 241.78C177.796 241.883 177.882 242.037 177.882 242.209L178.294 260.517C178.294 260.689 178.225 260.86 178.088 260.963C177.968 261.066 177.848 261.1 177.71 261.1ZM171.602 258.698L177.127 259.848L176.749 242.912L169.972 244.045L171.602 258.698Z" fill="black"/>
<path d="M168.17 265.785C168.067 263.4 168.119 258.853 169.818 256.399L175.119 258.269V257.154C175.119 256.794 175.377 256.502 175.72 256.468L178.671 256.296C179.769 256.227 180.868 256.468 181.88 256.948C184.986 258.458 191.643 262.078 193.05 265.819C193.359 266.625 192.793 267.5 191.918 267.621C189.275 267.981 182.601 268.496 169.818 267.466C168.908 267.398 168.205 266.677 168.17 265.785Z" fill="white"/>
<path d="M183.287 268.65C179.838 268.65 175.394 268.496 169.766 268.032C168.582 267.929 167.655 266.986 167.604 265.802C167.484 263.28 167.553 258.647 169.337 256.073C169.491 255.867 169.749 255.781 169.989 255.867L174.536 257.463V257.137C174.536 256.468 175.034 255.936 175.669 255.884L178.62 255.713C179.804 255.644 181.022 255.884 182.103 256.416C185.758 258.201 192.123 261.77 193.565 265.596C193.771 266.128 193.719 266.728 193.41 267.226C193.102 267.741 192.587 268.084 191.986 268.17C190.408 268.41 187.628 268.65 183.287 268.65ZM168.736 265.767C168.771 266.368 169.251 266.866 169.852 266.917C182.412 267.929 189.018 267.449 191.832 267.072C192.089 267.037 192.312 266.9 192.449 266.677C192.518 266.557 192.621 266.317 192.518 266.025C191.163 262.439 184.454 258.853 181.622 257.463C180.696 257.017 179.684 256.811 178.688 256.862L175.737 257.034C175.72 257.034 175.686 257.068 175.686 257.154V258.269C175.686 258.458 175.6 258.63 175.445 258.733C175.291 258.835 175.102 258.87 174.931 258.801L170.058 257.085C168.634 259.573 168.651 263.932 168.736 265.767Z" fill="black"/>
<path d="M181.76 266.059C178.654 266.059 174.793 265.905 170.384 265.39C170.075 265.356 169.852 265.081 169.886 264.755C169.92 264.446 170.212 264.223 170.521 264.258C181.794 265.545 189.481 264.532 189.55 264.532C189.859 264.498 190.15 264.704 190.185 265.013C190.219 265.321 190.013 265.613 189.704 265.647C189.653 265.665 186.684 266.059 181.76 266.059Z" fill="black"/>
<path d="M183.613 262.37C183.493 262.37 183.39 262.336 183.287 262.267L178.191 258.63C177.933 258.441 177.882 258.098 178.053 257.84C178.242 257.583 178.585 257.531 178.843 257.703L183.939 261.341C184.196 261.529 184.248 261.873 184.076 262.13C183.973 262.301 183.784 262.37 183.613 262.37Z" fill="black"/>
<path d="M171.413 142.244C171.413 142.244 181.296 207.652 179.272 250.754L168.702 251.028C168.702 251.028 156.966 184.882 151.303 174.021C151.303 174.021 135.518 234.625 134.917 250.394L125.36 250.102C125.36 250.102 123.901 216.591 123.833 206.691C123.627 178.379 126.355 165.511 127.848 159.419C129.22 153.808 130.696 149.261 131.777 146.19L135.38 136.015L171.413 142.244Z" fill="black"/>
<path d="M151.166 177.213C151.115 177.213 151.08 177.213 151.029 177.195C150.72 177.127 150.548 176.818 150.617 176.509L152.402 169.32C152.951 167.226 154.615 165.665 156.725 165.219L157.858 164.979C158.167 164.91 158.458 165.116 158.527 165.408C158.596 165.716 158.39 166.008 158.098 166.077L156.966 166.317C155.267 166.677 153.946 167.93 153.5 169.594L151.715 176.766C151.647 177.041 151.424 177.213 151.166 177.213Z" fill="#CADDFF"/>
<path d="M163.108 160.723C163.108 160.723 180.936 159.453 179.392 149.913C177.848 140.373 165.614 134.471 157 132.909C148.387 131.348 121.105 140.991 132.549 150.926C143.994 160.86 163.108 160.723 163.108 160.723Z" fill="black"/>
<path d="M200.205 67.9131C200.205 67.9131 201.492 60.7237 201.938 58.8019C202.453 56.6056 199.004 58.6132 197.751 65.3908L200.205 67.9131Z" fill="white"/>
<path d="M200.205 68.4793C200.051 68.4793 199.913 68.4106 199.793 68.3077L197.34 65.7854C197.22 65.6481 197.151 65.4594 197.185 65.2878C198.009 60.8094 199.913 57.9096 201.286 57.4464C201.646 57.3262 202.007 57.3777 202.247 57.6008C202.556 57.8753 202.624 58.3214 202.487 58.922C202.041 60.8094 200.771 67.9302 200.754 68.016C200.72 68.2219 200.565 68.3935 200.36 68.4621C200.308 68.4793 200.257 68.4793 200.205 68.4793ZM198.369 65.202L199.845 66.7119C200.222 64.6186 201.046 60.1402 201.389 58.6646C200.686 59.2137 199.158 61.2041 198.369 65.202Z" fill="black"/>
<path d="M199.948 66.8492C200.136 67.0551 200.325 67.2439 200.531 67.4326C200.874 67.7415 201.629 68.5651 201.526 69.5431C201.423 70.4868 199.948 73.7469 199.227 75.274C198.987 75.7888 198.85 76.355 198.832 76.9384C198.815 77.7277 199.21 82.4634 199.21 82.4634L193.393 82.8238C193.393 82.8238 193.633 82.0173 193.856 78.3969C194.08 74.7764 193.462 76.3379 192.209 72.7003C190.957 69.0798 192.415 65.8026 193.136 65.4079C193.856 65.0133 194.989 66.0943 194.989 66.0943C194.989 66.0943 195.572 63.9494 196.859 63.898C197.528 63.8637 197.7 64.55 198.146 64.979L199.948 66.8492Z" fill="white"/>
<path d="M193.41 83.3728C193.239 83.3728 193.067 83.287 192.964 83.1669C192.844 83.0296 192.81 82.8237 192.861 82.6521C192.861 82.6178 193.084 81.777 193.307 78.3453C193.445 76.3206 193.307 76.1147 192.913 75.4799C192.621 74.9994 192.209 74.3474 191.694 72.8718C190.373 69.0455 191.866 65.4593 192.878 64.8931C193.513 64.5499 194.234 64.8245 194.732 65.1505C195.075 64.3955 195.744 63.366 196.842 63.3145C197.631 63.2802 198.009 63.8293 198.266 64.2068C198.369 64.344 198.455 64.4813 198.558 64.5671L200.342 66.4545C200.514 66.6433 200.703 66.832 200.909 67.0208C201.303 67.3811 202.213 68.3763 202.093 69.6117C201.99 70.5554 200.754 73.3522 199.742 75.5142C199.536 75.9775 199.416 76.4579 199.399 76.9555C199.381 77.5732 199.673 81.1079 199.776 82.4119C199.793 82.5663 199.742 82.7208 199.639 82.8237C199.536 82.9438 199.399 83.0124 199.244 83.0124L193.428 83.3728C193.445 83.3728 193.427 83.3728 193.41 83.3728ZM193.53 65.8711C193.496 65.8711 193.462 65.8711 193.445 65.8883C192.981 66.18 191.609 69.1312 192.775 72.5115C193.239 73.867 193.616 74.4504 193.891 74.8965C194.423 75.7544 194.594 76.1662 194.457 78.4311C194.337 80.4044 194.2 81.554 194.114 82.206L198.627 81.9315C198.524 80.6103 198.266 77.5904 198.283 76.9212C198.3 76.2692 198.455 75.6343 198.729 75.0338C200.068 72.1511 200.909 70.075 200.977 69.4744C201.063 68.7366 200.377 68.0503 200.154 67.8444C199.931 67.6385 199.725 67.4326 199.536 67.2267L197.751 65.3564C197.597 65.202 197.46 65.0132 197.34 64.8416C197.099 64.4985 197.014 64.4298 196.894 64.4298C196.241 64.4641 195.692 65.6481 195.538 66.2143C195.487 66.403 195.332 66.5575 195.143 66.609C194.955 66.6604 194.749 66.6089 194.594 66.4717C194.251 66.1457 193.754 65.8711 193.53 65.8711Z" fill="black"/>
<path d="M197.374 73.112C196.705 73.112 195.847 72.7517 195.023 71.7393C193.41 69.7489 194.457 65.9569 194.509 65.7853C194.594 65.4765 194.903 65.3049 195.212 65.3907C195.521 65.4765 195.692 65.7853 195.607 66.0942C195.349 67.0379 194.886 69.7489 195.916 71.0187C196.585 71.8423 197.254 72.0653 197.597 71.9452C197.837 71.8594 197.854 71.5849 197.837 71.4305C197.769 70.3838 197.134 69.7318 197.117 69.7318C196.894 69.5087 196.894 69.1484 197.117 68.9253C197.34 68.7023 197.683 68.7023 197.923 68.9082C197.957 68.9425 198.867 69.8519 198.97 71.3447C199.021 72.0997 198.661 72.7345 198.009 72.9919C197.82 73.0777 197.614 73.112 197.374 73.112Z" fill="black"/>
<path d="M133.373 91.3172C126.784 96.4305 114.207 109.694 113.469 125.445C113.435 126.097 113.778 126.698 114.361 127.007C117.467 128.637 121.225 128.534 124.21 126.698L127.951 124.433C127.951 124.433 122.82 142.638 123.181 145.555C123.524 148.472 132.515 153.448 143.754 149.382C154.993 145.298 176.132 144.148 179.512 151.063L176.887 126.938L196.55 123.575C196.55 123.575 191.351 104.049 177.796 91.9864C168.548 83.7332 143.153 83.7332 133.373 91.3172Z" fill="#019AFF"/>
<path d="M201.406 81.0565L191.609 80.7305C191.609 80.7305 188.675 106.88 184.934 110.775C181.194 114.67 173.918 119.663 173.918 119.663C173.918 119.663 176.046 134.093 189.327 133.27C210.483 131.931 201.406 81.0565 201.406 81.0565Z" fill="#019AFF"/>
<path d="M104.272 104.975H128.311C129.066 104.975 129.787 105.61 129.907 106.382L135.38 139.756C135.5 140.528 135.003 141.163 134.231 141.163H110.192C109.437 141.163 108.716 140.528 108.596 139.756L103.14 106.382C103.002 105.61 103.517 104.975 104.272 104.975Z" fill="white"/>
<path d="M134.231 141.729H110.192C109.145 141.729 108.201 140.905 108.03 139.841L102.573 106.468C102.488 105.919 102.625 105.387 102.951 104.992C103.277 104.615 103.74 104.392 104.272 104.392H128.311C129.358 104.392 130.301 105.215 130.473 106.279L135.929 139.67C136.015 140.219 135.878 140.751 135.552 141.145C135.226 141.523 134.763 141.729 134.231 141.729ZM104.272 105.541C104.083 105.541 103.929 105.61 103.809 105.73C103.689 105.867 103.637 106.073 103.689 106.279L109.145 139.67C109.231 140.167 109.711 140.596 110.192 140.596H134.231C134.419 140.596 134.574 140.528 134.694 140.407C134.814 140.27 134.866 140.064 134.814 139.858L129.358 106.485C129.272 105.988 128.791 105.559 128.311 105.559H104.272V105.541Z" fill="black"/>
<path d="M105.25 119.303L105.816 122.648L114.842 121.087C116.18 120.864 117.467 121.791 117.621 123.129C117.724 124.124 117.467 125.274 116.197 126.217C114.704 127.333 110.072 128.997 106.365 129.683C102.213 130.456 101.904 124.433 102.934 121.43C103.706 119.079 105.25 119.303 105.25 119.303Z" fill="white"/>
<path d="M105.662 130.318C104.667 130.318 103.809 129.941 103.157 129.186C101.441 127.195 101.681 123.266 102.367 121.241C103.311 118.479 105.25 118.736 105.336 118.753C105.576 118.788 105.765 118.976 105.816 119.217L106.297 121.996L114.756 120.521C115.58 120.383 116.42 120.606 117.072 121.104C117.707 121.585 118.102 122.288 118.188 123.077C118.342 124.519 117.776 125.771 116.523 126.698C114.893 127.899 110.192 129.563 106.451 130.267C106.177 130.301 105.919 130.318 105.662 130.318ZM104.787 119.937C104.409 120.075 103.843 120.469 103.448 121.619C102.728 123.712 102.796 127.041 104.015 128.448C104.564 129.083 105.284 129.306 106.245 129.134C110.054 128.431 114.533 126.749 115.854 125.771C116.781 125.085 117.175 124.244 117.055 123.197C117.004 122.734 116.763 122.305 116.369 122.013C115.957 121.705 115.442 121.567 114.927 121.653L105.919 123.215C105.765 123.249 105.61 123.197 105.49 123.112C105.37 123.026 105.284 122.889 105.25 122.751L104.787 119.937Z" fill="black"/>
<path d="M167.295 115.493C167.003 115.493 166.712 115.442 166.454 115.339L163.709 114.31C162.782 113.966 162.165 113.074 162.165 112.096V105.49C162.165 104.821 162.714 104.272 163.4 104.272H166.317C166.626 104.272 166.883 104.529 166.883 104.838C166.883 105.147 166.626 105.404 166.317 105.404H163.4C163.349 105.404 163.297 105.439 163.297 105.49V112.096C163.297 112.611 163.623 113.074 164.104 113.246L166.849 114.275C167.141 114.378 167.45 114.378 167.741 114.275L170.813 113.126C171.293 112.937 171.619 112.474 171.619 111.976V105.473C171.619 105.421 171.568 105.387 171.516 105.387H168.839C168.531 105.387 168.273 105.13 168.273 104.821C168.273 104.512 168.531 104.255 168.839 104.255H171.516C172.202 104.255 172.752 104.804 172.752 105.473V111.976C172.752 112.954 172.134 113.846 171.207 114.189L168.136 115.339C167.879 115.442 167.587 115.493 167.295 115.493Z" fill="#D6EFFF"/>
<path d="M174.09 158.853C173.815 158.853 173.575 158.647 173.524 158.355L172.563 151.269C172.528 150.96 172.734 150.668 173.043 150.634C173.352 150.583 173.644 150.806 173.678 151.115L174.639 158.201C174.673 158.51 174.467 158.802 174.159 158.836C174.141 158.853 174.124 158.853 174.09 158.853Z" fill="#CADDFF"/>
<path d="M161.65 73.9873L162.834 86.0325C162.988 87.2679 163.881 88.2974 165.116 88.6063L166.575 88.9838C167.347 89.1897 167.467 90.202 166.78 90.5967C163.555 92.4155 156.159 95.3153 148.129 89.8589C147.443 89.3441 147.683 88.2631 148.524 88.0744L150.583 87.6283C151.784 87.3537 152.711 86.41 152.934 85.1918L153.414 71.8596L161.65 73.9873Z" fill="white"/>
<path d="M157.858 93.565C154.821 93.565 151.355 92.7586 147.786 90.3392C147.271 89.9446 147.031 89.344 147.168 88.7263C147.306 88.1086 147.769 87.6625 148.369 87.5252L150.428 87.0791C151.406 86.856 152.144 86.1011 152.333 85.1402L152.813 71.8424C152.813 71.6708 152.899 71.5164 153.037 71.4134C153.174 71.3105 153.345 71.2762 153.517 71.3105L161.787 73.4381C162.01 73.4896 162.182 73.6955 162.216 73.9357L163.4 85.981C163.52 86.9762 164.258 87.7998 165.253 88.0571L166.712 88.4346C167.295 88.5891 167.707 89.0523 167.776 89.6357C167.844 90.2191 167.57 90.7853 167.055 91.077C165.322 92.0722 161.993 93.565 157.858 93.565ZM153.929 72.5802L153.483 85.2088C153.483 85.2432 153.483 85.2603 153.465 85.2946C153.208 86.7359 152.11 87.8512 150.686 88.1773L148.627 88.6234C148.369 88.6748 148.301 88.8807 148.284 88.9665C148.266 89.0523 148.249 89.2582 148.455 89.4127C156.056 94.5602 163.023 92.0551 166.489 90.099C166.66 90.0132 166.66 89.8588 166.643 89.7901C166.643 89.7215 166.592 89.5842 166.42 89.5328L164.962 89.1553C163.503 88.7778 162.457 87.5767 162.268 86.1011L161.135 74.4333L153.929 72.5802Z" fill="black"/>
<path d="M146.053 59.2995C148.713 58.6818 145.796 61.9934 155.233 57.4464C158.99 55.6276 157.755 60.5349 158.733 60.0716C162.336 58.3386 163.332 57.9097 165.253 58.0812C166.54 58.1842 169.526 60.1403 169.406 61.8561C168.977 67.4155 166.351 66.4203 165.494 71.3447C164.893 74.8107 164.138 75.9604 162.903 76.6639C161.65 77.3674 160.363 75.7716 158.922 76.4408C157.069 77.3159 158.012 80.576 156.348 82.2747C155.301 83.3557 152.59 84.2307 147.786 82.8409C147.014 82.6179 146.499 81.8629 146.585 81.0564C146.688 80.0269 146.842 78.7229 147.082 77.4875C148.232 71.6021 150.017 70.0235 149.056 68.7195C147.58 66.712 143.599 68.6852 142.604 67.0036C141.575 65.2363 142.415 60.1231 146.053 59.2995Z" fill="black"/>
<path d="M157.017 67.2094L156.485 68.7536C156.228 69.4914 156.039 70.2293 155.885 70.9842C155.61 72.4084 155.044 74.8277 154.735 76.1832C153.757 80.5587 147.906 76.9211 147.906 76.9211L147.357 75.8572L146.619 75.7028C146.482 75.6685 146.345 75.617 146.242 75.5141C145.967 75.2738 145.916 74.8964 146.053 74.5875C146.825 72.9231 148.404 69.1997 148.661 66.0426C148.678 66.0597 152.865 64.2066 157.017 67.2094Z" fill="white"/>
<path d="M152.161 78.9115C150.068 78.9115 147.734 77.4874 147.614 77.4187C147.529 77.3673 147.46 77.2815 147.408 77.1957L146.979 76.3721L146.516 76.2691C146.259 76.2176 146.036 76.0975 145.864 75.9431C145.418 75.5485 145.298 74.9136 145.538 74.3645C146.225 72.8889 147.837 69.114 148.095 66.0083C148.112 65.8024 148.232 65.6137 148.438 65.5451C148.627 65.4593 152.968 63.589 157.343 66.7633C157.549 66.9177 157.635 67.1751 157.549 67.3982L157.017 68.9424C156.777 69.6459 156.588 70.3666 156.451 71.1044C156.245 72.1339 155.885 73.7297 155.61 74.9994C155.49 75.497 155.387 75.9431 155.318 76.3206C155.061 77.4874 154.461 78.2938 153.551 78.6713C153.105 78.8429 152.642 78.9115 152.161 78.9115ZM148.352 76.5265C149.313 77.0927 151.698 78.1909 153.088 77.6075C153.654 77.3672 154.014 76.8697 154.186 76.0632C154.272 75.6857 154.375 75.2224 154.478 74.742C154.769 73.4723 155.113 71.9109 155.318 70.8813C155.473 70.1092 155.679 69.3199 155.936 68.5821L156.331 67.4325C153.225 65.3906 150.154 66.1456 149.193 66.4716C148.85 69.5601 147.426 73.009 146.568 74.845C146.533 74.9136 146.533 75.0165 146.619 75.1023C146.636 75.1195 146.688 75.1366 146.739 75.1538L147.477 75.3082C147.649 75.3425 147.786 75.4455 147.855 75.5999L148.352 76.5265Z" fill="black"/>
<path d="M156.76 72.34C156.76 72.34 158.03 68.6166 159.608 69.5431C161.187 70.4697 159.694 74.5363 156.76 72.34Z" fill="white"/>
<path d="M149.794 74.4505C149.433 74.4505 149.107 74.3476 148.833 74.1588C148.198 73.7299 147.82 72.8548 147.666 71.5164C147.546 70.4183 147.769 69.6976 148.369 69.3201C148.798 69.0456 149.296 68.9426 149.759 69.0627C150.154 69.1485 150.463 69.3716 150.651 69.6804C151.578 71.2247 151.544 72.666 151.201 73.4896C151.012 73.9701 150.703 74.2961 150.343 74.3819C150.154 74.4333 149.965 74.4505 149.794 74.4505ZM149.382 70.1437C149.279 70.1437 149.141 70.178 148.987 70.2638C148.73 70.4183 148.764 71.036 148.798 71.3791C148.936 72.666 149.279 73.0778 149.468 73.2151C149.553 73.2837 149.708 73.3524 150.017 73.2837C150.205 73.095 150.669 71.8939 149.691 70.2467C149.691 70.2295 149.622 70.178 149.519 70.1437C149.468 70.1609 149.433 70.1437 149.382 70.1437Z" fill="black"/>
<path d="M149.399 70.1265C149.09 70.1265 148.85 69.8863 148.833 69.5775C148.815 69.2686 149.056 68.9941 149.382 68.9941L157.944 68.6166C158.27 68.5994 158.527 68.8396 158.527 69.1657C158.544 69.4745 158.304 69.749 157.978 69.749L149.416 70.1265C149.416 70.1265 149.416 70.1265 149.399 70.1265Z" fill="black"/>
<path d="M146.225 74.1931C146.173 74.1931 146.122 74.1931 146.07 74.176C145.761 74.0902 145.487 73.7813 145.212 73.2494C145.006 72.8548 144.406 71.4993 144.92 70.1437C145.075 69.7319 145.367 69.4231 145.761 69.2858C146.653 68.9598 147.786 69.5432 147.906 69.6118C148.181 69.7663 148.284 70.1094 148.129 70.384C147.975 70.6585 147.632 70.7615 147.357 70.607C147.031 70.4354 146.448 70.2467 146.139 70.3496C146.07 70.3668 146.019 70.4183 145.967 70.5556C145.572 71.5679 146.19 72.8719 146.448 73.1122C146.688 73.2323 146.825 73.5068 146.756 73.7813C146.705 74.0216 146.465 74.1931 146.225 74.1931Z" fill="black"/>
<path d="M25.7034 261.083C25.7034 261.083 20.9334 267.414 21.2765 271.567L21.1736 273.18L11.2217 264.12L12.6115 263.554C14.8078 262.044 17.1414 261.152 18.4111 258.818L25.7034 261.083Z" fill="#99B9FF"/>
<path d="M22.9752 269.491L22.8207 271.447C22.5119 275.324 23.1639 279.237 24.691 282.806L25.875 285.551C25.9951 285.808 25.9607 286.117 25.8063 286.357L25.7205 286.477C24.8454 287.833 21.0363 289 16.1976 285.722C13.212 283.698 7.13791 278.07 2.98556 268.221C2.72818 267.603 2.89976 266.882 3.41452 266.454C5.30195 264.875 9.95189 261.272 13.5723 260.86C13.9841 260.808 14.3273 261.117 14.3445 261.529L14.3788 265.424C14.3959 267.174 15.8373 268.581 17.5874 268.564L22.0658 268.513C22.5977 268.513 23.0266 268.959 22.9752 269.491Z" fill="white"/>
<path d="M22.2374 288.416C20.7103 288.416 18.5312 287.987 15.9059 286.203C14.5161 285.259 7.36102 279.992 2.50517 268.461C2.14484 267.603 2.38506 266.625 3.08856 266.025C4.97599 264.446 9.7632 260.723 13.5552 260.311C13.9156 260.277 14.2759 260.38 14.5333 260.62C14.7906 260.86 14.9451 261.186 14.9451 261.529L14.9794 265.424C14.9794 266.128 15.2711 266.762 15.7515 267.26C16.2491 267.74 16.9011 267.998 17.6046 267.998L22.083 267.946C22.4948 267.946 22.8894 268.118 23.1811 268.41C23.4557 268.719 23.6101 269.113 23.5758 269.525L23.4213 271.481C23.1296 275.256 23.7645 279.099 25.2573 282.565L26.4412 285.311C26.63 285.74 26.5957 286.237 26.3383 286.649L26.2525 286.769C25.8064 287.473 24.8627 288.022 23.6959 288.262C23.2841 288.348 22.8036 288.416 22.2374 288.416ZM13.6753 261.443C10.175 261.838 5.61085 265.39 3.80921 266.9C3.4832 267.174 3.38025 267.62 3.53468 268.015C8.27042 279.254 15.2024 284.35 16.5408 285.259C19.8181 287.473 22.2717 287.404 23.4385 287.164C24.4509 286.958 25.0514 286.512 25.2745 286.169L25.3603 286.049C25.4117 285.963 25.4289 285.86 25.3774 285.774L24.1935 283.029C22.6321 279.374 21.9629 275.359 22.2717 271.395L22.4262 269.439C22.4433 269.319 22.3747 269.233 22.3404 269.182C22.306 269.148 22.2203 269.079 22.1001 269.079L17.6218 269.13C16.6266 269.147 15.6829 268.77 14.9622 268.067C14.2416 267.363 13.8469 266.436 13.8469 265.441L13.8126 261.546C13.8126 261.529 13.8126 261.495 13.7783 261.478C13.744 261.461 13.7268 261.443 13.6753 261.443Z" fill="black"/>
<path d="M25.3775 285.122C25.3088 285.122 25.223 285.105 25.1544 285.071L24.5367 284.796C21.1393 283.321 18.4626 280.489 17.1929 277.023L16.7811 275.908C16.7467 275.822 16.6781 275.805 16.6266 275.805C16.5752 275.805 16.5065 275.822 16.4722 275.891L15.9403 276.938C15.7344 277.349 15.3398 277.624 14.8936 277.693C14.4475 277.761 13.9842 277.607 13.6582 277.281C10.6555 274.227 8.37341 270.658 6.84631 266.66L6.00555 264.429C5.90259 264.137 6.03986 263.811 6.33156 263.691C6.62325 263.588 6.94926 263.726 7.06937 264.017L7.91014 266.248C9.36861 270.091 11.582 273.54 14.4647 276.474C14.5505 276.56 14.6534 276.56 14.722 276.56C14.7735 276.56 14.8765 276.526 14.9279 276.406L15.4599 275.359C15.7001 274.896 16.1805 274.621 16.6953 274.655C17.2272 274.69 17.6561 275.016 17.8449 275.513L18.2567 276.629C19.4235 279.803 21.8771 282.411 24.9828 283.749L25.6005 284.024C25.8922 284.144 26.0123 284.487 25.8922 284.779C25.8064 285.002 25.6005 285.122 25.3775 285.122Z" fill="black"/>
<path d="M61.9592 278.842C61.9592 278.842 61.4102 285.07 64.0011 288.022L64.8075 289.291L52.7108 288.657L53.2942 287.335C54.3409 284.985 55.1302 281.193 54.9243 278.705L61.9592 278.842Z" fill="#99B9FF"/>
<path d="M63.6236 283.989L64.8419 285.242C67.2441 287.713 70.2297 289.583 73.5069 290.647L76.0292 291.471C76.2694 291.556 76.4582 291.745 76.5268 291.985L76.5611 292.105C76.9558 293.478 75.4973 296.704 70.487 298.008C67.4671 298.797 60.4836 299.518 51.8358 296.79C50.8063 296.464 50.1371 295.486 50.1886 294.422C50.3087 291.934 50.7376 287.524 52.402 285.173C52.6079 284.882 53.0026 284.847 53.2771 285.07C53.8776 285.585 54.9243 286.495 55.9023 287.335C57.0863 288.348 58.8536 288.21 59.8659 287.044L62.4397 284.024C62.7486 283.663 63.2976 283.646 63.6236 283.989Z" fill="white"/>
<path d="M63.8981 299.295C60.6723 299.295 56.4685 298.866 51.6641 297.339C50.3944 296.944 49.5708 295.726 49.6223 294.405C49.7424 291.9 50.1885 287.335 51.9387 284.847C52.1274 284.59 52.4191 284.401 52.7451 284.367C53.0711 284.333 53.3971 284.436 53.6545 284.641L56.2798 286.906C56.7259 287.301 57.3093 287.49 57.9098 287.438C58.5104 287.387 59.0594 287.112 59.4369 286.666L62.0107 283.646C62.2681 283.355 62.6284 283.183 63.0059 283.166C63.3834 283.149 63.7609 283.303 64.0354 283.578L65.2536 284.83C67.5872 287.232 70.5041 289.051 73.6956 290.098L76.2179 290.921C76.6297 291.059 76.9557 291.402 77.0758 291.814L77.1101 291.934C77.316 292.672 77.1273 293.615 76.5954 294.559C75.9777 295.623 74.3991 297.562 70.6242 298.54C69.8864 298.746 67.4842 299.295 63.8981 299.295ZM52.8995 285.499C51.2695 287.747 50.8577 292.071 50.7547 294.439C50.7204 295.263 51.2352 296 52.0073 296.241C61.8906 299.346 69.0113 297.785 70.3497 297.442C73.7128 296.567 75.1026 294.902 75.6174 293.993C76.0635 293.204 76.115 292.569 76.0292 292.243L75.9948 292.123C75.9777 292.054 75.9262 292.002 75.8747 291.985L73.3524 291.162C69.9894 290.064 66.918 288.142 64.4644 285.619L63.2461 284.367C63.1775 284.298 63.1088 284.298 63.0745 284.298C63.0402 284.298 62.9716 284.315 62.9029 284.384L60.3292 287.404C59.7458 288.09 58.9222 288.502 58.0128 288.571C57.1205 288.639 56.2454 288.348 55.5591 287.764L52.8995 285.499Z" fill="black"/>
<path d="M61.822 294.885C58.5619 294.885 55.3532 294.302 52.2819 293.152L50.3086 292.414C50.017 292.311 49.8625 291.985 49.9826 291.676C50.0856 291.385 50.4288 291.23 50.7204 291.35L52.6937 292.088C56.1082 293.358 59.6772 293.907 63.3148 293.701C63.4006 293.701 63.452 293.65 63.4692 293.615C63.4863 293.581 63.5207 293.512 63.4863 293.444L63.0917 292.466C62.903 292.002 63.0059 291.505 63.3662 291.162C63.7266 290.818 64.207 290.698 64.6703 290.887L65.6655 291.264C68.4451 292.345 71.6023 292.225 74.2962 290.956L74.8281 290.698C75.1198 290.561 75.4458 290.681 75.5831 290.973C75.7203 291.264 75.6002 291.59 75.3085 291.728L74.7766 291.985C71.791 293.392 68.325 293.512 65.2537 292.328L64.2585 291.951C64.2413 291.951 64.207 291.934 64.1727 291.968C64.1384 292.002 64.1555 292.054 64.1555 292.054L64.5502 293.032C64.7046 293.426 64.6703 293.873 64.4301 294.233C64.207 294.593 63.8124 294.816 63.3834 294.851C62.8515 294.868 62.3367 294.885 61.822 294.885Z" fill="black"/>
<path d="M40.2194 176.955C40.2194 176.955 35.3293 193.118 43.6683 204.597C54.8899 220.057 48.4727 255.712 54.1006 279.7C54.2036 280.163 54.6326 280.472 55.0958 280.472L61.9078 280.403C62.3539 280.403 62.7485 280.095 62.8686 279.648C64.4644 273.66 75.2056 233.2 74.8624 225.119C74.7766 223.283 74.5535 221.138 74.2275 218.873C72.6661 207.943 69.3545 197.322 64.5673 187.387L57.0862 171.859L40.2194 176.955Z" fill="black"/>
<path d="M34.9518 175.136C34.9518 175.136 28.8091 186.564 31.5201 198.575C34.2311 210.586 30.1474 220.555 27.2648 225.256C24.4165 229.889 19.2003 241.591 17.3644 258.973C17.3129 259.401 17.4673 259.813 17.7762 260.105C18.737 261.014 21.1049 262.885 24.691 263.039C25.1028 263.056 25.5146 262.885 25.7892 262.576C28.6203 259.367 44.8866 240.493 50.6861 225.496C57.0347 209.041 58.2187 181.691 58.2187 181.691C58.2187 181.691 42.4329 183.321 34.9518 175.136Z" fill="black"/>
<path d="M49.8968 230.507C49.6051 230.507 49.3478 230.284 49.3306 229.975C48.6443 220.4 47.4089 210.723 43.1879 204.923C39.9621 200.479 38.2977 194.886 38.2119 188.28C38.2119 187.971 38.4521 187.713 38.7781 187.713C39.1042 187.713 39.3444 187.954 39.3444 188.28C39.413 194.645 41.0259 200.033 44.0973 204.271C48.4898 210.311 49.7424 220.16 50.4459 229.906C50.4631 230.215 50.24 230.489 49.914 230.507C49.9311 230.507 49.914 230.507 49.8968 230.507Z" fill="#CADDFF"/>
<path d="M47.4603 110.809C44.5262 111.907 43.8742 115.442 41.798 117.467C39.2071 120.006 35.5008 119.543 32.4295 118.29C28.9806 116.9 25.8063 114.172 22.0143 115.922C18.8914 117.364 17.982 120.263 17.8105 123.438C17.759 124.536 17.6389 125.651 17.2786 126.681C16.9869 127.522 16.4721 128.328 15.7343 128.826C14.5504 129.615 13.0061 129.512 11.5819 129.512C4.71855 129.529 7.91003 136.307 10.2093 139.721C13.0919 143.994 17.8791 146.893 22.9065 147.957C24.8969 148.369 27.0246 148.335 28.8605 147.46C30.2847 146.773 31.4343 145.624 32.6697 144.646C35.8955 142.072 40.3739 143.376 43.8913 141.145C49.2448 137.748 51.7328 130.988 55.4733 126.132C57.8069 123.112 60.6552 119.783 61.7705 116.06C62.5426 113.486 61.7876 105.593 57.2406 107.48C56.3999 107.824 55.7307 108.493 54.9757 109.025C52.4877 110.792 50.0341 109.848 47.4603 110.809Z" fill="black"/>
<path d="M33.9223 136.101C33.9223 136.101 48.507 128.86 61.9421 131.863C61.9421 131.863 69.9894 136.598 68.5996 145.572C67.2955 154.066 66.9867 160.878 66.9695 165.493C66.9524 169.491 65.5797 181.296 64.6188 182.686C62.5255 185.671 58.5962 184.299 48.7301 183.441C37.1309 182.429 35.7239 180.215 33.3389 177.641C31.7432 175.926 32.91 169.474 33.0987 168.307C34.0596 162.405 37.2339 153.07 33.9223 136.101Z" fill="#007ACB"/>
<path d="M55.9709 139.172L59.66 134.351C61.8735 130.713 66.7979 129.34 70.7615 127.796C87.2165 121.327 88.3147 105.524 89.6187 98.5581L95.5041 98.867C95.5041 98.867 103.037 137.525 65.717 148.798L55.9709 139.172Z" fill="#007ACB"/>
<path d="M14.4132 94.0281C20.1098 113.349 27.0933 124.296 38.8811 136.272C38.8811 136.272 42.8962 167.483 17.0727 129.958C8.15031 116.986 10.4495 95.315 10.4495 95.315L14.4132 94.0281Z" fill="#007ACB"/>
<path d="M14.3102 95.1949C14.619 95.0061 14.9107 94.7659 15.2024 94.4742C16.6266 93.0329 18.943 89.4811 16.7982 87.7138C15.1853 86.3754 12.3198 87.1132 10.7069 88.0055C8.68222 89.1379 9.16265 92.175 10.0206 93.9423C10.9471 95.8812 12.7488 96.1558 14.3102 95.1949Z" fill="white"/>
<path d="M12.56 96.2931C12.2683 96.2931 11.9766 96.2588 11.6849 96.173C10.7583 95.8985 10.0034 95.2121 9.48861 94.1655C8.5449 92.2094 8.01299 88.8292 10.4152 87.4908C11.8736 86.6844 15.1338 85.5862 17.1413 87.2506C17.8105 87.7997 18.1708 88.5203 18.2051 89.4126C18.3081 91.5059 16.5407 93.8909 15.5799 94.8518C15.271 95.1606 14.945 95.4352 14.5847 95.6582C13.9498 96.0872 13.2292 96.2931 12.56 96.2931ZM14.4646 87.5423C13.212 87.5423 11.8222 88.0227 10.9814 88.5032C9.28271 89.4469 9.79747 92.1922 10.5353 93.685C10.8956 94.4228 11.4104 94.9204 12.0109 95.092C12.6286 95.2636 13.3321 95.1263 14.0185 94.7145C14.293 94.5429 14.5504 94.337 14.8077 94.0797C15.7686 93.1016 17.1756 91.0598 17.107 89.4812C17.0727 88.915 16.8668 88.486 16.455 88.1428C15.9059 87.7139 15.2024 87.5423 14.4646 87.5423Z" fill="black"/>
<path d="M93.4106 99.21C93.7538 99.1586 94.097 99.0728 94.4745 98.9527C96.2589 98.3006 98.867 95.6926 98.3694 93.5992C97.6659 90.5965 91.1629 90.0646 89.5157 92.3123C87.5424 95.0405 89.9961 99.639 93.4106 99.21Z" fill="white"/>
<path d="M92.9645 99.7933C91.4031 99.7933 89.9446 98.9011 89.0352 97.374C87.9714 95.5895 87.9714 93.4618 89.0524 91.9691C90.202 90.3733 92.9645 90.0988 95.0235 90.5106C97.1169 90.9224 98.5753 92.0205 98.9014 93.4447C99.5019 96.0013 96.4992 98.7981 94.6461 99.4673C94.2514 99.6046 93.8568 99.7075 93.4621 99.759C93.3077 99.7933 93.1361 99.7933 92.9645 99.7933ZM93.3077 91.4715C91.8321 91.4715 90.4937 91.9004 89.979 92.6211C89.1725 93.7535 89.1725 95.3836 90.0133 96.7906C90.6138 97.8029 91.8149 98.8324 93.342 98.6265C93.6509 98.5922 93.9597 98.5064 94.2857 98.3863C95.9329 97.7858 98.215 95.4007 97.8204 93.6849C97.5973 92.7069 96.4648 91.9347 94.8176 91.5916C94.3029 91.5229 93.8053 91.4715 93.3077 91.4715Z" fill="black"/>
<path d="M43.2051 133.836L56.8117 137.748L58.4246 131.502L54.0492 130.85L54.1179 129.186C56.5372 129.22 58.1158 128.242 58.8021 127.71C59.0423 127.521 59.1625 127.23 59.1281 126.921L58.6992 123.129C59.1796 122.854 59.8316 121.979 59.0252 121.259C58.2016 120.538 56.7431 116.523 56.7431 116.523C54.6841 113.194 53.3114 117.209 51.3725 117.261C50.0341 117.295 49.1934 117.981 49.4164 119.766C49.6395 121.55 48.8331 120.538 47.958 119.903C47.0829 119.268 46.3622 119.543 46.6539 121.173C46.9285 122.803 48.7129 124.038 48.7129 124.038L48.8845 124.57C48.3011 126.801 46.9285 132.6 46.9285 132.6L43.2051 133.836Z" fill="white"/>
<path d="M56.8117 138.314C56.7602 138.314 56.7087 138.314 56.6573 138.297L43.0506 134.385C42.8104 134.316 42.6388 134.093 42.6388 133.853C42.6388 133.613 42.7932 133.39 43.0334 133.304L46.448 132.154C46.7397 130.953 47.7863 126.578 48.3011 124.587L48.2325 124.382C47.752 124.004 46.3793 122.82 46.1048 121.259C45.9161 120.195 46.0876 119.491 46.6196 119.165C46.8769 118.994 47.4603 118.822 48.3011 119.423C48.4727 119.543 48.6271 119.68 48.7987 119.8C48.833 119.817 48.8502 119.852 48.8845 119.869C48.8845 119.852 48.8845 119.835 48.8845 119.817C48.7644 118.805 48.936 118.016 49.3992 117.484C49.8453 116.969 50.4974 116.712 51.3896 116.677C51.8872 116.66 52.4363 116.197 52.9682 115.751C53.6545 115.167 54.4438 114.498 55.3875 114.653C56.0739 114.756 56.6744 115.27 57.2578 116.214C57.275 116.248 57.2921 116.283 57.3093 116.317C57.8927 117.93 58.9393 120.384 59.4369 120.83C59.9688 121.293 60.0375 121.808 60.0032 122.168C59.9517 122.666 59.66 123.095 59.334 123.386L59.7286 126.852C59.7801 127.35 59.5914 127.83 59.1967 128.139C58.4761 128.705 56.9833 129.632 54.7184 129.735L54.7012 130.353L58.579 130.919C58.7334 130.936 58.8879 131.039 58.9737 131.159C59.0594 131.296 59.0938 131.451 59.0423 131.622L57.4294 137.868C57.3951 138.022 57.2921 138.143 57.1549 138.211C57.0176 138.297 56.9146 138.314 56.8117 138.314ZM45.1096 133.784L56.417 137.044L57.7382 131.966L53.9805 131.416C53.6888 131.382 53.4829 131.125 53.5001 130.833L53.5687 129.169C53.5859 128.86 53.8433 128.62 54.1521 128.62C56.3827 128.654 57.8069 127.779 58.4761 127.264C58.5619 127.195 58.5962 127.093 58.5962 126.99L58.1672 123.198C58.15 122.975 58.253 122.751 58.4417 122.649C58.6305 122.546 58.8364 122.288 58.8707 122.065C58.8707 122.014 58.8879 121.876 58.682 121.688C57.824 120.933 56.5543 117.587 56.2626 116.78C55.8851 116.18 55.5248 115.837 55.1988 115.785C54.7698 115.716 54.2551 116.163 53.6888 116.626C53.0368 117.175 52.299 117.81 51.4068 117.827C50.8577 117.844 50.4802 117.981 50.2572 118.239C49.9998 118.53 49.9311 119.011 50.0169 119.697C50.1027 120.349 50.1027 120.984 49.6223 121.242C49.1075 121.533 48.6099 121.121 48.0952 120.71C47.9579 120.589 47.8035 120.469 47.6491 120.366C47.4432 120.212 47.2887 120.161 47.2201 120.161C47.1858 120.229 47.1172 120.469 47.2201 121.087C47.426 122.237 48.5928 123.283 49.0389 123.592C49.1419 123.661 49.2105 123.764 49.262 123.884L49.4335 124.416C49.4679 124.519 49.4679 124.622 49.4507 124.742C48.8845 126.938 47.5118 132.703 47.4946 132.755C47.4432 132.944 47.3059 133.098 47.1172 133.167L45.1096 133.784Z" fill="black"/>
<path d="M53.8776 129.769C51.6985 129.769 50.5661 127.213 50.5317 127.11C50.4116 126.818 50.5489 126.492 50.8234 126.372C51.1151 126.252 51.4411 126.389 51.5612 126.664C51.5784 126.698 52.5221 128.791 54.0492 128.637C54.3581 128.602 54.6326 128.825 54.6669 129.134C54.7012 129.443 54.4782 129.718 54.1693 129.752C54.0835 129.752 53.9806 129.769 53.8776 129.769Z" fill="black"/>
<path d="M305.078 167.947C305.043 167.947 305.026 167.947 304.992 167.947C304.683 167.896 304.46 167.621 304.511 167.312C310.482 125.926 295.658 86.3242 295.503 85.9295C295.383 85.6378 295.537 85.3118 295.829 85.1917C296.121 85.0888 296.447 85.226 296.567 85.5177C296.721 85.9124 311.649 125.789 305.644 167.467C305.592 167.741 305.352 167.947 305.078 167.947Z" fill="white"/>
<path d="M301.217 143.874C300.908 143.874 300.651 143.633 300.651 143.325C300.308 130.85 298.575 117.947 295.486 104.941C295.417 104.632 295.606 104.323 295.915 104.255C296.224 104.186 296.533 104.375 296.601 104.684C299.69 117.759 301.44 130.747 301.783 143.29C301.783 143.616 301.543 143.874 301.217 143.874Z" fill="white"/>
</g>
<defs>
<clipPath id="clip0_312_114">
<rect width="314" height="314" fill="white"/>
</clipPath>
</defs>
</svg>
