<svg width="55" height="28" viewBox="0 0 55 28" fill="none" xmlns="http://www.w3.org/2000/svg">
<g clip-path="url(#clip0_87_114)">
<path d="M30.7322 11.5071C29.5616 10.8343 28.3386 10.265 27.0632 9.78189C26.4343 9.54037 26.1547 8.79853 26.5042 8.22921L26.8361 7.6599L29.9984 2.26002L31.0642 0.43131C31.2214 0.155278 31.5184 -0.0172424 31.8329 -0.0172424H39.6776C39.9921 -0.0172424 40.2891 0.155278 40.4463 0.43131L50.0207 16.8207C50.2129 17.1658 50.0381 17.5798 49.6538 17.7006C48.4832 18.0456 47.2602 18.2181 45.9848 18.2181C45.1986 18.2181 44.4298 18.0111 43.7834 17.6316C43.1195 17.252 42.5604 16.7172 42.1585 16.0271L36.6376 6.59027C36.2357 5.90019 35.2399 5.90019 34.838 6.59027L33.5451 8.81578L32.2173 11.093C31.9203 11.6279 31.2564 11.8176 30.7322 11.5071Z" fill="#0099FF"/>
<path d="M54.4409 26.4128C52.7287 27.0856 50.9117 27.5687 49.0248 27.8102C48.0814 27.931 47.1204 28 46.1246 28.0173H45.8275C43.9581 28 42.1411 27.7757 40.4114 27.3444C36.358 26.3438 32.7415 24.2563 29.8761 21.4442C29.0899 20.6679 28.2513 19.9951 27.3777 19.4085L26.8012 20.3919V20.4091L26.1198 21.565L26.1023 21.5823C23.7087 25.2569 19.6379 27.7412 14.9556 28C14.6935 28.0173 14.4314 28.0173 14.1693 28.0173C10.4305 28.0173 7.02353 26.5853 4.49018 24.2563C2.79545 22.7036 1.50257 20.7542 0.733823 18.5459C-0.122276 16.0789 -0.29699 13.284 0.436809 10.4202C1.74717 5.34812 5.87042 1.41466 11.042 0.327786C15.7243 -0.655578 20.1271 0.638322 23.3244 3.29513L23.4991 3.4504C23.9009 3.77819 23.9184 4.36475 23.5515 4.72705L20.2669 7.98767C19.9349 8.31546 19.4282 8.33272 19.0613 8.03943C17.7335 6.96981 16.0213 6.33148 14.1868 6.33148C10.0286 6.33148 6.62169 9.57486 6.44698 13.6291C6.44698 13.7498 6.44698 13.8706 6.44698 13.9914C6.44698 16.2169 7.4079 18.2181 8.94539 19.6328C10.3256 20.8922 12.1776 21.6513 14.2043 21.6513C17.0172 21.6513 19.4632 20.1848 20.8259 17.9766V17.9593L21.0181 17.6315L21.4025 16.9587C21.385 16.9587 21.3676 16.9587 21.3501 16.9415C20.0747 16.6999 18.7818 16.6309 17.4889 16.6999C15.8815 16.7862 14.2742 17.0967 12.7367 17.666C12.4746 17.7523 12.1951 17.7351 11.9679 17.597C10.7449 16.8552 9.92379 15.5095 9.92379 13.9914C9.92379 13.2495 10.116 12.5595 10.4479 11.9556C10.5528 11.7659 10.7275 11.6106 10.9371 11.5416C12.7367 10.9378 14.5887 10.541 16.4756 10.403C16.9473 10.3685 17.4365 10.3339 17.9257 10.3339C18.9914 10.3167 20.0572 10.3685 21.1055 10.4892C22.0315 10.5927 22.94 10.7652 23.831 10.9895C26.4517 11.6278 28.8977 12.6975 31.0642 14.1466C32.2697 14.9402 33.4054 15.8718 34.4536 16.907C37.284 19.7018 41.1627 21.4787 45.4432 21.6168C45.6354 21.6168 45.8101 21.634 46.0023 21.634C47.9066 21.634 49.7586 21.3062 51.4533 20.7197C51.8552 20.5816 52.3094 20.7369 52.5366 21.1164L54.8952 25.1534C55.1573 25.602 54.9476 26.2058 54.4409 26.4128Z" fill="#0099FF"/>
</g>
<defs>
<clipPath id="clip0_87_114">
<rect width="55" height="28" fill="white"/>
</clipPath>
</defs>
</svg>
