<svg width="179" height="33" viewBox="0 0 179 33" fill="none" xmlns="http://www.w3.org/2000/svg">
<g clip-path="url(#clip0_530_28)">
<path d="M34.8279 13.7886C33.5122 12.9983 32.1158 12.3443 30.6658 11.7993C29.9408 11.5268 29.6454 10.6548 30.0213 10.0008L30.3972 9.34682L33.9687 3.05202L35.177 0.926506C35.365 0.599504 35.6872 0.408752 36.0632 0.408752H44.9514C45.3273 0.408752 45.6496 0.599504 45.8375 0.926506L56.686 20.0017C56.9009 20.3832 56.7129 20.9009 56.2832 21.0372C54.9675 21.4459 53.5711 21.6367 52.1211 21.6367C51.2349 21.6367 50.3756 21.3914 49.6238 20.9554C48.8719 20.5194 48.2274 19.8927 47.7978 19.1024L41.5411 8.12056C41.0846 7.3303 39.9568 7.3303 39.5003 8.12056L38.0234 10.7093L36.5197 13.3526C36.1706 13.9249 35.4187 14.1156 34.8279 13.7886Z" fill="#0099FF"/>
<path d="M61.7071 31.1197C59.7737 31.91 57.7061 32.455 55.5847 32.7547C54.5106 32.891 53.4096 32.9727 52.3087 32.9727H51.9865C49.8651 32.9727 47.7974 32.7002 45.8372 32.1825C41.2454 31.0107 37.1369 28.5855 33.8877 25.2882C33.0016 24.3889 32.0618 23.5987 31.0414 22.9174L30.3969 24.0619V24.0892L29.6182 25.4517V25.4789C26.906 29.7572 22.2874 32.6457 16.9705 32.9455C16.6752 32.9727 16.3798 32.9727 16.0844 32.9727C11.8417 32.9727 8.00175 31.3105 5.12851 28.5855C3.19512 26.7869 1.71822 24.5252 0.858933 21.9637C-0.107764 19.0751 -0.322585 15.8324 0.509848 12.5078C1.98675 6.59455 6.65911 2.01651 12.513 0.763005C17.8298 -0.381503 22.8244 1.11726 26.4495 4.22378L26.6644 4.38728C27.1209 4.76879 27.1477 5.45004 26.7181 5.88604L22.9587 9.67382C22.5828 10.0553 21.992 10.0826 21.5892 9.72832C20.0855 8.47481 18.1521 7.73906 16.0576 7.73906C11.3315 7.73906 7.49155 11.4996 7.27673 16.2411C7.27673 16.3774 7.27673 16.5136 7.27673 16.6499C7.27673 19.2386 8.37769 21.5822 10.1231 23.2172C11.6806 24.6887 13.7751 25.5607 16.0844 25.5607C19.253 25.5607 22.0457 23.8439 23.6032 21.2824L23.818 20.9009L24.2476 20.1107H24.1671C22.717 19.8382 21.2401 19.7291 19.7901 19.8109C17.9641 19.9199 16.1381 20.2742 14.3927 20.9282C14.0973 21.0372 13.7751 21.0099 13.5066 20.8464C12.1102 19.9744 11.1972 18.4211 11.1972 16.6499C11.1972 15.8051 11.412 14.9876 11.788 14.2791C11.9222 14.0611 12.1102 13.8704 12.3519 13.7886C14.3927 13.0801 16.4872 12.6441 18.6086 12.4533C19.1456 12.3988 19.7095 12.3716 20.2466 12.3716C21.4549 12.3443 22.6633 12.3988 23.8717 12.5623C24.9189 12.6986 25.9393 12.8893 26.9597 13.1346C29.9135 13.8704 32.7062 15.1239 35.1767 16.8134C36.5462 17.7399 37.8351 18.8026 39.0166 20.0289C42.2389 23.2989 46.6159 25.3427 51.4762 25.5062C51.6911 25.5062 51.9059 25.5334 52.1207 25.5334C54.2958 25.5334 56.3634 25.1519 58.2968 24.4707C58.7533 24.3072 59.2635 24.4979 59.5321 24.9339L62.1905 29.621C62.5127 30.1932 62.271 30.9017 61.7071 31.1197Z" fill="#0099FF"/>
<path d="M84.1831 6.5128V7.3848C84.1831 11.0636 81.5516 13.7614 77.9265 13.7614C74.2476 13.7614 71.4818 10.9818 71.4818 7.30305C71.4818 3.62428 74.2745 0.817505 77.9802 0.817505C80.1284 0.817505 82.0349 1.77126 83.109 3.27002L81.2562 4.76878C80.5312 3.81503 79.3765 3.21552 78.0339 3.21552C75.7514 3.21552 74.006 4.95954 74.006 7.30305C74.006 9.64657 75.7245 11.3906 78.007 11.3906C79.7793 11.3906 81.2025 10.3278 81.5784 8.77457H78.2487V6.54005H84.1831V6.5128Z" fill="#0099FF"/>
<path d="M88.1305 0.490509H85.8212V13.5434H88.1305V0.490509Z" fill="#0099FF"/>
<path d="M89.7954 8.91081C89.7954 6.15854 91.8899 4.06027 94.6826 4.06027C97.4753 4.06027 99.5698 6.13129 99.5698 8.91081C99.5698 11.6903 97.4753 13.7613 94.6826 13.7613C91.9168 13.7613 89.7954 11.6631 89.7954 8.91081ZM97.2068 8.91081C97.2068 7.46655 96.1595 6.34929 94.7095 6.34929C93.2863 6.34929 92.2122 7.46655 92.2122 8.91081C92.2122 10.3551 93.2863 11.4723 94.7095 11.4723C96.1326 11.4723 97.2068 10.3551 97.2068 8.91081Z" fill="#0099FF"/>
<path d="M110.955 8.91082C110.955 11.6631 109.076 13.7614 106.525 13.7614C105.316 13.7614 104.296 13.2709 103.571 12.4261V13.5434H101.235V0.490509H103.544V5.39555C104.269 4.55079 105.289 4.06029 106.498 4.06029C109.076 4.08754 110.955 6.15855 110.955 8.91082ZM108.565 8.91082C108.565 7.46656 107.518 6.3493 106.068 6.3493C104.645 6.3493 103.571 7.46656 103.571 8.91082C103.571 10.3551 104.645 11.4723 106.068 11.4723C107.518 11.4723 108.565 10.3551 108.565 8.91082Z" fill="#0099FF"/>
<path d="M121.884 4.30553V13.5433H119.575V12.4261C118.85 13.2436 117.83 13.7613 116.621 13.7613C114.097 13.7613 112.164 11.6903 112.164 8.91081C112.164 6.13129 114.07 4.08752 116.594 4.08752C117.803 4.08752 118.823 4.60528 119.548 5.42278V4.30553H121.884ZM119.575 8.91081C119.575 7.46655 118.501 6.34929 117.051 6.34929C115.628 6.34929 114.554 7.46655 114.554 8.91081C114.554 10.3551 115.628 11.4723 117.051 11.4723C118.501 11.4723 119.575 10.3551 119.575 8.91081Z" fill="#0099FF"/>
<path d="M126.422 0.490509H124.113V13.5434H126.422V0.490509Z" fill="#0099FF"/>
<path d="M140.628 11.1181H135.338L134.451 13.5434H131.793L136.546 1.03552H139.446L144.199 13.5434H141.514L140.628 11.1181ZM139.768 8.80183L137.969 3.78779L136.143 8.80183H139.768Z" fill="#0099FF"/>
<path d="M147.797 0.490509H145.488V13.5434H147.797V0.490509Z" fill="#0099FF"/>
<path d="M152.335 0.490509H150.026V13.5434H152.335V0.490509Z" fill="#0099FF"/>
<path d="M154.269 1.47151C154.269 0.626755 154.913 0 155.746 0C156.578 0 157.222 0.626755 157.222 1.47151C157.222 2.31627 156.578 2.94302 155.746 2.94302C154.913 2.94302 154.269 2.28902 154.269 1.47151ZM154.564 4.30553H156.873V13.5434H154.564V4.30553Z" fill="#0099FF"/>
<path d="M168.125 9.75557H161.062C161.385 10.9273 162.351 11.6631 163.667 11.6631C164.768 11.6631 165.681 11.1453 166.164 10.5186L167.722 11.9083C166.782 13.0528 165.305 13.7613 163.587 13.7613C160.687 13.7613 158.538 11.6631 158.538 8.88356C158.538 6.15854 160.633 4.08752 163.372 4.08752C166.111 4.08752 168.152 6.15854 168.152 8.93806C168.152 9.18331 168.152 9.51032 168.125 9.75557ZM161.036 8.0388H165.681C165.386 6.86705 164.473 6.13129 163.372 6.13129C162.217 6.13129 161.331 6.8943 161.036 8.0388Z" fill="#0099FF"/>
<path d="M179 0.490509V13.5434H176.691V12.4261C175.966 13.2436 174.945 13.7614 173.737 13.7614C171.213 13.7614 169.279 11.6903 169.279 8.91082C169.279 6.1313 171.186 4.08754 173.71 4.08754C174.918 4.08754 175.939 4.60529 176.664 5.4228V0.517759H179V0.490509ZM176.691 8.91082C176.691 7.46656 175.617 6.3493 174.166 6.3493C172.743 6.3493 171.669 7.46656 171.669 8.91082C171.669 10.3551 172.743 11.4723 174.166 11.4723C175.617 11.4723 176.691 10.3551 176.691 8.91082Z" fill="#0099FF"/>
<path d="M71.2671 28.7762L72.5292 26.8687C73.5227 27.8224 74.9996 28.5037 76.396 28.5037C77.6312 28.5037 78.6516 27.9315 78.6516 27.0594C78.6516 25.9967 77.2552 25.6697 75.9932 25.3699C73.6301 24.7977 71.6967 23.6804 71.6967 21.4732C71.6967 19.2386 73.6033 17.7944 76.3691 17.7944C78.1951 17.7944 79.7257 18.4484 80.6387 19.3476L79.484 21.2279C78.7858 20.5466 77.5506 20.0016 76.3154 20.0016C75.0802 20.0016 74.2209 20.5739 74.2209 21.3369C74.2209 22.2907 75.5098 22.7267 76.6376 22.9719C77.7923 23.2172 81.1489 24.0619 81.1489 26.9232C81.1489 29.1577 79.0544 30.711 76.3422 30.711C74.4894 30.7382 72.5292 29.948 71.2671 28.7762Z" fill="#0099FF"/>
<path d="M82.2229 25.8877C82.2229 23.1354 84.3174 21.0372 87.1101 21.0372C89.9028 21.0372 91.9973 23.1082 91.9973 25.8877C91.9973 28.6672 89.9028 30.7382 87.1101 30.7382C84.3443 30.7382 82.2229 28.6672 82.2229 25.8877ZM89.6342 25.8877C89.6342 24.4434 88.587 23.3262 87.1369 23.3262C85.7137 23.3262 84.6396 24.4434 84.6396 25.8877C84.6396 27.332 85.7137 28.4492 87.1369 28.4492C88.5601 28.4492 89.6342 27.3592 89.6342 25.8877Z" fill="#0099FF"/>
<path d="M95.9983 17.4674H93.689V30.5202H95.9983V17.4674Z" fill="#0099FF"/>
<path d="M98.066 26.8415V21.2824H100.375V26.5145C100.375 27.6862 101.154 28.4492 102.309 28.4492C103.463 28.4492 104.242 27.6862 104.242 26.5145V21.2824H106.551V26.8415C106.551 29.185 104.86 30.7382 102.309 30.7382C99.7578 30.7382 98.066 29.2122 98.066 26.8415Z" fill="#0099FF"/>
<path d="M111.761 23.4352V27.2775C111.761 28.0677 112.19 28.4492 113.023 28.4492C113.479 28.4492 113.882 28.313 114.231 28.1495V30.3295C113.721 30.602 113.211 30.7382 112.54 30.7382C110.445 30.7382 109.478 29.512 109.478 27.659V23.4352H108.028V21.2824H109.478V18.9389H111.788V21.2824H114.231V23.4352H111.761Z" fill="#0099FF"/>
<path d="M115.628 18.4484C115.628 17.6036 116.272 16.9769 117.105 16.9769C117.937 16.9769 118.581 17.6036 118.581 18.4484C118.581 19.2931 117.937 19.9199 117.105 19.9199C116.272 19.9199 115.628 19.2931 115.628 18.4484ZM115.923 21.2824H118.232V30.5202H115.923V21.2824Z" fill="#0099FF"/>
<path d="M119.897 25.8877C119.897 23.1354 121.992 21.0372 124.784 21.0372C127.577 21.0372 129.672 23.1082 129.672 25.8877C129.672 28.6672 127.577 30.7382 124.784 30.7382C122.019 30.7382 119.897 28.6672 119.897 25.8877ZM127.309 25.8877C127.309 24.4434 126.261 23.3262 124.811 23.3262C123.388 23.3262 122.314 24.4434 122.314 25.8877C122.314 27.332 123.388 28.4492 124.811 28.4492C126.234 28.4492 127.309 27.3592 127.309 25.8877Z" fill="#0099FF"/>
<path d="M140.117 24.6614V30.5202H137.808V25.4245C137.808 24.1709 137.029 23.3534 135.821 23.3534C134.559 23.3534 133.699 24.1982 133.699 25.4517V30.5202H131.39V21.2824H133.699V22.3179C134.424 21.5004 135.418 21.0644 136.6 21.0644C138.694 21.0644 140.117 22.4814 140.117 24.6614Z" fill="#0099FF"/>
<path d="M141.46 29.3212L142.588 27.768C143.286 28.3947 144.172 28.8035 145.246 28.8035C146.186 28.8035 146.857 28.5037 146.857 27.9315C146.857 27.3047 146.079 27.0867 145.085 26.8687C143.635 26.5417 141.755 26.0785 141.755 23.9802C141.755 22.0182 143.447 21.0644 145.461 21.0644C147.018 21.0644 148.173 21.6367 149.006 22.2907L147.878 23.8712C147.206 23.3534 146.455 23.0264 145.515 23.0264C144.736 23.0264 144.092 23.2717 144.092 23.8167C144.092 24.4434 144.87 24.6342 145.864 24.8522C147.314 25.1792 149.194 25.6425 149.194 27.7407C149.194 29.7027 147.475 30.7655 145.3 30.7655C143.608 30.7382 142.346 30.0842 141.46 29.3212Z" fill="#0099FF"/>
<path d="M66.0308 22.0454C67.4808 22.0454 68.6624 23.2444 68.6624 24.716C68.6624 26.1875 67.4808 27.3865 66.0308 27.3865C64.5807 27.3865 63.3992 26.1875 63.3992 24.716C63.4261 23.2444 64.5807 22.0454 66.0308 22.0454ZM66.0308 21.5004C64.2585 21.5004 62.8353 22.9447 62.8353 24.7432C62.8353 26.5417 64.2585 27.986 66.0308 27.986C67.8031 27.986 69.2263 26.5417 69.2263 24.7432C69.2263 22.9447 67.8031 21.5004 66.0308 21.5004Z" fill="#0099FF"/>
<path d="M66.0039 25.2064H65.6011V26.2147H64.9567V23.2172H66.1382C66.7289 23.2172 67.1586 23.6259 67.1586 24.1982C67.1586 24.5797 66.9438 24.9067 66.6215 25.0702L67.266 26.2147H66.5947L66.0039 25.2064ZM65.6011 24.6069H66.1113C66.3799 24.6069 66.541 24.4434 66.541 24.2254C66.541 24.0074 66.3799 23.8439 66.1113 23.8439H65.6011V24.6069Z" fill="#0099FF"/>
</g>
<defs>
<clipPath id="clip0_530_28">
<rect width="179" height="33" fill="white"/>
</clipPath>
</defs>
</svg>
