<svg width="55" height="62" viewBox="0 0 55 62" fill="none" xmlns="http://www.w3.org/2000/svg">
<g clip-path="url(#clip0_100_664)">
<path d="M45.8688 0.632996C46.308 0.776455 46.7629 0.903974 47.1864 1.07931C49.7588 2.21105 50.9509 5.23963 49.8686 7.86971C49.7902 8.07693 49.6961 8.26821 49.5706 8.55513C49.8215 8.57107 50.0255 8.58701 50.2137 8.58701C52.8488 8.66671 54.7468 10.4839 54.9664 13.1618C54.9821 13.353 54.982 13.5603 54.982 13.7515C54.982 23.8096 54.982 33.8677 54.982 43.9258C54.982 46.3168 53.79 48.1498 51.7665 48.8193C51.1234 49.0265 50.4176 49.1062 49.7431 49.1062C44.0023 49.1222 38.2614 49.1222 32.5048 49.1222C32.2852 49.1222 32.0813 49.1222 31.7833 49.1222C32.0186 50.1105 32.2225 51.035 32.4421 51.9435C32.646 52.8362 32.8656 53.7288 33.0538 54.6215C33.1166 54.9403 33.2577 55.0837 33.6028 55.0678C34.34 55.0359 35.0929 55.0518 35.8302 55.0678C38.2614 55.0678 39.6888 56.5183 39.7201 59.0049C39.7201 59.1165 39.7201 59.244 39.7201 59.4512C40.5985 59.4512 41.4612 59.4512 42.3082 59.4512C42.7004 59.4512 43.0925 59.4353 43.4846 59.4672C44.1277 59.515 44.5826 60.0091 44.5826 60.6308C44.5826 61.2684 44.1434 61.7625 43.516 61.8263C43.3435 61.8422 43.1709 61.8422 42.9827 61.8422C32.8029 61.8422 22.6387 61.8422 12.4589 61.8422C12.302 61.8422 12.1452 61.8422 11.9883 61.8422C11.3138 61.7944 10.8433 61.3003 10.859 60.6467C10.859 59.9932 11.3295 59.4831 12.0197 59.4672C13.0549 59.4512 14.0902 59.4672 15.1411 59.4512C15.3136 59.4512 15.4862 59.4512 15.6901 59.4512C15.7371 58.9252 15.7371 58.4311 15.8312 57.9529C16.145 56.3908 17.3684 55.259 18.9213 55.1315C19.8938 55.0518 20.882 55.1156 21.8544 55.0678C22.027 55.0678 22.325 54.8924 22.3564 54.749C22.8113 52.9159 23.2348 51.0828 23.6896 49.1381C23.4073 49.1381 23.1877 49.1381 22.9524 49.1381C17.1488 49.1381 11.3452 49.1381 5.54161 49.1381C3.03194 49.1381 1.13401 47.7035 0.600704 45.3763C0.553648 44.9459 0.506592 44.4677 0.506592 44.0214C0.506592 33.9155 0.506592 23.8256 0.506592 13.7197C0.506592 11.1533 1.96534 9.20866 4.27109 8.71453C4.74165 8.61889 5.24359 8.61889 5.72984 8.61889C15.9881 8.61889 26.2307 8.61889 36.4889 8.61889C36.9438 8.61889 37.2262 8.49137 37.4928 8.09287C38.3241 6.76986 39.2496 5.49467 40.0495 4.15571C41.0691 2.4342 42.3239 1.07931 44.3316 0.648936C44.8493 0.632996 45.3669 0.632996 45.8688 0.632996ZM2.92215 38.6815C2.92215 40.7697 2.87509 42.7462 2.93783 44.7387C2.9692 45.5676 3.51819 46.1892 4.27109 46.4921C4.72597 46.6834 5.25927 46.7312 5.76121 46.7471C20.4271 46.7631 35.0929 46.7631 49.7588 46.7631C49.9941 46.7631 50.2294 46.7631 50.4646 46.7312C51.7038 46.5718 52.5822 45.711 52.6292 44.4518C52.692 42.6028 52.6449 40.7537 52.6449 38.8888C52.6449 38.8409 52.5979 38.7931 52.5508 38.6975C52.3155 38.6975 52.0646 38.6975 51.8136 38.6975C39.9711 38.6975 28.1286 38.6975 16.2861 38.6975C16.0508 38.6975 15.8156 38.6975 15.5803 38.6815C14.9529 38.6178 14.5137 38.1715 14.498 37.5658C14.4666 36.96 14.8744 36.45 15.4862 36.3543C15.7528 36.3065 16.0352 36.3065 16.3018 36.3065C28.1443 36.3065 39.9868 36.3065 51.8293 36.3065C52.0959 36.3065 52.3626 36.3065 52.6763 36.3065C52.6763 36.0196 52.6763 35.8124 52.6763 35.6211C52.6763 28.3525 52.6763 21.0839 52.6763 13.7994C52.6763 13.624 52.6763 13.4327 52.6606 13.2574C52.5351 11.9344 51.594 11.0418 50.2921 10.9939C49.6333 10.978 48.9589 11.0099 48.3001 10.978C47.8609 10.9461 47.5785 11.1055 47.3119 11.4562C44.0964 15.4571 40.8965 19.4421 37.6497 23.4271C37.1477 24.0328 36.834 24.5907 37.1634 25.3877C37.2732 25.6746 37.2418 26.0093 37.2732 26.3281C37.4458 29.2292 35.6106 31.8274 32.897 32.3534C31.8147 32.5606 30.6697 32.4809 29.556 32.449C27.8306 32.4012 26.1993 32.5766 24.8504 33.8518C24.1916 34.4734 23.2191 34.1227 22.9838 33.246C22.4034 31.0623 22.0427 28.8626 22.2466 26.5832C22.6387 22.2794 25.4621 19.5058 29.6972 19.2827C29.9324 19.2667 30.2618 19.1073 30.3873 18.9001C32.05 16.4294 33.6656 13.9428 35.2968 11.4562C35.3753 11.3287 35.438 11.2012 35.5321 10.9939C35.2655 10.9939 35.0616 10.9939 34.8733 10.9939C25.1327 10.9939 15.3921 10.9939 5.63572 10.9939C3.78484 10.9939 2.8594 11.9344 2.8594 13.7994C2.8594 21.068 2.8594 28.3365 2.8594 35.6211C2.8594 35.8283 2.8594 36.0355 2.8594 36.3065C3.87896 36.3065 4.82008 36.3065 5.76121 36.3065C6.02786 36.3065 6.3102 36.3224 6.57685 36.3862C7.11015 36.5297 7.45523 37.0716 7.39249 37.6136C7.32975 38.2193 6.89056 38.6656 6.24745 38.6815C5.14948 38.6975 4.0515 38.6815 2.92215 38.6815ZM39.4064 17.4496C39.7986 16.9555 40.1593 16.5251 40.5201 16.0788C42.7317 13.3371 44.9434 10.5954 47.155 7.86971C47.8452 7.0249 48.1275 6.10038 47.7981 5.03241C47.453 3.91662 46.6845 3.24714 45.5708 3.0718C44.4571 2.88052 43.5003 3.29496 42.8572 4.25135C40.5515 7.71031 38.2771 11.1852 35.987 14.6601C35.9556 14.7079 35.9556 14.7717 35.9399 14.8355C36.0341 14.9151 36.1282 14.9949 36.2223 15.0586C37.2575 15.8397 38.2928 16.6207 39.4064 17.4496ZM24.819 30.8869C26.6699 30.1378 27.7835 29.9784 29.9011 30.0899C30.5599 30.1218 31.2343 30.1218 31.8931 30.0899C34.042 29.9943 35.5635 27.7149 34.6067 25.021C34.5596 24.8776 34.4028 24.7341 34.2616 24.6385C33.0538 23.714 31.8461 22.8054 30.6226 21.8968C30.4814 21.8012 30.3246 21.6896 30.1677 21.6737C28.1757 21.4027 25.8385 22.7735 25.07 24.6863C24.2386 26.7107 24.4425 28.7669 24.819 30.8869ZM37.3673 59.4353C37.4771 57.921 37.085 57.4747 35.689 57.4747C30.3559 57.4747 25.0386 57.4747 19.7055 57.4747C18.4037 57.4747 17.9174 58.0964 18.1997 59.4353C24.568 59.4353 30.952 59.4353 37.3673 59.4353ZM26.1366 49.1541C25.6817 51.1147 25.2268 53.0434 24.7562 55.0359C26.7797 55.0359 28.7247 55.0359 30.7481 55.0359C30.2775 53.0434 29.8226 51.0987 29.3678 49.1541C28.2698 49.1541 27.2345 49.1541 26.1366 49.1541ZM35.3439 22.4707C36.2223 21.3708 37.0536 20.3507 37.9006 19.2986C36.7556 18.4379 35.689 17.6409 34.5753 16.7961C33.8067 17.9597 33.0852 19.0755 32.3323 20.2072C33.3519 20.9723 34.3244 21.7055 35.3439 22.4707Z" fill="#0099FF"/>
<path d="M10.9217 38.6816C10.2786 38.6656 9.76099 38.1555 9.76099 37.502C9.76099 36.8644 10.2943 36.3224 10.9217 36.3224C11.5805 36.3224 12.1295 36.8803 12.0981 37.5498C12.0824 38.1874 11.5648 38.6816 10.9217 38.6816Z" fill="#0099FF"/>
</g>
<defs>
<clipPath id="clip0_100_664">
<rect width="54.4911" height="61.2092" fill="white" transform="translate(0.506592 0.632996)"/>
</clipPath>
</defs>
</svg>
