<svg width="64" height="63" viewBox="0 0 64 63" fill="none" xmlns="http://www.w3.org/2000/svg">
<g clip-path="url(#clip0_100_667)">
<path d="M32.1655 0.125919C32.9003 0.48515 33.1452 1.07298 33.1289 1.85676C33.0962 3.37533 33.1125 4.91022 33.1125 6.42879C33.1125 6.96764 32.9819 7.44117 32.4921 7.73509C31.7573 8.19229 30.6469 7.86571 30.5979 7.01662C30.4836 5.0082 30.5326 2.99977 30.6143 0.991339C30.6306 0.681094 31.1531 0.403507 31.4307 0.0932617C31.6756 0.125919 31.9369 0.125919 32.1655 0.125919Z" fill="#0099FF"/>
<path d="M0.455171 31.1178C0.814402 30.383 1.40224 30.1381 2.18601 30.1544C3.73724 30.187 5.27213 30.1544 6.82336 30.1707C7.85207 30.187 8.5542 31.0035 8.19497 31.8362C8.04801 32.1955 7.62346 32.6853 7.29689 32.7017C5.33745 32.7833 3.36168 32.7833 1.38591 32.7017C1.05933 32.6853 0.749088 32.1628 0.438843 31.8689C0.455171 31.6076 0.455171 31.3464 0.455171 31.1178Z" fill="#0099FF"/>
<path d="M34.6638 26.2354C34.9577 26.2354 35.1699 26.2354 35.3986 26.2354C38.0111 26.2354 40.6237 26.2354 43.2363 26.2354C43.8405 26.2354 44.3793 26.3498 44.7059 26.9213C45.0488 27.5254 44.8202 28.0479 44.4773 28.5705C39.4317 36.2123 34.4025 43.8541 29.3733 51.5123C29.0467 52.0184 28.6548 52.4103 28.0017 52.3613C27.1852 52.3124 26.6954 51.6266 26.826 50.6958C27.0383 49.0793 27.2505 47.4627 27.4628 45.8462C27.969 42.0416 28.4752 38.2534 28.9814 34.4488C28.9977 34.3508 28.9814 34.2528 28.9814 34.0732C28.7364 34.0732 28.5242 34.0732 28.3119 34.0732C25.683 34.0732 23.0541 34.0732 20.4088 34.0732C19.772 34.0732 19.2168 33.9752 18.9066 33.3548C18.58 32.7179 18.8576 32.1954 19.2495 31.6729C24.3277 24.9292 29.3733 18.1528 34.4678 11.4253C34.7454 11.0498 35.2189 10.6905 35.6598 10.5926C36.4926 10.413 37.162 11.2457 36.9988 12.1765C36.4762 15.3279 35.9537 18.4957 35.4312 21.6471C35.1699 23.1657 34.925 24.6679 34.6638 26.2354ZM41.1299 28.8807C40.7544 28.8807 40.5421 28.8807 40.3135 28.8807C37.9948 28.8807 35.6598 28.897 33.3411 28.8807C32.1981 28.8807 31.6756 28.2112 31.8716 27.0845C32.2634 24.7985 32.639 22.4962 33.0309 20.2102C33.1942 19.1978 33.3575 18.2017 33.5208 17.1894C33.4881 17.173 33.4554 17.173 33.4228 17.1567C29.8468 21.892 26.2871 26.6437 22.6622 31.477C25.3238 31.477 27.8384 31.477 30.3367 31.477C31.3327 31.477 31.9042 32.1138 31.7736 33.0935C31.398 35.9673 31.0061 38.8249 30.6306 41.6987C30.4673 42.8744 30.3203 44.0664 30.1734 45.242C30.2224 45.2584 30.2713 45.2747 30.3203 45.291C33.8963 39.8699 37.4723 34.4325 41.1299 28.8807Z" fill="#0099FF"/>
<path d="M59.2221 32.7996C58.4057 32.7996 57.5892 32.8159 56.7728 32.7996C55.8911 32.7833 55.3196 32.2608 55.3032 31.4933C55.3032 30.7259 55.8747 30.187 56.7565 30.1707C58.4057 30.1544 60.0549 30.1544 61.7041 30.1707C62.5858 30.187 63.1573 30.7422 63.141 31.5096C63.1247 32.2608 62.5695 32.767 61.7204 32.7996C60.904 32.8159 60.0712 32.7996 59.2221 32.7996Z" fill="#0099FF"/>
<path d="M30.4837 58.9255C30.4837 58.109 30.4674 57.2926 30.4837 56.4762C30.5 55.5781 31.0062 55.0066 31.7737 54.9903C32.5574 54.9739 33.1126 55.5618 33.1126 56.4762C33.1289 58.0764 33.1289 59.6929 33.1126 61.2931C33.1126 62.2239 32.5901 62.8117 31.79 62.8117C31.0062 62.8117 30.5 62.2239 30.4837 61.2931C30.4837 60.5094 30.4837 59.7093 30.4837 58.9255Z" fill="#0099FF"/>
<path d="M15.5429 13.7277C15.5429 14.4625 15.3143 14.8707 14.8081 15.0993C14.253 15.3606 13.7305 15.2463 13.2896 14.8218C12.4242 13.9563 11.5587 13.0909 10.6933 12.2255C10.3341 11.8663 9.95853 11.5234 9.61563 11.1315C9.10944 10.56 9.12577 9.82518 9.64828 9.31899C10.1545 8.8128 10.9056 8.78014 11.4608 9.31899C12.7181 10.5436 13.9591 11.7846 15.1837 13.0419C15.396 13.2542 15.4776 13.5808 15.5429 13.7277Z" fill="#0099FF"/>
<path d="M52.8702 8.92706C53.5887 8.95972 53.9969 9.20465 54.2092 9.67818C54.4704 10.2497 54.3398 10.7559 53.9153 11.1967C52.9682 12.1601 52.0211 13.1072 51.0577 14.0543C50.7801 14.3319 50.5189 14.6094 50.225 14.8707C49.6535 15.3606 48.886 15.3279 48.3962 14.8217C47.9226 14.3319 47.89 13.5644 48.3798 13.0419C49.6208 11.7683 50.8781 10.5109 52.1518 9.28629C52.3967 9.09035 52.7233 8.99238 52.8702 8.92706Z" fill="#0099FF"/>
<path d="M10.7259 54.0269C9.99111 53.9779 9.59923 53.733 9.38695 53.2431C9.15835 52.7206 9.23999 52.2307 9.63188 51.8225C10.3014 51.1204 11.0035 50.4346 11.7056 49.7325C12.2281 49.2099 12.7343 48.6874 13.2732 48.1812C13.8773 47.6097 14.6611 47.5771 15.1836 48.0833C15.7062 48.6058 15.7062 49.4059 15.1346 49.9937C13.959 51.202 12.7507 52.4104 11.5423 53.586C11.2648 53.831 10.8892 53.9453 10.7259 54.0269Z" fill="#0099FF"/>
<path d="M49.5556 47.7404C49.7026 47.822 50.0455 47.92 50.2741 48.1322C51.4987 49.3242 52.7234 50.5326 53.9154 51.7572C54.4869 52.3287 54.4705 53.0962 53.9643 53.6187C53.4418 54.1575 52.6581 54.1575 52.0539 53.5697C50.8456 52.3777 49.6536 51.1857 48.4616 49.9774C48.037 49.5365 47.9227 49.0303 48.1677 48.4588C48.4126 47.9853 48.8208 47.7404 49.5556 47.7404Z" fill="#0099FF"/>
</g>
<defs>
<clipPath id="clip0_100_667">
<rect width="62.7021" height="62.7021" fill="white" transform="translate(0.4552 0.125916)"/>
</clipPath>
</defs>
</svg>
