<svg width="62" height="63" viewBox="0 0 62 63" fill="none" xmlns="http://www.w3.org/2000/svg">
<g clip-path="url(#clip0_100_677)">
<path d="M11.13 40.1592C12.6436 39.1558 14.2593 38.4415 16.0451 38.1184C19.1064 37.5401 21.9976 38.0163 24.7528 39.4619C26.5046 40.3803 28.2563 41.2987 29.974 42.2511C31.1135 42.8804 32.202 42.8634 33.3585 42.2681C35.8586 40.9586 38.3756 39.683 40.8927 38.3905C43.6989 36.9449 46.216 37.4381 48.3249 39.8191C48.3589 39.8531 48.3929 39.8701 48.478 39.9211C50.5699 38.8497 52.6788 37.7782 54.7877 36.6898C56.0632 36.0265 57.4068 35.8054 58.7164 36.3836C59.5157 36.7238 60.298 37.251 60.8763 37.8973C62.2369 39.4109 61.9137 41.4348 60.23 42.5913C57.4238 44.4961 54.5836 46.3839 51.7604 48.2717C48.0018 50.7888 44.2262 53.2719 40.5016 55.84C37.7804 57.7108 34.8551 58.306 31.6067 57.8808C27.593 57.3536 23.5453 56.8774 19.5146 56.5713C17.9159 56.4522 16.2832 56.8774 14.5824 57.0645C14.7355 57.7958 14.8376 58.357 14.9566 58.9013C15.1437 59.8367 14.8886 60.2449 13.9362 60.4489C11.4701 60.9932 9.00405 61.5204 6.52099 62.0476C5.67062 62.2347 5.22843 61.9456 5.04135 61.0952C3.59573 54.2243 2.15012 47.3533 0.704495 40.4654C0.704495 40.4484 0.704495 40.4314 0.687488 40.3973C0.279313 38.3565 0.29632 38.3225 2.30318 37.8973C4.46311 37.4381 6.62303 36.9619 8.78296 36.5027C9.8204 36.2816 10.2116 36.5197 10.4497 37.5911C10.6368 38.4245 10.8068 39.2409 10.9939 40.0742C11.0449 40.0912 11.0619 40.0912 11.13 40.1592ZM18.4091 48.1697C18.6302 48.2037 18.8173 48.2377 18.9873 48.2717C22.1677 49.0371 25.3481 49.8024 28.5284 50.5507C30.8414 51.0949 33.0524 50.8058 35.1102 49.6153C38.8859 47.4044 42.6445 45.1594 46.4031 42.9314C47.2024 42.4552 47.3045 41.877 46.7772 41.1287C45.7228 39.649 43.818 39.1898 42.1172 40.0572C39.4641 41.4008 36.828 42.7614 34.1748 44.1219C32.4401 45.0233 30.7224 44.9893 29.0046 44.0539C27.2869 43.1185 25.5692 42.2001 23.8344 41.3157C19.7697 39.2238 15.824 39.496 12.0314 42.03C11.6062 42.3192 11.5041 42.5913 11.6232 43.0675C12.2695 46.0268 12.8817 49.003 13.511 51.9793C13.7321 53.0508 13.9702 54.1222 14.2083 55.2107C14.5824 55.1257 14.8716 55.0746 15.1607 55.0066C16.6403 54.7005 18.103 54.3093 19.6336 54.4794C23.6643 54.9216 27.7121 55.2957 31.7258 55.84C34.6 56.2311 37.1681 55.7209 39.5662 54.0372C42.5424 51.9453 45.5867 49.9724 48.614 47.9486C52.0665 45.6356 55.536 43.3056 58.9885 40.9756C59.8388 40.4144 59.9069 39.7681 59.2266 39.0198C58.3762 38.1014 57.0667 37.8463 55.8932 38.4415C53.7672 39.513 51.6583 40.6014 49.5494 41.7069C49.3624 41.809 49.1753 42.0641 49.1583 42.2681C49.0222 43.3056 48.512 44.1049 47.6106 44.6322C43.767 46.9281 39.9233 49.2241 36.0456 51.4691C33.8177 52.7616 31.3686 53.1868 28.8516 52.6936C26.5216 52.2344 24.2256 51.6222 21.9126 51.0779C20.62 50.7718 19.3275 50.4657 17.9839 50.1425C18.103 49.4452 18.256 48.833 18.4091 48.1697ZM6.89515 59.8707C8.885 59.4455 10.8238 59.0203 12.8137 58.5951C11.4021 51.9113 10.0245 45.2954 8.62989 38.6286C6.62303 39.0538 4.6842 39.479 2.71136 39.9041C4.10595 46.605 5.50055 53.2038 6.89515 59.8707Z" fill="#0099FF"/>
<path d="M55.587 2.94729C55.587 2.21597 55.587 1.5867 55.587 0.889404C55.8081 0.889404 55.9952 0.889404 56.1993 0.889404C57.6279 0.889404 59.0395 0.889404 60.4681 0.889404C61.3014 0.889404 61.6756 1.26356 61.6926 2.09692C61.7096 3.71261 61.6926 5.32831 61.6926 6.97801C61.0123 6.97801 60.366 6.97801 59.6687 6.97801C59.6687 6.16166 59.6687 5.36232 59.6687 4.40991C59.4136 4.64802 59.2436 4.78407 59.0905 4.93714C55.8931 8.13451 52.6788 11.3319 49.4814 14.5463C48.614 15.4136 48.2228 15.3966 47.3555 14.5293C44.8384 12.0122 42.3043 9.47809 39.7872 6.944C39.6171 6.77393 39.5151 6.56984 39.362 6.33174C39.0729 6.60385 38.9028 6.75692 38.7328 6.90999C35.1612 10.4645 31.6067 14.036 28.0522 17.5906C27.2188 18.4239 26.8107 18.4409 25.9773 17.6076C23.9704 15.6007 21.9466 13.5768 19.9397 11.553C15.4158 16.0769 10.9088 20.5838 6.40191 25.0908C5.84067 24.5125 5.39848 24.0533 4.90527 23.5771C5.04133 23.4241 5.1944 23.271 5.33046 23.1179C9.82038 18.628 14.3103 14.1211 18.8172 9.63115C19.6506 8.79779 20.0588 8.79779 20.8921 9.63115C22.899 11.638 24.9229 13.6619 26.9807 15.7198C27.1678 15.5497 27.3379 15.3966 27.491 15.2436C31.0625 11.672 34.651 8.08349 38.2226 4.51196C39.0219 3.71261 39.4471 3.69561 40.2464 4.51196C42.7805 7.04604 45.3316 9.59714 47.8657 12.1312C48.0358 12.3013 48.1548 12.5054 48.2398 12.6244C51.5393 9.32502 54.7366 6.12765 57.934 2.93028C57.2707 2.94729 56.4544 2.94729 55.587 2.94729Z" fill="#0099FF"/>
<path d="M46.403 26.8425C46.403 24.4275 46.403 21.9955 46.403 19.5804C46.403 18.543 46.7261 18.2198 47.7806 18.2198C48.9201 18.2198 50.0766 18.2198 51.2161 18.2198C52.1515 18.2198 52.5086 18.577 52.5086 19.4784C52.5086 24.4275 52.5086 29.3766 52.5086 34.3428C52.5086 35.2101 52.1344 35.5673 51.2501 35.5673C50.0425 35.5673 48.835 35.5673 47.6105 35.5673C46.7431 35.5673 46.386 35.1931 46.386 34.3087C46.403 31.8257 46.403 29.3426 46.403 26.8425ZM48.4779 20.2947C48.4779 24.7336 48.4779 29.1045 48.4779 33.4754C49.1752 33.4754 49.8045 33.4754 50.4507 33.4754C50.4507 29.0535 50.4507 24.6826 50.4507 20.2947C49.7874 20.2947 49.1582 20.2947 48.4779 20.2947Z" fill="#0099FF"/>
<path d="M28.0352 27.914C28.0352 25.788 28.0352 23.6621 28.0352 21.5362C28.0352 20.6178 28.3923 20.2607 29.3107 20.2607C30.5182 20.2607 31.7257 20.2607 32.9503 20.2607C33.7836 20.2607 34.1578 20.6348 34.1578 21.4682C34.1578 25.754 34.1578 30.0569 34.1578 34.3427C34.1578 35.1761 33.7836 35.5502 32.9503 35.5502C31.7427 35.5672 30.5352 35.5502 29.3107 35.5502C28.3923 35.5502 28.0352 35.1931 28.0352 34.2747C28.0352 32.1658 28.0352 30.0399 28.0352 27.914ZM32.0829 22.3526C31.3686 22.3526 30.7223 22.3526 30.093 22.3526C30.093 26.0942 30.093 29.7848 30.093 33.4924C30.7733 33.4924 31.4196 33.4924 32.0829 33.4924C32.0829 29.7678 32.0829 26.0772 32.0829 22.3526Z" fill="#0099FF"/>
<path d="M43.3419 29.4957C43.3419 31.0944 43.3419 32.676 43.3419 34.2747C43.3419 35.1931 42.9847 35.5673 42.0833 35.5673C40.8758 35.5673 39.6683 35.5673 38.4438 35.5673C37.6104 35.5673 37.2192 35.1931 37.2192 34.3768C37.2192 31.1114 37.2192 27.829 37.2192 24.5636C37.2192 23.7132 37.5934 23.339 38.4097 23.339C39.6343 23.322 40.8758 23.339 42.1003 23.339C42.9677 23.339 43.3249 23.7132 43.3249 24.5976C43.3419 26.2303 43.3419 27.863 43.3419 29.4957ZM41.267 25.3969C40.5697 25.3969 39.9404 25.3969 39.2941 25.3969C39.2941 28.1181 39.2941 30.7882 39.2941 33.4754C39.9744 33.4754 40.6207 33.4754 41.267 33.4754C41.267 30.7712 41.267 28.1011 41.267 25.3969Z" fill="#0099FF"/>
<path d="M24.974 31.5195C24.974 32.4719 24.991 33.4243 24.974 34.3937C24.957 35.1761 24.5828 35.5502 23.7835 35.5672C22.525 35.5843 21.2834 35.5843 20.0249 35.5672C19.2425 35.5672 18.8514 35.1761 18.8514 34.3767C18.8344 32.4379 18.8344 30.5161 18.8514 28.5772C18.8514 27.7779 19.2425 27.4208 20.0419 27.4037C21.3004 27.3867 22.542 27.3867 23.8005 27.4037C24.5828 27.4037 24.957 27.7949 24.974 28.5943C24.974 29.5637 24.974 30.5501 24.974 31.5195ZM20.9263 29.4786C20.9263 30.8562 20.9263 32.1828 20.9263 33.4753C21.6236 33.4753 22.2528 33.4753 22.8821 33.4753C22.8821 32.1148 22.8821 30.8052 22.8821 29.4786C22.2358 29.4786 21.6066 29.4786 20.9263 29.4786Z" fill="#0099FF"/>
<path d="M7.08214 41.0606C7.2352 41.7409 7.35425 42.3532 7.50732 43.0505C6.86104 43.1865 6.23177 43.3226 5.51747 43.4756C5.38141 42.8124 5.24535 42.2001 5.09229 41.5028C5.73856 41.3497 6.36783 41.2137 7.08214 41.0606Z" fill="#0099FF"/>
</g>
<defs>
<clipPath id="clip0_100_677">
<rect width="61.2092" height="61.2092" fill="white" transform="translate(0.517334 0.872375)"/>
</clipPath>
</defs>
</svg>
