<svg width="66" height="66" viewBox="0 0 66 66" fill="none" xmlns="http://www.w3.org/2000/svg">
<g clip-path="url(#clip0_100_686)">
<path d="M0.212402 63.5472C0.801589 63.5603 1.39078 63.5997 1.97996 63.5997C4.49383 63.5997 7.00769 63.5997 9.57393 63.5997C9.57393 58.0055 9.57393 52.4638 9.57393 46.8435C8.93237 46.8435 8.27772 46.8435 7.59688 46.8435C7.59688 44.7343 7.59688 42.6905 7.59688 40.5681C8.94546 40.5681 10.3071 40.5681 11.7474 40.5681C11.7474 39.3498 11.7474 38.2231 11.7474 37.0833C11.7474 34.581 12.8341 33.1399 15.2301 32.4586C16.343 32.1442 17.4559 31.8167 18.5819 31.5154C18.9486 31.4237 19.0664 31.2534 19.0926 30.8603C19.1319 30.035 19.0009 29.3406 18.3725 28.6987C17.5869 27.8995 17.1679 26.8514 17.0632 25.7378C16.9191 24.0609 16.762 22.3578 17.3381 20.7202C18.1368 18.4406 19.7734 17.0257 22.1171 16.5803C24.4345 16.1348 26.4116 16.8947 27.9828 18.6502C29.0433 19.8293 29.5408 21.2442 29.5277 22.8294C29.5277 23.7596 29.5801 24.7029 29.4754 25.6199C29.3313 27.0086 28.7291 28.2008 27.7471 29.2096C27.4983 29.4585 27.3019 31.0437 27.4983 31.3189C27.59 31.4368 27.7733 31.4892 27.9304 31.5285C29.0302 31.8429 30.1169 32.1835 31.2167 32.4586C33.2331 32.9696 34.4376 34.2142 34.7649 36.3758C35.3018 36.3758 35.8386 36.3758 36.3754 36.3758C37.6192 36.3758 38.8762 36.3889 40.12 36.3627C40.3557 36.3627 40.6437 36.2972 40.8008 36.1531C42.5815 34.3976 44.336 32.629 46.0904 30.8603C46.1166 30.8341 46.1297 30.7817 46.1166 30.7948C45.4489 30.3363 44.7549 29.9433 44.1527 29.4192C42.9481 28.3842 42.2673 27.0348 42.1494 25.4496C42.0316 23.8644 41.9007 22.2792 42.4375 20.7333C43.2492 18.4275 44.8859 16.9995 47.2688 16.5541C49.5863 16.1217 51.5633 16.8816 53.1214 18.6502C54.1296 19.79 54.6271 21.1394 54.6402 22.646C54.6402 23.681 54.6795 24.7291 54.5747 25.7509C54.4176 27.179 53.6975 28.3711 52.637 29.4323C54.5485 30.5066 54.7973 32.2621 54.6402 34.2142C56.0804 34.2142 57.4159 34.2142 58.8169 34.2142C58.83 34.4762 58.8562 34.6858 58.8562 34.8823C58.8562 39.0877 58.8692 43.3062 58.8562 47.5117C58.8431 50.8786 57.3243 53.2761 54.2343 54.6386C53.7761 54.8351 53.2785 54.9399 52.7024 55.1233C52.8072 56.2238 52.8988 57.3636 53.0167 58.4903C53.1607 59.9838 53.3571 61.4773 53.4618 62.9708C53.5011 63.4948 53.6975 63.5866 54.1558 63.5866C57.5599 63.5735 60.9641 63.5735 64.3683 63.5735C64.6171 63.5735 64.8659 63.5735 65.1539 63.5735C65.1539 64.3333 65.1539 65.0015 65.1539 65.6696C43.5111 65.6696 21.8552 65.6696 0.212402 65.6696C0.212402 64.9753 0.212402 64.2678 0.212402 63.5472ZM11.7736 63.5997C12.4282 63.5997 13.0698 63.5735 13.6851 63.6128C14.0779 63.6259 14.2874 63.5079 14.4576 63.1411C14.9814 62.0275 15.5575 60.9533 16.0812 59.8528C16.2383 59.5122 16.4478 59.4073 16.8144 59.4073C22.4968 59.4204 28.1791 59.4204 33.8746 59.4073C34.2412 59.4073 34.4376 59.5384 34.5947 59.8659C35.1185 60.9664 35.6684 62.0668 36.2314 63.1542C36.323 63.3376 36.5194 63.5735 36.6896 63.5866C37.4228 63.639 38.156 63.6128 38.9024 63.6128C38.9024 59.3811 38.9024 55.2281 38.9024 51.0096C31.5702 51.0096 24.2905 51.0096 16.9846 51.0096C16.9846 50.3022 16.9846 49.6602 16.9846 48.9528C24.3036 48.9528 31.5833 48.9528 38.9154 48.9528C38.9154 48.2322 38.9154 47.5772 38.9154 46.8697C29.842 46.8697 20.8078 46.8697 11.7736 46.8697C11.7736 47.5772 11.7736 48.2322 11.7736 48.9659C12.821 48.9659 13.8161 48.9659 14.8242 48.9659C14.8242 49.6733 14.8242 50.3284 14.8242 51.0358C13.7768 51.0358 12.7686 51.0358 11.7605 51.0358C11.7736 55.2543 11.7736 59.3942 11.7736 63.5997ZM32.5522 36.3234C32.4606 35.4326 32.0023 34.8823 31.0727 34.5941C29.8027 34.2011 28.5327 33.8342 27.2364 33.5067C27.0401 33.4543 26.7389 33.5984 26.5425 33.7294C25.9664 34.1225 25.482 34.6596 24.8666 34.9478C23.23 35.7208 21.3969 35.2361 20.0222 33.8211C19.852 33.6377 19.5116 33.4543 19.3021 33.4936C17.9797 33.8342 16.6573 34.2142 15.348 34.6203C14.6148 34.843 13.9863 35.3278 13.9339 36.0876C13.8292 37.5549 13.9077 39.0222 13.9077 40.5026C18.7914 40.5026 23.6882 40.5026 28.5981 40.5026C28.2839 37.6597 29.2528 36.6379 32.5522 36.3234ZM52.5846 33.2185C52.1263 33.808 51.655 34.5286 51.0658 35.1443C49.3768 36.8868 47.714 38.6685 45.894 40.2799C44.5847 41.4328 43.917 42.6774 44.1788 44.4329C44.2967 45.1928 44.1919 45.9788 44.1919 46.8435C43.1052 46.8435 42.084 46.8435 41.0758 46.8435C41.0758 47.5772 41.0758 48.2322 41.0758 48.8873C44.0217 48.8873 46.9284 48.9659 49.835 48.848C51.4193 48.7825 52.5453 47.4069 52.5584 45.7823C52.6108 41.5376 52.5846 37.2929 52.5846 33.2185ZM44.2312 23.7989C44.2312 24.205 44.205 24.6767 44.2312 25.1352C44.3622 27.1528 45.9333 28.7511 48.0282 28.9869C49.9005 29.1965 51.9037 27.965 52.3227 26.0785C52.5977 24.8208 52.5977 23.4714 52.4929 22.1875C52.3489 20.4058 51.0658 19.0695 49.3506 18.6502C47.7533 18.2572 46.0119 18.9122 44.9906 20.3009C44.2312 21.3359 44.1527 22.5281 44.2312 23.7989ZM19.1057 23.8775C19.1057 24.2312 19.0795 24.6767 19.1057 25.1221C19.2235 27.1528 20.7816 28.738 22.8765 28.9869C24.7488 29.2096 26.7782 27.965 27.1841 26.1047C27.459 24.8339 27.459 23.4583 27.3412 22.1613C27.1972 20.4189 26.1235 19.266 24.4607 18.755C22.7979 18.2441 21.3315 18.6895 20.14 19.9472C19.1188 21.0346 19.0009 22.384 19.1057 23.8775ZM9.66558 44.7081C20.5066 44.7081 31.2822 44.7081 42.0578 44.7081C42.0578 44.0006 42.0578 43.3456 42.0578 42.6774C31.2429 42.6774 20.4673 42.6774 9.66558 42.6774C9.66558 43.3718 9.66558 44.0137 9.66558 44.7081ZM41.0889 53.0796C41.1936 53.1058 41.2591 53.1189 41.3246 53.1189C44.7288 53.1189 48.1329 53.1582 51.524 53.0927C52.2834 53.0796 53.0952 52.8831 53.7761 52.5555C55.8186 51.573 56.7613 49.8436 56.7744 47.5903C56.7875 44.053 56.7744 40.5288 56.7744 36.9916C56.7744 36.782 56.7613 36.5854 56.7482 36.3627C56.0411 36.3627 55.3996 36.3627 54.6664 36.3627C54.6664 36.6379 54.6664 36.8868 54.6664 37.1357C54.6533 40.1358 54.7057 43.1359 54.614 46.1361C54.5354 48.7038 52.4013 50.8393 49.8481 50.931C47.1903 51.0227 44.5193 50.9703 41.8614 50.9834C41.6126 50.9834 41.3638 50.9834 41.0889 50.9834C41.0889 51.7433 41.0889 52.3852 41.0889 53.0796ZM37.1086 40.555C38.7976 40.555 40.4866 40.5812 42.1756 40.5419C42.4898 40.5288 42.8695 40.3716 43.0921 40.1489C45.3703 37.9087 47.6092 35.6422 49.8743 33.3888C49.9922 33.2709 50.11 33.1399 50.2147 33.0089C50.5813 32.511 50.5421 31.856 50.1362 31.4499C49.7303 31.0568 49.1149 31.0175 48.6305 31.3713C48.4472 31.5023 48.277 31.6726 48.1068 31.8298C46.0381 33.8867 43.9825 35.9435 41.9268 38.0135C41.6388 38.3017 41.3507 38.4327 40.9318 38.4327C37.9989 38.4196 35.0661 38.4196 32.1202 38.4327C31.8452 38.4327 31.5048 38.3934 31.3215 38.5375C31.0203 38.7733 30.6668 39.1532 30.6537 39.4808C30.6537 39.8083 31.0072 40.1882 31.2953 40.4371C31.4655 40.5812 31.819 40.5419 32.094 40.555C33.7699 40.555 35.4327 40.555 37.1086 40.555ZM47.2295 63.5604C46.9415 60.7436 46.6796 57.9924 46.4047 55.2543C44.5847 55.2543 42.8434 55.2543 41.1151 55.2543C41.1151 58.0448 41.1151 60.8091 41.1151 63.5604C43.1576 63.5604 45.1477 63.5604 47.2295 63.5604ZM16.6049 63.5472C22.4837 63.5472 28.2446 63.5472 34.0841 63.5472C33.783 62.9315 33.5342 62.3682 33.22 61.8441C33.1283 61.6869 32.8796 61.5297 32.6962 61.5297C27.7864 61.5166 22.8896 61.5166 17.9797 61.5297C17.8095 61.5297 17.5607 61.6476 17.4821 61.7786C17.1941 62.3158 16.9322 62.8922 16.6049 63.5472ZM48.5912 55.2412C48.565 55.346 48.5388 55.3984 48.5519 55.4377C48.8007 58.0448 49.0626 60.6519 49.3244 63.259C49.3375 63.3769 49.4946 63.5735 49.5994 63.5866C50.2017 63.6128 50.8039 63.5997 51.4324 63.5997C51.1444 60.7436 50.8694 58.0055 50.5944 55.2543C49.8743 55.2412 49.2459 55.2412 48.5912 55.2412ZM21.2267 30.7686C21.0434 31.8691 21.2136 32.249 22.1171 32.8255C22.955 33.3626 23.6751 33.3364 24.5262 32.76C25.2201 32.2883 25.5344 31.6726 25.2594 30.7817C23.9108 31.201 22.5622 31.1879 21.2267 30.7686Z" fill="#0099FF"/>
<path d="M50.4505 0.754272C50.4505 4.25223 50.4505 7.69779 50.4505 11.2088C50.1624 11.2088 49.9137 11.2088 49.678 11.2088C46.7844 11.2088 43.8909 11.1957 40.9973 11.2219C40.6307 11.2219 40.2117 11.3792 39.9237 11.615C37.7633 13.3836 35.6291 15.1784 33.495 16.9602C33.2724 17.1436 33.0367 17.327 32.7094 17.6021C32.7094 15.4274 32.7094 13.3574 32.7094 11.2088C30.2348 11.2088 27.8388 11.2088 25.3904 11.2088C25.3904 7.68469 25.3904 4.23913 25.3904 0.754272C33.7307 0.754272 42.0709 0.754272 50.4505 0.754272ZM27.5115 2.86353C27.5115 4.95968 27.5115 7.01654 27.5115 9.11269C29.9468 9.11269 32.3297 9.11269 34.8174 9.11269C34.8174 10.4359 34.8174 11.7198 34.8174 13.1347C36.3885 11.8246 37.8288 10.6062 39.2821 9.42711C39.5047 9.2437 39.8451 9.12579 40.1201 9.12579C42.6339 9.09959 45.1478 9.11269 47.6616 9.11269C47.8842 9.11269 48.1199 9.11269 48.3425 9.11269C48.3425 6.99033 48.3425 4.93348 48.3425 2.87663C41.377 2.86353 34.4508 2.86353 27.5115 2.86353Z" fill="#0099FF"/>
<path d="M33.7568 4.93347C36.5326 4.93347 39.2559 4.93347 42.0447 4.93347C42.0447 5.60162 42.0447 6.25667 42.0447 6.96412C39.2952 6.96412 36.5457 6.96412 33.7568 6.96412C33.7568 6.29597 33.7568 5.65403 33.7568 4.93347Z" fill="#0099FF"/>
<path d="M31.6094 6.97721C30.9155 6.97721 30.2608 6.97721 29.5669 6.97721C29.5669 6.29595 29.5669 5.64091 29.5669 4.95966C30.2477 4.95966 30.9024 4.95966 31.6094 4.95966C31.6094 5.6016 31.6094 6.24355 31.6094 6.97721Z" fill="#0099FF"/>
<path d="M44.2444 6.9641C44.2444 6.29596 44.2444 5.65401 44.2444 4.95966C44.899 4.95966 45.5668 4.95966 46.2607 4.95966C46.2607 5.62781 46.2607 6.26975 46.2607 6.9641C45.593 6.9641 44.9383 6.9641 44.2444 6.9641Z" fill="#0099FF"/>
</g>
<defs>
<clipPath id="clip0_100_686">
<rect width="64.9415" height="64.9415" fill="white" transform="translate(0.212402 0.754272)"/>
</clipPath>
</defs>
</svg>
