<?xml version="1.0" encoding="utf-8"?>
<!-- Generator: Adobe Illustrator 23.0.4, SVG Export Plug-In . SVG Version: 6.00 Build 0)  -->
<svg version="1.1" id="Layer_1" xmlns="http://www.w3.org/2000/svg" xmlns:xlink="http://www.w3.org/1999/xlink" x="0px" y="0px"
	 viewBox="0 0 64 64" style="enable-background:new 0 0 64 64;" xml:space="preserve">
<style type="text/css">
	.st0{fill:#009AFF;}
</style>
<g>
	<path class="st0" d="M35.7,29.1c-1.3-0.8-2.8-1.5-4.2-2c-0.7-0.3-1-1.1-0.6-1.8l0.4-0.7l3.6-6.3l1.2-2.1c0.2-0.3,0.5-0.5,0.9-0.5h9
		c0.4,0,0.7,0.2,0.9,0.5l11,19.1c0.2,0.4,0,0.9-0.4,1c-1.3,0.4-2.8,0.6-4.2,0.6c-0.9,0-1.8-0.2-2.5-0.7c-0.8-0.4-1.4-1.1-1.9-1.9
		l-6.4-11c-0.5-0.8-1.6-0.8-2.1,0L39,26v0l-1.5,2.7C37.1,29.2,36.3,29.4,35.7,29.1z"/>
	<path class="st0" d="M63.1,46.5c-2,0.8-4.1,1.3-6.2,1.6c-1.1,0.1-2.2,0.2-3.3,0.2h-0.3c-2.2,0-4.3-0.3-6.3-0.8
		c-4.7-1.2-8.8-3.6-12.1-6.9c-0.9-0.9-1.9-1.7-2.9-2.4l-0.7,1.2l0,0l-0.8,1.4l0,0c-2.8,4.3-7.5,7.2-12.9,7.5c-0.3,0-0.6,0-0.9,0
		c-4.3,0-8.2-1.7-11.2-4.4c-1.9-1.8-3.4-4.1-4.3-6.7c-1-2.9-1.2-6.1-0.3-9.5C2.3,21.9,7.1,17.3,13,16c5.4-1.2,10.5,0.4,14.2,3.5
		l0.2,0.2c0.5,0.4,0.5,1.1,0.1,1.5L23.7,25c-0.4,0.4-1,0.4-1.4,0.1c-1.5-1.2-3.5-2-5.6-2c-4.8,0-8.7,3.8-8.9,8.5c0,0.1,0,0.3,0,0.4
		c0,2.6,1.1,4.9,2.9,6.6c1.6,1.5,3.7,2.4,6.1,2.4c3.2,0,6.1-1.7,7.6-4.3l0,0l0.2-0.4l0,0l0.4-0.8c0,0,0,0-0.1,0
		c-1.5-0.3-3-0.4-4.5-0.3c-1.9,0.1-3.7,0.5-5.5,1.1c-0.3,0.1-0.6,0.1-0.9-0.1c-1.4-0.9-2.4-2.4-2.4-4.2c0-0.9,0.2-1.7,0.6-2.4
		c0.1-0.2,0.3-0.4,0.6-0.5c2.1-0.7,4.2-1.2,6.4-1.3c0.6,0,1.1-0.1,1.7-0.1c1.2,0,2.5,0,3.7,0.2c1.1,0.1,2.1,0.3,3.1,0.6l0,0
		c3,0.7,5.8,2,8.3,3.7l0,0c1.4,0.9,2.7,2,3.9,3.2c3.3,3.3,7.7,5.3,12.7,5.5c0.2,0,0.4,0,0.6,0c2.2,0,4.3-0.4,6.3-1.1
		c0.5-0.2,1,0,1.2,0.5l2.7,4.7C63.9,45.6,63.6,46.2,63.1,46.5z"/>
</g>
</svg>
