<svg width="291" height="292" viewBox="0 0 291 292" fill="none" xmlns="http://www.w3.org/2000/svg">
<path d="M14.0319 55.6236C36.5021 17.5076 79.2654 8.18929 95.395 4.67505C150.299 -7.28291 231.535 7.09208 270.723 72.0499C305.127 129.057 285.962 189.96 283.197 198.308C278.541 212.317 266.893 245.885 233.839 268.641C182.399 304.053 103.992 296.103 77.1677 259.561C64.566 242.387 74.7682 234.468 60.0847 204.112C40.4272 163.436 16.0342 164.422 4.65609 131.871C-8.16813 95.123 11.966 59.1378 14.0319 55.6236Z" fill="#019AFF" fill-opacity="0.16"/>
<path d="M152.524 231.606C151.729 230.445 151.729 228.934 152.524 227.774C153.636 226.168 154.224 224.434 154.224 222.622C154.224 214.226 141.225 207.42 125.175 207.42C109.141 207.42 96.126 214.226 96.126 222.622C96.126 224.434 96.7298 226.168 97.8263 227.774C98.6209 228.934 98.6209 230.445 97.8263 231.606C96.7139 233.212 96.126 234.945 96.126 236.758C96.126 240.749 99.05 244.375 103.849 247.078C103.738 247.523 103.69 247.985 103.69 248.462C103.69 254.679 113.32 259.72 125.191 259.72C137.062 259.72 146.692 254.679 146.692 248.462C146.692 248 146.628 247.539 146.533 247.078C151.316 244.359 154.256 240.733 154.256 236.758C154.224 234.945 153.62 233.212 152.524 231.606Z" fill="white"/>
<path d="M125.175 260.229C113.034 260.229 103.15 254.949 103.15 248.446C103.15 248.08 103.182 247.714 103.245 247.333C98.3031 244.439 95.5857 240.686 95.5857 236.742C95.5857 234.866 96.1896 233.037 97.3814 231.304C98.0488 230.318 98.0488 229.046 97.3814 228.076C96.1896 226.343 95.5857 224.498 95.5857 222.637C95.5857 213.955 108.855 206.895 125.159 206.895C141.464 206.895 154.733 213.955 154.733 222.637C154.733 224.514 154.129 226.343 152.937 228.076C152.254 229.062 152.254 230.334 152.937 231.304C154.129 233.037 154.733 234.882 154.733 236.742C154.733 240.686 152.015 244.439 147.073 247.333C147.137 247.714 147.169 248.08 147.169 248.446C147.2 254.949 137.316 260.229 125.175 260.229ZM125.175 207.944C109.443 207.944 96.6504 214.528 96.6504 222.622C96.6504 224.275 97.1907 225.913 98.2713 227.472C99.193 228.823 99.193 230.556 98.2713 231.892C97.2066 233.451 96.6504 235.088 96.6504 236.742C96.6504 240.384 99.3042 243.882 104.103 246.601C104.31 246.712 104.405 246.951 104.358 247.174C104.262 247.619 104.199 248.032 104.199 248.43C104.199 254.345 113.606 259.163 125.159 259.163C136.712 259.163 146.12 254.345 146.12 248.43C146.12 248.016 146.072 247.603 145.961 247.174C145.913 246.951 146.009 246.712 146.215 246.601C151.014 243.882 153.668 240.384 153.668 236.742C153.668 235.088 153.128 233.451 152.047 231.892C151.126 230.541 151.126 228.807 152.047 227.472C153.112 225.913 153.668 224.275 153.668 222.622C153.7 214.528 140.907 207.944 125.175 207.944Z" fill="black"/>
<path d="M123.713 235.55C116.435 235.55 109.316 234.532 101.608 232.496C101.322 232.417 101.163 232.131 101.227 231.86C101.307 231.574 101.593 231.415 101.863 231.479C117.086 235.502 130.006 235.502 146.501 231.479C146.787 231.399 147.073 231.59 147.137 231.86C147.2 232.147 147.026 232.433 146.755 232.496C138.428 234.532 130.991 235.55 123.713 235.55Z" fill="#99B9FF"/>
<path d="M124.826 249.861C118.453 249.861 112.208 248.97 105.47 247.189C105.184 247.11 105.025 246.824 105.089 246.553C105.168 246.267 105.454 246.108 105.724 246.172C119.025 249.686 130.34 249.686 144.753 246.172C145.039 246.108 145.325 246.283 145.389 246.553C145.452 246.84 145.278 247.126 145.007 247.189C137.713 248.97 131.198 249.861 124.826 249.861Z" fill="#99B9FF"/>
<mask id="mask0_88_603" style="mask-type:luminance" maskUnits="userSpaceOnUse" x="46" y="26" width="159" height="197">
<path d="M204.011 106.016C204.011 62.9383 168.177 26.1898 125.143 26.1898C82.1734 26.1898 46.736 61.9365 46.4499 104.934C46.3069 126.831 56.8587 147.185 71.2402 161.432C81.6172 171.705 89.1814 184.49 92.8523 198.626L93.0271 199.31C96.5867 213.033 108.982 222.622 123.157 222.622H128.973C143.148 222.622 155.527 213.033 159.103 199.31L159.214 198.896C162.869 184.855 170.115 171.959 180.508 161.83C195.001 147.678 204.011 127.896 204.011 106.016Z" fill="white"/>
</mask>
<g mask="url(#mask0_88_603)">
<path d="M175.502 98.0807C173.818 97.6673 172.594 96.093 172.785 94.2643C172.865 93.3738 173.31 92.5629 173.977 91.9586C176.853 89.303 178.554 85.439 178.252 81.1933C177.775 74.5941 172.324 69.2671 165.602 68.806C157.625 68.2653 150.982 74.4669 150.982 82.1792C150.982 86.0591 152.667 89.5575 155.352 92.0063C156.083 92.6742 156.497 93.6283 156.497 94.6142C156.497 96.2838 155.337 97.6832 153.747 98.0807H124.523V125.209H124.539V125.765C124.539 127.355 125.556 128.834 127.114 129.295C128.48 129.693 129.911 129.295 130.832 128.325C133.581 125.415 137.65 123.698 142.099 124.096C148.71 124.684 154.002 129.995 154.463 136.499C155.019 144.338 148.71 150.858 140.844 150.858C136.871 150.858 133.295 149.188 130.785 146.533C130.499 146.231 130.181 145.96 129.783 145.801C127.114 144.656 124.523 146.549 124.523 149.029V149.697H124.508V176.825H203.725C204.281 176.825 204.726 176.38 204.726 175.839V98.0807H175.502Z" fill="#CADDFF"/>
<path d="M194.953 19.3522H124.524V47.8C124.206 49.4538 122.728 50.7259 120.948 50.7259C119.947 50.7259 118.978 50.3125 118.294 49.5969C115.609 46.7505 111.668 45.065 107.329 45.3512C100.464 45.8123 94.9659 51.3461 94.6481 58.0883C94.2826 65.7847 100.528 72.1294 108.283 72.1294C112.24 72.1294 115.799 70.4756 118.294 67.8519C118.978 67.1204 119.947 66.7229 120.948 66.7229C122.728 66.7229 124.206 67.9791 124.524 69.6487V98.0966H153.732C155.305 97.6991 156.481 96.2997 156.481 94.6301C156.481 93.6442 156.068 92.6901 155.337 92.0222C152.651 89.5734 150.967 86.075 150.967 82.1951C150.967 74.5782 157.434 68.4561 165.269 68.806C172.15 69.124 177.775 74.5146 178.252 81.2569C178.554 85.5026 176.822 89.3667 173.929 92.0222C173.198 92.6901 172.785 93.6442 172.785 94.6301C172.785 96.2997 173.945 97.6991 175.534 98.0966H204.742V28.9249C204.727 23.6297 200.356 19.3522 194.953 19.3522Z" fill="#019AFF" fill-opacity="0.5"/>
<path d="M204.727 98.6055H175.519C175.471 98.6055 175.439 98.6055 175.391 98.5896C173.548 98.1284 172.245 96.4906 172.245 94.6142C172.245 93.4852 172.722 92.388 173.564 91.6247C176.472 88.9691 177.998 85.2005 177.727 81.2887C177.282 74.7691 171.911 69.6169 165.253 69.3148C161.566 69.1558 158.102 70.4438 155.464 72.9563C152.905 75.4051 151.507 78.6808 151.507 82.1792C151.507 85.7411 153.032 89.1758 155.702 91.6088C156.544 92.372 157.021 93.4693 157.021 94.5983C157.021 96.4747 155.734 98.1125 153.875 98.5737C153.827 98.5896 153.795 98.5896 153.748 98.5896H124.524C124.238 98.5896 123.999 98.351 123.999 98.0648V69.6806C123.713 68.2653 122.426 67.2317 120.948 67.2317C120.09 67.2317 119.264 67.5816 118.676 68.2017C116.006 71.0322 112.208 72.6541 108.283 72.6541C104.374 72.6541 100.607 71.0481 97.9376 68.2494C95.2997 65.4825 93.9489 61.8729 94.1237 58.0724C94.4574 50.9962 100.115 45.3035 107.298 44.8264C111.604 44.5402 115.752 46.1463 118.676 49.2471C119.264 49.8672 120.09 50.2171 120.948 50.2171C122.426 50.2171 123.713 49.1994 123.999 47.7682V19.3522C123.999 19.0659 124.238 18.8274 124.524 18.8274H194.954C200.627 18.8274 205.235 23.3594 205.235 28.9408V98.0966C205.251 98.3669 205.013 98.6055 204.727 98.6055ZM175.582 97.556H204.202V28.9249C204.202 23.9318 200.055 19.8769 194.969 19.8769H125.048V47.8C125.048 47.8318 125.048 47.8636 125.032 47.8954C124.667 49.8354 122.95 51.2507 120.932 51.2507C119.788 51.2507 118.676 50.7736 117.897 49.9626C115.18 47.1004 111.35 45.6056 107.361 45.8759C100.719 46.3212 95.4745 51.5846 95.1725 58.1201C95.0136 61.6344 96.2531 64.9737 98.7004 67.5179C101.179 70.1099 104.675 71.6046 108.283 71.6046C111.922 71.6046 115.434 70.1099 117.913 67.4861C118.692 66.6593 119.804 66.1981 120.948 66.1981C122.95 66.1981 124.683 67.6134 125.048 69.5533C125.048 69.5851 125.064 69.6169 125.064 69.6488V97.5719H153.668C155.019 97.2061 155.956 96.0135 155.956 94.646C155.956 93.8032 155.607 92.9922 154.971 92.4357C152.095 89.8119 150.442 86.0909 150.442 82.2269C150.442 78.4423 151.968 74.8963 154.733 72.2407C157.577 69.5215 161.328 68.1222 165.285 68.313C172.483 68.6311 178.284 74.1966 178.76 81.2569C179.046 85.4867 177.41 89.5575 174.263 92.4357C173.643 93.0081 173.278 93.8191 173.278 94.646C173.294 95.9976 174.231 97.1902 175.582 97.556Z" fill="black"/>
<path d="M107.345 45.3353C111.668 45.0491 115.609 46.7346 118.31 49.581C118.993 50.2966 119.963 50.71 120.964 50.71C122.744 50.71 124.222 49.4538 124.539 47.7841V19.3522H54.0936C48.7065 19.3522 44.3364 23.6456 44.3364 28.9408V98.0966H71.9713V98.1125H72.6387C74.6569 98.1125 76.2778 99.7186 76.2778 101.69C76.2778 102.676 75.8646 103.63 75.1336 104.298C72.448 106.747 70.7635 110.245 70.7635 114.125C70.7635 121.742 77.2312 127.864 85.0656 127.514C91.9465 127.196 97.572 121.806 98.0487 115.064C98.3507 110.818 96.6185 106.954 93.7263 104.298C92.9953 103.63 92.5822 102.676 92.5822 101.69C92.5822 99.7186 94.219 98.1125 96.2213 98.1125H96.9046V98.0966H124.539V69.6328C124.222 67.9791 122.744 66.707 120.964 66.707C119.963 66.707 118.993 67.1204 118.31 67.836C115.815 70.4756 112.256 72.1135 108.299 72.1135C100.544 72.1135 94.2984 65.7688 94.6639 58.0724C94.9659 51.3302 100.464 45.7964 107.345 45.3353Z" fill="#66BFFA"/>
<path d="M84.43 128.039C80.7114 128.039 77.2312 126.656 74.5456 124.096C71.7806 121.456 70.255 117.91 70.255 114.109C70.255 110.245 71.9077 106.524 74.784 103.901C75.4038 103.328 75.7693 102.517 75.7693 101.69C75.7693 100.005 74.3708 98.6373 72.6546 98.6373H71.9713C71.9236 98.6373 71.8759 98.6373 71.8441 98.6214H44.3364C44.0504 98.6214 43.812 98.3828 43.812 98.0966V28.9249C43.812 23.3435 48.4205 18.8115 54.0936 18.8115H124.524C124.81 18.8115 125.048 19.05 125.048 19.3363V47.7841C125.048 47.8159 125.048 47.8477 125.032 47.8795C124.667 49.8195 122.95 51.2348 120.932 51.2348C119.788 51.2348 118.676 50.7577 117.897 49.9467C115.179 47.0845 111.35 45.5897 107.361 45.86C100.718 46.3053 95.4744 51.5687 95.1724 58.1042C95.0135 61.6185 96.253 64.9578 98.7003 67.502C101.179 70.094 104.675 71.5887 108.283 71.5887C111.922 71.5887 115.434 70.094 117.913 67.4702C118.691 66.6434 119.804 66.1822 120.948 66.1822C122.95 66.1822 124.682 67.5975 125.048 69.5374C125.048 69.5692 125.064 69.601 125.064 69.6328V98.0807C125.064 98.3669 124.825 98.6055 124.539 98.6055H97.0158C96.9681 98.6214 96.9364 98.6214 96.8887 98.6214H96.2054C94.4891 98.6214 93.0907 99.9889 93.0907 101.674C93.0907 102.517 93.4403 103.328 94.0759 103.885C97.2224 106.763 98.8751 110.834 98.5732 115.064C98.0805 122.124 92.2961 127.689 85.0974 128.007C84.8749 128.023 84.6524 128.039 84.43 128.039ZM72.1143 97.5719H72.6546C74.9588 97.5719 76.8181 99.4164 76.8181 101.674C76.8181 102.803 76.3413 103.901 75.4991 104.664C72.8294 107.097 71.3038 110.532 71.3038 114.094C71.3038 117.592 72.7181 120.868 75.2607 123.316C77.8828 125.829 81.363 127.117 85.0497 126.958C91.7081 126.656 97.0794 121.52 97.5243 114.984C97.7945 111.072 96.2848 107.304 93.3608 104.648C92.5186 103.885 92.0419 102.788 92.0419 101.659C92.0419 99.4005 93.917 97.556 96.2054 97.556H96.7457C96.7933 97.5401 96.8251 97.5401 96.8728 97.5401H123.983V69.6806C123.697 68.2653 122.41 67.2317 120.932 67.2317C120.074 67.2317 119.248 67.5815 118.66 68.2017C115.99 71.0322 112.192 72.6541 108.267 72.6541C104.358 72.6541 100.591 71.0481 97.9216 68.2494C95.2837 65.4825 93.9329 61.8729 94.1077 58.0724C94.4414 50.9962 100.099 45.3035 107.282 44.8264C111.588 44.5402 115.736 46.1463 118.66 49.2471C119.248 49.8672 120.074 50.2171 120.932 50.2171C122.41 50.2171 123.697 49.1994 123.983 47.7682V19.8769H54.0936C49.0084 19.8769 44.8608 23.9318 44.8608 28.9249V97.556H71.9713C72.0189 97.556 72.0666 97.5559 72.1143 97.5719Z" fill="black"/>
<path d="M204.822 176.555L188.962 176.73C188.947 176.73 188.819 176.73 188.804 176.73H184.322V176.762H183.845C181.827 176.762 180.206 175.14 180.206 173.168C180.206 172.182 180.62 171.228 181.351 170.544C184.036 168.095 185.705 164.597 185.705 160.717C185.705 153.1 177.092 150.588 173.85 150.222C167.001 149.459 161.328 151.414 160.867 158.157C160.581 162.402 159.85 167.904 162.758 170.544C163.489 171.212 163.918 172.166 163.918 173.152C163.918 173.629 164.188 174.806 163.139 175.855C162.408 176.587 160.072 176.952 159.055 176.921C155.4 176.825 152.969 176.746 152.969 176.746L125.334 176.762L125.35 205.209C125.668 206.863 127.146 208.135 128.925 208.119C129.927 208.119 130.896 207.706 131.579 206.99C134.074 204.351 137.634 202.697 141.575 202.697C149.33 202.697 155.575 209.026 155.225 216.722C154.908 223.48 149.425 229.014 142.544 229.475C138.222 229.761 134.281 228.076 131.579 225.229C130.896 224.514 129.927 224.1 128.925 224.1C127.146 224.1 125.668 225.357 125.35 227.026L125.366 255.474L195.796 255.426C201.183 255.426 205.553 251.133 205.553 245.838L204.822 176.555Z" fill="#66BFFA"/>
<path d="M125.413 256.031C125.127 256.031 124.889 255.792 124.889 255.506L124.873 227.058C124.873 227.026 124.873 226.994 124.889 226.963C125.254 225.023 126.971 223.607 128.973 223.607C130.117 223.607 131.23 224.085 132.008 224.895C134.726 227.758 138.555 229.237 142.56 228.982C149.203 228.537 154.447 223.274 154.749 216.738C154.907 213.224 153.652 209.884 151.221 207.34C148.742 204.748 145.262 203.269 141.638 203.269C141.638 203.269 141.638 203.269 141.622 203.269C137.983 203.269 134.471 204.78 132.008 207.388C131.23 208.215 130.117 208.692 128.973 208.692C126.971 208.692 125.254 207.292 124.873 205.352C124.873 205.321 124.857 205.289 124.857 205.257L124.841 176.809C124.841 176.666 124.889 176.539 125 176.443C125.096 176.348 125.239 176.284 125.366 176.284L153.001 176.269C153.048 176.269 155.48 176.364 159.103 176.459C160.167 176.475 162.249 176.094 162.805 175.537C163.536 174.806 163.473 174.011 163.441 173.486C163.441 173.374 163.425 173.279 163.425 173.2C163.425 172.357 163.06 171.546 162.44 170.989C159.611 168.413 159.993 163.388 160.295 159.349C160.326 158.952 160.358 158.554 160.374 158.173C160.565 155.501 161.534 153.402 163.282 151.939C165.618 149.999 169.289 149.236 173.929 149.745C177.346 150.126 186.245 152.846 186.245 160.765C186.245 164.629 184.592 168.35 181.716 170.989C181.096 171.562 180.731 172.373 180.731 173.215C180.731 174.901 182.129 176.284 183.845 176.284H184.163C184.211 176.269 184.274 176.253 184.322 176.253H188.788C188.803 176.253 188.835 176.253 188.867 176.253H188.915L204.806 176.078C205.108 176.094 205.33 176.3 205.33 176.602L206.109 245.917C206.109 248.621 205.044 251.165 203.106 253.073C201.167 254.981 198.577 256.031 195.843 256.031H125.413ZM125.922 227.106L125.938 254.981L195.843 254.933C198.306 254.933 200.627 253.979 202.375 252.278C204.123 250.561 205.076 248.287 205.076 245.87L204.313 177.095L188.978 177.254C188.962 177.254 188.931 177.254 188.915 177.254H188.851C188.835 177.254 188.819 177.254 188.819 177.254H184.513C184.465 177.27 184.402 177.286 184.354 177.286H183.877C181.573 177.286 179.714 175.442 179.714 173.168C179.714 172.023 180.19 170.926 181.033 170.162C183.686 167.729 185.212 164.295 185.212 160.717C185.212 153.577 176.996 151.096 173.834 150.747C169.496 150.27 166.079 150.937 163.981 152.702C162.456 153.975 161.614 155.819 161.439 158.204C161.407 158.586 161.375 158.984 161.359 159.381C161.057 163.388 160.708 167.936 163.155 170.162C163.997 170.926 164.474 172.023 164.474 173.152C164.474 173.215 164.474 173.279 164.49 173.359C164.538 173.947 164.617 175.155 163.552 176.221C162.631 177.159 160.024 177.477 159.087 177.445C155.464 177.35 153.032 177.27 153.001 177.27L125.906 177.286L125.922 205.162C126.208 206.577 127.495 207.61 128.973 207.61C129.831 207.61 130.658 207.261 131.245 206.641C133.915 203.81 137.697 202.188 141.622 202.188C141.622 202.188 141.622 202.188 141.638 202.188C145.548 202.188 149.314 203.794 151.984 206.593C154.621 209.36 155.988 212.969 155.813 216.77C155.495 223.846 149.822 229.539 142.655 230.016C138.365 230.302 134.201 228.696 131.277 225.611C130.689 224.991 129.863 224.641 129.005 224.641C127.479 224.657 126.208 225.691 125.922 227.106Z" fill="black"/>
<path d="M154.478 136.499C154.018 129.9 148.583 124.557 141.861 124.08C137.538 123.778 133.597 125.447 130.896 128.278C130.292 128.898 129.497 129.327 128.623 129.423C126.43 129.661 124.555 127.976 124.555 125.877V125.209H124.539V98.0807H96.8887V98.0966H96.3325C94.7116 98.0966 93.2019 99.0984 92.7411 100.625C92.3279 101.961 92.7411 103.376 93.7422 104.282C96.6344 106.922 98.3666 110.786 98.0646 115.048C97.6038 121.79 91.9624 127.196 85.0815 127.499C77.2471 127.848 70.7794 121.726 70.7794 114.109C70.7794 110.198 72.4798 106.683 75.1972 104.235C75.4991 103.948 75.7851 103.63 75.9441 103.265C77.1041 100.641 75.1813 98.1125 72.6546 98.1125H71.9871V98.0966H44.3364V176.825H75.5627L68.5229 197.974L84.0009 209.853L102.562 199.358L95.522 176.825H124.508V149.681H124.524V149.125C124.524 147.535 125.541 146.056 127.098 145.595C128.465 145.197 129.895 145.595 130.816 146.565C133.311 149.204 136.871 150.842 140.828 150.842C148.71 150.858 155.019 144.338 154.478 136.499Z" fill="#66BFFA"/>
<path d="M84.0009 210.361C83.8897 210.361 83.7784 210.33 83.6831 210.25L68.2209 198.372C68.0461 198.229 67.9667 198.006 68.0461 197.783L74.8476 177.334H44.3364C44.0504 177.334 43.812 177.095 43.812 176.809V98.0807C43.812 97.7945 44.0504 97.556 44.3364 97.556H71.9712C72.0189 97.556 72.0666 97.556 72.0984 97.5719H72.6387C74.0689 97.5719 75.3879 98.2874 76.1506 99.4642C76.9134 100.641 77.0088 102.104 76.4049 103.471C76.2301 103.869 75.944 104.251 75.5309 104.632C72.8294 107.065 71.2879 110.516 71.2879 114.109C71.2879 117.608 72.7022 120.884 75.2448 123.332C77.8669 125.845 81.3471 127.133 85.0338 126.974C91.6922 126.672 97.0635 121.535 97.5084 115C97.7786 111.088 96.2689 107.32 93.3449 104.664C92.169 103.599 91.7399 101.992 92.2008 100.466C92.7252 98.7645 94.4096 97.5719 96.3007 97.5719H96.7298C96.7774 97.556 96.8092 97.556 96.8569 97.556H124.492C124.778 97.556 125.016 97.7945 125.016 98.0807V125.066C125.032 125.113 125.032 125.161 125.032 125.209V125.877C125.032 126.735 125.398 127.546 126.049 128.119C126.716 128.723 127.591 129.009 128.512 128.898C129.243 128.818 129.927 128.469 130.467 127.912C133.407 124.843 137.554 123.237 141.861 123.555C148.853 124.048 154.478 129.598 154.955 136.467C155.225 140.331 153.922 144.02 151.268 146.851C148.583 149.729 144.769 151.383 140.812 151.383C136.887 151.383 133.105 149.761 130.419 146.93C129.609 146.072 128.385 145.754 127.225 146.103C125.938 146.485 125.032 147.725 125.032 149.125V149.681C125.032 149.729 125.032 149.777 125.016 149.824V176.809C125.016 177.095 124.778 177.334 124.492 177.334H96.253L103.07 199.183C103.15 199.421 103.039 199.676 102.832 199.803L84.271 210.298C84.1757 210.33 84.0962 210.361 84.0009 210.361ZM69.1585 197.767L84.0486 209.201L101.942 199.087L95.0294 176.968C94.9817 176.809 95.0135 176.634 95.1089 176.507C95.2042 176.38 95.3631 176.3 95.5379 176.3H123.999V149.681C123.999 149.634 123.999 149.586 124.015 149.538V149.141C124.015 147.28 125.223 145.626 126.971 145.102C128.512 144.64 130.133 145.07 131.23 146.215C133.709 148.838 137.221 150.333 140.86 150.333C144.531 150.333 148.074 148.807 150.553 146.135C153.001 143.511 154.208 140.108 153.954 136.531C153.509 130.186 148.297 125.05 141.829 124.604C137.84 124.318 133.995 125.797 131.277 128.643C130.578 129.375 129.656 129.852 128.687 129.947C127.479 130.075 126.287 129.709 125.398 128.914C124.539 128.135 124.031 127.037 124.031 125.877V125.352C124.015 125.304 124.015 125.256 124.015 125.209V98.6055H97.0158C96.9681 98.6214 96.9364 98.6214 96.8887 98.6214H96.3325C94.9023 98.6214 93.631 99.5119 93.2337 100.784C92.8841 101.913 93.2178 103.106 94.0759 103.901C97.2224 106.779 98.8751 110.85 98.5731 115.079C98.0805 122.14 92.2961 127.705 85.0974 128.023C81.1246 128.198 77.3743 126.799 74.5456 124.096C71.7806 121.456 70.255 117.91 70.255 114.109C70.255 110.229 71.9236 106.477 74.8476 103.853C75.1495 103.583 75.3561 103.312 75.4673 103.058C75.9282 102.024 75.8646 100.943 75.2925 100.053C74.7204 99.162 73.7352 98.6373 72.6546 98.6373H71.9712C71.9236 98.6373 71.8759 98.6373 71.8441 98.6214H44.8608V176.3H75.5627C75.7375 176.3 75.8964 176.38 75.9917 176.523C76.0871 176.666 76.1189 176.841 76.0712 177L69.1585 197.767Z" fill="black"/>
<path d="M54.9835 255.554L125.413 255.506L125.398 227.058C125.715 225.404 127.193 224.132 128.973 224.132C129.974 224.132 130.944 224.546 131.627 225.261C134.328 228.108 138.254 229.793 142.592 229.507C149.457 229.046 154.955 223.512 155.273 216.754C155.623 209.058 149.377 202.713 141.622 202.729C137.666 202.729 134.106 204.383 131.627 207.022C130.944 207.754 129.974 208.151 128.973 208.151C127.193 208.151 125.715 206.895 125.398 205.241L125.382 176.793L96.1736 176.809C94.6004 177.207 93.4403 178.606 93.4403 180.276C93.4403 181.262 93.8535 182.216 94.6004 182.884C97.286 185.332 98.9704 188.815 98.9704 192.695C98.9704 200.312 92.5186 206.45 84.6842 206.1C77.8033 205.798 72.162 200.407 71.7011 193.649C71.3992 189.403 73.1313 185.539 76.0235 182.884C76.7545 182.216 77.1677 181.262 77.1677 180.276C77.1677 178.606 75.9917 177.207 74.4185 176.825L45.2104 176.841L45.274 245.997C45.2263 251.276 49.5964 255.57 54.9835 255.554Z" fill="#66BFFA"/>
<path d="M54.9836 256.094C49.3104 256.094 44.702 251.562 44.702 245.997L44.6384 176.841C44.6384 176.698 44.6861 176.571 44.7973 176.475C44.8927 176.38 45.0357 176.316 45.1628 176.316L74.3709 176.3C74.4186 176.3 74.4504 176.3 74.498 176.316C76.3414 176.777 77.6445 178.415 77.6445 180.292C77.6445 181.421 77.1678 182.518 76.3255 183.281C73.4174 185.937 71.9078 189.705 72.1779 193.617C72.6388 200.137 78.01 205.273 84.6684 205.575C88.3552 205.75 91.8195 204.446 94.4574 201.918C97.0159 199.469 98.4143 196.193 98.4143 192.695C98.4143 189.133 96.8888 185.698 94.219 183.265C93.3768 182.502 92.9001 181.405 92.9001 180.276C92.9001 178.399 94.1872 176.762 96.0306 176.3C96.0783 176.284 96.1101 176.284 96.1578 176.284L125.366 176.269C125.652 176.269 125.89 176.507 125.89 176.793L125.906 205.193C126.192 206.609 127.479 207.642 128.957 207.642C129.815 207.642 130.642 207.292 131.23 206.672C133.899 203.842 137.682 202.22 141.607 202.22C141.607 202.22 141.607 202.22 141.623 202.22C145.532 202.22 149.298 203.826 151.968 206.625C154.606 209.391 155.972 213.001 155.798 216.802C155.48 223.878 149.807 229.571 142.64 230.048C138.333 230.334 134.185 228.728 131.261 225.643C130.673 225.023 129.847 224.673 128.989 224.673C127.511 224.673 126.224 225.706 125.938 227.122L125.954 255.522C125.954 255.665 125.906 255.792 125.795 255.888C125.7 255.983 125.557 256.047 125.429 256.047L54.9836 256.094ZM45.6872 177.366L45.7349 245.997C45.7349 250.99 49.8825 255.045 54.9677 255.045L124.873 254.997L124.857 227.074C124.857 227.042 124.857 227.01 124.873 226.979C125.239 225.039 126.955 223.623 128.957 223.623C130.101 223.623 131.214 224.1 131.992 224.911C134.71 227.774 138.54 229.268 142.544 228.998C149.187 228.553 154.431 223.289 154.733 216.754C154.892 213.24 153.636 209.9 151.205 207.356C148.726 204.764 145.246 203.285 141.623 203.285C141.623 203.285 141.623 203.285 141.607 203.285C137.968 203.285 134.456 204.796 131.992 207.404C131.214 208.231 130.101 208.708 128.957 208.708C126.955 208.708 125.239 207.308 124.857 205.368C124.857 205.337 124.841 205.305 124.841 205.273L124.826 177.35L96.2054 177.366C94.8547 177.732 93.9171 178.924 93.9171 180.308C93.9171 181.15 94.2826 181.961 94.9024 182.518C97.7787 185.142 99.4472 188.863 99.4472 192.727C99.4472 196.511 97.9376 200.073 95.1725 202.713C92.328 205.432 88.5935 206.831 84.6207 206.656C77.422 206.338 71.6217 200.773 71.1291 193.728C70.8272 189.499 72.464 185.428 75.6263 182.534C76.2461 181.961 76.6116 181.15 76.6116 180.323C76.6116 178.956 75.674 177.747 74.3232 177.398L45.6872 177.366Z" fill="black"/>
</g>
<path d="M128.989 223.162H123.173C108.759 223.162 96.1735 213.415 92.5344 199.453L92.3596 198.769C88.7682 184.951 81.347 172.182 70.8747 161.814C54.8881 145.976 45.7825 125.241 45.9255 104.934C46.0685 83.976 54.4114 64.1309 69.4127 49.0722C84.4617 33.9816 104.246 25.6651 125.127 25.6651C168.161 25.6651 204.52 62.4613 204.52 106.016C204.52 127.355 196.113 147.312 180.842 162.212C170.687 172.118 163.377 184.855 159.691 199.04L159.579 199.453C155.988 213.415 143.386 223.162 128.989 223.162ZM125.143 26.7305C82.3323 26.7305 47.2604 61.8252 46.9743 104.95C46.8472 124.986 55.8257 145.435 71.6216 161.083C82.221 171.578 89.7376 184.521 93.3767 198.515L93.5515 199.199C97.0634 212.683 109.236 222.113 123.173 222.113H128.989C142.925 222.113 155.098 212.683 158.61 199.199L158.721 198.785C162.456 184.41 169.861 171.514 180.159 161.464C195.223 146.755 203.519 127.069 203.519 106.016C203.487 63.0337 167.605 26.7305 125.143 26.7305Z" fill="black"/>
<path d="M125.556 21.2604C125.254 21.2604 125.032 21.0218 125.032 20.7197L125.397 0.524751C125.397 0.238523 125.636 0 125.922 0C125.922 0 125.922 0 125.938 0C126.224 0 126.462 0.238523 126.462 0.540652L126.097 20.7356C126.081 21.0218 125.842 21.2604 125.556 21.2604Z" fill="black"/>
<path d="M42.5249 69.4897C42.4295 69.4897 42.3342 69.4579 42.2547 69.4102L9.82075 49.7082C9.56649 49.5651 9.48704 49.2312 9.64595 48.9926C9.78897 48.7382 10.1227 48.6587 10.3611 48.8177L42.8109 68.5197C43.0652 68.6628 43.1446 68.9968 42.9857 69.2353C42.8904 69.3943 42.7156 69.4897 42.5249 69.4897Z" fill="black"/>
<path d="M63.8987 43.2045C63.7716 43.2045 63.6285 43.1568 63.5332 43.0455L43.4467 23.2481C43.2401 23.0413 43.2401 22.7074 43.4467 22.5007C43.6533 22.294 43.987 22.294 44.1936 22.5007L64.2642 42.2981C64.4708 42.5048 64.4708 42.8388 64.2642 43.0455C64.1688 43.1568 64.0258 43.2045 63.8987 43.2045Z" fill="black"/>
<path d="M206.538 54.5741C206.363 54.5741 206.204 54.4946 206.093 54.3356C205.934 54.097 205.998 53.7631 206.252 53.6041L229.469 38.5453C229.708 38.3863 230.041 38.4499 230.2 38.7043C230.359 38.9429 230.296 39.2768 230.041 39.4358L206.824 54.4946C206.729 54.5423 206.634 54.5741 206.538 54.5741Z" fill="black"/>
<path d="M187.23 33.6636C187.119 33.6636 187.024 33.6318 186.928 33.5682C186.69 33.3932 186.642 33.0752 186.801 32.8367L203.169 9.85896C203.344 9.62044 203.662 9.57273 203.9 9.73175C204.139 9.90667 204.186 10.2247 204.027 10.4632L187.659 33.4409C187.548 33.5841 187.389 33.6636 187.23 33.6636Z" fill="black"/>
<path d="M54.1571 269.658V279.311L49.5169 279.024L48.6111 269.658H54.1571Z" fill="white"/>
<path d="M54.1572 279.835C54.1413 279.835 54.1413 279.835 54.1254 279.835L49.4852 279.549C49.2309 279.533 49.0244 279.326 48.9926 279.072L48.0709 269.69C48.055 269.547 48.1027 269.388 48.198 269.293C48.2934 269.181 48.4364 269.118 48.5953 269.118H54.1572C54.4433 269.118 54.6816 269.356 54.6816 269.642V279.295C54.6816 279.438 54.6181 279.581 54.5227 279.676C54.4274 279.788 54.3002 279.835 54.1572 279.835ZM49.9937 278.531L53.6328 278.754V270.183H49.1833L49.9937 278.531Z" fill="black"/>
<path d="M48.8178 291.348C50.7088 291.555 53.7758 291.523 57.4149 291.062C58.9722 290.855 59.7668 287.881 59.2106 286.816C56.7793 282.062 56.4614 279.39 55.3173 276.083L54.046 278.007L53.3626 276.353C53.2514 276.162 53.0448 276.035 52.8065 276.003L51.0266 275.844C50.6611 275.812 50.2162 276.178 50.1367 276.544L48.9608 278.007L47.9596 276.162L46.5135 288.152C46.4818 289.965 47.7213 291.237 48.8178 291.348Z" fill="white"/>
<path d="M51.424 292C50.4387 292 49.5329 291.952 48.7543 291.873C47.3876 291.73 45.9415 290.187 45.9892 288.136C45.9892 288.12 45.9892 288.104 45.9892 288.088L47.4353 276.098C47.4671 275.876 47.6419 275.685 47.8644 275.637C48.0868 275.59 48.3093 275.701 48.4205 275.908L49.0403 277.053L49.6442 276.289C49.8349 275.717 50.4705 275.256 51.0585 275.303L52.8383 275.462C53.2356 275.494 53.5852 275.717 53.7918 276.067C53.8077 276.083 53.8236 276.114 53.8236 276.13L54.1255 276.878L54.8565 275.78C54.9677 275.621 55.1584 275.526 55.365 275.542C55.5716 275.574 55.7305 275.701 55.7941 275.892C56.1437 276.894 56.4138 277.848 56.684 278.77C57.3196 280.98 57.9712 283.254 59.6556 286.562C60.1165 287.452 59.8304 289.058 59.2901 290.076C58.8293 290.95 58.1778 291.491 57.4468 291.571C55.365 291.857 53.2515 292 51.424 292ZM47.0539 288.184C47.038 289.758 48.1186 290.744 48.8814 290.823C51.0108 291.046 54.1891 290.95 57.3514 290.537C57.8599 290.473 58.2254 289.917 58.4002 289.583C58.877 288.677 58.9882 287.484 58.7498 287.039C57.0177 283.652 56.3503 281.314 55.6987 279.056C55.5239 278.452 55.3491 277.864 55.1743 277.259L54.5069 278.277C54.3956 278.436 54.2049 278.531 54.0143 278.515C53.8236 278.5 53.6488 278.372 53.5852 278.197L52.9178 276.591C52.886 276.56 52.8383 276.528 52.7906 276.528L51.0108 276.369C50.9472 276.369 50.7089 276.528 50.693 276.639C50.6771 276.719 50.6453 276.814 50.5817 276.878L49.4058 278.341C49.2946 278.484 49.1198 278.547 48.945 278.531C48.7701 278.515 48.6112 278.42 48.5318 278.261L48.3093 277.864L47.0539 288.184Z" fill="black"/>
<path d="M52.6953 289.901C50.1686 289.901 48.4205 289.344 48.3252 289.297C48.055 289.201 47.8961 288.915 47.9915 288.629C48.0868 288.359 48.3887 288.2 48.6589 288.295C48.6907 288.311 52.3139 289.472 56.6204 288.343C56.9064 288.263 57.1925 288.438 57.256 288.724C57.3355 289.011 57.1607 289.297 56.8747 289.36C55.3491 289.774 53.9348 289.901 52.6953 289.901Z" fill="black"/>
<path d="M54.9041 284.844H50.6611C50.3751 284.844 50.1367 284.606 50.1367 284.32C50.1367 284.033 50.3751 283.795 50.6611 283.795H54.9041C55.1901 283.795 55.4285 284.033 55.4285 284.32C55.4285 284.606 55.1901 284.844 54.9041 284.844Z" fill="black"/>
<path d="M19.9911 264.538L18.6245 276.432L14.2703 276.273V264.538H19.9911Z" fill="white"/>
<path d="M18.6245 276.957H18.6086L14.2544 276.798C13.9683 276.782 13.7458 276.56 13.7458 276.273V264.538C13.7458 264.252 13.9842 264.013 14.2703 264.013H19.9911C20.1341 264.013 20.2771 264.077 20.3884 264.188C20.4837 264.3 20.5314 264.443 20.5155 264.602L19.1489 276.496C19.1171 276.75 18.8946 276.957 18.6245 276.957ZM14.7947 275.765L18.1477 275.892L19.4031 265.079H14.7947V275.765Z" fill="black"/>
<path d="M20.039 273.602C20.039 273.602 20.2138 278.865 20.039 280.996C19.9118 282.523 17.8778 287.102 16.7177 289.599C16.241 290.617 15.3352 291.284 14.334 291.316C13.1104 291.364 11.41 291.428 10.0434 291.428C8.15233 291.428 6.86514 289.249 7.53257 287.198C8.15233 285.321 9.18526 283.238 10.8856 280.694C12.1251 278.849 13.2534 273.379 13.2534 273.379H16.7972L17.7983 276.417L20.039 273.602Z" fill="white"/>
<path d="M10.0592 291.952C9.0898 291.952 8.184 291.475 7.58013 290.632C6.84913 289.615 6.64255 288.279 7.05572 287.039C7.72315 285.003 8.81964 282.888 10.4723 280.408C11.6324 278.675 12.7448 273.332 12.7607 273.284C12.8083 273.045 13.0308 272.87 13.2692 272.87H16.8129C17.0354 272.87 17.242 273.014 17.3056 273.236L18.0048 275.335L19.6098 273.284C19.7528 273.109 19.9753 273.045 20.1819 273.109C20.3885 273.173 20.5315 273.363 20.5474 273.586C20.5474 273.809 20.7222 278.913 20.5474 281.044C20.4202 282.554 18.6563 286.657 17.1784 289.821C16.6222 291.014 15.5416 291.793 14.3498 291.857C13.1738 291.889 11.4576 291.952 10.0592 291.952ZM13.6982 273.92C13.3963 275.256 12.427 279.374 11.3463 280.996C9.74134 283.397 8.69252 285.417 8.05687 287.373C7.75493 288.279 7.89795 289.281 8.43826 290.012C8.85143 290.585 9.42351 290.903 10.0592 290.903C11.4258 290.903 13.1421 290.839 14.3339 290.791C15.1285 290.76 15.8753 290.219 16.2567 289.376C18.2431 285.067 19.435 281.998 19.5303 280.964C19.6416 279.581 19.6098 276.798 19.5621 275.081L18.2431 276.766C18.116 276.925 17.9253 276.989 17.7346 276.957C17.5439 276.925 17.385 276.782 17.3214 276.607L16.4315 273.936H13.6982V273.92Z" fill="black"/>
<path d="M9.88427 289.694C9.59823 289.694 9.35986 289.456 9.35986 289.17C9.35986 288.883 9.59823 288.645 9.88427 288.645L12.9831 288.613C13.9524 288.613 14.5881 288.072 15.3032 286.609C15.7322 285.719 16.1772 284.685 16.5109 283.938C17.0512 282.698 17.0989 282.602 17.2419 282.491C17.4644 282.3 17.7981 282.332 17.9888 282.555C18.1477 282.745 18.1477 283.032 17.9888 283.222C17.9093 283.35 17.6869 283.858 17.4803 284.367C17.1466 285.131 16.7016 286.164 16.2567 287.071C15.6051 288.422 14.7629 289.662 12.999 289.662L9.88427 289.694Z" fill="black"/>
<path d="M14.4768 285.401H10.5835C10.2975 285.401 10.0591 285.162 10.0591 284.876C10.0591 284.59 10.2975 284.351 10.5835 284.351H14.4609C14.747 284.351 14.9854 284.59 14.9854 284.876C14.9854 285.162 14.7629 285.401 14.4768 285.401Z" fill="black"/>
<path d="M61.6261 173.072C61.6261 173.072 61.1652 208.612 59.6715 231.749C58.4002 251.356 56.0959 267.035 55.4285 271.376C55.3173 272.107 54.7293 272.68 53.9983 272.775C52.8064 272.918 50.8995 273.045 49.0402 272.727C48.3728 272.616 47.8484 272.107 47.7054 271.455C46.7678 267.209 43.2717 250.91 43.2717 244.645C43.2717 237.76 44.5112 236.027 44.6543 230.413C44.7655 226.215 43.3512 211.252 42.6361 204.001C42.5407 203.047 41.2217 202.888 40.9039 203.794C38.6156 210.361 33.737 224.577 29.1762 239.159C28.9378 239.907 27.7778 246.283 27.5553 247.015C24.6631 256.301 21.5802 265.158 20.6108 269.595C20.4837 270.135 20.0705 270.565 19.5143 270.692C18.2589 270.962 15.9229 271.264 13.7935 270.485C13.2373 270.278 12.8718 269.738 12.8877 269.149C12.9036 264.633 13.0148 244.995 13.428 241.99C14.2861 235.677 19.2124 229.475 20.0864 222.765C20.9763 216.07 21.4849 199.246 23.9162 189.149C26.3476 179.067 31.1308 167.729 31.1308 167.729L61.6261 173.072Z" fill="#019AFF"/>
<path d="M51.5352 273.475C50.7088 273.475 49.8189 273.411 48.929 273.268C48.055 273.109 47.3717 272.457 47.1651 271.582C46.1163 266.844 42.7156 250.926 42.7156 244.661C42.7156 240.861 43.0811 238.603 43.4465 236.44C43.7485 234.643 44.0345 232.926 44.0822 230.413C44.1934 226.168 42.7156 210.584 42.064 204.064C42.0322 203.794 41.8098 203.746 41.7462 203.731C41.6826 203.715 41.4443 203.715 41.3648 203.969C38.9176 210.998 34.1343 224.943 29.6371 239.318C29.5258 239.668 29.1603 241.576 28.8266 243.246C28.3976 245.44 28.1274 246.808 28.0162 247.174C27.0468 250.274 26.0774 253.28 25.1558 256.174C23.3283 261.867 21.7391 266.78 21.0876 269.706C20.9287 270.453 20.3407 271.042 19.5938 271.201C18.3225 271.471 15.8435 271.805 13.5869 270.978C12.8242 270.708 12.3315 269.96 12.3315 269.149C12.3633 263.52 12.4746 244.916 12.8718 241.926C13.3009 238.746 14.747 235.565 16.1613 232.481C17.6074 229.316 19.1012 226.04 19.5462 222.701C19.8322 220.57 20.0706 217.406 20.3566 213.733C20.9605 205.798 21.7233 195.939 23.3918 189.038C25.8073 179.02 30.5906 167.65 30.6382 167.539C30.7336 167.316 30.9719 167.173 31.2103 167.221L61.7056 172.564C61.9598 172.611 62.1505 172.834 62.1346 173.088C62.1346 173.438 61.6579 208.914 60.18 231.797C58.9087 251.403 56.6045 267.13 55.9212 271.471C55.7781 272.441 54.9995 273.188 54.0301 273.316C53.3627 273.395 52.4887 273.475 51.5352 273.475ZM41.7144 202.681C41.778 202.681 41.8256 202.681 41.8892 202.697C42.5725 202.776 43.0652 203.285 43.1287 203.969C43.9233 212.079 45.2582 226.295 45.1469 230.445C45.0833 233.037 44.7973 234.77 44.4954 236.615C44.1458 238.746 43.7803 240.956 43.7803 244.661C43.7803 250.815 47.1651 266.653 48.198 271.36C48.2934 271.805 48.6589 272.155 49.1038 272.234C50.8677 272.536 52.6952 272.425 53.903 272.282C54.3956 272.218 54.8088 271.821 54.8882 271.328C55.5715 266.987 57.8599 251.308 59.1312 231.749C60.5137 210.282 61.0222 177.732 61.0858 173.549L31.4487 168.366C30.5906 170.433 26.5701 180.435 24.4248 189.324C22.7721 196.146 22.0252 205.957 21.4213 213.844C21.1353 217.533 20.8969 220.713 20.6109 222.876C20.15 226.358 18.6245 229.714 17.1466 232.958C15.7164 236.106 14.3497 239.08 13.9524 242.101C13.5393 245.106 13.428 265.19 13.4121 269.197C13.4121 269.579 13.6346 269.913 13.9842 270.04C16.0024 270.771 18.2431 270.469 19.419 270.231C19.7527 270.151 20.0229 269.881 20.1023 269.547C20.7539 266.573 22.343 261.628 24.1864 255.919C25.124 253.025 26.0933 250.02 27.0468 246.919C27.1581 246.585 27.5077 244.725 27.8255 243.103C28.2545 240.908 28.5406 239.445 28.6677 239.064C33.1808 224.673 37.9482 210.711 40.4113 203.683C40.602 203.047 41.1105 202.681 41.7144 202.681Z" fill="black"/>
<path d="M38.9653 107.86C40.2366 106.731 41.635 105.109 45.433 104.25C48.8655 103.471 51.9325 105.157 52.441 109.466C52.8542 112.98 49.4535 114.746 48.1345 116.924C43.8915 123.984 50.3752 129.454 47.3082 136.26C44.4001 142.748 37.5033 140.029 30.6065 148.171C25.1717 154.579 30.0503 155.708 22.9151 162.752C17.2261 168.366 14.2226 165.996 8.96264 163.372C-0.190702 158.793 -2.66973 145.754 3.01932 138.948C8.12041 132.826 7.24639 137.342 12.8242 131.442C18.3226 125.622 10.1545 122.664 17.9094 117.576C23.8527 113.664 28.3658 115.731 30.4952 115.111C34.8971 113.855 35.056 111.358 38.9653 107.86Z" fill="black"/>
<path d="M115.513 136.085L110.635 137.723C109.093 138.248 107.901 139.457 107.409 141.015L106.201 144.847C104.517 145.976 102.832 146.883 101.164 147.614C101.466 148.266 101.767 148.918 102.053 149.57C102.514 150.635 102.959 151.717 103.404 152.782C105.661 150.54 107.186 148.504 107.949 147.391C108.315 146.867 108.871 146.517 109.506 146.405C113.225 145.674 112.939 142.271 112.716 141.396C112.478 140.442 113.479 140.061 115.672 138.614C116.213 138.264 116.562 137.914 116.769 137.596C117.357 136.753 116.451 135.704 115.513 136.085Z" fill="white"/>
<path d="M103.42 153.323C103.388 153.323 103.357 153.323 103.309 153.307C103.134 153.275 102.991 153.148 102.928 152.989C102.498 151.971 102.053 150.874 101.577 149.777C101.307 149.156 101.036 148.552 100.687 147.837C100.623 147.709 100.623 147.566 100.671 147.423C100.719 147.296 100.814 147.185 100.957 147.121C102.594 146.405 104.199 145.515 105.756 144.497L106.9 140.856C107.441 139.154 108.76 137.787 110.46 137.23L115.323 135.592C115.958 135.338 116.673 135.529 117.118 136.054C117.563 136.594 117.595 137.31 117.214 137.882C116.944 138.296 116.514 138.693 115.958 139.059C115.561 139.329 115.196 139.552 114.862 139.759C113.447 140.649 113.13 140.904 113.209 141.269C113.4 142.033 113.495 143.686 112.653 145.006C112.017 146.008 110.984 146.644 109.602 146.914C109.093 147.01 108.648 147.296 108.378 147.694C107.647 148.743 106.09 150.858 103.786 153.164C103.706 153.259 103.563 153.323 103.42 153.323ZM101.895 147.884C102.133 148.409 102.355 148.886 102.562 149.363C102.928 150.206 103.277 151.049 103.611 151.86C105.565 149.84 106.884 148.043 107.536 147.105C107.965 146.485 108.632 146.056 109.427 145.897C110.523 145.69 111.318 145.197 111.795 144.45C112.446 143.416 112.367 142.096 112.224 141.524C111.938 140.379 112.844 139.806 114.322 138.868C114.639 138.661 115.005 138.439 115.402 138.184C115.831 137.898 116.149 137.612 116.356 137.31C116.546 137.039 116.371 136.801 116.324 136.737C116.213 136.594 115.99 136.483 115.72 136.578C115.704 136.578 115.704 136.594 115.688 136.594L110.81 138.232C109.443 138.693 108.362 139.79 107.917 141.174L106.71 145.006C106.678 145.117 106.598 145.213 106.503 145.292C105.025 146.278 103.468 147.153 101.895 147.884Z" fill="black"/>
<path d="M104.707 146.692L106.408 149.331C106.789 149.936 106.869 150.683 106.583 151.335C105.327 154.245 101.116 162.228 91.3429 165.392C79.2815 169.304 66.2507 160.065 66.2507 160.065C66.2507 160.065 67.7445 187.765 63.2631 191.359C54.8726 198.085 25.9982 194.857 23.0266 186.35C19.7689 177.048 28.5726 135.068 40.491 130.329C48.4048 127.181 64.9158 127.88 70.9545 135.895C73.1475 138.805 77.4063 150.444 86.5279 150.588C93.0751 150.699 99.0025 147.694 101.815 145.992C102.8 145.42 104.088 145.722 104.707 146.692Z" fill="white"/>
<path d="M47.9121 195.509C42.8428 195.509 37.5193 194.794 33.0856 193.522C27.2694 191.852 23.5191 189.371 22.5179 186.525C19.2602 177.254 27.9051 134.766 40.2843 129.836C48.5795 126.544 65.2812 127.499 71.3676 135.577C71.8284 136.181 72.3369 137.103 72.9885 138.28C75.4357 142.653 79.5198 149.967 86.5119 150.079C92.8843 150.19 98.6528 147.296 101.513 145.563C102.753 144.815 104.342 145.181 105.12 146.405L106.821 149.045C107.298 149.793 107.393 150.731 107.043 151.542C105.645 154.786 101.338 162.689 91.4858 165.901C80.9817 169.304 69.9691 163.102 66.8068 161.098C67.061 166.68 67.7761 188.417 63.565 191.788C60.3549 194.365 54.3481 195.509 47.9121 195.509ZM51.2652 129.105C47.2765 129.105 43.4785 129.725 40.6816 130.838C35.66 132.826 30.4 142.526 26.5702 156.773C23.2648 169.081 21.9618 181.739 23.5191 186.191C24.3931 188.704 27.9051 190.946 33.3716 192.52C42.9858 195.271 57.4945 195.319 62.9293 190.962C66.4413 188.147 66.1393 167.729 65.7262 160.097L65.6626 159.015L66.5525 159.651C66.6796 159.747 79.5197 168.699 91.1839 164.899C100.623 161.83 104.755 154.245 106.106 151.128C106.312 150.635 106.265 150.063 105.979 149.618L104.278 146.978C103.802 146.246 102.848 146.024 102.085 146.469C99.1136 148.25 93.1544 151.24 86.5119 151.128C78.9159 151.001 74.6411 143.368 72.0827 138.789C71.4788 137.707 70.9544 136.769 70.5412 136.213C66.7591 131.22 58.6546 129.105 51.2652 129.105Z" fill="black"/>
<path d="M74.2278 168.556L49.4375 168.843L58.0664 138.089H85.59L74.2278 168.556Z" fill="black"/>
<path d="M57.7487 153.005C58.4162 153.736 57.1131 154.754 56.5887 155.581C56.2709 156.09 56.6681 156.455 57.2243 156.217C58.8293 155.549 64.1052 153.211 65.2812 154.674C65.6944 155.183 65.4083 156.249 64.5979 157.25C62.8816 159.349 57.6216 161.894 54.65 162.577C52.9019 162.975 50.0415 164.597 49.7396 164.517C48.4365 164.167 47.9439 161.544 48.3094 161.035C48.4047 160.908 50.6772 159.429 53.188 155.803C54.5069 153.911 57.1449 152.337 57.7487 153.005Z" fill="white"/>
<path d="M49.7713 165.042C49.7077 165.042 49.66 165.042 49.6123 165.026C48.9131 164.835 48.3252 164.183 47.9755 163.182C47.6895 162.355 47.5306 161.242 47.8961 160.733C47.9597 160.653 48.0073 160.606 48.1821 160.462C48.8019 159.969 50.6771 158.507 52.7588 155.501C53.8712 153.895 55.9529 152.416 57.1925 152.337C57.6851 152.305 57.987 152.496 58.13 152.671C58.9246 153.545 58.0824 154.563 57.5103 155.231C57.3831 155.39 57.256 155.533 57.1448 155.676L57.256 155.628C60.7362 154.15 64.4706 152.846 65.6625 154.34C66.2505 155.072 65.9644 156.376 64.9791 157.584C63.2311 159.731 57.9393 162.355 54.7452 163.086C53.7917 163.309 52.4251 163.929 51.4239 164.39C50.4228 164.867 50.0414 165.042 49.7713 165.042ZM48.7383 161.369C48.6907 161.576 48.7224 162.402 49.1038 163.182C49.3104 163.595 49.5488 163.881 49.803 163.993C50.0255 163.913 50.5658 163.675 51.0267 163.452C52.1232 162.943 53.4898 162.307 54.5545 162.068C57.5738 161.369 62.6272 158.872 64.2005 156.932C64.9315 156.042 65.0586 155.247 64.8838 155.024C64.566 154.627 63.1993 154.293 57.701 156.614L57.4467 156.726C56.9541 156.932 56.4615 156.853 56.1754 156.519C55.9688 156.264 55.8576 155.819 56.1595 155.326C56.3184 155.072 56.525 154.817 56.7316 154.579C57.1607 154.054 57.5103 153.593 57.3831 153.402C56.9541 153.275 54.8723 154.34 53.6328 156.121C51.4557 159.254 49.4852 160.812 48.8337 161.321C48.786 161.321 48.7701 161.353 48.7383 161.369Z" fill="black"/>
<path d="M52.584 164.406L49.0085 158.459C49.0085 158.459 41.7145 162.641 37.6622 160.86C30.5906 157.743 31.9255 146.883 33.1332 141.46C34.3409 136.054 40.0141 131.426 40.0141 131.426C40.0141 131.426 29.2557 134.622 24.1547 143.13C19.4191 151.033 16.4156 170.703 31.1627 173.979C40.8087 176.125 52.584 164.406 52.584 164.406Z" fill="white"/>
<path d="M33.7053 174.79C32.7995 174.79 31.9096 174.694 31.0356 174.504C29.0333 174.058 27.2535 173.327 25.7756 172.309C25.5373 172.15 25.4737 171.816 25.6326 171.578C25.7915 171.339 26.1252 171.275 26.3636 171.435C27.7461 172.373 29.3988 173.056 31.274 173.47C39.0925 175.203 48.8338 167.57 51.6306 165.201C52.012 164.883 52.0915 164.327 51.8213 163.897L49.4218 160.033C49.1675 159.636 48.659 159.477 48.214 159.651L48.1028 159.699C45.7032 160.701 40.6975 162.768 37.4557 161.337C30.5748 158.316 31.274 148.536 32.291 142.971C32.3387 142.685 32.6247 142.494 32.9108 142.541C33.1968 142.589 33.3875 142.875 33.3398 143.162C32.3705 148.425 31.6713 157.648 37.9006 160.383C40.7293 161.623 45.449 159.667 47.7214 158.729L47.8326 158.681C48.7543 158.3 49.8031 158.634 50.3434 159.477L52.743 163.341C53.2992 164.199 53.1244 165.344 52.3457 165.996C49.0086 168.811 41.0948 174.79 33.7053 174.79Z" fill="black"/>
<path d="M43.0334 118.26C43.2877 118.276 43.5101 118.085 43.4943 117.83C43.4307 116.622 43.1447 114.332 44.3524 113.378C45.8938 112.154 48.4682 110.293 49.3581 111.549C50.1368 112.647 50.8837 114.857 52.8701 115.747C53.0608 115.827 53.0608 116.113 52.9654 116.304L52.4887 117.353C52.3774 117.56 52.441 118.053 52.5205 118.276C52.7747 118.959 53.3468 120.391 53.2038 120.677C52.9336 121.233 50.6612 122.14 50.6612 122.14L51.7736 129.041C51.8213 129.295 51.9643 129.741 52.2185 129.693L54.4592 129.979C54.7135 130.011 54.8883 130.265 54.8088 130.52C54.491 131.538 53.2674 133.891 48.7701 134.463C43.685 135.099 41.5555 133.684 40.7133 132.667C40.3955 132.301 40.5703 131.712 41.0311 131.569C42.9381 130.965 47.2128 128.866 45.0039 122.442C44.9404 122.267 44.7973 122.124 44.6066 122.092C43.8915 121.949 41.9528 121.456 41.635 120.168C41.3331 118.816 42.1594 118.18 43.0334 118.26Z" fill="white"/>
<path d="M46.3706 135.147C42.9222 135.147 41.19 134.034 40.316 133C40.0617 132.698 39.9664 132.269 40.0776 131.887C40.1889 131.49 40.4908 131.188 40.8881 131.06C41.8733 130.742 43.6691 129.963 44.559 128.198C45.3058 126.735 45.29 124.843 44.5272 122.601C43.4148 122.378 41.5078 121.774 41.1423 120.279C40.9517 119.5 41.0788 118.8 41.492 118.323C41.8416 117.91 42.366 117.703 42.9539 117.719L42.9381 117.512C42.8586 116.193 42.6997 113.998 44.0187 112.949C46.2434 111.184 47.7054 110.452 48.7542 110.611C49.1833 110.675 49.5488 110.881 49.7872 111.231C49.9938 111.533 50.2003 111.899 50.4228 112.281C51.0108 113.346 51.7577 114.666 53.0925 115.27C53.2832 115.366 53.4422 115.525 53.5057 115.731C53.5852 115.986 53.5693 116.288 53.4422 116.542L52.9813 117.576C52.9495 117.671 52.9813 117.974 53.029 118.101C53.0608 118.212 53.1084 118.323 53.1561 118.451C53.7123 119.961 53.8712 120.518 53.6805 120.899C53.4104 121.456 52.1709 122.076 51.2651 122.458L52.3139 128.946C52.3298 129.025 52.3457 129.105 52.3774 129.168L54.5545 129.439C54.8406 129.47 55.079 129.629 55.222 129.868C55.3809 130.106 55.4127 130.393 55.3332 130.663C54.9836 131.76 53.6805 134.352 48.8655 134.972C47.9438 135.099 47.1174 135.147 46.3706 135.147ZM42.8904 118.784C42.652 118.784 42.4295 118.864 42.3024 119.023C42.1117 119.246 42.064 119.595 42.1753 120.057C42.3342 120.724 43.2877 121.281 44.7338 121.583C45.0993 121.663 45.4012 121.917 45.5283 122.283C46.3865 124.811 46.3865 126.958 45.5124 128.691C44.4477 130.806 42.366 131.712 41.2059 132.078C41.1265 132.094 41.1106 132.158 41.0947 132.189C41.0788 132.221 41.0788 132.285 41.1265 132.333C41.8575 133.207 43.8121 134.559 48.7066 133.939C52.727 133.43 53.9189 131.442 54.2685 130.488L52.2344 130.234C52.0755 130.25 51.9166 130.202 51.7736 130.106C51.424 129.852 51.2968 129.359 51.2651 129.152L50.1527 122.251C50.1209 122.013 50.248 121.774 50.4705 121.679C51.4558 121.281 52.441 120.756 52.6953 120.502C52.6476 120.168 52.3139 119.246 52.155 118.848C52.1073 118.705 52.0596 118.594 52.0119 118.482C51.9166 118.228 51.7895 117.544 52.0119 117.131L52.4569 116.161C50.9313 115.382 50.105 113.903 49.5011 112.821C49.2945 112.456 49.1039 112.122 48.929 111.867C48.8496 111.756 48.7542 111.692 48.6112 111.677C48.1186 111.613 47.0539 111.915 44.6861 113.791C43.7962 114.491 43.9233 116.352 44.0028 117.465L44.0187 117.815C44.0346 118.085 43.9392 118.339 43.7326 118.53C43.5419 118.721 43.2559 118.816 42.9857 118.8C42.9539 118.784 42.9222 118.784 42.8904 118.784Z" fill="black"/>
<path d="M192.935 115.286C192.935 115.286 202.057 125.463 223.081 130.599L224.638 145.547C224.638 145.547 197.274 138.789 185.228 123.014L192.935 115.286Z" fill="white"/>
<path d="M224.638 146.072C224.591 146.072 224.559 146.072 224.511 146.056C224.241 145.992 196.829 139.059 184.815 123.332C184.656 123.126 184.672 122.824 184.863 122.633L192.586 114.905C192.681 114.809 192.824 114.746 192.967 114.746C193.11 114.746 193.253 114.809 193.348 114.92C193.444 115.016 202.629 125.05 223.224 130.075C223.446 130.122 223.605 130.313 223.621 130.536L225.179 145.483C225.194 145.658 225.131 145.817 225.004 145.928C224.893 146.024 224.765 146.072 224.638 146.072ZM185.927 123.062C196.749 136.833 219.664 143.639 224.034 144.847L222.588 131.029C204.25 126.465 194.874 117.974 192.935 116.049L185.927 123.062Z" fill="black"/>
<path d="M220.252 129.136L222.985 147.042L232.743 148.043C232.743 148.043 238.432 155.74 242.119 173.375C242.119 173.375 243.739 174.313 246.504 174.615C251.939 175.203 256.341 172.738 257.708 172.007C261.712 169.876 268.943 167.777 283.086 168.413C282.721 161.782 280.941 138.312 269.42 125.479C265.733 121.376 262.682 120.184 261.76 119.85C254.275 117.194 245.869 120.788 239.163 123.65C235.301 125.304 232.091 127.149 226.275 128.325C223.764 128.834 221.667 129.041 220.252 129.136Z" fill="black"/>
<path d="M251.653 144.402C251.542 144.402 251.447 144.37 251.351 144.306L249.651 143.114C249.54 143.034 249.46 142.907 249.429 142.764C249.413 142.621 249.444 142.478 249.524 142.367C252.114 138.741 253.385 134.591 254.18 131.394C254.244 131.108 254.53 130.933 254.816 131.013C255.102 131.076 255.261 131.363 255.197 131.649C254.402 134.813 253.163 138.884 250.668 142.541L251.939 143.432C252.178 143.591 252.241 143.925 252.066 144.163C251.987 144.322 251.828 144.402 251.653 144.402Z" fill="#CADDFF"/>
<path d="M267.703 153.975C267.624 153.975 267.56 153.959 267.481 153.927L265.828 153.18C265.558 153.068 265.447 152.75 265.558 152.48C265.685 152.21 265.987 152.098 266.257 152.21L267.545 152.782C271.072 148.123 271.009 141.222 271.009 141.142C271.009 140.856 271.231 140.617 271.533 140.601C271.533 140.601 271.533 140.601 271.549 140.601C271.835 140.601 272.074 140.824 272.074 141.126C272.074 141.444 272.153 148.807 268.117 153.768C268.021 153.895 267.862 153.975 267.703 153.975Z" fill="#CADDFF"/>
<path d="M161.582 170.592L187.103 169.272C187.103 169.272 187.723 169.256 188.804 169.24L194.064 168.97C195.001 168.779 196.034 168.429 196.447 167.968C197.369 166.95 197.067 165.869 197.035 165.44C196.988 164.533 196.558 163.675 195.843 163.086C193.047 160.78 191.267 157.298 191.33 153.354C191.442 147.105 196.384 141.842 202.724 141.237C209.939 140.538 216.2 145.897 216.566 152.925C216.756 156.503 215.374 159.826 213.006 162.212C212.354 162.864 212.021 163.77 212.068 164.676C212.164 166.505 213.753 167.92 215.596 167.825L216.041 167.809V167.777L220.173 167.57C220.189 167.57 220.3 167.555 220.316 167.555L234.539 166.68C234.713 166.505 234.825 166.267 234.809 165.996L231.138 94.2007L204.17 95.5842C202.597 95.282 201.389 93.8827 201.469 92.1971C201.501 91.3702 201.882 90.607 202.454 90.0186C204.981 87.4267 206.379 83.7852 205.887 79.8734C205.124 73.799 199.848 69.1399 193.619 69.0286C186.229 68.9014 180.381 74.944 180.747 82.0678C180.937 85.6457 182.638 88.7942 185.244 90.925C185.959 91.5134 186.388 92.372 186.436 93.2784C186.515 94.8209 185.498 96.1725 184.068 96.6019L157.101 97.9853L158.388 123.046H158.404L158.435 123.555C158.515 125.034 159.516 126.338 160.978 126.688C162.249 126.99 163.552 126.56 164.363 125.606C166.778 122.792 170.433 121.011 174.565 121.17C180.699 121.392 185.832 126.052 186.563 132.03C187.437 139.234 181.923 145.563 174.66 145.928C170.99 146.119 167.605 144.752 165.173 142.398C164.903 142.128 164.585 141.889 164.22 141.762C161.693 140.84 159.405 142.7 159.516 144.99L159.548 145.61H159.532L160.819 170.671L161.582 170.639V170.592Z" fill="#019AFF"/>
<path d="M160.819 171.196C160.533 171.196 160.311 170.973 160.295 170.703L159.008 145.642C159.008 145.595 159.008 145.547 159.023 145.499L158.992 145.038C158.928 143.766 159.516 142.541 160.549 141.778C161.645 140.967 163.044 140.792 164.395 141.285C164.792 141.428 165.157 141.683 165.539 142.033C167.938 144.354 171.26 145.579 174.629 145.42C178.013 145.245 181.192 143.67 183.353 141.11C185.482 138.582 186.436 135.386 186.038 132.11C185.339 126.401 180.397 121.917 174.549 121.71C170.751 121.567 167.192 123.126 164.76 125.956C163.807 127.069 162.297 127.546 160.851 127.196C159.198 126.799 157.99 125.304 157.911 123.571L157.895 123.205C157.879 123.157 157.863 123.11 157.863 123.062L156.576 98.0012C156.576 97.8581 156.624 97.7309 156.703 97.6196C156.799 97.5083 156.926 97.4606 157.069 97.4446L183.973 96.0771C185.18 95.6796 185.975 94.5506 185.911 93.3102C185.88 92.547 185.514 91.8314 184.91 91.3385C182.113 89.0327 180.413 85.6775 180.222 82.0997C180.047 78.5377 181.319 75.1348 183.83 72.5428C186.404 69.8714 189.884 68.4243 193.634 68.5038C200.134 68.6152 205.632 73.4651 206.411 79.8098C206.904 83.7057 205.585 87.5539 202.836 90.3844C202.327 90.9091 202.025 91.5611 201.993 92.2289C201.93 93.5965 202.851 94.7732 204.202 95.0594L231.106 93.6919C231.392 93.6919 231.646 93.8986 231.662 94.1848L235.333 165.98C235.349 166.378 235.19 166.775 234.904 167.062C234.809 167.157 234.697 167.205 234.57 167.205L220.348 168.079C220.332 168.079 220.3 168.079 220.284 168.079H220.221L216.2 168.286C216.152 168.302 216.105 168.318 216.041 168.318L215.596 168.334C213.467 168.445 211.623 166.807 211.512 164.692C211.464 163.627 211.862 162.577 212.609 161.83C214.945 159.461 216.184 156.233 216.009 152.941C215.835 149.713 214.388 146.771 211.925 144.64C209.383 142.446 206.125 141.428 202.74 141.762C196.622 142.351 191.934 147.344 191.823 153.37C191.759 156.98 193.333 160.367 196.145 162.673C196.972 163.341 197.464 164.342 197.528 165.408C197.528 165.456 197.544 165.519 197.544 165.599C197.607 166.139 197.75 167.268 196.797 168.318C196.209 168.97 194.874 169.32 194.127 169.479C194.095 169.479 194.079 169.495 194.048 169.495L188.788 169.765C187.691 169.781 187.071 169.797 187.071 169.797L161.757 171.116C161.693 171.148 161.63 171.164 161.566 171.164L160.803 171.196C160.851 171.196 160.835 171.196 160.819 171.196ZM160.072 145.722L161.312 170.115H161.359C161.423 170.083 161.487 170.067 161.55 170.067L187.071 168.747C187.087 168.747 187.723 168.731 188.788 168.715L193.984 168.445C194.969 168.238 195.78 167.904 196.05 167.618C196.686 166.918 196.59 166.203 196.527 165.726C196.511 165.63 196.511 165.535 196.495 165.456C196.447 164.692 196.098 163.977 195.494 163.484C192.443 160.971 190.726 157.282 190.79 153.339C190.901 146.787 196.002 141.349 202.645 140.697C206.316 140.331 209.859 141.46 212.609 143.829C215.294 146.151 216.883 149.363 217.058 152.877C217.249 156.455 215.898 159.985 213.355 162.561C212.815 163.102 212.529 163.865 212.577 164.629C212.656 166.171 213.975 167.348 215.564 167.284L215.85 167.268C215.898 167.252 215.946 167.237 216.009 167.237L220.141 167.03C220.157 167.03 220.189 167.03 220.221 167.03H220.268L234.284 166.155C234.3 166.108 234.316 166.06 234.316 166.012L230.677 94.7414L204.234 96.093C204.186 96.093 204.154 96.093 204.107 96.0771C202.216 95.7114 200.897 94.0576 200.992 92.1494C201.04 91.2271 201.437 90.3208 202.136 89.6211C204.679 87.0291 205.871 83.499 205.426 79.9212C204.695 74.1012 199.641 69.6488 193.666 69.5374C190.202 69.4738 187.008 70.7937 184.64 73.2584C182.336 75.6436 181.16 78.7603 181.335 82.0361C181.509 85.3118 183.067 88.4126 185.641 90.5275C186.468 91.2112 186.96 92.1971 187.024 93.2625C187.119 95.0117 185.991 96.6019 184.29 97.1107C184.243 97.1266 184.211 97.1266 184.163 97.1266L157.72 98.4782L158.96 122.871C158.976 122.919 158.992 122.967 158.992 123.014L159.023 123.523C159.087 124.795 159.977 125.893 161.169 126.179C162.233 126.433 163.33 126.083 164.029 125.272C166.667 122.187 170.545 120.502 174.66 120.661C181.033 120.899 186.404 125.765 187.167 131.983C187.596 135.545 186.563 139.027 184.243 141.778C181.891 144.577 178.442 146.278 174.772 146.469C171.117 146.66 167.509 145.324 164.887 142.796C164.617 142.541 164.363 142.367 164.125 142.271C163.107 141.905 162.075 142.033 161.264 142.621C160.501 143.177 160.088 144.068 160.136 144.99L160.168 145.595C160.088 145.626 160.088 145.674 160.072 145.722Z" fill="black"/>
<path d="M219.283 159.922C219.283 159.922 248.475 166.187 251.51 144.656L265.781 153.545C265.781 153.545 254.148 184.744 218.584 165.471C218.584 165.471 210.416 165.996 208.906 164.963C207.38 163.929 204.377 159.254 204.806 158.538L204.17 156.217C204.091 155.946 204.123 155.676 204.234 155.422C204.52 154.786 205.33 154.595 205.871 155.024L211.846 159.731H212.434C213.324 159.731 213.991 158.904 213.8 158.03L212.958 154.245C212.863 153.831 213.181 153.45 213.594 153.45L219.283 159.922Z" fill="white"/>
<path d="M239.91 172.293C233.394 172.293 226.212 170.194 218.457 166.012C216.772 166.107 210.13 166.441 208.588 165.392C207.269 164.501 204.107 160.113 204.25 158.554L203.646 156.344C203.535 155.962 203.583 155.549 203.741 155.183C203.948 154.738 204.345 154.42 204.822 154.293C205.299 154.181 205.791 154.293 206.189 154.595L212.021 159.19H212.434C212.704 159.19 212.942 159.063 213.117 158.856C213.276 158.65 213.34 158.379 213.292 158.125L212.45 154.34C212.37 153.991 212.45 153.625 212.688 153.339C212.911 153.052 213.244 152.893 213.61 152.893C213.769 152.893 213.912 152.957 214.007 153.068L219.601 159.429C221.301 159.763 235.54 162.275 244.28 156.153C248.046 153.529 250.303 149.633 251.018 144.577C251.05 144.402 251.161 144.243 251.32 144.179C251.479 144.1 251.669 144.116 251.828 144.211L266.099 153.1C266.305 153.227 266.401 153.498 266.321 153.736C266.273 153.863 261.601 166.076 249.556 170.608C246.489 171.721 243.295 172.293 239.91 172.293ZM218.568 164.947C218.647 164.947 218.743 164.963 218.822 165.01C230.375 171.275 240.577 172.818 249.127 169.606C259.52 165.71 264.223 155.851 265.113 153.752L251.908 145.515C251.034 150.492 248.666 154.356 244.852 157.028C235.206 163.77 219.823 160.574 219.172 160.431C219.061 160.415 218.965 160.351 218.886 160.256L213.451 154.054C213.451 154.07 213.451 154.086 213.451 154.086L214.293 157.87C214.42 158.443 214.277 159.031 213.912 159.492C213.546 159.954 213.006 160.208 212.418 160.224H211.83C211.719 160.224 211.592 160.192 211.512 160.113L205.537 155.406C205.41 155.294 205.235 155.263 205.076 155.31C204.917 155.342 204.774 155.453 204.711 155.612C204.647 155.74 204.631 155.899 204.679 156.042L205.315 158.363C205.346 158.475 205.331 158.602 205.283 158.713C205.283 159.492 207.762 163.516 209.192 164.486C210.193 165.169 215.469 165.106 218.552 164.915C218.552 164.947 218.568 164.947 218.568 164.947Z" fill="black"/>
<path d="M252.194 106.795L253.544 117.178C253.703 118.244 254.514 119.103 255.578 119.341L256.85 119.627C257.47 119.77 257.565 120.216 257.247 120.772C255.896 123.205 253.926 124.334 243.199 124.445L241.404 124.302C240.673 124.239 240.466 123.285 241.086 122.919L242.802 121.917C244.995 121.138 244.804 117.767 244.947 116.717L244.979 105.189L252.194 106.795Z" fill="white"/>
<path d="M243.215 124.954C243.199 124.954 243.183 124.954 243.167 124.954L241.372 124.811C240.816 124.764 240.355 124.382 240.243 123.825C240.116 123.269 240.355 122.728 240.847 122.442L242.564 121.44C242.595 121.424 242.627 121.408 242.643 121.392C244.153 120.852 244.296 118.657 244.391 117.337C244.407 117.067 244.423 116.829 244.455 116.654L244.486 105.157C244.486 104.998 244.566 104.839 244.677 104.743C244.804 104.648 244.963 104.6 245.122 104.648L252.321 106.254C252.543 106.302 252.702 106.477 252.734 106.699L254.085 117.083C254.212 117.926 254.863 118.61 255.706 118.8L256.977 119.087C257.517 119.214 257.756 119.516 257.867 119.739C257.978 119.993 258.042 120.422 257.724 120.995C256.151 123.825 253.719 124.859 243.215 124.954ZM243.04 122.378L241.356 123.348C241.229 123.412 241.245 123.523 241.261 123.587C241.276 123.65 241.308 123.746 241.451 123.762L243.231 123.905C254.196 123.794 255.674 122.537 256.802 120.502C256.913 120.311 256.913 120.216 256.897 120.184C256.897 120.184 256.85 120.152 256.739 120.12L255.467 119.834C254.18 119.548 253.227 118.53 253.02 117.242L251.717 107.208L245.519 105.825L245.488 116.701C245.488 116.733 245.488 116.749 245.488 116.781C245.472 116.94 245.456 117.163 245.424 117.433C245.329 118.896 245.154 121.583 243.04 122.378Z" fill="black"/>
<path d="M238.321 94.5347C240.593 93.9304 238.178 96.8722 246.203 92.6742C249.397 91.0045 248.475 95.2661 249.301 94.8368C252.368 93.2466 253.211 92.8332 254.879 92.9286C255.992 92.9922 258.63 94.5983 258.566 96.0771C258.359 100.895 256.055 100.1 255.467 104.378C255.054 107.383 254.434 108.401 253.37 109.053C252.305 109.705 251.145 108.353 249.921 108.973C248.348 109.784 249.254 112.567 247.871 114.094C246.997 115.048 244.677 115.89 240.482 114.825C239.798 114.65 239.338 114.014 239.401 113.33C239.465 112.44 239.56 111.311 239.719 110.229C240.545 105.125 242.039 103.694 241.181 102.597C239.862 100.911 236.477 102.724 235.571 101.293C234.618 99.7981 235.206 95.3456 238.321 94.5347Z" fill="black"/>
<path d="M248.014 101.054L247.601 102.406C247.41 103.042 247.251 103.694 247.156 104.346C246.965 105.586 246.536 107.685 246.314 108.862C245.599 112.678 240.45 109.689 240.45 109.689L239.957 108.782L239.322 108.671C239.195 108.655 239.083 108.608 238.988 108.512C238.75 108.305 238.686 107.987 238.797 107.717C239.417 106.254 240.672 102.994 240.8 100.275C240.784 100.307 244.343 98.5737 248.014 101.054Z" fill="white"/>
<path d="M244.01 111.343C242.214 111.343 240.259 110.229 240.164 110.166C240.085 110.118 240.005 110.055 239.973 109.959L239.592 109.275L239.195 109.196C238.972 109.148 238.766 109.069 238.607 108.926C238.193 108.576 238.066 108.019 238.273 107.526C238.813 106.238 240.1 102.931 240.243 100.259C240.259 100.068 240.371 99.8935 240.545 99.814C240.704 99.7345 244.423 97.9853 248.3 100.609C248.491 100.736 248.57 100.975 248.507 101.197L248.094 102.549C247.903 103.153 247.76 103.789 247.665 104.425C247.522 105.332 247.251 106.715 247.045 107.812C246.965 108.242 246.886 108.639 246.822 108.957C246.632 109.991 246.123 110.707 245.329 111.056C244.931 111.279 244.47 111.343 244.01 111.343ZM240.816 109.323C241.658 109.784 243.724 110.659 244.884 110.118C245.36 109.896 245.646 109.466 245.774 108.767C245.837 108.449 245.917 108.051 245.996 107.622C246.203 106.524 246.473 105.141 246.616 104.266C246.727 103.583 246.886 102.915 247.077 102.247L247.379 101.277C244.661 99.6232 242.103 100.339 241.276 100.657C241.07 103.328 239.926 106.35 239.242 107.956C239.226 108.003 239.226 108.083 239.29 108.13C239.306 108.146 239.338 108.162 239.385 108.162L240.021 108.274C240.18 108.305 240.307 108.401 240.386 108.544L240.816 109.323Z" fill="black"/>
<path d="M247.935 105.507C247.935 105.507 248.92 102.247 250.318 103.01C251.701 103.758 250.525 107.32 247.935 105.507Z" fill="white"/>
<path d="M241.928 107.558C241.642 107.558 241.356 107.479 241.118 107.32C240.545 106.954 240.196 106.206 240.021 105.046C239.973 104.696 239.814 103.614 240.577 103.09C240.943 102.835 241.388 102.74 241.801 102.819C242.15 102.883 242.436 103.074 242.611 103.344C243.454 104.664 243.469 105.92 243.199 106.652C243.04 107.081 242.77 107.383 242.452 107.479C242.278 107.526 242.087 107.558 241.928 107.558ZM241.515 103.853C241.419 103.853 241.308 103.885 241.181 103.964C241.038 104.06 240.99 104.41 241.07 104.902C241.229 106 241.531 106.334 241.69 106.445C241.769 106.493 241.88 106.54 242.119 106.493C242.309 106.286 242.548 105.205 241.737 103.932C241.705 103.901 241.626 103.853 241.515 103.853Z" fill="black"/>
<path d="M241.499 103.837C241.229 103.837 240.99 103.63 240.974 103.344C240.959 103.058 241.165 102.803 241.467 102.772L248.857 102.215C249.143 102.199 249.397 102.406 249.429 102.708C249.445 102.994 249.238 103.249 248.936 103.281L241.547 103.837C241.531 103.837 241.515 103.837 241.499 103.837Z" fill="black"/>
<path d="M238.861 107.431C238.813 107.431 238.781 107.431 238.734 107.415C238.464 107.351 238.193 107.081 237.939 106.62C237.748 106.286 237.192 105.109 237.605 103.917C237.733 103.535 237.987 103.265 238.336 103.122C239.115 102.803 240.116 103.281 240.227 103.344C240.482 103.471 240.593 103.789 240.466 104.044C240.339 104.298 240.021 104.41 239.767 104.282C239.497 104.155 238.988 103.996 238.75 104.091C238.702 104.107 238.654 104.139 238.622 104.251C238.321 105.141 238.893 106.206 239.099 106.413C239.322 106.509 239.449 106.763 239.401 107.017C239.322 107.272 239.099 107.431 238.861 107.431Z" fill="black"/>
<path d="M279.542 266.86L281.211 278.595L285.486 278.611L285.692 267.082L279.542 266.86Z" fill="white"/>
<path d="M285.486 279.136L281.211 279.12C280.957 279.12 280.734 278.929 280.687 278.675L279.018 266.939C279.002 266.78 279.05 266.621 279.145 266.51C279.257 266.399 279.4 266.335 279.558 266.335L285.708 266.542C285.994 266.558 286.217 266.796 286.217 267.082L286.01 278.627C286.01 278.913 285.772 279.136 285.486 279.136ZM281.672 278.07L284.977 278.086L285.168 267.575L280.162 267.4L281.672 278.07Z" fill="black"/>
<path d="M281.068 289.821C282.737 289.996 285.247 290.076 288.585 289.774C289.776 289.662 290.619 288.565 290.428 287.373C289.904 284.192 288.458 278.563 286.185 275.987L285.057 277.593L284.389 275.939C284.278 275.765 281.449 275.637 281.386 275.971L281.211 277.593L279.606 275.796L279.701 281.712C279.717 282.364 279.654 283.016 279.511 283.652L279.082 285.703C278.827 286.927 279.145 288.247 280.003 289.154C280.337 289.535 280.718 289.774 281.068 289.821Z" fill="white"/>
<path d="M284.31 290.505C282.896 290.505 281.799 290.426 281.005 290.346C280.544 290.299 280.067 290.012 279.622 289.535C278.668 288.518 278.271 287.055 278.573 285.608L279.002 283.556C279.129 282.952 279.177 282.332 279.177 281.728L279.082 275.812C279.082 275.59 279.209 275.399 279.415 275.319C279.622 275.24 279.86 275.287 280.003 275.462L280.814 276.385L280.861 275.939C280.861 275.924 280.861 275.908 280.861 275.908C280.941 275.446 281.434 275.367 281.592 275.335C281.624 275.335 284.437 275.049 284.818 275.685C284.834 275.701 284.85 275.733 284.85 275.765L285.152 276.528L285.724 275.717C285.82 275.59 285.963 275.51 286.121 275.494C286.28 275.494 286.439 275.558 286.551 275.669C289.49 279.008 290.778 286.466 290.921 287.309C291.032 288.025 290.857 288.756 290.412 289.329C289.967 289.901 289.331 290.251 288.616 290.314C286.948 290.442 285.518 290.505 284.31 290.505ZM280.146 277.212L280.21 281.712C280.226 282.411 280.162 283.095 280.019 283.779L279.59 285.83C279.368 286.927 279.654 288.041 280.385 288.82C280.655 289.106 280.925 289.281 281.116 289.297C282.53 289.456 284.977 289.567 288.521 289.249C288.95 289.217 289.316 289.011 289.586 288.661C289.856 288.327 289.967 287.881 289.888 287.452C289.443 284.701 288.187 279.581 286.185 276.862L285.454 277.895C285.343 278.054 285.152 278.134 284.961 278.118C284.771 278.102 284.612 277.975 284.532 277.784L283.96 276.353C283.484 276.273 282.339 276.257 281.847 276.321L281.704 277.641C281.688 277.848 281.545 278.023 281.338 278.086C281.148 278.15 280.925 278.086 280.782 277.943L280.146 277.212Z" fill="black"/>
<path d="M284.119 288.406C282.244 288.406 281.084 288.184 281.004 288.168C280.718 288.104 280.544 287.834 280.591 287.548C280.655 287.261 280.925 287.086 281.211 287.134C281.243 287.134 284.167 287.707 288.251 286.991C288.537 286.943 288.807 287.134 288.855 287.42C288.902 287.707 288.712 287.977 288.426 288.025C286.773 288.311 285.311 288.406 284.119 288.406Z" fill="black"/>
<path d="M286.63 283.906H282.752C282.466 283.906 282.228 283.668 282.228 283.381C282.228 283.095 282.466 282.857 282.752 282.857H286.63C286.916 282.857 287.154 283.095 287.154 283.381C287.154 283.668 286.932 283.906 286.63 283.906Z" fill="black"/>
<path d="M248.872 267.909L247.363 281.585L241.61 282.793L241.96 266.764L248.872 267.909Z" fill="white"/>
<path d="M241.61 283.318C241.483 283.318 241.372 283.27 241.276 283.191C241.149 283.095 241.086 282.936 241.086 282.777L241.435 266.748C241.435 266.589 241.515 266.446 241.626 266.351C241.737 266.255 241.896 266.208 242.055 266.24L248.952 267.4C249.222 267.448 249.413 267.702 249.381 267.973L247.871 281.648C247.839 281.871 247.681 282.062 247.458 282.109L241.705 283.318C241.69 283.318 241.658 283.318 241.61 283.318ZM242.484 267.384L242.166 282.141L246.886 281.155L248.3 268.354L242.484 267.384Z" fill="black"/>
<path d="M249.794 288.104C249.921 285.703 249.921 281.298 248.459 279.167L243.867 280.805V279.819C243.867 279.501 243.644 279.247 243.358 279.231L240.8 279.088C239.846 279.04 238.893 279.231 238.019 279.66C235.444 280.933 227.594 284.176 226.514 287.834C226.196 288.915 227.038 289.996 228.166 290.028C230.741 290.108 236.954 290.187 248.094 289.806C249 289.774 249.747 289.042 249.794 288.104Z" fill="white"/>
<path d="M233.283 290.617C230.915 290.617 229.231 290.585 228.118 290.553C227.403 290.537 226.736 290.171 226.323 289.599C225.91 289.042 225.798 288.343 225.989 287.691C227.006 284.24 233.283 281.298 236.652 279.724C237.081 279.517 237.462 279.342 237.78 279.183C238.734 278.706 239.783 278.5 240.831 278.563L243.39 278.706C243.962 278.738 244.407 279.231 244.407 279.819V280.058L248.3 278.675C248.523 278.595 248.777 278.675 248.904 278.865C250.446 281.107 250.461 285.639 250.318 288.12C250.255 289.329 249.301 290.267 248.078 290.314C241.547 290.553 236.716 290.617 233.283 290.617ZM240.482 279.613C239.719 279.613 238.94 279.788 238.241 280.137C237.923 280.296 237.542 280.471 237.097 280.678C234.109 282.077 227.896 285.003 227.006 287.993C226.911 288.327 226.974 288.693 227.181 288.995C227.403 289.313 227.769 289.503 228.166 289.519C230.868 289.599 237.033 289.678 248.062 289.297C248.729 289.281 249.254 288.756 249.286 288.104C249.476 284.383 249.111 281.41 248.253 279.835L244.057 281.33C243.898 281.394 243.724 281.362 243.581 281.266C243.438 281.171 243.358 281.012 243.358 280.837V279.851C243.358 279.804 243.342 279.788 243.326 279.788L240.768 279.645C240.672 279.613 240.577 279.613 240.482 279.613Z" fill="black"/>
<path d="M235.063 288.343C231.631 288.343 229.469 288.184 229.422 288.184C229.136 288.168 228.913 287.913 228.929 287.611C228.945 287.325 229.215 287.102 229.501 287.118C229.581 287.118 237.669 287.722 247.442 286.578C247.728 286.546 247.998 286.752 248.03 287.039C248.062 287.325 247.855 287.595 247.569 287.627C242.754 288.2 238.337 288.343 235.063 288.343Z" fill="black"/>
<path d="M236.493 284.431C236.334 284.431 236.175 284.351 236.064 284.208C235.889 283.97 235.953 283.636 236.191 283.477L240.625 280.296C240.863 280.122 241.197 280.185 241.356 280.424C241.531 280.662 241.467 280.996 241.229 281.155L236.795 284.335C236.716 284.399 236.604 284.431 236.493 284.431Z" fill="black"/>
<path d="M247.077 172.357C247.077 172.357 238.829 235.74 240.593 273.491L243.167 273.745C244.55 273.888 245.948 273.92 247.331 273.84L249.762 273.713C249.762 273.713 259.583 209.551 264.493 200.026C264.493 200.026 277.842 257.844 278.351 271.662C278.351 271.662 284.278 272.266 286.646 271.408C287.917 258.066 288.283 237.458 288.346 228.791C288.521 203.985 286.153 192.727 284.866 187.384C283.674 182.47 282.387 178.495 281.465 175.792L278.351 166.887L247.077 172.357Z" fill="#019AFF"/>
<path d="M245.932 274.429C244.995 274.429 244.041 274.381 243.104 274.286L240.529 274.031C240.275 273.999 240.069 273.793 240.053 273.538C238.321 236.17 246.457 172.945 246.536 172.309C246.568 172.086 246.743 171.896 246.965 171.864L278.223 166.394C278.478 166.346 278.732 166.489 278.811 166.744L281.926 175.648C283.245 179.449 284.389 183.361 285.343 187.288C286.932 193.808 289.014 205.225 288.839 228.823C288.823 231.574 288.6 256.126 287.138 271.487C287.122 271.694 286.979 271.869 286.789 271.932C284.341 272.807 278.509 272.234 278.255 272.218C278.001 272.187 277.794 271.98 277.778 271.71C277.318 259.37 266.416 211.045 264.287 201.727C259.297 214.798 250.318 273.204 250.223 273.825C250.191 274.079 249.985 274.254 249.73 274.27L247.299 274.397C246.886 274.413 246.409 274.429 245.932 274.429ZM241.101 273.029L243.215 273.236C244.566 273.379 245.932 273.411 247.299 273.332L249.301 273.236C250.239 267.178 259.281 208.994 264.017 199.803C264.112 199.612 264.334 199.485 264.557 199.517C264.779 199.548 264.954 199.707 265.002 199.914C265.129 200.487 278.08 256.699 278.859 271.185C280.194 271.296 284.167 271.567 286.153 271.01C287.583 255.665 287.806 231.511 287.822 228.775C287.996 205.289 285.931 193.967 284.357 187.495C283.42 183.599 282.276 179.719 280.973 175.951L278.001 167.475L247.553 172.802C246.87 178.161 239.512 237.219 241.101 273.029Z" fill="black"/>
<path d="M264.35 201.504C264.096 201.504 263.874 201.329 263.826 201.075L263.063 196.829C262.745 195.684 261.824 194.826 260.648 194.571L259.36 194.301C259.074 194.237 258.9 193.967 258.947 193.681C259.011 193.395 259.281 193.22 259.567 193.267L260.854 193.538C262.412 193.856 263.651 195.017 264.08 196.559C264.08 196.575 264.08 196.591 264.096 196.607L264.859 200.868C264.906 201.155 264.716 201.425 264.43 201.473C264.414 201.488 264.382 201.504 264.35 201.504Z" fill="black"/>
<path d="M281.259 194.221C281.227 194.221 281.195 194.221 281.179 194.221C273.456 192.933 271.93 186.954 271.867 186.7C271.803 186.414 271.978 186.128 272.248 186.064C272.534 186 272.82 186.175 272.884 186.446C272.947 186.684 274.346 191.995 281.354 193.172C281.64 193.22 281.831 193.49 281.783 193.776C281.735 194.031 281.513 194.221 281.259 194.221Z" fill="black"/>
<path d="M246.711 189.212C246.505 189.212 246.314 189.101 246.234 188.894C246.123 188.624 246.234 188.322 246.505 188.195C250.414 186.493 250.318 182.868 250.318 182.82C250.303 182.534 250.541 182.279 250.827 182.279C251.113 182.263 251.367 182.502 251.367 182.788C251.367 182.836 251.479 187.177 246.918 189.165C246.854 189.197 246.775 189.212 246.711 189.212Z" fill="black"/>
<path d="M250.954 66.7547C250.89 66.7547 250.811 66.7388 250.747 66.707L248.634 65.8165C248.364 65.7052 248.237 65.4031 248.348 65.1327C248.459 64.8624 248.761 64.7352 249.031 64.8465L251.145 65.737C251.415 65.8483 251.542 66.1504 251.431 66.4208C251.367 66.6434 251.161 66.7547 250.954 66.7547Z" fill="black"/>
<path d="M243.58 63.6539C243.517 63.6539 243.437 63.638 243.374 63.6062L241.26 62.7157C240.99 62.6044 240.863 62.3023 240.974 62.0319C241.086 61.7616 241.387 61.6344 241.658 61.7457L243.771 62.6362C244.041 62.7475 244.168 63.0496 244.057 63.32C243.978 63.5426 243.787 63.6539 243.58 63.6539Z" fill="black"/>
<path d="M247.299 62.1273C247.235 62.1273 247.172 62.1114 247.092 62.0796C246.822 61.9683 246.695 61.6662 246.806 61.3959L247.68 59.281C247.792 59.0106 248.094 58.8834 248.364 58.9947C248.634 59.106 248.761 59.4082 248.65 59.6785L247.776 61.7934C247.712 62.0001 247.506 62.1273 247.299 62.1273Z" fill="black"/>
<path d="M244.248 69.5216C244.184 69.5216 244.121 69.5057 244.041 69.4739C243.771 69.3625 243.644 69.0604 243.755 68.7901L244.629 66.6752C244.741 66.4049 245.043 66.2776 245.313 66.389C245.583 66.5003 245.71 66.8024 245.599 67.0727L244.725 69.1876C244.645 69.4103 244.455 69.5216 244.248 69.5216Z" fill="black"/>
<path d="M189.344 269.388L189.249 265.063L184.72 264.125C184.529 263.123 184.243 262.153 183.893 261.231L187.214 257.955L185.021 254.25L180.651 255.744C180 254.997 179.285 254.297 178.522 253.661L179.793 249.114L176.091 247.03L173.039 250.561C172.118 250.243 171.164 250.004 170.179 249.845L169.067 245.249L164.84 245.345L163.918 249.972C162.949 250.179 161.995 250.449 161.089 250.815L157.895 247.412L154.288 249.654L155.75 254.138C155.019 254.806 154.335 255.538 153.716 256.317L149.282 255.013L147.248 258.813L150.696 261.946C150.394 262.884 150.156 263.87 149.997 264.872L145.516 266.017L145.611 270.342L150.14 271.28C150.331 272.282 150.617 273.252 150.967 274.174L147.645 277.45L149.838 281.155L154.208 279.66C154.86 280.408 155.575 281.107 156.338 281.743L155.066 286.291L158.769 288.374L161.82 284.844C162.742 285.162 163.695 285.401 164.681 285.56L165.793 290.155L170.02 290.06L170.942 285.433C171.911 285.226 172.865 284.956 173.77 284.59L176.965 287.993L180.572 285.751L179.11 281.266C179.841 280.599 180.524 279.867 181.144 279.088L185.578 280.392L187.612 276.591L184.163 273.459C184.465 272.521 184.704 271.535 184.863 270.533L189.344 269.388ZM167.684 278.849C161.677 278.977 156.703 274.095 156.56 267.941C156.433 261.787 161.185 256.699 167.191 256.571C173.198 256.444 178.172 261.326 178.315 267.48C178.458 273.618 173.691 278.722 167.684 278.849Z" fill="#019AFF" fill-opacity="0.47"/>
<path d="M221.396 246.172L221.333 242.976L217.996 242.276C217.853 241.544 217.646 240.829 217.392 240.145L219.839 237.728L218.218 234.993L214.992 236.106C214.516 235.55 213.991 235.041 213.419 234.564L214.357 231.208L211.623 229.666L209.367 232.274C208.683 232.035 207.984 231.86 207.253 231.749L206.427 228.362L203.312 228.426L202.645 231.844C201.93 231.988 201.23 232.194 200.563 232.465L198.211 229.952L195.541 231.606L196.622 234.913C196.082 235.406 195.573 235.947 195.128 236.52L191.855 235.55L190.361 238.348L192.903 240.654C192.681 241.354 192.506 242.069 192.395 242.817L189.09 243.659L189.153 246.856L192.49 247.555C192.633 248.287 192.84 249.002 193.094 249.686L190.647 252.103L192.268 254.838L195.494 253.725C195.97 254.282 196.495 254.79 197.067 255.267L196.129 258.623L198.863 260.165L201.119 257.557C201.803 257.796 202.502 257.971 203.233 258.082L204.059 261.469L207.174 261.405L207.841 257.987C208.556 257.843 209.256 257.637 209.923 257.366L212.275 259.879L214.945 258.225L213.864 254.918C214.404 254.425 214.913 253.884 215.358 253.312L218.631 254.282L220.125 251.483L217.583 249.177C217.805 248.477 217.98 247.762 218.091 247.015L221.396 246.172ZM205.426 253.137C200.992 253.232 197.337 249.638 197.226 245.106C197.131 240.574 200.643 236.822 205.06 236.726C209.494 236.631 213.149 240.225 213.26 244.757C213.355 249.273 209.859 253.041 205.426 253.137Z" fill="white"/>
<path d="M222.985 232.926C222.858 232.926 222.747 232.878 222.636 232.799C222.413 232.608 222.397 232.274 222.572 232.051C223.462 231.018 224.336 229.92 225.178 228.791C225.353 228.553 225.687 228.505 225.909 228.68C226.148 228.855 226.196 229.189 226.021 229.412C225.178 230.556 224.289 231.67 223.367 232.735C223.287 232.862 223.128 232.926 222.985 232.926ZM227.991 226.168C227.896 226.168 227.801 226.136 227.705 226.088C227.467 225.929 227.387 225.611 227.546 225.357C228.277 224.212 228.992 223.003 229.676 221.763C229.819 221.508 230.137 221.413 230.391 221.556C230.645 221.699 230.74 222.017 230.597 222.272C229.914 223.528 229.183 224.752 228.436 225.929C228.341 226.072 228.166 226.168 227.991 226.168ZM232.059 218.789C231.98 218.789 231.9 218.773 231.837 218.742C231.583 218.614 231.456 218.296 231.583 218.042C232.171 216.802 232.743 215.514 233.267 214.21C233.378 213.939 233.68 213.812 233.95 213.923C234.221 214.035 234.348 214.337 234.236 214.607C233.696 215.927 233.124 217.231 232.52 218.487C232.457 218.678 232.266 218.789 232.059 218.789ZM235.254 210.998C235.19 210.998 235.142 210.982 235.079 210.966C234.809 210.87 234.666 210.568 234.761 210.298C235.222 208.994 235.651 207.658 236.048 206.307C236.128 206.02 236.429 205.861 236.7 205.957C236.986 206.036 237.145 206.338 237.049 206.609C236.652 207.96 236.207 209.328 235.746 210.648C235.683 210.87 235.476 210.998 235.254 210.998ZM237.637 202.92C237.59 202.92 237.558 202.92 237.51 202.904C237.224 202.84 237.049 202.554 237.129 202.268C237.462 200.916 237.764 199.533 238.019 198.181C238.066 197.895 238.352 197.704 238.638 197.767C238.924 197.815 239.115 198.101 239.052 198.388C238.781 199.755 238.479 201.154 238.146 202.538C238.098 202.761 237.876 202.92 237.637 202.92ZM239.226 194.651C239.195 194.651 239.179 194.651 239.147 194.651C238.861 194.603 238.654 194.349 238.702 194.062C238.75 193.713 238.797 193.363 238.829 193.045C238.861 192.758 239.131 192.552 239.417 192.584C239.703 192.615 239.91 192.886 239.878 193.172C239.83 193.506 239.798 193.856 239.735 194.206C239.703 194.46 239.481 194.651 239.226 194.651Z" fill="#5479F7"/>
<path d="M137.697 281.632C136.648 281.632 135.504 281.584 134.281 281.489C133.995 281.473 133.772 281.219 133.804 280.917C133.82 280.63 134.09 280.408 134.376 280.44C135.886 280.551 137.284 280.599 138.524 280.567C138.81 280.551 139.048 280.789 139.064 281.076C139.064 281.362 138.841 281.6 138.555 281.616C138.269 281.632 137.999 281.632 137.697 281.632ZM142.703 281.092C142.481 281.092 142.258 280.948 142.194 280.71C142.115 280.424 142.274 280.137 142.56 280.058C142.767 279.994 142.957 279.931 143.148 279.867C143.418 279.756 143.72 279.899 143.831 280.169C143.943 280.44 143.8 280.742 143.529 280.853C143.323 280.933 143.1 281.012 142.862 281.076C142.798 281.076 142.751 281.092 142.703 281.092ZM130.149 281.028C130.117 281.028 130.101 281.028 130.069 281.028C128.735 280.837 127.32 280.599 125.89 280.328C125.604 280.281 125.413 279.994 125.477 279.708C125.525 279.422 125.811 279.231 126.097 279.295C127.511 279.565 128.909 279.788 130.228 279.978C130.514 280.026 130.721 280.281 130.673 280.567C130.626 280.837 130.403 281.028 130.149 281.028ZM121.87 279.47C121.838 279.47 121.79 279.47 121.758 279.454C120.392 279.136 119.025 278.802 117.658 278.436C117.372 278.356 117.213 278.07 117.293 277.784C117.372 277.498 117.658 277.339 117.944 277.418C119.295 277.784 120.662 278.118 122.013 278.436C122.299 278.5 122.473 278.786 122.41 279.072C122.315 279.311 122.108 279.47 121.87 279.47ZM113.733 277.291C113.686 277.291 113.638 277.291 113.574 277.275C112.208 276.862 110.857 276.416 109.554 275.955C109.284 275.86 109.141 275.558 109.236 275.287C109.331 275.017 109.633 274.874 109.904 274.969C111.191 275.415 112.541 275.86 113.892 276.273C114.162 276.353 114.321 276.655 114.242 276.925C114.162 277.148 113.956 277.291 113.733 277.291ZM105.772 274.524C105.708 274.524 105.645 274.508 105.581 274.492C104.23 273.968 102.927 273.411 101.672 272.855C101.402 272.743 101.29 272.425 101.402 272.155C101.513 271.885 101.831 271.773 102.101 271.885C103.34 272.441 104.628 272.982 105.963 273.506C106.233 273.618 106.36 273.92 106.264 274.19C106.169 274.397 105.978 274.524 105.772 274.524ZM98.0964 271.058C98.0169 271.058 97.9374 271.042 97.858 270.994C96.539 270.31 95.2836 269.595 94.1553 268.895C93.917 268.736 93.8375 268.418 93.9964 268.164C94.1553 267.925 94.4732 267.846 94.7274 268.005C95.8398 268.704 97.0475 269.388 98.3506 270.072C98.6049 270.199 98.7161 270.517 98.5731 270.787C98.4619 270.962 98.2871 271.058 98.0964 271.058ZM90.993 266.558C90.8817 266.558 90.7546 266.526 90.6593 266.446C89.4198 265.444 88.3868 264.443 87.5764 263.441C87.3857 263.218 87.4333 262.884 87.6558 262.693C87.8783 262.503 88.212 262.55 88.4027 262.773C89.1655 263.711 90.1507 264.681 91.3426 265.619C91.5651 265.794 91.5969 266.128 91.422 266.367C91.2949 266.478 91.136 266.558 90.993 266.558Z" fill="#5479F7"/>
</svg>
