<svg width="125" height="23" viewBox="0 0 125 23" fill="none" xmlns="http://www.w3.org/2000/svg">
<g clip-path="url(#clip0_87_269)">
<path d="M24.3212 9.61026C23.4024 9.05948 22.4273 8.60366 21.4147 8.22381C20.9084 8.03388 20.7021 7.42612 20.9646 6.9703L21.2271 6.51447L23.7211 2.12719L24.565 0.645771C24.6962 0.41786 24.9213 0.284912 25.1838 0.284912H31.3907C31.6532 0.284912 31.8782 0.41786 32.0095 0.645771L39.5852 13.9406C39.7352 14.2065 39.604 14.5673 39.304 14.6623C38.3851 14.9472 37.41 15.0801 36.3974 15.0801C35.7786 15.0801 35.1785 14.9092 34.6535 14.6053C34.1284 14.3014 33.6784 13.8646 33.3784 13.3138L29.0092 5.65981C28.6904 5.10902 27.9028 5.10902 27.584 5.65981L26.5527 7.4641L25.5026 9.30638C25.2588 9.70523 24.7337 9.83817 24.3212 9.61026Z" fill="white"/>
<path d="M43.0916 21.6895C41.7415 22.2403 40.2976 22.6201 38.8162 22.829C38.0661 22.924 37.2973 22.981 36.5285 22.981H36.3034C34.822 22.981 33.3781 22.7911 32.0093 22.4302C28.8027 21.6135 25.9336 19.9232 23.6647 17.6251C23.0459 16.9983 22.3895 16.4475 21.677 15.9727L21.2269 16.7704V16.7894L20.6831 17.739V17.758C18.7892 20.7399 15.5639 22.7531 11.851 22.962C11.6447 22.981 11.4384 22.981 11.2322 22.981C8.26938 22.981 5.58786 21.8224 3.58141 19.9232C2.23128 18.6697 1.19992 17.0933 0.599863 15.308C-0.0752042 13.2948 -0.225219 11.0347 0.356089 8.71757C1.38744 4.59618 4.65027 1.40543 8.73818 0.531769C12.451 -0.265919 15.9389 0.778672 18.4704 2.94382L18.6204 3.05778C18.9392 3.32368 18.958 3.79849 18.6579 4.10237L16.0327 6.74234C15.7701 7.00823 15.3576 7.02723 15.0763 6.78032C14.0262 5.90667 12.6761 5.39387 11.2134 5.39387C7.91309 5.39387 5.23158 8.01484 5.08156 11.3195C5.08156 11.4145 5.08156 11.5095 5.08156 11.6044C5.08156 13.4087 5.85039 15.0421 7.06926 16.1816C8.15687 17.2072 9.61952 17.815 11.2322 17.815C13.4449 17.815 15.3951 16.6185 16.4827 14.8332L16.6327 14.5673L16.9327 14.0165H16.8765C15.8639 13.8266 14.8325 13.7506 13.8199 13.8076C12.5448 13.8835 11.2697 14.1304 10.0508 14.5863C9.84454 14.6622 9.61952 14.6432 9.432 14.5293C8.4569 13.9215 7.81934 12.839 7.81934 11.6044C7.81934 11.0157 7.96935 10.4459 8.23188 9.95208C8.32564 9.80014 8.4569 9.66719 8.62567 9.61022C10.0508 9.11641 11.5135 8.81253 12.9949 8.67958C13.3699 8.64159 13.7637 8.6226 14.1387 8.6226C14.9826 8.60361 15.8264 8.64159 16.6702 8.75555C17.4015 8.85051 18.1141 8.98346 18.8267 9.15439C20.8894 9.66719 22.8396 10.5409 24.5648 11.7184C25.5211 12.3641 26.4212 13.1048 27.2463 13.9595C29.4965 16.2386 32.5531 17.6631 35.9471 17.777C36.0972 17.777 36.2472 17.796 36.3972 17.796C37.9161 17.796 39.36 17.5301 40.7101 17.0553C41.0289 16.9413 41.3852 17.0743 41.5727 17.3782L43.4291 20.6449C43.6542 21.0437 43.4854 21.5375 43.0916 21.6895Z" fill="white"/>
<path d="M58.7871 4.53927V5.14703C58.7871 7.71103 56.9494 9.59129 54.4179 9.59129C51.8489 9.59129 49.9175 7.65405 49.9175 5.09006C49.9175 2.52606 51.8677 0.569824 54.4554 0.569824C55.9556 0.569824 57.287 1.23456 58.037 2.27916L56.7432 3.32375C56.2369 2.65901 55.4305 2.24117 54.4929 2.24117C52.899 2.24117 51.6802 3.45669 51.6802 5.09006C51.6802 6.72342 52.8803 7.93894 54.4742 7.93894C55.7118 7.93894 56.7057 7.19823 56.9682 6.11565H54.6429V4.55826H58.7871V4.53927Z" fill="white"/>
<path d="M61.5437 0.341797H59.931V9.43924H61.5437V0.341797Z" fill="white"/>
<path d="M62.7063 6.21051C62.7063 4.29226 64.1689 2.82983 66.1191 2.82983C68.0693 2.82983 69.532 4.27327 69.532 6.21051C69.532 8.14775 68.0693 9.59119 66.1191 9.59119C64.1877 9.59119 62.7063 8.12876 62.7063 6.21051ZM67.8818 6.21051C67.8818 5.20391 67.1505 4.42521 66.1379 4.42521C65.144 4.42521 64.394 5.20391 64.394 6.21051C64.394 7.21712 65.144 7.99581 66.1379 7.99581C67.1317 7.99581 67.8818 7.21712 67.8818 6.21051Z" fill="white"/>
<path d="M77.4828 6.2105C77.4828 8.12875 76.1701 9.59118 74.3887 9.59118C73.5449 9.59118 72.8323 9.24931 72.326 8.66054V9.43924H70.6946V0.341797H72.3072V3.76046C72.8135 3.17169 73.5261 2.82982 74.3699 2.82982C76.1701 2.84882 77.4828 4.29225 77.4828 6.2105ZM75.8138 6.2105C75.8138 5.20389 75.0825 4.4252 74.0699 4.4252C73.0761 4.4252 72.326 5.20389 72.326 6.2105C72.326 7.21711 73.0761 7.9958 74.0699 7.9958C75.0825 7.9958 75.8138 7.21711 75.8138 6.2105Z" fill="white"/>
<path d="M85.1147 3.00082V9.4393H83.5021V8.6606C82.9958 9.23038 82.2832 9.59124 81.4393 9.59124C79.6767 9.59124 78.3265 8.1478 78.3265 6.21056C78.3265 4.27332 79.6579 2.84888 81.4206 2.84888C82.2644 2.84888 82.977 3.20974 83.4833 3.77951V3.00082H85.1147ZM83.5021 6.21056C83.5021 5.20396 82.752 4.42526 81.7394 4.42526C80.7455 4.42526 79.9955 5.20396 79.9955 6.21056C79.9955 7.21717 80.7455 7.99586 81.7394 7.99586C82.752 7.99586 83.5021 7.21717 83.5021 6.21056Z" fill="white"/>
<path d="M88.2838 0.341797H86.6711V9.43924H88.2838V0.341797Z" fill="white"/>
<path d="M98.2036 7.74893H94.5094L93.8906 9.43927H92.0342L95.3533 0.72168H97.3785L100.698 9.43927H98.8224L98.2036 7.74893ZM97.6035 6.13456L96.3471 2.63993L95.072 6.13456H97.6035Z" fill="white"/>
<path d="M103.21 0.341797H101.598V9.43924H103.21V0.341797Z" fill="white"/>
<path d="M106.379 0.341797H104.767V9.43924H106.379V0.341797Z" fill="white"/>
<path d="M107.729 1.0256C107.729 0.436829 108.18 0 108.761 0C109.342 0 109.792 0.436829 109.792 1.0256C109.792 1.61437 109.342 2.0512 108.761 2.0512C108.18 2.0512 107.729 1.59538 107.729 1.0256ZM107.936 3.00083H109.548V9.43931H107.936V3.00083Z" fill="white"/>
<path d="M117.405 6.79933H112.474C112.699 7.61601 113.374 8.12881 114.293 8.12881C115.061 8.12881 115.699 7.76795 116.037 7.33112L117.124 8.29974C116.468 9.09743 115.437 9.59124 114.236 9.59124C112.211 9.59124 110.711 8.12881 110.711 6.19157C110.711 4.29231 112.174 2.84888 114.086 2.84888C115.999 2.84888 117.424 4.29231 117.424 6.22955C117.424 6.40049 117.424 6.6284 117.405 6.79933ZM112.455 5.6028H115.699C115.493 4.78612 114.855 4.27332 114.086 4.27332C113.28 4.27332 112.661 4.80511 112.455 5.6028Z" fill="white"/>
<path d="M125 0.341797V9.43924H123.387V8.66054C122.881 9.23032 122.168 9.59118 121.325 9.59118C119.562 9.59118 118.212 8.14774 118.212 6.2105C118.212 4.27326 119.543 2.84882 121.306 2.84882C122.15 2.84882 122.862 3.20967 123.369 3.77945V0.360789H125V0.341797ZM123.387 6.2105C123.387 5.20389 122.637 4.4252 121.625 4.4252C120.631 4.4252 119.881 5.20389 119.881 6.2105C119.881 7.21711 120.631 7.9958 121.625 7.9958C122.637 7.9958 123.387 7.21711 123.387 6.2105Z" fill="white"/>
<path d="M49.7675 20.0561L50.6488 18.7266C51.3426 19.3914 52.374 19.8662 53.3491 19.8662C54.2117 19.8662 54.9242 19.4673 54.9242 18.8596C54.9242 18.1189 53.9491 17.891 53.0678 17.682C51.4176 17.2832 50.0675 16.5045 50.0675 14.9661C50.0675 13.4087 51.3989 12.4021 53.3303 12.4021C54.6054 12.4021 55.6743 12.8579 56.3119 13.4847L55.5055 14.7952C55.018 14.3203 54.1554 13.9405 53.2928 13.9405C52.4302 13.9405 51.8302 14.3393 51.8302 14.8711C51.8302 15.5359 52.7303 15.8398 53.5178 16.0107C54.3242 16.1816 56.6681 16.7704 56.6681 18.7646C56.6681 20.322 55.2055 21.4046 53.3116 21.4046C52.0177 21.4236 50.6488 20.8728 49.7675 20.0561Z" fill="white"/>
<path d="M57.4182 18.043C57.4182 16.1248 58.8809 14.6624 60.8311 14.6624C62.7812 14.6624 64.2439 16.1058 64.2439 18.043C64.2439 19.9803 62.7812 21.4237 60.8311 21.4237C58.8996 21.4237 57.4182 19.9803 57.4182 18.043ZM62.5937 18.043C62.5937 17.0364 61.8624 16.2577 60.8498 16.2577C59.856 16.2577 59.1059 17.0364 59.1059 18.043C59.1059 19.0496 59.856 19.8283 60.8498 19.8283C61.8437 19.8283 62.5937 19.0686 62.5937 18.043Z" fill="white"/>
<path d="M67.038 12.1743H65.4253V21.2718H67.038V12.1743Z" fill="white"/>
<path d="M68.4818 18.7077V14.8333H70.0945V18.4798C70.0945 19.2965 70.6383 19.8283 71.4446 19.8283C72.2509 19.8283 72.7947 19.2965 72.7947 18.4798V14.8333H74.4074V18.7077C74.4074 20.3411 73.226 21.4237 71.4446 21.4237C69.6632 21.4237 68.4818 20.3601 68.4818 18.7077Z" fill="white"/>
<path d="M78.0454 16.3337V19.0117C78.0454 19.5625 78.3454 19.8284 78.9267 19.8284C79.2455 19.8284 79.5268 19.7334 79.7705 19.6194V21.1388C79.4142 21.3288 79.058 21.4237 78.5892 21.4237C77.1265 21.4237 76.4514 20.5691 76.4514 19.2776V16.3337H75.4388V14.8333H76.4514V13.2H78.0641V14.8333H79.7705V16.3337H78.0454Z" fill="white"/>
<path d="M80.7456 12.8579C80.7456 12.2691 81.1957 11.8323 81.777 11.8323C82.3583 11.8323 82.8083 12.2691 82.8083 12.8579C82.8083 13.4466 82.3583 13.8835 81.777 13.8835C81.1957 13.8835 80.7456 13.4466 80.7456 12.8579ZM80.9519 14.8331H82.5645V21.2716H80.9519V14.8331Z" fill="white"/>
<path d="M83.7272 18.043C83.7272 16.1248 85.1898 14.6624 87.14 14.6624C89.0902 14.6624 90.5529 16.1058 90.5529 18.043C90.5529 19.9803 89.0902 21.4237 87.14 21.4237C85.2086 21.4237 83.7272 19.9803 83.7272 18.043ZM88.9027 18.043C88.9027 17.0364 88.1714 16.2577 87.1588 16.2577C86.1649 16.2577 85.4148 17.0364 85.4148 18.043C85.4148 19.0496 86.1649 19.8283 87.1588 19.8283C88.1526 19.8283 88.9027 19.0686 88.9027 18.043Z" fill="white"/>
<path d="M97.8473 17.1882V21.2716H96.2346V17.72C96.2346 16.8463 95.6908 16.2765 94.847 16.2765C93.9657 16.2765 93.3656 16.8653 93.3656 17.739V21.2716H91.7529V14.8331H93.3656V15.5548C93.8719 14.985 94.5657 14.6812 95.3908 14.6812C96.8534 14.6812 97.8473 15.6688 97.8473 17.1882Z" fill="white"/>
<path d="M98.7849 20.4359L99.5725 19.3533C100.06 19.7902 100.679 20.075 101.429 20.075C102.085 20.075 102.554 19.8661 102.554 19.4673C102.554 19.0304 102.01 18.8785 101.316 18.7266C100.304 18.4987 98.9912 18.1758 98.9912 16.7134C98.9912 15.3459 100.173 14.6812 101.579 14.6812C102.667 14.6812 103.473 15.08 104.054 15.5358L103.267 16.6374C102.798 16.2765 102.273 16.0486 101.616 16.0486C101.073 16.0486 100.623 16.2196 100.623 16.5994C100.623 17.0362 101.166 17.1692 101.86 17.3211C102.873 17.549 104.185 17.8719 104.185 19.3343C104.185 20.7018 102.985 21.4425 101.466 21.4425C100.285 21.4235 99.4037 20.9677 98.7849 20.4359Z" fill="white"/>
<path d="M46.1109 15.365C47.1235 15.365 47.9486 16.2006 47.9486 17.2262C47.9486 18.2518 47.1235 19.0875 46.1109 19.0875C45.0983 19.0875 44.2732 18.2518 44.2732 17.2262C44.2919 16.2006 45.0983 15.365 46.1109 15.365ZM46.1109 14.9851C44.8732 14.9851 43.8794 15.9917 43.8794 17.2452C43.8794 18.4987 44.8732 19.5053 46.1109 19.5053C47.3485 19.5053 48.3423 18.4987 48.3423 17.2452C48.3423 15.9917 47.3485 14.9851 46.1109 14.9851Z" fill="white"/>
<path d="M46.0922 17.5681H45.8109V18.2708H45.3608V16.1816H46.1859C46.5985 16.1816 46.8985 16.4665 46.8985 16.8654C46.8985 17.1313 46.7485 17.3592 46.5235 17.4731L46.9735 18.2708H46.5047L46.0922 17.5681ZM45.8109 17.1503H46.1672C46.3547 17.1503 46.4672 17.0363 46.4672 16.8844C46.4672 16.7324 46.3547 16.6185 46.1672 16.6185H45.8109V17.1503Z" fill="white"/>
</g>
<defs>
<clipPath id="clip0_87_269">
<rect width="125" height="23" fill="white"/>
</clipPath>
</defs>
</svg>
