<svg width="12" height="21" viewBox="0 0 12 21" fill="none" xmlns="http://www.w3.org/2000/svg">
<path d="M9.84654 0.867188H2.15347C1.58233 0.867188 1.03459 1.09407 0.630735 1.49792C0.226882 1.90178 0 2.44952 0 3.02065V18.1395C0 18.7106 0.226882 19.2583 0.630735 19.6622C1.03459 20.066 1.58233 20.2929 2.15347 20.2929H9.84654C10.4177 20.2929 10.9654 20.066 11.3693 19.6622C11.7731 19.2583 12 18.7106 12 18.1395V3.02065C12 2.44952 11.7731 1.90178 11.3693 1.49792C10.9654 1.09407 10.4177 0.867188 9.84654 0.867188ZM10.396 18.1395C10.396 18.2852 10.3381 18.425 10.2351 18.528C10.132 18.6311 9.99227 18.689 9.84654 18.689H2.15347C2.00773 18.689 1.86796 18.6311 1.76491 18.528C1.66185 18.425 1.60396 18.2852 1.60396 18.1395V3.02065C1.60396 2.87492 1.66185 2.73515 1.76491 2.63209C1.86796 2.52904 2.00773 2.47115 2.15347 2.47115H9.84654C9.99227 2.47115 10.132 2.52904 10.2351 2.63209C10.3381 2.73515 10.396 2.87492 10.396 3.02065V18.1395Z" fill="black"/>
<path d="M6.74245 16.4612H5.2573C5.0446 16.4612 4.84062 16.5457 4.69022 16.6961C4.53982 16.8465 4.45532 17.0505 4.45532 17.2632C4.45532 17.4759 4.53982 17.6798 4.69022 17.8302C4.84062 17.9806 5.0446 18.0651 5.2573 18.0651H6.74245C6.95515 18.0651 7.15914 17.9806 7.30954 17.8302C7.45994 17.6798 7.54443 17.4759 7.54443 17.2632C7.54443 17.0505 7.45994 16.8465 7.30954 16.6961C7.15914 16.5457 6.95515 16.4612 6.74245 16.4612Z" fill="black"/>
</svg>
